<svg width="270" height="270" viewBox="0 0 270 270" fill="none" xmlns="http://www.w3.org/2000/svg">
<path d="M236.312 142.25V142.47L236.474 142.619L253.909 158.631L253.917 158.639C257.048 161.393 259.128 165.154 259.799 169.279C260.471 173.403 259.692 177.633 257.597 181.245L257.595 181.248L236.564 218.27C236.563 218.27 236.563 218.271 236.563 218.271C234.989 221.006 232.726 223.277 230.001 224.858C227.276 226.438 224.185 227.272 221.037 227.275L221.034 227.275C219.085 227.29 217.146 226.986 215.294 226.376C215.293 226.375 215.292 226.375 215.291 226.375L192.971 218.786L192.739 218.707L192.534 218.843C188.651 221.411 184.602 223.719 180.415 225.752L180.192 225.86L180.143 226.103L175.438 249.428L175.438 249.429C174.617 253.576 172.369 257.3 169.087 259.951C165.806 262.602 161.7 264.009 157.489 263.928H157.479L113.938 263.928L113.928 263.928C109.717 264.009 105.611 262.602 102.329 259.951C99.0476 257.3 96.7994 253.576 95.9785 249.429L95.9782 249.428L91.2735 226.103L91.2247 225.861L91.003 225.752C86.8457 223.72 82.8279 221.412 78.9762 218.844L78.7715 218.707L78.5385 218.786L56.1259 226.375C56.1251 226.375 56.1244 226.375 56.1236 226.375C54.2713 226.986 52.3322 227.29 50.3825 227.275H50.3791C47.2318 227.272 44.1405 226.438 41.4154 224.858C38.6903 223.277 36.4271 221.005 34.8531 218.27L34.8507 218.266L13.0801 181.242L13.0777 181.238C10.8866 177.591 10.0539 173.283 10.7277 169.079C11.4014 164.874 13.5379 161.045 16.7576 158.272L16.764 158.266L34.199 142.716L34.3662 142.567V142.343V135.216V128.181V127.962L34.2044 127.813L16.7695 111.8L16.7695 111.8L16.7615 111.793C13.6303 109.039 11.5507 105.277 10.8792 101.153C10.2079 97.0294 10.9862 92.7999 13.0807 89.1888C13.081 89.1883 13.0813 89.1878 13.0816 89.1872L34.8507 52.1662L34.853 52.1621C36.4271 49.4266 38.6903 47.1547 41.4154 45.5742C44.1405 43.9937 47.2318 43.16 50.3791 43.1568L50.3959 43.1568L50.4127 43.1556C52.336 43.0244 54.2678 43.2048 56.1339 43.6901L78.0672 51.6423L78.3037 51.728L78.5135 51.5893C82.3969 49.0204 86.4455 46.7123 90.6327 44.6801L90.8556 44.572L90.9045 44.3292L95.6092 21.0043L95.6095 21.0025C96.4304 16.8558 98.6786 13.1313 101.96 10.4807C105.242 7.83017 109.348 6.42233 113.559 6.50331V6.5034H113.569L156.741 6.50349L156.751 6.50331C160.962 6.42233 165.068 7.83017 168.349 10.4807C171.631 13.1313 173.879 16.8558 174.7 21.0025L174.7 21.0043L179.405 44.3292L179.454 44.5711L179.676 44.6795C183.833 46.7121 187.851 49.0201 191.702 51.5883L191.907 51.7247L192.14 51.6458L214.553 44.0572C214.553 44.057 214.554 44.0568 214.555 44.0566C216.407 43.4457 218.346 43.1418 220.296 43.1568L220.299 43.1568C223.447 43.16 226.538 43.9937 229.263 45.5742C231.988 47.1547 234.252 49.4266 235.826 52.1621L235.828 52.1662L257.598 89.1898L257.604 89.1981C259.826 92.8149 260.703 97.1037 260.078 101.307C259.454 105.509 257.37 109.354 254.194 112.164C254.193 112.164 254.193 112.164 254.193 112.164L236.483 127.713L236.312 127.862V128.089V135.216V142.25Z" stroke="#252F3F" stroke-linecap="square"/>
<path d="M188.616 134.601C188.616 163.919 164.422 187.701 134.558 187.701C104.694 187.701 80.5 163.919 80.5 134.601C80.5 105.282 104.694 81.5 134.558 81.5C164.422 81.5 188.616 105.282 188.616 134.601Z" stroke="#252F3F" stroke-linecap="square"/>
</svg>
