<svg width="185" height="55" viewBox="0 0 185 55" fill="none" xmlns="http://www.w3.org/2000/svg">
<path d="M177.922 0.571289H7.55114C3.78742 0.571289 0.736328 3.59337 0.736328 7.32129V47.8213C0.736328 51.5492 3.78742 54.5713 7.55114 54.5713H177.922C181.685 54.5713 184.736 51.5492 184.736 47.8213V7.32129C184.736 3.59337 181.685 0.571289 177.922 0.571289Z" fill="black"/>
<path d="M177.922 1.65129C179.44 1.65129 180.896 2.24866 181.969 3.31199C183.043 4.37532 183.646 5.81751 183.646 7.32129V47.8213C183.646 49.3251 183.043 50.7673 181.969 51.8306C180.896 52.8939 179.44 53.4913 177.922 53.4913H7.55114C6.03293 53.4913 4.57689 52.8939 3.50335 51.8306C2.42981 50.7673 1.8267 49.3251 1.8267 47.8213V7.32129C1.8267 5.81751 2.42981 4.37532 3.50335 3.31199C4.57689 2.24866 6.03293 1.65129 7.55114 1.65129H177.922ZM177.922 0.571289H7.55114C5.74374 0.571289 4.01037 1.28245 2.73234 2.54832C1.45432 3.81419 0.736328 5.53108 0.736328 7.32129V47.8213C0.736328 49.6115 1.45432 51.3284 2.73234 52.5943C4.01037 53.8601 5.74374 54.5713 7.55114 54.5713H177.922C179.729 54.5713 181.462 53.8601 182.74 52.5943C184.018 51.3284 184.736 49.6115 184.736 47.8213V7.32129C184.736 5.53108 184.018 3.81419 182.74 2.54832C181.462 1.28245 179.729 0.571289 177.922 0.571289Z" fill="#A6A6A6"/>
<path d="M44.5046 26.6438C44.4669 22.4981 47.9317 20.4812 48.0901 20.3873C46.1278 17.5536 43.0864 17.1664 42.0177 17.1355C39.4632 16.8693 36.9854 18.6495 35.6842 18.6495C34.357 18.6495 32.3532 17.1613 30.1935 17.205C27.4145 17.2475 24.8146 18.8412 23.3887 21.316C20.446 26.3621 22.6407 33.7775 25.46 37.8564C26.8703 39.854 28.5183 42.0844 30.6753 42.0059C32.7856 41.9198 33.5739 40.6733 36.1205 40.6733C38.6438 40.6733 39.384 42.0059 41.5839 41.9558C43.8487 41.9198 45.2746 39.9492 46.6356 37.9335C48.2654 35.644 48.9199 33.3891 48.9459 33.2733C48.8927 33.2553 44.5474 31.6127 44.5046 26.6438Z" fill="white"/>
<path d="M40.3486 14.4525C41.4836 13.0466 42.2602 11.1339 42.0446 9.19287C40.4019 9.2649 38.3474 10.3184 37.1644 11.6934C36.1176 12.9051 35.1826 14.8911 35.4242 16.7588C37.2695 16.8952 39.1643 15.8366 40.3486 14.4525Z" fill="white"/>
<path d="M75.0443 41.7195H72.0951L70.4796 36.6914H64.8643L63.3254 41.7195H60.4541L66.0175 24.6016H69.4537L75.0443 41.7195ZM69.9926 34.5819L68.5316 30.112C68.3771 29.6554 68.0875 28.5801 67.6603 26.8873H67.6083C67.4382 27.6153 67.1642 28.6907 66.7876 30.112L65.3526 34.5819H69.9926Z" fill="white"/>
<path d="M89.3513 35.3958C89.3513 37.495 88.7786 39.1543 87.6332 40.3724C86.6073 41.4568 85.3333 41.9983 83.8126 41.9983C82.1711 41.9983 80.992 41.4143 80.2738 40.2464H80.2219V46.7486H77.4532V33.4393C77.4532 32.1196 77.4181 30.7651 77.3506 29.376H79.7855L79.9401 31.3324H79.992C80.9154 29.8583 82.3166 29.1226 84.197 29.1226C85.6671 29.1226 86.8943 29.6975 87.8761 30.8488C88.8604 32.0013 89.3513 33.5165 89.3513 35.3958ZM86.5307 35.4961C86.5307 34.2947 86.258 33.3043 85.7099 32.5248C85.1113 31.7119 84.3074 31.3054 83.2997 31.3054C82.6166 31.3054 81.9958 31.5318 81.4413 31.9781C80.8855 32.4283 80.5219 33.0162 80.3517 33.7442C80.266 34.0838 80.2232 34.3616 80.2232 34.5803V36.6383C80.2232 37.5362 80.5011 38.2938 81.0569 38.9125C81.6127 39.5312 82.3348 39.8399 83.223 39.8399C84.2658 39.8399 85.0775 39.4412 85.658 38.6462C86.2398 37.85 86.5307 36.8004 86.5307 35.4961Z" fill="white"/>
<path d="M103.684 35.3958C103.684 37.495 103.111 39.1543 101.965 40.3724C100.94 41.4568 99.666 41.9983 98.1453 41.9983C96.5038 41.9983 95.3247 41.4143 94.6078 40.2464H94.5559V46.7486H91.7872V33.4393C91.7872 32.1196 91.7521 30.7651 91.6846 29.376H94.1195L94.2741 31.3324H94.326C95.248 29.8583 96.6493 29.1226 98.531 29.1226C99.9998 29.1226 101.227 29.6975 102.211 30.8488C103.192 32.0013 103.684 33.5165 103.684 35.3958ZM100.863 35.4961C100.863 34.2947 100.589 33.3043 100.041 32.5248C99.4426 31.7119 98.6414 31.3054 97.6323 31.3054C96.948 31.3054 96.3285 31.5318 95.7727 31.9781C95.2169 32.4283 94.8545 33.0162 94.6844 33.7442C94.6 34.0838 94.5559 34.3616 94.5559 34.5803V36.6383C94.5559 37.5362 94.8338 38.2938 95.387 38.9125C95.9428 39.5299 96.6649 39.8399 97.5557 39.8399C98.5985 39.8399 99.4102 39.4412 99.9907 38.6462C100.572 37.85 100.863 36.8004 100.863 35.4961Z" fill="white"/>
<path d="M119.71 36.9189C119.71 38.375 119.199 39.5597 118.175 40.4742C117.049 41.4737 115.481 41.9727 113.467 41.9727C111.608 41.9727 110.117 41.6177 108.988 40.9064L109.63 38.6207C110.845 39.3487 112.179 39.714 113.632 39.714C114.675 39.714 115.487 39.4799 116.07 39.0143C116.65 38.5486 116.94 37.9235 116.94 37.144C116.94 36.4494 116.701 35.8642 116.222 35.3895C115.745 34.9149 114.949 34.4737 113.837 34.0659C110.812 32.9481 109.3 31.3107 109.3 29.1574C109.3 27.7502 109.83 26.5964 110.891 25.6986C111.948 24.7995 113.358 24.3506 115.122 24.3506C116.694 24.3506 118.001 24.622 119.044 25.1635L118.351 27.3991C117.377 26.8743 116.276 26.6119 115.044 26.6119C114.07 26.6119 113.309 26.8498 112.763 27.3232C112.302 27.7464 112.071 28.2622 112.071 28.8732C112.071 29.5498 112.335 30.1093 112.865 30.5492C113.326 30.9557 114.163 31.3956 115.379 31.8702C116.866 32.4632 117.958 33.1565 118.661 33.9514C119.361 34.7438 119.71 35.7355 119.71 36.9189Z" fill="white"/>
<path d="M128.864 31.4344H125.812V37.4272C125.812 38.9514 126.349 39.7129 127.427 39.7129C127.922 39.7129 128.333 39.6705 128.657 39.5856L128.734 41.6681C128.188 41.87 127.47 41.9716 126.581 41.9716C125.487 41.9716 124.633 41.6411 124.016 40.9812C123.402 40.32 123.092 39.2113 123.092 37.6536V31.4318H121.274V29.3737H123.092V27.1137L125.812 26.3008V29.3737H128.864V31.4344Z" fill="white"/>
<path d="M142.634 35.4461C142.634 37.3434 142.086 38.9011 140.992 40.1192C139.845 41.3734 138.323 41.9985 136.426 41.9985C134.598 41.9985 133.142 41.3978 132.056 40.1964C130.971 38.995 130.428 37.4785 130.428 35.6507C130.428 33.7379 130.986 32.1712 132.107 30.9531C133.225 29.7337 134.734 29.124 136.631 29.124C138.46 29.124 139.931 29.7247 141.042 30.9274C142.104 32.0941 142.634 33.6003 142.634 35.4461ZM139.761 35.5349C139.761 34.3965 139.516 33.4202 139.018 32.606C138.438 31.6207 137.608 31.1293 136.533 31.1293C135.42 31.1293 134.574 31.622 133.994 32.606C133.496 33.4215 133.251 34.4132 133.251 35.5863C133.251 36.7247 133.496 37.701 133.994 38.5139C134.592 39.4992 135.429 39.9906 136.508 39.9906C137.565 39.9906 138.395 39.4889 138.994 38.4882C139.504 37.6585 139.761 36.672 139.761 35.5349Z" fill="white"/>
<path d="M151.633 31.7877C151.359 31.7376 151.067 31.7119 150.76 31.7119C149.786 31.7119 149.033 32.0759 148.503 32.8052C148.042 33.4483 147.811 34.2613 147.811 35.2427V41.7192H145.044L145.07 33.2631C145.07 31.8405 145.035 30.5452 144.966 29.3772H147.377L147.479 31.7389H147.555C147.848 30.9272 148.309 30.2738 148.94 29.7837C149.556 29.3425 150.223 29.1226 150.941 29.1226C151.197 29.1226 151.428 29.1406 151.633 29.1727V31.7877Z" fill="white"/>
<path d="M164.015 34.9638C164.015 35.4552 163.983 35.8693 163.914 36.2076H155.608C155.64 37.427 156.042 38.3596 156.813 39.0027C157.513 39.5777 158.418 39.8658 159.53 39.8658C160.76 39.8658 161.882 39.6716 162.891 39.2819L163.324 41.1856C162.145 41.695 160.753 41.9483 159.147 41.9483C157.214 41.9483 155.697 41.385 154.594 40.2594C153.492 39.1339 152.94 37.6226 152.94 35.7266C152.94 33.8653 153.453 32.3153 154.481 31.0792C155.556 29.7595 157.009 29.0996 158.838 29.0996C160.634 29.0996 161.993 29.7595 162.917 31.0792C163.648 32.1275 164.015 33.4241 164.015 34.9638ZM161.375 34.2525C161.393 33.4395 161.213 32.7372 160.837 32.1443C160.358 31.3815 159.622 31.0007 158.631 31.0007C157.726 31.0007 156.99 31.3725 156.427 32.1185C155.966 32.7115 155.692 33.4228 155.608 34.2512H161.375V34.2525Z" fill="white"/>
<path d="M69.0775 14.0705C69.0775 15.5844 68.6191 16.7241 67.7036 17.4894C66.8556 18.1956 65.6504 18.5493 64.0894 18.5493C63.3155 18.5493 62.6532 18.5159 62.0986 18.449V10.1769C62.822 10.0611 63.6012 10.002 64.4427 10.002C65.9296 10.002 67.0503 10.3222 67.8062 10.9628C68.6529 11.687 69.0775 12.7225 69.0775 14.0705ZM67.6425 14.1078C67.6425 13.1263 67.3802 12.3739 66.8556 11.8491C66.3309 11.3255 65.5647 11.0631 64.5557 11.0631C64.1271 11.0631 63.7622 11.0914 63.4596 11.1506V17.4393C63.6271 17.465 63.9336 17.4766 64.379 17.4766C65.4206 17.4766 66.2244 17.1897 66.7906 16.616C67.3568 16.0424 67.6425 15.2063 67.6425 14.1078Z" fill="white"/>
<path d="M76.6862 15.3927C76.6862 16.3253 76.4174 17.0893 75.8798 17.6887C75.3162 18.3049 74.5695 18.6123 73.637 18.6123C72.7384 18.6123 72.0228 18.3177 71.4891 17.726C70.9567 17.1356 70.6904 16.3909 70.6904 15.493C70.6904 14.554 70.9644 13.7836 71.5151 13.1854C72.0657 12.5873 72.8059 12.2876 73.7383 12.2876C74.637 12.2876 75.359 12.5822 75.9058 13.1726C76.4252 13.7462 76.6862 14.4871 76.6862 15.3927ZM75.2746 15.4364C75.2746 14.8769 75.1525 14.3971 74.9097 13.9971C74.624 13.5134 74.2175 13.2716 73.689 13.2716C73.1423 13.2716 72.7267 13.5134 72.441 13.9971C72.1968 14.3971 72.0761 14.8846 72.0761 15.4609C72.0761 16.0204 72.1981 16.5002 72.441 16.9002C72.7358 17.3839 73.1462 17.6257 73.676 17.6257C74.1955 17.6257 74.6032 17.38 74.8967 16.8874C75.1487 16.4796 75.2746 15.996 75.2746 15.4364Z" fill="white"/>
<path d="M86.8883 12.4111L84.9728 18.4747H83.7261L82.9326 15.8417C82.7313 15.1844 82.5677 14.5309 82.4404 13.8826H82.4157C82.2976 14.5489 82.1339 15.2011 81.9236 15.8417L81.0807 18.4747H79.8198L78.0186 12.4111H79.4172L80.1094 15.2937C80.2769 15.9754 80.4145 16.625 80.5249 17.2399H80.5496C80.6509 16.7331 80.8184 16.0873 81.0548 15.3066L81.9236 12.4124H83.0326L83.865 15.2448C84.0663 15.9356 84.2299 16.6006 84.3559 17.2411H84.3936C84.4858 16.6173 84.6247 15.9523 84.8091 15.2448L85.552 12.4124H86.8883V12.4111Z" fill="white"/>
<path d="M93.9441 18.4746H92.5831V15.0016C92.5831 13.9314 92.1728 13.3963 91.3494 13.3963C90.9455 13.3963 90.6196 13.543 90.3664 13.8375C90.1157 14.1321 89.9884 14.4794 89.9884 14.8768V18.4733H88.6275V14.1437C88.6275 13.6111 88.6106 13.0336 88.5781 12.4085H89.7742L89.8378 13.3565H89.8755C90.0339 13.0619 90.2703 12.8188 90.5806 12.6246C90.9494 12.3982 91.3624 12.2837 91.8143 12.2837C92.3857 12.2837 92.861 12.4663 93.2389 12.8329C93.709 13.2819 93.9441 13.952 93.9441 14.8421V18.4746Z" fill="white"/>
<path d="M97.6966 18.4747H96.3369V9.62891H97.6966V18.4747Z" fill="white"/>
<path d="M105.71 15.3927C105.71 16.3253 105.441 17.0893 104.903 17.6887C104.34 18.3049 103.592 18.6123 102.66 18.6123C101.761 18.6123 101.045 18.3177 100.513 17.726C99.9801 17.1356 99.7139 16.3909 99.7139 15.493C99.7139 14.554 99.9879 13.7836 100.539 13.1854C101.089 12.5873 101.829 12.2876 102.76 12.2876C103.66 12.2876 104.381 12.5822 104.929 13.1726C105.449 13.7462 105.71 14.4871 105.71 15.3927ZM104.297 15.4364C104.297 14.8769 104.175 14.3971 103.932 13.9971C103.647 13.5134 103.24 13.2716 102.712 13.2716C102.164 13.2716 101.749 13.5134 101.464 13.9971C101.22 14.3971 101.1 14.8846 101.1 15.4609C101.1 16.0204 101.222 16.5002 101.464 16.9002C101.759 17.3839 102.17 17.6257 102.699 17.6257C103.219 17.6257 103.625 17.38 103.919 16.8874C104.172 16.4796 104.297 15.996 104.297 15.4364Z" fill="white"/>
<path d="M112.296 18.4746H111.074L110.973 17.7762H110.935C110.517 18.3332 109.921 18.6123 109.147 18.6123C108.569 18.6123 108.102 18.4283 107.75 18.063C107.43 17.7312 107.271 17.3183 107.271 16.8282C107.271 16.0873 107.582 15.5226 108.209 15.1316C108.835 14.7405 109.716 14.5489 110.85 14.5579V14.4447C110.85 13.6459 110.426 13.2472 109.578 13.2472C108.974 13.2472 108.442 13.3977 107.982 13.6961L107.706 12.8111C108.274 12.4625 108.977 12.2876 109.805 12.2876C111.405 12.2876 112.208 13.1237 112.208 14.7959V17.0289C112.208 17.6347 112.238 18.1171 112.296 18.4746ZM110.883 16.3909V15.4557C109.382 15.43 108.631 15.8378 108.631 16.6777C108.631 16.9941 108.717 17.2308 108.893 17.389C109.068 17.5472 109.291 17.6257 109.557 17.6257C109.856 17.6257 110.135 17.5318 110.39 17.3453C110.646 17.1575 110.803 16.9195 110.861 16.6275C110.876 16.5619 110.883 16.4822 110.883 16.3909Z" fill="white"/>
<path d="M120.029 18.4747H118.822L118.758 17.501H118.72C118.335 18.2419 117.678 18.6123 116.754 18.6123C116.017 18.6123 115.402 18.3255 114.915 17.7518C114.428 17.1781 114.186 16.4334 114.186 15.5188C114.186 14.5374 114.449 13.7425 114.979 13.1353C115.492 12.5694 116.121 12.2864 116.869 12.2864C117.691 12.2864 118.266 12.5604 118.593 13.1096H118.619V9.62891H119.981V16.8411C119.981 17.4315 119.997 17.9756 120.029 18.4747ZM118.619 15.9176V14.9065C118.619 14.7316 118.606 14.5901 118.581 14.4821C118.505 14.1579 118.34 13.8852 118.089 13.6653C117.836 13.4453 117.531 13.3347 117.179 13.3347C116.671 13.3347 116.274 13.5341 115.982 13.9341C115.692 14.3341 115.545 14.8448 115.545 15.4687C115.545 16.0681 115.684 16.5543 115.963 16.9286C116.258 17.3273 116.656 17.5267 117.153 17.5267C117.6 17.5267 117.957 17.3608 118.228 17.0276C118.491 16.7202 118.619 16.3498 118.619 15.9176Z" fill="white"/>
<path d="M131.67 15.3927C131.67 16.3253 131.401 17.0893 130.863 17.6887C130.3 18.3049 129.554 18.6123 128.62 18.6123C127.723 18.6123 127.008 18.3177 126.473 17.726C125.94 17.1356 125.674 16.3909 125.674 15.493C125.674 14.554 125.948 13.7836 126.498 13.1854C127.049 12.5873 127.789 12.2876 128.723 12.2876C129.62 12.2876 130.344 12.5822 130.889 13.1726C131.409 13.7462 131.67 14.4871 131.67 15.3927ZM130.259 15.4364C130.259 14.8769 130.137 14.3971 129.894 13.9971C129.607 13.5134 129.202 13.2716 128.672 13.2716C128.127 13.2716 127.711 13.5134 127.424 13.9971C127.18 14.3971 127.059 14.8846 127.059 15.4609C127.059 16.0204 127.182 16.5002 127.424 16.9002C127.719 17.3839 128.13 17.6257 128.659 17.6257C129.179 17.6257 129.588 17.38 129.881 16.8874C130.132 16.4796 130.259 15.996 130.259 15.4364Z" fill="white"/>
<path d="M138.987 18.4746H137.627V15.0016C137.627 13.9314 137.217 13.3963 136.392 13.3963C135.988 13.3963 135.662 13.543 135.41 13.8375C135.158 14.1321 135.032 14.4794 135.032 14.8768V18.4733H133.67V14.1437C133.67 13.6111 133.655 13.0336 133.622 12.4085H134.817L134.88 13.3565H134.918C135.078 13.0619 135.314 12.8188 135.623 12.6246C135.993 12.3982 136.405 12.2837 136.858 12.2837C137.428 12.2837 137.904 12.4663 138.282 12.8329C138.753 13.2819 138.987 13.952 138.987 14.8421V18.4746Z" fill="white"/>
<path d="M148.146 13.4207H146.648V16.3663C146.648 17.1149 146.914 17.4893 147.441 17.4893C147.685 17.4893 147.888 17.4687 148.048 17.4262L148.083 18.4488C147.814 18.5492 147.461 18.5993 147.026 18.5993C146.488 18.5993 146.07 18.4372 145.767 18.1131C145.463 17.789 145.313 17.2436 145.313 16.4782V13.4207H144.418V12.411H145.313V11.2996L146.646 10.9009V12.4097H148.145V13.4207H148.146Z" fill="white"/>
<path d="M155.352 18.4747H153.99V15.0275C153.99 13.9405 153.579 13.3964 152.757 13.3964C152.126 13.3964 151.695 13.7116 151.458 14.3419C151.418 14.4744 151.395 14.6364 151.395 14.8268V18.4734H150.035V9.62891H151.395V13.2833H151.421C151.849 12.6182 152.464 12.2864 153.26 12.2864C153.823 12.2864 154.289 12.469 154.66 12.8356C155.121 13.2923 155.352 13.9714 155.352 14.8692V18.4747Z" fill="white"/>
<path d="M162.783 15.1559C162.783 15.3977 162.765 15.6009 162.733 15.7669H158.651C158.669 16.3663 158.864 16.8229 159.242 17.1393C159.587 17.4223 160.033 17.5638 160.578 17.5638C161.182 17.5638 161.733 17.4686 162.229 17.277L162.442 18.2134C161.861 18.4629 161.178 18.5877 160.387 18.5877C159.439 18.5877 158.693 18.3111 158.152 17.758C157.61 17.2049 157.341 16.4627 157.341 15.5315C157.341 14.6169 157.591 13.8554 158.097 13.2483C158.624 12.6 159.337 12.2759 160.237 12.2759C161.117 12.2759 161.786 12.6 162.238 13.2483C162.603 13.7628 162.783 14.3995 162.783 15.1559ZM161.485 14.8073C161.495 14.4073 161.406 14.0625 161.221 13.7718C160.985 13.3975 160.625 13.2097 160.138 13.2097C159.694 13.2097 159.332 13.3924 159.055 13.759C158.829 14.051 158.695 14.3995 158.651 14.8073H161.485Z" fill="white"/>
</svg>
