<svg width="185" height="55" viewBox="0 0 185 55" fill="none" xmlns="http://www.w3.org/2000/svg">
<path d="M177.433 0.571289H7.06286C3.29914 0.571289 0.248047 3.59337 0.248047 7.32129V47.8213C0.248047 51.5492 3.29914 54.5713 7.06286 54.5713H177.433C181.197 54.5713 184.248 51.5492 184.248 47.8213V7.32129C184.248 3.59337 181.197 0.571289 177.433 0.571289Z" fill="black"/>
<path d="M177.433 1.65129C178.951 1.65129 180.407 2.24866 181.481 3.31199C182.555 4.37532 183.158 5.81751 183.158 7.32129V47.8213C183.158 49.3251 182.555 50.7673 181.481 51.8306C180.407 52.8939 178.951 53.4913 177.433 53.4913H7.06286C5.54464 53.4913 4.08861 52.8939 3.01507 51.8306C1.94153 50.7673 1.33842 49.3251 1.33842 47.8213V7.32129C1.33842 5.81751 1.94153 4.37532 3.01507 3.31199C4.08861 2.24866 5.54464 1.65129 7.06286 1.65129H177.433ZM177.433 0.571289H7.06286C5.25546 0.571289 3.52209 1.28245 2.24406 2.54832C0.966034 3.81419 0.248047 5.53108 0.248047 7.32129V47.8213C0.248047 49.6115 0.966034 51.3284 2.24406 52.5943C3.52209 53.8601 5.25546 54.5713 7.06286 54.5713H177.433C179.241 54.5713 180.974 53.8601 182.252 52.5943C183.53 51.3284 184.248 49.6115 184.248 47.8213V7.32129C184.248 5.53108 183.53 3.81419 182.252 2.54832C180.974 1.28245 179.241 0.571289 177.433 0.571289Z" fill="#A6A6A6"/>
<path d="M93.121 29.9334C91.9765 29.9387 90.8593 30.2798 89.9103 30.9135C88.9613 31.5471 88.2231 32.4451 87.7888 33.4939C87.3546 34.5428 87.2437 35.6955 87.4703 36.8067C87.6969 37.9179 88.2507 38.9377 89.0619 39.7374C89.8731 40.5371 90.9053 41.0809 92.0282 41.3001C93.1511 41.5193 94.3144 41.4041 95.3713 40.969C96.4281 40.534 97.3312 39.7986 97.9665 38.8557C98.6018 37.9127 98.9409 36.8045 98.9409 35.6709C98.952 34.9121 98.8088 34.1589 98.5199 33.456C98.2311 32.7532 97.8023 32.1151 97.2593 31.5797C96.7163 31.0444 96.0701 30.6228 95.3591 30.3399C94.6482 30.0571 93.887 29.9188 93.121 29.9334ZM93.121 39.1539C92.4171 39.2027 91.7148 39.0406 91.1051 38.6887C90.4955 38.3368 90.0069 37.8114 89.7027 37.1808C89.3986 36.5502 89.293 35.8435 89.3997 35.1527C89.5064 34.4619 89.8204 33.8188 90.301 33.3071C90.7816 32.7954 91.4064 32.4387 92.0944 32.2835C92.7823 32.1282 93.5015 32.1815 94.1585 32.4364C94.8154 32.6914 95.3798 33.1362 95.7781 33.713C96.1765 34.2899 96.3904 34.972 96.3921 35.6709C96.4141 36.1137 96.3463 36.5564 96.1928 36.9729C96.0392 37.3893 95.8031 37.7711 95.4982 38.0958C95.1933 38.4204 94.8259 38.6812 94.4177 38.863C94.0094 39.0447 93.5685 39.1436 93.121 39.1539ZM80.4318 29.9334C79.2867 29.9361 78.1681 30.2748 77.2174 30.9069C76.2666 31.539 75.5262 32.436 75.0899 33.4846C74.6536 34.5332 74.5408 35.6864 74.7658 36.7985C74.9909 37.9106 75.5436 38.9316 76.3543 39.7327C77.1649 40.5337 78.1971 41.0788 79.3204 41.2991C80.4437 41.5194 81.6077 41.405 82.6653 40.9704C83.723 40.5357 84.6269 39.8003 85.2628 38.8571C85.8987 37.9139 86.238 36.8051 86.238 35.6709C86.2492 34.9121 86.106 34.1589 85.8171 33.456C85.5282 32.7532 85.0995 32.1151 84.5565 31.5797C84.0135 31.0444 83.3673 30.6228 82.6563 30.3399C81.9454 30.0571 81.1842 29.9188 80.4182 29.9334H80.4318ZM80.4318 39.1539C79.7276 39.2054 79.0241 39.0457 78.4128 38.6957C77.8015 38.3456 77.3107 37.8213 77.0045 37.1911C76.6982 36.561 76.5905 35.854 76.6955 35.1624C76.8005 34.4708 77.1133 33.8265 77.5932 33.3134C78.0731 32.8003 78.6978 32.4422 79.386 32.2857C80.0742 32.1292 80.794 32.1815 81.4518 32.4359C82.1096 32.6903 82.6748 33.1349 83.0739 33.7119C83.4729 34.2889 83.6874 34.9715 83.6893 35.6709C83.7113 36.1137 83.6435 36.5564 83.4899 36.9729C83.3364 37.3893 83.1003 37.7711 82.7954 38.0958C82.4905 38.4204 82.1231 38.6812 81.7148 38.863C81.3066 39.0447 80.8657 39.1436 80.4182 39.1539H80.4318ZM65.3166 31.7019V34.1319H71.2046C71.1122 35.2764 70.6319 36.3564 69.8416 37.1964C69.2525 37.7907 68.5444 38.2563 67.7627 38.5632C66.981 38.8701 66.1431 39.0116 65.3029 38.9784C63.5678 38.9784 61.9038 38.2957 60.6769 37.0805C59.45 35.8652 58.7607 34.217 58.7607 32.4984C58.7607 30.7798 59.45 29.1316 60.6769 27.9164C61.9038 26.7011 63.5678 26.0184 65.3029 26.0184C66.9627 25.9916 68.5655 26.6179 69.7598 27.7599L71.4908 26.0454C70.6846 25.2368 69.7227 24.5967 68.6621 24.1631C67.6016 23.7294 66.4639 23.5111 65.3166 23.5209C64.1049 23.4742 62.8962 23.6703 61.7628 24.0973C60.6295 24.5244 59.5948 25.1737 58.7209 26.0063C57.8469 26.8389 57.1517 27.8377 56.6767 28.9428C56.2018 30.0479 55.957 31.2366 55.957 32.4377C55.957 33.6387 56.2018 34.8274 56.6767 35.9325C57.1517 37.0377 57.8469 38.0364 58.7209 38.8691C59.5948 39.7017 60.6295 40.3509 61.7628 40.778C62.8962 41.2051 64.1049 41.4011 65.3166 41.3544C66.4832 41.4066 67.6476 41.2107 68.7314 40.78C69.8152 40.3492 70.7933 39.6934 71.5998 38.8569C73.0278 37.303 73.7902 35.2602 73.726 33.1599C73.7304 32.6482 73.6848 32.1374 73.5898 31.6344L65.3166 31.7019ZM127.072 33.5919C126.717 32.5561 126.052 31.6517 125.166 30.9984C124.28 30.345 123.215 29.9737 122.111 29.9334C121.366 29.932 120.628 30.082 119.943 30.3742C119.258 30.6665 118.642 31.0947 118.131 31.6324C117.62 32.1702 117.225 32.806 116.972 33.5006C116.719 34.1953 116.613 34.9339 116.659 35.6709C116.643 36.4254 116.78 37.1755 117.063 37.8764C117.345 38.5773 117.768 39.2145 118.305 39.75C118.841 40.2856 119.482 40.7085 120.187 40.9934C120.893 41.2783 121.649 41.4195 122.411 41.4084C123.364 41.4135 124.304 41.1843 125.146 40.7414C125.988 40.2985 126.706 39.6556 127.236 38.8704L125.26 37.5204C124.965 38.0075 124.547 38.4103 124.048 38.6896C123.548 38.9688 122.984 39.1149 122.411 39.1134C121.821 39.1357 121.237 38.9815 120.736 38.6709C120.236 38.3604 119.841 37.9077 119.603 37.3719L127.359 34.1994L127.072 33.5919ZM119.167 35.5089C119.14 35.0913 119.196 34.6725 119.334 34.277C119.472 33.8814 119.688 33.517 119.97 33.2053C120.252 32.8935 120.594 32.6405 120.975 32.4612C121.357 32.2819 121.771 32.1798 122.193 32.1609C122.633 32.1322 123.071 32.2321 123.454 32.4481C123.837 32.6641 124.147 32.9867 124.346 33.3759L119.167 35.5089ZM112.87 41.0709H115.419V24.1959H112.87V41.0709ZM108.7 31.2159H108.604C108.22 30.7905 107.75 30.4504 107.223 30.2177C106.697 29.985 106.127 29.8652 105.551 29.8659C104.062 29.9375 102.657 30.5739 101.629 31.6433C100.6 32.7127 100.026 34.1331 100.026 35.6102C100.026 37.0872 100.6 38.5076 101.629 39.577C102.657 40.6464 104.062 41.2829 105.551 41.3544C106.129 41.364 106.701 41.2481 107.229 41.0149C107.756 40.7817 108.226 40.4367 108.604 40.0044H108.686V40.8279C108.686 43.0284 107.5 44.2029 105.592 44.2029C104.957 44.1882 104.34 43.9865 103.82 43.6234C103.301 43.2604 102.902 42.7525 102.675 42.1644L100.454 43.0824C100.872 44.09 101.585 44.9509 102.5 45.5546C103.416 46.1583 104.492 46.4774 105.592 46.4709C108.577 46.4709 111.044 44.7294 111.044 40.4904V30.2709H108.7V31.2159ZM105.783 39.1539C104.904 39.0772 104.085 38.677 103.489 38.0323C102.893 37.3876 102.563 36.5451 102.563 35.6709C102.563 34.7967 102.893 33.9542 103.489 33.3095C104.085 32.6648 104.904 32.2647 105.783 32.1879C106.219 32.2101 106.646 32.3184 107.039 32.5066C107.432 32.6947 107.783 32.9588 108.071 33.2834C108.359 33.608 108.579 33.9865 108.718 34.3965C108.856 34.8065 108.91 35.2398 108.877 35.6709C108.914 36.1038 108.862 36.5398 108.724 36.9523C108.587 37.3648 108.366 37.7453 108.075 38.0709C107.785 38.3965 107.431 38.6604 107.034 38.8465C106.638 39.0326 106.208 39.1372 105.769 39.1539H105.783ZM139.012 24.1959H132.92V41.0709H135.468V34.6719H139.026C139.752 34.7236 140.481 34.6265 141.168 34.3867C141.855 34.1469 142.485 33.7695 143.018 33.278C143.551 32.7866 143.976 32.1916 144.267 31.5302C144.557 30.8689 144.707 30.1553 144.707 29.4339C144.707 28.7126 144.557 27.999 144.267 27.3376C143.976 26.6762 143.551 26.0812 143.018 25.5898C142.485 25.0983 141.855 24.7209 141.168 24.4811C140.481 24.2413 139.752 24.1442 139.026 24.1959H139.012ZM139.012 32.2959H135.455V26.5449H139.066C139.842 26.5449 140.585 26.85 141.134 27.3931C141.682 27.9361 141.99 28.6727 141.99 29.4407C141.99 30.2087 141.682 30.9452 141.134 31.4883C140.585 32.0313 139.842 32.3364 139.066 32.3364L139.012 32.2959ZM154.727 29.8659C153.799 29.811 152.875 30.0258 152.069 30.4838C151.263 30.9419 150.609 31.6234 150.188 32.4444L152.451 33.3759C152.674 32.9687 153.012 32.6345 153.423 32.414C153.834 32.1935 154.302 32.0962 154.768 32.1339C155.091 32.0965 155.419 32.1232 155.732 32.2126C156.045 32.3021 156.337 32.4523 156.591 32.6546C156.845 32.8569 157.055 33.1073 157.21 33.3911C157.365 33.6748 157.462 33.9863 157.494 34.3074V34.4829C156.675 34.0536 155.762 33.831 154.836 33.8349C152.396 33.8349 149.929 35.1849 149.929 37.6284C149.953 38.1494 150.083 38.6604 150.31 39.131C150.536 39.6017 150.856 40.0225 151.25 40.3686C151.644 40.7148 152.104 40.9791 152.603 41.1461C153.102 41.3131 153.629 41.3794 154.154 41.3409C154.796 41.3866 155.439 41.2602 156.014 40.9752C156.59 40.6902 157.077 40.2569 157.426 39.7209H157.507V41.0709H159.961V34.5774C159.961 31.6209 157.698 29.9064 154.795 29.9064L154.727 29.8659ZM154.413 39.1134C153.582 39.1134 152.424 38.6949 152.424 37.6824C152.424 36.3324 153.868 35.8869 155.149 35.8869C155.959 35.8671 156.759 36.0629 157.466 36.4539C157.381 37.1848 157.032 37.8606 156.484 38.3567C155.935 38.8529 155.224 39.136 154.482 39.1539L154.413 39.1134ZM168.902 30.2709L165.985 37.5879H165.903L162.877 30.2709H160.152L164.69 40.5039L162.101 46.1874H164.758L171.737 30.2709H168.902ZM145.99 41.0709H148.539V24.1959H145.99V41.0709Z" fill="white"/>
<path d="M64.7947 14.4795C64.8179 14.9747 64.7392 15.4693 64.5635 15.9335C64.3878 16.3976 64.1186 16.8215 63.7725 17.1795C63.386 17.5772 62.9191 17.8897 62.4025 18.0968C61.8858 18.3038 61.3309 18.4006 60.774 18.381C59.9289 18.3744 59.1046 18.121 58.4043 17.6525C57.704 17.1839 57.1589 16.5211 56.8373 15.747C56.5157 14.973 56.4319 14.1221 56.5963 13.3011C56.7608 12.48 57.1662 11.7253 57.7618 11.1315C58.1533 10.7357 58.6226 10.4236 59.1407 10.2146C59.6588 10.0056 60.2147 9.90415 60.774 9.91649C61.3502 9.91459 61.9207 10.0294 62.4504 10.254C62.9436 10.451 63.3826 10.761 63.7316 11.1585L63.0092 11.874C62.7372 11.5535 62.3936 11.3001 62.0057 11.1337C61.6177 10.9674 61.1961 10.8926 60.774 10.9155C60.3482 10.9134 59.9265 10.9965 59.5339 11.1598C59.1414 11.3231 58.7862 11.5633 58.4897 11.8658C58.1931 12.1684 57.9613 12.5271 57.8081 12.9206C57.655 13.314 57.5836 13.7341 57.5983 14.1555C57.5893 14.7848 57.7688 15.4026 58.1139 15.931C58.4591 16.4594 58.9545 16.8747 59.5377 17.1245C60.1208 17.3743 60.7657 17.4475 61.3908 17.3347C62.0159 17.222 62.5933 16.9284 63.0501 16.491C63.4695 16.0408 63.7114 15.4562 63.7316 14.844H60.774V13.872H64.7402C64.7765 14.0725 64.7948 14.2758 64.7947 14.4795ZM71.0371 11.1045H67.3571V13.6695H70.71V14.6415H67.3571V17.2065H71.0371V18.2055H66.2667V10.1055H71.0371V11.1045ZM75.5076 18.2055H74.4581V11.1045H72.1683V10.1055H77.8519V11.1045H75.5076V18.2055ZM81.859 18.2055V10.1055H82.9085V18.2055H81.859ZM87.5698 18.2055H86.5203V11.1045H84.2306V10.1055H89.846V11.1045H87.5698V18.2055ZM100.491 17.1525C99.6939 17.9373 98.6159 18.3778 97.4922 18.3778C96.3685 18.3778 95.2905 17.9373 94.4937 17.1525C93.7192 16.3405 93.2877 15.2658 93.2877 14.1487C93.2877 13.0317 93.7192 11.957 94.4937 11.145C94.8864 10.7531 95.3535 10.4422 95.8682 10.2299C96.3828 10.0177 96.9347 9.90844 97.4922 9.90844C98.0496 9.90844 98.6016 10.0177 99.1162 10.2299C99.6308 10.4422 100.098 10.7531 100.491 11.145C101.268 11.9554 101.702 13.0307 101.702 14.1487C101.702 15.2668 101.268 16.342 100.491 17.1525ZM95.2706 16.4775C95.8606 17.0595 96.6595 17.3863 97.4922 17.3863C98.3249 17.3863 99.1238 17.0595 99.7138 16.4775C100.296 15.8417 100.619 15.0139 100.619 14.1555C100.619 13.297 100.296 12.4693 99.7138 11.8335C99.1238 11.2515 98.3249 10.9247 97.4922 10.9247C96.6595 10.9247 95.8606 11.2515 95.2706 11.8335C94.6882 12.4693 94.3657 13.297 94.3657 14.1555C94.3657 15.0139 94.6882 15.8417 95.2706 16.4775ZM103.176 18.2055V10.1055H104.457L108.437 16.41V10.1055H109.486V18.2055H108.396L104.239 11.604V18.2055H103.176Z" fill="white"/>
<path fill-rule="evenodd" clip-rule="evenodd" d="M97.4922 10.0434C96.9527 10.0434 96.4186 10.1492 95.9206 10.3546C95.4231 10.5597 94.9714 10.8603 94.5916 11.2389C93.8418 12.0257 93.424 13.0667 93.424 14.1487C93.424 15.2306 93.8416 16.2715 94.5913 17.0583C95.3624 17.817 96.4052 18.2428 97.4922 18.2428C98.5792 18.2428 99.6221 17.8169 100.393 17.0581C101.146 16.2729 101.566 15.2315 101.566 14.1487C101.566 13.0659 101.146 12.0243 100.393 11.2391C100.013 10.8604 99.5614 10.5598 99.0638 10.3546C98.5658 10.1492 98.0317 10.0434 97.4922 10.0434ZM95.8158 10.1053C96.347 9.88622 96.9168 9.77344 97.4922 9.77344C98.0676 9.77344 98.6374 9.88622 99.1686 10.1053C99.6998 10.3244 100.182 10.6454 100.587 11.0499L100.59 11.052C101.391 11.8875 101.838 12.9961 101.838 14.1487C101.838 15.3014 101.391 16.41 100.59 17.2455L100.587 17.2483C99.7645 18.0582 98.6519 18.5128 97.4922 18.5128C96.3325 18.5128 95.2199 18.0582 94.3976 17.2482L94.3945 17.2452C93.5962 16.4082 93.1514 15.3003 93.1514 14.1487C93.1514 12.9972 93.5962 11.8893 94.3946 11.0523L94.3969 11.0499C94.8023 10.6454 95.2846 10.3244 95.8158 10.1053ZM60.7709 10.0515C60.2303 10.0395 59.6929 10.1376 59.1921 10.3396C58.6912 10.5416 58.2376 10.8433 57.8592 11.226L57.8585 11.2266C57.2818 11.8016 56.8892 12.5324 56.73 13.3273C56.5708 14.1223 56.6519 14.9462 56.9633 15.6956C57.2748 16.4451 57.8026 17.0869 58.4806 17.5406C59.1587 17.9943 59.9568 18.2397 60.775 18.246L60.7788 18.246C61.3167 18.265 61.8525 18.1715 62.3514 17.9716C62.8502 17.7717 63.3009 17.47 63.6742 17.086C64.0075 16.7413 64.2666 16.333 64.4359 15.8861C64.6051 15.439 64.6809 14.9626 64.6585 14.4857L64.7947 14.4795L64.6584 14.4794C64.6585 14.3213 64.647 14.1634 64.6242 14.007H60.9103V14.709H63.8724L63.8678 14.8484C63.8465 15.493 63.5919 16.1086 63.1503 16.5825L63.145 16.5882C62.6688 17.0442 62.0668 17.35 61.4152 17.4675C60.7636 17.5851 60.0915 17.5088 59.4836 17.2484C58.8757 16.988 58.3593 16.5551 57.9995 16.0043C57.6403 15.4544 57.4533 14.8117 57.4619 14.1569C57.4471 13.7184 57.5216 13.2814 57.681 12.872C57.8407 12.4616 58.0826 12.0874 58.3919 11.7718C58.7012 11.4562 59.0717 11.2057 59.4812 11.0354C59.8894 10.8655 60.3279 10.7789 60.7706 10.7805C61.2124 10.7572 61.6537 10.8357 62.0598 11.0098C62.4217 11.165 62.7469 11.3924 63.0152 11.6772L63.5436 11.1538C63.2236 10.817 62.8334 10.5526 62.3994 10.3792L62.3968 10.3781C61.8841 10.1608 61.332 10.0497 60.7744 10.0515L60.7709 10.0515ZM64.931 14.4764C64.9545 14.9888 64.8729 15.5006 64.6911 15.9809C64.5089 16.4621 64.2299 16.9017 63.8709 17.2729C63.4711 17.6842 62.988 18.0078 62.4536 18.2219C61.9198 18.4358 61.3465 18.536 60.771 18.516C59.8998 18.5089 59.05 18.2474 58.328 17.7643C57.6055 17.2809 57.0431 16.597 56.7113 15.7984C56.3794 14.9998 56.2929 14.1219 56.4626 13.2748C56.6323 12.4278 57.0504 11.6493 57.6648 11.0367C58.0692 10.6278 58.554 10.3055 59.0893 10.0896C59.6241 9.87383 60.1979 9.76898 60.7753 9.78149C61.369 9.77977 61.9568 9.89813 62.5027 10.1293C63.0153 10.3344 63.4717 10.6567 63.8344 11.0699L63.9178 11.1649L63.0005 12.0735L62.9049 11.9609C62.6465 11.6564 62.3201 11.4156 61.9515 11.2576C61.583 11.0996 61.1824 11.0286 60.7814 11.0503L60.7733 11.0507C60.3659 11.0488 59.9623 11.128 59.5867 11.2843C59.2111 11.4406 58.8712 11.6703 58.5875 11.9598C58.3037 12.2494 58.0819 12.5927 57.9353 12.9691C57.7887 13.3456 57.7204 13.7476 57.7345 14.1508L57.7347 14.1574C57.7261 14.76 57.8978 15.3516 58.2283 15.8576C58.5589 16.3636 59.0333 16.7613 59.5918 17.0006C60.1502 17.2398 60.7677 17.3099 61.3663 17.2019C61.9637 17.0942 62.5155 16.814 62.9526 16.3966C63.3163 16.005 63.5384 15.5064 63.5867 14.979H60.6377V13.737H64.8542L64.8743 13.8481C64.9119 14.0555 64.9309 14.2657 64.931 14.4764ZM66.1304 9.97049H71.1734V11.2395H67.4934V13.5345H70.8463V14.7765H67.4934V17.0715H71.1734V18.3405H66.1304V9.97049ZM66.403 10.2405V18.0705H70.9008V17.3415H67.2208V14.5065H70.5737V13.8045H67.2208V10.9695H70.9008V10.2405H66.403ZM72.032 9.97049H77.9882V11.2395H75.6439V18.3405H74.3218V11.2395H72.032V9.97049ZM72.3046 10.2405V10.9695H74.5944V18.0705H75.3713V10.9695H77.7156V10.2405H72.3046ZM81.7227 9.97049H83.0448V18.3405H81.7227V9.97049ZM81.9953 10.2405V18.0705H82.7722V10.2405H81.9953ZM84.0943 9.97049H89.9823V11.2395H87.7061V18.3405H86.384V11.2395H84.0943V9.97049ZM84.3669 10.2405V10.9695H86.6566V18.0705H87.4335V10.9695H89.7097V10.2405H84.3669ZM103.039 9.97049H104.532L108.3 15.9394V9.97049H109.623V18.3405H108.32L104.375 12.0755V18.3405H103.039V9.97049ZM103.312 10.2405V18.0705H104.103V11.1325L108.472 18.0705H109.35V10.2405H108.573V16.8805L104.381 10.2405H103.312ZM95.1744 11.7378C95.79 11.1306 96.6234 10.7897 97.4922 10.7897C98.361 10.7897 99.1944 11.1306 99.81 11.7378L99.8149 11.7427C100.42 12.4033 100.755 13.2635 100.755 14.1555C100.755 15.0475 100.42 15.9075 99.8148 16.5682L99.8101 16.5733C99.1945 17.1805 98.361 17.5213 97.4922 17.5213C96.6234 17.5213 95.79 17.1804 95.1744 16.5732L95.2706 16.4775L95.1696 16.5682C94.5646 15.9075 94.2294 15.0475 94.2294 14.1555C94.2294 13.2635 94.5646 12.4035 95.1696 11.7428L95.1744 11.7378ZM95.3692 16.3843C95.9335 16.9396 96.6967 17.2513 97.4922 17.2513C98.2877 17.2513 99.0509 16.9396 99.6152 16.3843C100.173 15.7736 100.482 14.9793 100.482 14.1555C100.482 13.3317 100.173 12.5374 99.6152 11.9267C99.0509 11.3714 98.2877 11.0597 97.4922 11.0597C96.6967 11.0597 95.9335 11.3714 95.3692 11.9267C94.8111 12.5374 94.502 13.3317 94.502 14.1555C94.502 14.9793 94.8111 15.7736 95.3692 16.3843Z" fill="white"/>
<path d="M14.4775 10.7498C14.0333 11.2778 13.8091 11.9537 13.8506 12.6398V42.5018C13.8091 43.1879 14.0333 43.8638 14.4775 44.3918L14.573 44.4863L31.4601 27.7733V27.3818L14.573 10.6553L14.4775 10.7498Z" fill="url(#paint0_linear_12375_32909)"/>
<path d="M37.0481 33.349L31.46 27.7735V27.382L37.0481 21.793L37.1708 21.8605L43.8629 25.627C45.7711 26.6935 45.7711 28.4485 43.8629 29.5285L37.198 33.2815L37.0481 33.349Z" fill="url(#paint1_linear_12375_32909)"/>
<path d="M37.2118 33.2678L31.4601 27.5708L14.4775 44.3918C14.8665 44.7304 15.3626 44.9239 15.8803 44.9387C16.3979 44.9535 16.9045 44.7887 17.3125 44.4728L37.2254 33.2678" fill="url(#paint2_linear_12375_32909)"/>
<path d="M37.2117 21.8739L17.2988 10.6689C16.8908 10.3531 16.3842 10.1883 15.8666 10.2031C15.349 10.2179 14.8528 10.4113 14.4639 10.7499L31.46 27.5709L37.2117 21.8739Z" fill="url(#paint3_linear_12375_32909)"/>
<path opacity="0.2" d="M37.0482 33.1465L17.2989 44.284C16.9054 44.5754 16.4272 44.7329 15.9359 44.7329C15.4446 44.7329 14.9664 44.5754 14.5729 44.284L14.4775 44.3785L14.5729 44.473C14.9656 44.7665 15.444 44.9252 15.9359 44.9252C16.4278 44.9252 16.9063 44.7665 17.2989 44.473L37.2118 33.268L37.0482 33.1465Z" fill="black"/>
<path opacity="0.12" d="M14.4775 44.2028C14.0333 43.6748 13.8091 42.9989 13.8506 42.3128V42.5153C13.8091 43.2014 14.0333 43.8773 14.4775 44.4053L14.573 44.3108L14.4775 44.2028ZM43.863 29.3258L37.0482 33.1463L37.1709 33.2678L43.863 29.5148C44.2428 29.3381 44.5687 29.0654 44.808 28.724C45.0473 28.3827 45.1915 27.9849 45.226 27.5708C45.1493 27.9471 44.9866 28.3009 44.7504 28.6051C44.5141 28.9094 44.2105 29.1559 43.863 29.3258Z" fill="black"/>
<path opacity="0.25" d="M17.2988 10.8576L43.863 25.8156C44.2105 25.9855 44.514 26.232 44.7503 26.5363C44.9866 26.8405 45.1493 27.1943 45.2259 27.5706C45.1914 27.1565 45.0473 26.7587 44.808 26.4174C44.5687 26.076 44.2427 25.8033 43.863 25.6266L17.2988 10.6686C15.3907 9.60209 13.8369 10.4931 13.8369 12.6531V12.8556C13.8778 10.6821 15.4043 9.7911 17.2988 10.8576Z" fill="white"/>
<defs>
<linearGradient id="paint0_linear_12375_32909" x1="29.9608" y1="12.3293" x2="7.30884" y2="35.1987" gradientUnits="userSpaceOnUse">
<stop stop-color="#00A0FF"/>
<stop offset="0.01" stop-color="#00A1FF"/>
<stop offset="0.26" stop-color="#00BEFF"/>
<stop offset="0.51" stop-color="#00D2FF"/>
<stop offset="0.76" stop-color="#00DFFF"/>
<stop offset="1" stop-color="#00E3FF"/>
</linearGradient>
<linearGradient id="paint1_linear_12375_32909" x1="46.3571" y1="27.571" x2="13.3871" y2="27.571" gradientUnits="userSpaceOnUse">
<stop stop-color="#FFE000"/>
<stop offset="0.41" stop-color="#FFBD00"/>
<stop offset="0.78" stop-color="#FFA500"/>
<stop offset="1" stop-color="#FF9C00"/>
</linearGradient>
<linearGradient id="paint2_linear_12375_32909" x1="34.0906" y1="30.6758" x2="3.36585" y2="61.6819" gradientUnits="userSpaceOnUse">
<stop stop-color="#FF3A44"/>
<stop offset="1" stop-color="#C31162"/>
</linearGradient>
<linearGradient id="paint3_linear_12375_32909" x1="10.1978" y1="0.81394" x2="23.9132" y2="14.661" gradientUnits="userSpaceOnUse">
<stop stop-color="#32A071"/>
<stop offset="0.07" stop-color="#2DA771"/>
<stop offset="0.48" stop-color="#15CF74"/>
<stop offset="0.8" stop-color="#06E775"/>
<stop offset="1" stop-color="#00F076"/>
</linearGradient>
</defs>
</svg>
