<svg width="230" height="52" viewBox="0 0 230 52" fill="none" xmlns="http://www.w3.org/2000/svg">
<circle cx="26" cy="26" r="26" fill="#FFBF00"/>
<path d="M10.6238 38.2056C10.6238 37.9591 10.6238 37.7404 10.6238 37.4981C10.7078 37.4905 10.7857 37.4774 10.8635 37.4772C11.4879 37.4756 12.1124 37.4762 12.737 37.4762C12.8179 37.4762 12.8991 37.4762 12.9959 37.4762C13.0081 37.4161 13.0228 37.3665 13.027 37.3162C13.0323 37.2563 13.0289 37.1959 13.0289 37.1356C13.0289 29.4053 13.0289 21.6751 13.0285 13.9449C13.0285 13.8398 13.0211 13.7349 13.0162 13.6033C12.2133 13.6033 11.4301 13.6033 10.6298 13.6033C10.6298 13.3525 10.6298 13.1292 10.6298 12.8823C10.7247 12.8752 10.8166 12.8628 10.9083 12.8628C13.0329 12.8618 15.1576 12.862 17.2822 12.862C18.4632 12.862 19.6444 12.8571 20.8254 12.8636C21.7211 12.8684 22.6178 12.8642 23.5121 12.905C25.2701 12.9851 27.0056 13.2201 28.6919 13.7409C29.7253 14.06 30.7084 14.4874 31.6257 15.0593C33.1722 16.0235 34.2802 17.3489 34.9913 19.0049C35.4142 19.9896 35.6797 21.0164 35.8472 22.0706C35.9925 22.9847 36.0571 23.9052 36.0661 24.829C36.0818 26.4725 35.9595 28.1036 35.5611 29.7058C35.3015 30.7499 34.9261 31.7496 34.387 32.6872C33.5626 34.1214 32.401 35.2169 30.9571 36.0352C29.599 36.805 28.1442 37.3192 26.621 37.6588C25.834 37.8343 25.039 37.9663 24.2374 38.0481C23.5906 38.1142 22.9402 38.1658 22.2905 38.1805C18.4766 38.2661 14.6617 38.1978 10.8474 38.2181C10.7812 38.2189 10.7149 38.211 10.6238 38.2056ZM20.2368 37.4762C20.3477 37.4762 20.415 37.4762 20.4822 37.4762C20.9165 37.4758 21.351 37.4754 21.7853 37.4752C22.3775 37.475 22.9622 37.4067 23.5372 37.27C25.1246 36.8926 26.3094 36.0006 27.0684 34.5685C27.4159 33.9128 27.6551 33.2177 27.8379 32.5029C28.0637 31.6198 28.2168 30.7236 28.292 29.8161C28.3554 29.0497 28.4251 28.2822 28.4424 27.5142C28.4695 26.3102 28.4561 25.1053 28.4577 23.9006C28.4589 22.9903 28.4186 22.0818 28.3354 21.1749C28.259 20.3416 28.1442 19.5145 27.9586 18.6981C27.7562 17.8077 27.4739 16.9452 27.0264 16.1402C26.426 15.0603 25.5425 14.3379 24.3342 13.9951C23.4673 13.7491 22.582 13.6497 21.6871 13.6107C21.2805 13.593 20.8727 13.6045 20.4655 13.6041C20.3995 13.6041 20.3334 13.6109 20.2364 13.6161C20.2368 21.5688 20.2368 29.5078 20.2368 37.4762Z" fill="black"/>
<path d="M40.9196 32.2339C41.3857 32.2369 41.8399 32.299 42.2795 32.4493C43.2539 32.7825 43.8793 33.4277 44.0799 34.4395C44.2211 35.1524 44.2066 35.8646 43.9894 36.5613C43.6535 37.6382 42.9099 38.2804 41.7924 38.4956C41.2228 38.6053 40.6501 38.6095 40.0754 38.5067C39.2119 38.3517 38.5575 37.9058 38.1465 37.1448C37.5793 36.0951 37.5277 35.0051 38.0228 33.9212C38.4518 32.9822 39.2062 32.4296 40.2523 32.291C40.4737 32.262 40.6972 32.2526 40.9196 32.2339Z" fill="black"/>
<path d="M64.86 5.89H71.215C73.385 5.89 75.0797 6.15866 76.299 6.696C77.5183 7.23333 78.376 8.08067 78.872 9.238C79.3887 10.3747 79.647 11.904 79.647 13.826V22.94C79.647 24.8827 79.3887 26.4327 78.872 27.59C78.376 28.7473 77.5183 29.605 76.299 30.163C75.1003 30.721 73.4263 31 71.277 31H64.86V5.89ZM71.277 27.156C72.083 27.156 72.672 27.0423 73.044 26.815C73.4367 26.567 73.6847 26.226 73.788 25.792C73.8913 25.3373 73.943 24.676 73.943 23.808V12.865C73.943 12.059 73.881 11.4493 73.757 11.036C73.6537 10.602 73.4057 10.2817 73.013 10.075C72.641 9.86833 72.052 9.765 71.246 9.765H70.409V27.156H71.277ZM88.9141 31.31C86.9507 31.31 85.4214 30.7933 84.3261 29.76C83.2307 28.706 82.6831 27.2283 82.6831 25.327V18.755C82.6831 16.8537 83.2307 15.3863 84.3261 14.353C85.4214 13.299 86.9507 12.772 88.9141 12.772C90.8981 12.772 92.3861 13.2783 93.3781 14.291C94.3701 15.3037 94.8661 16.7917 94.8661 18.755V22.351H87.6741V25.792C87.6741 27.0733 88.0874 27.714 88.9141 27.714C89.7821 27.714 90.2161 27.1353 90.2161 25.978V24.087H94.8661V25.823C94.8661 27.621 94.3391 28.985 93.2851 29.915C92.2517 30.845 90.7947 31.31 88.9141 31.31ZM90.2161 19.995V18.197C90.2161 17.5357 90.0921 17.0707 89.8441 16.802C89.6167 16.5127 89.2964 16.368 88.8831 16.368C88.4904 16.368 88.1907 16.523 87.9841 16.833C87.7774 17.143 87.6741 17.6907 87.6741 18.476V19.995H90.2161ZM98.2056 5.89H109.056V9.641H103.755V15.965H108.374V19.84H103.755V31H98.2056V5.89ZM111.678 6.541H116.762V10.044H111.678V6.541ZM111.709 13.082H116.762V31H111.709V13.082ZM128.713 5.89H139.563V9.641H134.262V15.965H138.881V19.84H134.262V31H128.713V5.89ZM148.075 31.31C146.112 31.31 144.572 30.814 143.456 29.822C142.361 28.83 141.813 27.373 141.813 25.451V18.631C141.813 16.709 142.361 15.252 143.456 14.26C144.572 13.268 146.112 12.772 148.075 12.772C150.038 12.772 151.578 13.2783 152.694 14.291C153.81 15.283 154.368 16.7297 154.368 18.631V25.451C154.368 27.3523 153.81 28.8093 152.694 29.822C151.578 30.814 150.038 31.31 148.075 31.31ZM148.106 27.962C148.581 27.962 148.912 27.7863 149.098 27.435C149.284 27.063 149.377 26.5153 149.377 25.792V18.29C149.377 17.5667 149.284 17.0293 149.098 16.678C148.912 16.306 148.581 16.12 148.106 16.12C147.631 16.12 147.29 16.306 147.083 16.678C146.897 17.05 146.804 17.5873 146.804 18.29V25.792C146.804 26.5153 146.897 27.063 147.083 27.435C147.29 27.7863 147.631 27.962 148.106 27.962ZM157.542 13.082H162.595V16.058C163.215 14.9627 163.815 14.1567 164.393 13.64C164.972 13.1233 165.654 12.865 166.439 12.865C166.729 12.865 166.987 12.896 167.214 12.958V17.98C166.594 17.732 166.047 17.608 165.571 17.608C164.476 17.608 163.484 18.1867 162.595 19.344V31H157.542V13.082ZM181.34 20.739L176.566 5.89H181.805L184.192 13.826L186.331 5.89H191.353L186.672 20.739V31H181.34V20.739ZM198.964 31.31C197 31.31 195.461 30.814 194.345 29.822C193.249 28.83 192.702 27.373 192.702 25.451V18.631C192.702 16.709 193.249 15.252 194.345 14.26C195.461 13.268 197 12.772 198.964 12.772C200.927 12.772 202.467 13.2783 203.583 14.291C204.699 15.283 205.257 16.7297 205.257 18.631V25.451C205.257 27.3523 204.699 28.8093 203.583 29.822C202.467 30.814 200.927 31.31 198.964 31.31ZM198.995 27.962C199.47 27.962 199.801 27.7863 199.987 27.435C200.173 27.063 200.266 26.5153 200.266 25.792V18.29C200.266 17.5667 200.173 17.0293 199.987 16.678C199.801 16.306 199.47 16.12 198.995 16.12C198.519 16.12 198.178 16.306 197.972 16.678C197.786 17.05 197.693 17.5873 197.693 18.29V25.792C197.693 26.5153 197.786 27.063 197.972 27.435C198.178 27.7863 198.519 27.962 198.995 27.962ZM211.531 31.31C210.456 31.31 209.63 30.9277 209.051 30.163C208.472 29.3777 208.183 28.365 208.183 27.125V13.082H213.236V26.536C213.236 26.9907 213.319 27.3317 213.484 27.559C213.649 27.7863 213.918 27.9 214.29 27.9C214.621 27.9 215.117 27.714 215.778 27.342V13.082H220.8V31H215.778V29.357C214.373 30.659 212.957 31.31 211.531 31.31Z" fill="white"/>
<path d="M224.145 26.226H228.919V31H224.145V26.226Z" fill="#FFBF00"/>
<path d="M154.751 50.162C153.863 50.162 153.221 49.826 152.825 49.154C152.441 48.482 152.249 47.366 152.249 45.806V43.88C152.249 42.404 152.423 41.294 152.771 40.55C153.119 39.806 153.761 39.434 154.697 39.434C155.369 39.434 155.981 39.734 156.533 40.334V35.42H157.847V50H156.533V49.262C155.981 49.862 155.387 50.162 154.751 50.162ZM155.021 49.118C155.525 49.118 156.029 48.89 156.533 48.434V41.198C155.981 40.706 155.465 40.46 154.985 40.46C154.433 40.46 154.055 40.694 153.851 41.162C153.659 41.63 153.563 42.392 153.563 43.448V45.914C153.563 47.042 153.659 47.858 153.851 48.362C154.055 48.866 154.445 49.118 155.021 49.118ZM162.672 50.162C162 50.162 161.46 50.03 161.052 49.766C160.644 49.502 160.344 49.076 160.152 48.488C159.96 47.9 159.864 47.102 159.864 46.094V43.466C159.864 42.446 159.96 41.648 160.152 41.072C160.356 40.484 160.662 40.064 161.07 39.812C161.49 39.56 162.03 39.434 162.69 39.434C163.41 39.434 163.962 39.59 164.346 39.902C164.742 40.202 165.012 40.658 165.156 41.27C165.312 41.882 165.39 42.704 165.39 43.736V44.672H161.178V46.49C161.178 47.486 161.292 48.182 161.52 48.578C161.748 48.974 162.132 49.172 162.672 49.172C163.128 49.172 163.476 49.028 163.716 48.74C163.968 48.452 164.094 47.93 164.094 47.174V46.454H165.372V47.03C165.372 48.038 165.162 48.812 164.742 49.352C164.322 49.892 163.632 50.162 162.672 50.162ZM164.094 43.916V43.052C164.094 42.428 164.058 41.936 163.986 41.576C163.926 41.216 163.794 40.934 163.59 40.73C163.386 40.526 163.08 40.424 162.672 40.424C162.3 40.424 162.006 40.508 161.79 40.676C161.574 40.832 161.418 41.114 161.322 41.522C161.226 41.918 161.178 42.482 161.178 43.214V43.916H164.094ZM167.992 40.55H166.66V39.596H167.992V38.516C167.992 37.628 168.13 36.968 168.406 36.536C168.694 36.104 169.228 35.888 170.008 35.888C170.32 35.888 170.638 35.918 170.962 35.978V36.968C170.758 36.92 170.518 36.896 170.242 36.896C169.858 36.896 169.606 36.998 169.486 37.202C169.378 37.406 169.324 37.802 169.324 38.39V39.596H173.266V50H171.952V40.55H169.324V50H167.992V40.55ZM172.06 36.374H173.284V38.156H172.06V36.374ZM181.686 50.162C180.918 50.162 180.33 49.994 179.922 49.658C179.514 49.31 179.238 48.848 179.094 48.272C178.962 47.684 178.896 46.946 178.896 46.058V43.628C178.896 42.62 178.974 41.816 179.13 41.216C179.298 40.616 179.58 40.172 179.976 39.884C180.384 39.584 180.954 39.434 181.686 39.434C182.706 39.434 183.402 39.716 183.774 40.28C184.146 40.832 184.332 41.66 184.332 42.764V43.268H183.108V42.764C183.108 42.152 183.06 41.678 182.964 41.342C182.88 41.006 182.736 40.772 182.532 40.64C182.328 40.496 182.046 40.424 181.686 40.424C181.278 40.424 180.966 40.52 180.75 40.712C180.546 40.904 180.402 41.21 180.318 41.63C180.246 42.038 180.21 42.632 180.21 43.412V46.328C180.21 47.048 180.252 47.612 180.336 48.02C180.42 48.428 180.57 48.722 180.786 48.902C181.002 49.082 181.308 49.172 181.704 49.172C182.112 49.172 182.412 49.088 182.604 48.92C182.808 48.74 182.94 48.476 183 48.128C183.072 47.78 183.108 47.294 183.108 46.67V46.094H184.332V46.598C184.332 47.378 184.26 48.026 184.116 48.542C183.984 49.046 183.726 49.442 183.342 49.73C182.958 50.018 182.406 50.162 181.686 50.162ZM188.844 50.162C187.812 50.162 187.092 49.844 186.684 49.208C186.276 48.56 186.072 47.57 186.072 46.238V43.358C186.072 42.026 186.276 41.042 186.684 40.406C187.092 39.758 187.812 39.434 188.844 39.434C189.888 39.434 190.614 39.758 191.022 40.406C191.43 41.042 191.634 42.026 191.634 43.358V46.238C191.634 47.57 191.43 48.56 191.022 49.208C190.614 49.844 189.888 50.162 188.844 50.162ZM188.844 49.172C189.276 49.172 189.594 49.058 189.798 48.83C190.014 48.602 190.152 48.296 190.212 47.912C190.272 47.516 190.302 46.982 190.302 46.31V43.286C190.302 42.614 190.272 42.086 190.212 41.702C190.152 41.306 190.014 40.994 189.798 40.766C189.594 40.538 189.276 40.424 188.844 40.424C188.412 40.424 188.094 40.538 187.89 40.766C187.686 40.994 187.554 41.306 187.494 41.702C187.434 42.086 187.404 42.614 187.404 43.286V46.31C187.404 46.982 187.434 47.516 187.494 47.912C187.554 48.296 187.686 48.602 187.89 48.83C188.094 49.058 188.412 49.172 188.844 49.172ZM193.64 39.596H194.864V40.658C195.2 40.25 195.578 39.944 195.998 39.74C196.418 39.524 196.856 39.416 197.312 39.416C198.176 39.416 198.728 39.866 198.968 40.766C199.316 40.322 199.706 39.986 200.138 39.758C200.582 39.53 201.044 39.416 201.524 39.416C202.04 39.416 202.46 39.602 202.784 39.974C203.12 40.346 203.288 40.952 203.288 41.792V50H202.064V41.828C202.064 41.264 201.974 40.874 201.794 40.658C201.614 40.43 201.356 40.316 201.02 40.316C200.708 40.316 200.378 40.412 200.03 40.604C199.682 40.796 199.358 41.06 199.058 41.396C199.082 41.564 199.094 41.696 199.094 41.792V50H197.852V41.828C197.852 41.252 197.762 40.856 197.582 40.64C197.402 40.424 197.144 40.316 196.808 40.316C196.496 40.316 196.172 40.412 195.836 40.604C195.5 40.796 195.176 41.054 194.864 41.378V50H193.64V39.596ZM208.152 39.596H209.484L211.176 48.488L212.85 39.596H214.128L211.95 50H210.402L208.152 39.596ZM215.643 39.596H216.957V40.676C217.305 40.292 217.689 39.992 218.109 39.776C218.541 39.548 218.991 39.434 219.459 39.434C219.975 39.434 220.371 39.626 220.647 40.01C220.923 40.394 221.061 40.94 221.061 41.648V50H219.747V41.936C219.747 41.408 219.663 41.03 219.495 40.802C219.339 40.574 219.093 40.46 218.757 40.46C218.469 40.46 218.169 40.55 217.857 40.73C217.545 40.898 217.245 41.132 216.957 41.432V50H215.643V39.596Z" fill="#FFBF00"/>
<path d="M175.734 48.02H177.12V50H175.734V48.02ZM205.476 48.02H206.862V50H205.476V48.02Z" fill="white"/>
</svg>
