<svg width="230" height="53" viewBox="0 0 230 53" fill="none" xmlns="http://www.w3.org/2000/svg">
<circle cx="26" cy="26" r="26" fill="#FFBF00"/>
<path d="M10.6238 38.2056C10.6238 37.9591 10.6238 37.7404 10.6238 37.4981C10.7078 37.4904 10.7857 37.4774 10.8635 37.4772C11.4879 37.4756 12.1124 37.4762 12.737 37.4762C12.8179 37.4762 12.8991 37.4762 12.9959 37.4762C13.0081 37.4161 13.0228 37.3665 13.027 37.3162C13.0323 37.2563 13.0289 37.1959 13.0289 37.1356C13.0289 29.4053 13.0289 21.6751 13.0285 13.9449C13.0285 13.8398 13.0211 13.7349 13.0162 13.6033C12.2133 13.6033 11.4301 13.6033 10.6298 13.6033C10.6298 13.3525 10.6298 13.1292 10.6298 12.8823C10.7247 12.8752 10.8166 12.8628 10.9083 12.8628C13.0329 12.8618 15.1576 12.862 17.2822 12.862C18.4632 12.862 19.6444 12.8571 20.8254 12.8636C21.7211 12.8684 22.6178 12.8642 23.5121 12.905C25.2701 12.9851 27.0056 13.2201 28.6919 13.7409C29.7253 14.06 30.7084 14.4874 31.6257 15.0593C33.1722 16.0235 34.2802 17.3489 34.9913 19.0049C35.4142 19.9896 35.6797 21.0164 35.8472 22.0706C35.9925 22.9847 36.0571 23.9052 36.0661 24.829C36.0818 26.4725 35.9595 28.1036 35.5611 29.7058C35.3015 30.7499 34.9261 31.7496 34.387 32.6872C33.5626 34.1214 32.401 35.2169 30.9571 36.0352C29.599 36.805 28.1442 37.3192 26.621 37.6588C25.834 37.8343 25.039 37.9663 24.2374 38.0481C23.5906 38.1142 22.9402 38.1658 22.2905 38.1805C18.4766 38.2661 14.6617 38.1978 10.8474 38.2181C10.7812 38.2189 10.7149 38.211 10.6238 38.2056ZM20.2368 37.4762C20.3477 37.4762 20.415 37.4762 20.4822 37.4762C20.9165 37.4758 21.351 37.4754 21.7853 37.4752C22.3775 37.475 22.9622 37.4067 23.5372 37.27C25.1246 36.8926 26.3094 36.0006 27.0684 34.5685C27.4159 33.9128 27.6551 33.2177 27.8379 32.5029C28.0637 31.6198 28.2168 30.7236 28.292 29.8161C28.3554 29.0497 28.4251 28.2822 28.4424 27.5142C28.4695 26.3102 28.4561 25.1053 28.4577 23.9006C28.4589 22.9903 28.4186 22.0818 28.3354 21.1749C28.259 20.3416 28.1442 19.5145 27.9586 18.6981C27.7562 17.8077 27.4739 16.9452 27.0264 16.1402C26.426 15.0603 25.5425 14.3379 24.3342 13.9951C23.4673 13.7491 22.582 13.6497 21.6871 13.6107C21.2805 13.593 20.8727 13.6045 20.4655 13.6041C20.3995 13.6041 20.3334 13.6109 20.2364 13.6161C20.2368 21.5688 20.2368 29.5078 20.2368 37.4762Z" fill="black"/>
<path d="M40.9196 32.2339C41.3857 32.2369 41.8399 32.299 42.2795 32.4493C43.2539 32.7825 43.8793 33.4277 44.0799 34.4395C44.2211 35.1524 44.2066 35.8646 43.9894 36.5613C43.6535 37.6382 42.9099 38.2804 41.7924 38.4956C41.2228 38.6053 40.6501 38.6095 40.0754 38.5066C39.2119 38.3517 38.5575 37.9058 38.1465 37.1448C37.5793 36.0951 37.5277 35.0051 38.0228 33.9212C38.4518 32.9822 39.2062 32.4296 40.2523 32.291C40.4737 32.262 40.6972 32.2526 40.9196 32.2339Z" fill="black"/>
<path d="M64.86 5.89H71.215C73.385 5.89 75.0797 6.15866 76.299 6.696C77.5183 7.23333 78.376 8.08067 78.872 9.238C79.3887 10.3747 79.647 11.904 79.647 13.826V22.94C79.647 24.8827 79.3887 26.4327 78.872 27.59C78.376 28.7473 77.5183 29.605 76.299 30.163C75.1003 30.721 73.4263 31 71.277 31H64.86V5.89ZM71.277 27.156C72.083 27.156 72.672 27.0423 73.044 26.815C73.4367 26.567 73.6847 26.226 73.788 25.792C73.8913 25.3373 73.943 24.676 73.943 23.808V12.865C73.943 12.059 73.881 11.4493 73.757 11.036C73.6537 10.602 73.4057 10.2817 73.013 10.075C72.641 9.86833 72.052 9.765 71.246 9.765H70.409V27.156H71.277ZM88.9141 31.31C86.9507 31.31 85.4214 30.7933 84.3261 29.76C83.2307 28.706 82.6831 27.2283 82.6831 25.327V18.755C82.6831 16.8537 83.2307 15.3863 84.3261 14.353C85.4214 13.299 86.9507 12.772 88.9141 12.772C90.8981 12.772 92.3861 13.2783 93.3781 14.291C94.3701 15.3037 94.8661 16.7917 94.8661 18.755V22.351H87.6741V25.792C87.6741 27.0733 88.0874 27.714 88.9141 27.714C89.7821 27.714 90.2161 27.1353 90.2161 25.978V24.087H94.8661V25.823C94.8661 27.621 94.3391 28.985 93.2851 29.915C92.2517 30.845 90.7947 31.31 88.9141 31.31ZM90.2161 19.995V18.197C90.2161 17.5357 90.0921 17.0707 89.8441 16.802C89.6167 16.5127 89.2964 16.368 88.8831 16.368C88.4904 16.368 88.1907 16.523 87.9841 16.833C87.7774 17.143 87.6741 17.6907 87.6741 18.476V19.995H90.2161ZM98.2056 5.89H109.056V9.641H103.755V15.965H108.374V19.84H103.755V31H98.2056V5.89ZM111.678 6.541H116.762V10.044H111.678V6.541ZM111.709 13.082H116.762V31H111.709V13.082ZM128.713 5.89H139.563V9.641H134.262V15.965H138.881V19.84H134.262V31H128.713V5.89ZM148.075 31.31C146.112 31.31 144.572 30.814 143.456 29.822C142.361 28.83 141.813 27.373 141.813 25.451V18.631C141.813 16.709 142.361 15.252 143.456 14.26C144.572 13.268 146.112 12.772 148.075 12.772C150.038 12.772 151.578 13.2783 152.694 14.291C153.81 15.283 154.368 16.7297 154.368 18.631V25.451C154.368 27.3523 153.81 28.8093 152.694 29.822C151.578 30.814 150.038 31.31 148.075 31.31ZM148.106 27.962C148.581 27.962 148.912 27.7863 149.098 27.435C149.284 27.063 149.377 26.5153 149.377 25.792V18.29C149.377 17.5667 149.284 17.0293 149.098 16.678C148.912 16.306 148.581 16.12 148.106 16.12C147.631 16.12 147.29 16.306 147.083 16.678C146.897 17.05 146.804 17.5873 146.804 18.29V25.792C146.804 26.5153 146.897 27.063 147.083 27.435C147.29 27.7863 147.631 27.962 148.106 27.962ZM157.542 13.082H162.595V16.058C163.215 14.9627 163.815 14.1567 164.393 13.64C164.972 13.1233 165.654 12.865 166.439 12.865C166.729 12.865 166.987 12.896 167.214 12.958V17.98C166.594 17.732 166.047 17.608 165.571 17.608C164.476 17.608 163.484 18.1867 162.595 19.344V31H157.542V13.082ZM181.34 20.739L176.566 5.89H181.805L184.192 13.826L186.331 5.89H191.353L186.672 20.739V31H181.34V20.739ZM198.964 31.31C197 31.31 195.461 30.814 194.345 29.822C193.249 28.83 192.702 27.373 192.702 25.451V18.631C192.702 16.709 193.249 15.252 194.345 14.26C195.461 13.268 197 12.772 198.964 12.772C200.927 12.772 202.467 13.2783 203.583 14.291C204.699 15.283 205.257 16.7297 205.257 18.631V25.451C205.257 27.3523 204.699 28.8093 203.583 29.822C202.467 30.814 200.927 31.31 198.964 31.31ZM198.995 27.962C199.47 27.962 199.801 27.7863 199.987 27.435C200.173 27.063 200.266 26.5153 200.266 25.792V18.29C200.266 17.5667 200.173 17.0293 199.987 16.678C199.801 16.306 199.47 16.12 198.995 16.12C198.519 16.12 198.178 16.306 197.972 16.678C197.786 17.05 197.693 17.5873 197.693 18.29V25.792C197.693 26.5153 197.786 27.063 197.972 27.435C198.178 27.7863 198.519 27.962 198.995 27.962ZM211.531 31.31C210.456 31.31 209.63 30.9277 209.051 30.163C208.472 29.3777 208.183 28.365 208.183 27.125V13.082H213.236V26.536C213.236 26.9907 213.319 27.3317 213.484 27.559C213.649 27.7863 213.918 27.9 214.29 27.9C214.621 27.9 215.117 27.714 215.778 27.342V13.082H220.8V31H215.778V29.357C214.373 30.659 212.957 31.31 211.531 31.31Z" fill="white"/>
<path d="M224.145 26.226H228.919V31H224.145V26.226Z" fill="#FFBF00"/>
<path d="M143.967 50.162C143.079 50.162 142.437 49.826 142.041 49.154C141.657 48.482 141.465 47.366 141.465 45.806V43.88C141.465 42.404 141.639 41.294 141.987 40.55C142.335 39.806 142.977 39.434 143.913 39.434C144.585 39.434 145.197 39.734 145.749 40.334V35.42H147.063V50H145.749V49.262C145.197 49.862 144.603 50.162 143.967 50.162ZM144.237 49.118C144.741 49.118 145.245 48.89 145.749 48.434V41.198C145.197 40.706 144.681 40.46 144.201 40.46C143.649 40.46 143.271 40.694 143.067 41.162C142.875 41.63 142.779 42.392 142.779 43.448V45.914C142.779 47.042 142.875 47.858 143.067 48.362C143.271 48.866 143.661 49.118 144.237 49.118ZM151.888 50.162C151.216 50.162 150.676 50.03 150.268 49.766C149.86 49.502 149.56 49.076 149.368 48.488C149.176 47.9 149.08 47.102 149.08 46.094V43.466C149.08 42.446 149.176 41.648 149.368 41.072C149.572 40.484 149.878 40.064 150.286 39.812C150.706 39.56 151.246 39.434 151.906 39.434C152.626 39.434 153.178 39.59 153.562 39.902C153.958 40.202 154.228 40.658 154.372 41.27C154.528 41.882 154.606 42.704 154.606 43.736V44.672H150.394V46.49C150.394 47.486 150.508 48.182 150.736 48.578C150.964 48.974 151.348 49.172 151.888 49.172C152.344 49.172 152.692 49.028 152.932 48.74C153.184 48.452 153.31 47.93 153.31 47.174V46.454H154.588V47.03C154.588 48.038 154.378 48.812 153.958 49.352C153.538 49.892 152.848 50.162 151.888 50.162ZM153.31 43.916V43.052C153.31 42.428 153.274 41.936 153.202 41.576C153.142 41.216 153.01 40.934 152.806 40.73C152.602 40.526 152.296 40.424 151.888 40.424C151.516 40.424 151.222 40.508 151.006 40.676C150.79 40.832 150.634 41.114 150.538 41.522C150.442 41.918 150.394 42.482 150.394 43.214V43.916H153.31ZM157.208 40.55H155.876V39.596H157.208V38.516C157.208 37.628 157.346 36.968 157.622 36.536C157.91 36.104 158.444 35.888 159.224 35.888C159.536 35.888 159.854 35.918 160.178 35.978V36.968C159.974 36.92 159.734 36.896 159.458 36.896C159.074 36.896 158.822 36.998 158.702 37.202C158.594 37.406 158.54 37.802 158.54 38.39V39.596H162.482V50H161.168V40.55H158.54V50H157.208V40.55ZM161.276 36.374H162.5V38.156H161.276V36.374ZM165.527 40.55H164.195V39.596H165.527V38.516C165.527 37.928 165.569 37.448 165.653 37.076C165.749 36.704 165.935 36.41 166.211 36.194C166.487 35.978 166.895 35.87 167.435 35.87C167.819 35.87 168.173 35.912 168.497 35.996V36.968C168.257 36.908 168.011 36.878 167.759 36.878C167.387 36.878 167.141 36.992 167.021 37.22C166.913 37.436 166.859 37.826 166.859 38.39V39.596H168.533V40.55H166.859V50H165.527V40.55ZM172.449 50.162C171.417 50.162 170.697 49.844 170.289 49.208C169.881 48.56 169.677 47.57 169.677 46.238V43.358C169.677 42.026 169.881 41.042 170.289 40.406C170.697 39.758 171.417 39.434 172.449 39.434C173.493 39.434 174.219 39.758 174.627 40.406C175.035 41.042 175.239 42.026 175.239 43.358V46.238C175.239 47.57 175.035 48.56 174.627 49.208C174.219 49.844 173.493 50.162 172.449 50.162ZM172.449 49.172C172.881 49.172 173.199 49.058 173.403 48.83C173.619 48.602 173.757 48.296 173.817 47.912C173.877 47.516 173.907 46.982 173.907 46.31V43.286C173.907 42.614 173.877 42.086 173.817 41.702C173.757 41.306 173.619 40.994 173.403 40.766C173.199 40.538 172.881 40.424 172.449 40.424C172.017 40.424 171.699 40.538 171.495 40.766C171.291 40.994 171.159 41.306 171.099 41.702C171.039 42.086 171.009 42.614 171.009 43.286V46.31C171.009 46.982 171.039 47.516 171.099 47.912C171.159 48.296 171.291 48.602 171.495 48.83C171.699 49.058 172.017 49.172 172.449 49.172ZM177.334 39.596H178.666V41.018C178.978 40.502 179.344 40.118 179.764 39.866C180.196 39.614 180.628 39.488 181.06 39.488C181.144 39.488 181.222 39.494 181.294 39.506V40.91C181.078 40.838 180.862 40.802 180.646 40.802C179.818 40.802 179.158 41.204 178.666 42.008V50H177.334V39.596ZM182.48 51.566C183.32 51.566 183.884 51.476 184.172 51.296C184.46 51.116 184.604 50.846 184.604 50.486C184.604 50.258 184.55 49.934 184.442 49.514C184.346 49.082 184.286 48.83 184.262 48.758L182.12 39.596H183.434L185.234 48.452L186.98 39.596H188.312L185.792 50.738C185.636 51.398 185.324 51.872 184.856 52.16C184.388 52.448 183.71 52.592 182.822 52.592H182.48V51.566ZM192.378 50.162C191.346 50.162 190.626 49.844 190.218 49.208C189.81 48.56 189.606 47.57 189.606 46.238V43.358C189.606 42.026 189.81 41.042 190.218 40.406C190.626 39.758 191.346 39.434 192.378 39.434C193.422 39.434 194.148 39.758 194.556 40.406C194.964 41.042 195.168 42.026 195.168 43.358V46.238C195.168 47.57 194.964 48.56 194.556 49.208C194.148 49.844 193.422 50.162 192.378 50.162ZM192.378 49.172C192.81 49.172 193.128 49.058 193.332 48.83C193.548 48.602 193.686 48.296 193.746 47.912C193.806 47.516 193.836 46.982 193.836 46.31V43.286C193.836 42.614 193.806 42.086 193.746 41.702C193.686 41.306 193.548 40.994 193.332 40.766C193.128 40.538 192.81 40.424 192.378 40.424C191.946 40.424 191.628 40.538 191.424 40.766C191.22 40.994 191.088 41.306 191.028 41.702C190.968 42.086 190.938 42.614 190.938 43.286V46.31C190.938 46.982 190.968 47.516 191.028 47.912C191.088 48.296 191.22 48.602 191.424 48.83C191.628 49.058 191.946 49.172 192.378 49.172ZM198.703 50.162C198.175 50.162 197.773 49.97 197.497 49.586C197.221 49.202 197.083 48.656 197.083 47.948V39.596H198.415V47.66C198.415 48.188 198.493 48.566 198.649 48.794C198.817 49.01 199.069 49.118 199.405 49.118C199.705 49.118 200.011 49.028 200.323 48.848C200.647 48.656 200.953 48.404 201.241 48.092V39.596H202.555V50H201.241V48.848C200.893 49.256 200.503 49.58 200.071 49.82C199.639 50.048 199.183 50.162 198.703 50.162ZM209.733 50.162C209.205 50.162 208.803 49.97 208.527 49.586C208.251 49.202 208.113 48.656 208.113 47.948V39.596H209.445V47.66C209.445 48.188 209.523 48.566 209.679 48.794C209.847 49.01 210.099 49.118 210.435 49.118C210.735 49.118 211.041 49.028 211.353 48.848C211.677 48.656 211.983 48.404 212.271 48.092V39.596H213.585V50H212.271V48.848C211.923 49.256 211.533 49.58 211.101 49.82C210.669 50.048 210.213 50.162 209.733 50.162ZM215.819 35.42H217.133V44.672L220.607 39.596H221.993L219.365 43.61L221.885 50H220.553L218.357 44.348L217.133 46.058V50H215.819V35.42Z" fill="#FFBF00"/>
<path d="M204.843 48.02H206.229V50H204.843V48.02Z" fill="white"/>
</svg>
