<svg width="60" height="60" viewBox="0 0 60 60" fill="none" xmlns="http://www.w3.org/2000/svg">
<path d="M3.07692 10.7693H56.9231C58.6225 10.7693 60 12.1469 60 13.8462V46.1539C60 47.8533 58.6225 49.2309 56.9231 49.2309H3.07692C1.37762 49.2309 0 47.8533 0 46.1539V13.8462C0 12.1469 1.37762 10.7693 3.07692 10.7693Z" fill="#2557D6"/>
<path d="M0.0194619 28.8992H2.89954L3.54892 27.3985H5.00277L5.65046 28.8992H11.3172V27.7519L11.8231 28.9042H14.7648L15.2707 27.7348V28.8993H29.3538L29.3472 26.4358H29.6197C29.8104 26.4421 29.8662 26.459 29.8662 26.7608V28.8993H37.1499V28.3258C37.7375 28.6274 38.6513 28.8993 39.8536 28.8993H42.9179L43.5737 27.3985H45.0275L45.6689 28.8993H51.5739V27.4738L52.4682 28.8993H57.2001V19.4755H52.517V20.5884L51.8615 19.4755H47.056V20.5884L46.4539 19.4755H39.9631C38.8767 19.4755 37.9216 19.6208 37.1501 20.0257V19.4755H32.6709V20.0257C32.1799 19.6083 31.511 19.4755 30.7671 19.4755H14.4025L13.3045 21.9094L12.1768 19.4755H7.02262V20.5884L6.45631 19.4755H2.06054L0.0190773 23.9559V28.8991H0.0193081L0.0194619 28.8992ZM18.1995 27.54H16.4715L16.4651 22.2482L14.0208 27.5399H12.5408L10.0902 22.2435V27.5399H6.66177L6.01408 26.0328H2.50431L1.85008 27.5399H0.0192311L3.03777 20.7832H5.54231L8.40915 27.1805V20.7832H11.1604L13.3664 25.3668L15.3928 20.7832H18.1994L18.1995 27.54ZM5.43792 24.6305L4.28423 21.9369L3.13692 24.6305H5.43792ZM25.0764 27.5398H19.4454V20.7832H25.0764V22.1902H21.1311V23.4081H24.9819V24.7931H21.131V26.1425H25.0763L25.0764 27.5398ZM33.0118 22.6029C33.0118 23.6801 32.2614 24.2368 31.8242 24.4038C32.1929 24.5383 32.5081 24.776 32.658 24.9728C32.896 25.3089 32.9371 25.6091 32.9371 26.2125V27.5398H31.2368L31.2304 26.6878C31.2304 26.2812 31.271 25.6965 30.9644 25.3715C30.7181 25.1338 30.3426 25.0822 29.7357 25.0822H27.9262V27.5399H26.2405V20.7832H30.1175C30.979 20.7832 31.6138 20.8049 32.1587 21.1068C32.692 21.4086 33.0118 21.8492 33.0118 22.6029ZM30.8811 23.6062C30.6493 23.7409 30.3755 23.7454 30.0472 23.7454H27.9995V22.2446H30.075C30.3687 22.2446 30.6753 22.2572 30.8745 22.3665C31.0931 22.4649 31.2284 22.6744 31.2284 22.9638C31.2284 23.2592 31.0996 23.4968 30.8811 23.6062ZM35.7152 27.5398H33.9954V20.7832H35.7152V27.5398ZM55.6814 27.5398H53.2927L50.0977 22.4685V27.5398H46.6648L46.0089 26.0328H42.5072L41.871 27.5398H39.8981C39.0789 27.5398 38.0413 27.3662 37.454 26.7925C36.8616 26.2188 36.5534 25.4418 36.5534 24.2131C36.5534 23.211 36.7376 22.2949 37.462 21.571C38.007 21.0318 38.8605 20.7832 40.022 20.7832H41.6539V22.2309H40.0562C39.441 22.2309 39.0935 22.3186 38.7591 22.6312C38.4718 22.9157 38.2746 23.4535 38.2746 24.1617C38.2746 24.8855 38.4247 25.4075 38.7379 25.7485C38.9974 26.0158 39.4692 26.0969 39.9127 26.0969H40.6698L43.0455 20.7834H45.5712L48.4252 27.1742V20.7835H50.9919L53.9549 25.4891V20.7835H55.6814V27.5398ZM45.4352 24.6306L44.2687 21.937L43.1086 24.6306H45.4352ZM59.9768 38.3291C59.5674 38.9027 58.7695 39.1935 57.6894 39.1935H54.4341V37.7443H57.6762C57.9978 37.7443 58.2228 37.7037 58.3583 37.577C58.4864 37.4636 58.5587 37.3036 58.5576 37.1363C58.5576 36.9393 58.4758 36.783 58.3517 36.6893C58.2294 36.5861 58.0514 36.5393 57.7577 36.5393C56.1751 36.4877 54.2005 36.5861 54.2005 34.4474C54.2005 33.4673 54.8499 32.4354 56.6189 32.4354H59.9765V31.0909H56.8567C55.9154 31.0909 55.2314 31.3071 54.7471 31.6428V31.0908H50.1329C49.3948 31.0908 48.5287 31.2661 48.1191 31.6428V31.0908H39.8791V31.6428C39.2234 31.1895 38.1169 31.0908 37.6061 31.0908H32.171V31.6428C31.6522 31.1614 30.4985 31.0908 29.7952 31.0908H23.7123L22.3205 32.5342L21.0167 31.0908H11.9298V40.5208H20.8452L22.2795 39.0545L23.6306 40.5208L29.1262 40.5255V38.3072H29.6662C30.3954 38.318 31.2555 38.2897 32.0142 37.9755V40.5205H36.5471V38.0627H36.7657C37.0448 38.0627 37.0722 38.0737 37.0722 38.3407V40.5202H50.8422C51.7164 40.5202 52.6302 40.3059 53.1364 39.9167V40.5202H57.5041C58.4129 40.5202 59.3005 40.3981 59.9759 40.0857L59.9761 38.3287L59.9768 38.3291ZM32.6737 34.7017C32.6737 36.5791 31.2118 36.9667 29.7384 36.9667H27.6351V39.2336H24.3589L22.2832 36.9962L20.1261 39.2336H13.449V32.4752H20.2286L22.3025 34.6905L24.4468 32.4752H29.833C31.1706 32.4752 32.6737 32.8301 32.6737 34.7017ZM19.2722 37.8121H15.1277V36.4674H18.8285V35.0885H15.1277V33.8597H19.3538L21.1975 35.8293L19.2722 37.8121ZM25.9499 38.5859L23.3619 35.8329L25.9499 33.1675V38.5859ZM29.7773 35.5808H27.599V33.8597H29.7969C30.4055 33.8597 30.8279 34.0974 30.8279 34.6884C30.8279 35.2729 30.425 35.5808 29.7773 35.5808ZM41.1896 32.4752H46.8156V33.8729H42.8683V35.1016H46.7192V36.4805H42.8683V37.8251L46.8155 37.8313V39.2336H41.1895L41.1896 32.4752ZM39.0266 36.0928C39.4019 36.2255 39.7085 36.4633 39.8523 36.6601C40.0904 36.9902 40.1248 37.2981 40.1316 37.8937V39.2336H38.4392V38.3881C38.4392 37.9814 38.48 37.3794 38.1667 37.0651C37.9205 36.8231 37.5449 36.7652 36.9301 36.7652H35.1285V39.2337H33.4347V32.4753H37.3265C38.1799 32.4753 38.8014 32.5114 39.3547 32.7942C39.8866 33.1022 40.2213 33.524 40.2213 34.2951C40.2212 35.3737 39.4702 35.9241 39.0266 36.0928ZM38.0739 35.2384C37.8484 35.3667 37.5696 35.3777 37.2418 35.3777H35.1939V33.8599H37.2695C37.5696 33.8599 37.87 33.8661 38.0739 33.982C38.2924 34.0914 38.423 34.3009 38.423 34.5899C38.423 34.879 38.2923 35.1119 38.0739 35.2384ZM53.2909 35.669C53.6193 35.9943 53.795 36.4052 53.795 37.1007C53.795 38.5546 52.8472 39.2333 51.1469 39.2333H47.8639V37.7841H51.1339C51.4536 37.7841 51.6803 37.7437 51.8223 37.6167C51.9383 37.5123 52.0215 37.3604 52.0215 37.1761C52.0215 36.9791 51.9315 36.8228 51.8157 36.7291C51.6869 36.626 51.5091 36.5791 51.2155 36.5791C49.6391 36.5276 47.6649 36.626 47.6649 34.4874C47.6649 33.5071 48.3076 32.4753 50.0749 32.4753H53.4543V33.9137H50.3622C50.0557 33.9137 49.8564 33.9249 49.6869 34.0358C49.5022 34.1452 49.4338 34.3077 49.4338 34.5219C49.4338 34.7768 49.5905 34.9504 49.8026 35.0254C49.9804 35.0847 50.1715 35.102 50.4585 35.102L51.3659 35.1255C52.2809 35.1467 52.9091 35.2984 53.2909 35.669ZM59.9797 33.8597H56.9075C56.6009 33.8597 56.3969 33.8708 56.2255 33.9818C56.0476 34.0913 55.9792 34.2537 55.9792 34.4681C55.9792 34.7231 56.1292 34.8964 56.3477 34.9715C56.5256 35.0308 56.7165 35.0481 56.9972 35.0481L57.9109 35.0715C58.8327 35.0934 59.448 35.2452 59.8232 35.6155C59.8918 35.6671 59.9326 35.7249 59.9796 35.7828V33.8597H59.9797Z" fill="white"/>
</svg>
