<svg width="19" height="20" viewBox="0 0 19 20" fill="none" xmlns="http://www.w3.org/2000/svg">
<path d="M6.80005 9V11H4.80005V9H6.80005ZM10.8 9V11H8.80005V9H10.8ZM14.8 9V11H12.8V9H14.8ZM16.8 2C17.3305 2 17.8392 2.21071 18.2143 2.58579C18.5893 2.96086 18.8 3.46957 18.8 4V18C18.8 18.5304 18.5893 19.0391 18.2143 19.4142C17.8392 19.7893 17.3305 20 16.8 20H2.80005C1.69005 20 0.800049 19.1 0.800049 18V4C0.800049 3.46957 1.01076 2.96086 1.38584 2.58579C1.76091 2.21071 2.26962 2 2.80005 2H3.80005V0H5.80005V2H13.8V0H15.8V2H16.8ZM16.8 18V7H2.80005V18H16.8ZM6.80005 13V15H4.80005V13H6.80005ZM10.8 13V15H8.80005V13H10.8ZM14.8 13V15H12.8V13H14.8Z" fill="white"/>
</svg>
