<svg width="60" height="42" viewBox="0 0 60 42" fill="none" xmlns="http://www.w3.org/2000/svg">
<rect y="7.14484" width="59.9532" height="26.815" fill="white"/>
<path fill-rule="evenodd" clip-rule="evenodd" d="M2.04016 40.7468C1.2356 40.3448 0.690047 39.7883 0.328689 39.0009C0.113583 38.5322 0.0790398 38.1966 0.0420375 36.2139L0 33.9598H30H60L59.9433 36.1554C59.9094 37.4753 59.8275 38.5225 59.7382 38.7811C59.4977 39.4775 58.7996 40.2878 58.1012 40.6813L57.4571 41.0441L30.1066 41.0743L2.75609 41.1047L2.04016 40.7468Z" fill="#F79F1A"/>
<path fill-rule="evenodd" clip-rule="evenodd" d="M2.04016 0.357845C1.2356 0.759836 0.690047 1.31639 0.328689 2.10375C0.113583 2.57248 0.0790398 2.90808 0.0420375 4.89075L0 7.14485H30H60L59.9433 4.9493C59.9094 3.62939 59.8275 2.5822 59.7382 2.32354C59.4977 1.62717 58.7996 0.816861 58.1012 0.423419L57.4571 0.0605384L30.1066 0.0303273L2.75609 0L2.04016 0.357845ZM35.1342 12.9484C32.884 13.3556 31.2014 14.4631 30.4552 16.0282C30.1001 16.7727 30.0126 18.2007 30.2793 18.8988C30.7211 20.056 31.5807 20.8002 33.7559 21.9091C35.3411 22.7173 35.8529 23.1912 35.8529 23.8506C35.8529 24.1768 35.7643 24.3553 35.4597 24.6426C34.9231 25.1487 34.3418 25.2959 32.9119 25.2879C31.652 25.281 30.7378 25.097 29.5553 24.6121C29.0952 24.4234 28.9246 24.3959 28.8893 24.5046C28.7041 25.0753 28.3607 27.5683 28.4543 27.6619C28.8574 28.065 32.08 28.5256 33.7 28.4117C37.6714 28.1325 40.07 26.2169 40.084 23.313C40.0926 21.4924 39.2042 20.45 36.4375 19.0348C34.8315 18.2133 34.3307 17.798 34.3307 17.2876C34.3307 16.3748 35.1376 15.9334 36.8132 15.9296C38.0399 15.9268 38.8965 16.0687 39.6802 16.4047L40.177 16.6177L40.2446 16.2431C40.2818 16.0371 40.4067 15.3066 40.5222 14.6197L40.7323 13.371L40.0783 13.1882C38.5217 12.7533 36.7001 12.665 35.1342 12.9484ZM17.9718 13.2046C17.4494 14.628 14.0318 23.2703 13.9635 23.3407C13.9126 23.3931 13.7809 23.077 13.6707 22.6384C13.3061 21.1868 12.3087 19.6688 10.5619 17.9076C9.61967 16.9575 8.00082 15.637 7.90082 15.737C7.86276 15.7751 10.1687 23.7794 11.22 27.2587L11.5126 28.2273L13.685 28.1954L15.8573 28.1636L18.8283 21.2549C20.4624 17.4552 21.9301 14.0432 22.0898 13.6729L22.3802 12.9996H20.2136C18.2569 12.9996 18.0397 13.0196 17.9718 13.2046ZM24.1433 13.0493C24.1433 13.124 21.6905 27.5281 21.6144 27.9001L21.5486 28.2221H23.6071C24.7392 28.2221 25.6656 28.1783 25.6656 28.1248C25.6656 28.0039 28.0941 13.7652 28.1904 13.3217L28.2603 12.9996H26.2018C25.0697 12.9996 24.1433 13.022 24.1433 13.0493ZM47.5988 13.1222C47.0277 13.2351 46.5962 13.4926 46.3511 13.8669C46.219 14.0684 41.5718 24.4955 40.1749 27.7245L39.9596 28.2221H42.0945H44.2293L44.6763 27.0512L45.1234 25.8802H47.7988C50.246 25.8802 50.4793 25.8977 50.5337 26.0851C50.5665 26.1978 50.6844 26.7247 50.7958 27.2561L50.9982 28.2221H52.8896H54.7809L53.3396 21.694C52.5468 18.1035 51.7878 14.6786 51.6528 14.0828L51.4075 12.9996L49.7485 13.0125C48.8361 13.0196 47.8687 13.069 47.5988 13.1222ZM49.2005 19.9432C49.5233 21.4115 49.7873 22.6892 49.7873 22.7828C49.7873 22.9235 49.4967 22.9528 48.0964 22.9528C47.1663 22.9528 46.3828 22.9133 46.3553 22.865C46.3276 22.8166 46.7971 21.5125 47.3986 19.9669C48 18.4212 48.4978 17.1302 48.5049 17.098C48.5345 16.9633 48.6426 17.4055 49.2005 19.9432Z" fill="#1E5AB5"/>
<path d="M10.5972 12.8826H3.57144C3.59096 12.9801 3.6417 13.187 3.68854 13.2338C9.44966 14.4048 12.5293 18.7178 13.349 20.728C12.9782 19.0106 12.178 15.3064 11.9438 14.2292C11.7096 13.1519 10.9485 12.8826 10.5972 12.8826Z" fill="#F79F1A"/>
</svg>
