<svg width="60" height="38" viewBox="0 0 60 38" fill="none" xmlns="http://www.w3.org/2000/svg">
<g clip-path="url(#clip0_14305_33797)">
<path d="M11.7285 0.000244141H26.6766C28.7633 0.000244141 30.0611 1.70102 29.5743 3.79456L22.6149 33.674C22.1238 35.7603 20.0346 37.4625 17.9465 37.4625H2.99985C0.916148 37.4625 -0.384574 35.7603 0.102195 33.674L7.06452 3.79456C7.55129 1.70102 9.63937 0.000244141 11.7285 0.000244141Z" fill="#E21836"/>
<path d="M25.4328 0.000152588H42.6227C44.709 0.000152588 43.7683 1.70093 43.2775 3.79447L36.3192 33.6739C35.8309 35.7602 35.9832 37.4624 33.8926 37.4624H16.7027C14.612 37.4624 13.3182 35.7602 13.8094 33.6739L20.7673 3.79447C21.2614 1.70093 23.3451 0.000152588 25.4328 0.000152588Z" fill="#00447C"/>
<path d="M41.9409 0.000152588H56.889C58.9785 0.000152588 60.2763 1.70093 59.7856 3.79447L52.8272 33.6739C52.3361 35.7602 50.2455 37.4624 48.1563 37.4624H33.2151C31.1245 37.4624 29.8278 35.7602 30.3175 33.6739L37.2769 3.79447C37.7636 1.70093 39.8503 0.000152588 41.9409 0.000152588Z" fill="#007B84"/>
<path d="M15.6324 9.57565C14.0952 9.59131 13.6413 9.57565 13.4963 9.5414C13.4405 9.80628 12.4032 14.5913 12.4003 14.5953C12.1769 15.5633 12.0144 16.2534 11.4625 16.699C11.1491 16.9581 10.7833 17.083 10.3592 17.083C9.67752 17.083 9.28038 16.7446 9.2137 16.1026L9.20095 15.8821C9.20095 15.8821 9.40863 14.5854 9.40863 14.5781C9.40863 14.5781 10.4973 10.2176 10.6922 9.64123C10.7024 9.60844 10.7053 9.59131 10.7079 9.57565C8.58885 9.59423 8.21321 9.57565 8.18734 9.5414C8.17313 9.5884 8.12066 9.85874 8.12066 9.85874L7.00903 14.7734L6.91358 15.1902L6.72885 16.5536C6.72885 16.9581 6.80828 17.2882 6.96641 17.5673C7.47285 18.4523 8.91749 18.5849 9.73472 18.5849C10.7877 18.5849 11.7754 18.3612 12.4429 17.9527C13.6015 17.2681 13.9047 16.198 14.175 15.2471L14.3004 14.7592C14.3004 14.7592 15.4218 10.2304 15.6124 9.64123C15.6197 9.60844 15.6226 9.59131 15.6324 9.57565ZM19.4481 13.2291C19.1778 13.2291 18.6837 13.2947 18.24 13.5122C18.0789 13.5949 17.9266 13.6904 17.7659 13.7855L17.9109 13.2619L17.8315 13.1737C16.8904 13.3643 16.6798 13.3898 15.8105 13.5122L15.7376 13.5607C15.6367 14.3976 15.5471 15.0268 15.1729 16.6718C15.0304 17.2781 14.8825 17.8902 14.7342 18.495L14.7743 18.5719C15.6651 18.5249 15.9355 18.5249 16.7097 18.5377L16.7724 18.4695C16.8707 17.9656 16.8835 17.8476 17.1014 16.827C17.2037 16.3432 17.4173 15.28 17.5226 14.9015C17.716 14.8118 17.9069 14.7237 18.0891 14.7237C18.5231 14.7237 18.4702 15.1022 18.4535 15.2531C18.4349 15.5063 18.2768 16.3334 18.1146 17.0435L18.0064 17.5018C17.931 17.8403 17.8483 18.1693 17.7729 18.5049L17.8056 18.5719C18.6837 18.5249 18.9515 18.5249 19.7014 18.5377L19.7895 18.4695C19.9251 17.6825 19.9648 17.4719 20.2052 16.3261L20.3262 15.7996C20.5612 14.7692 20.6793 14.2467 20.5015 13.8212C20.3135 13.3442 19.8624 13.2291 19.4481 13.2291ZM23.7107 14.3079C23.244 14.3975 22.9463 14.4573 22.6505 14.4959C22.3572 14.5429 22.0711 14.5855 21.6201 14.6482L21.5844 14.6806L21.5516 14.7065C21.5046 15.0424 21.4718 15.3328 21.4095 15.6742C21.3567 16.0273 21.2754 16.4284 21.1432 17.0048C21.0408 17.446 20.9879 17.5998 20.9296 17.755C20.8728 17.9102 20.8101 18.0611 20.695 18.495L20.722 18.5351L20.7446 18.5719C21.1661 18.5518 21.4419 18.5376 21.7254 18.5351C22.0085 18.5249 22.3018 18.5351 22.7558 18.5376L22.7955 18.5052L22.8381 18.4695C22.9037 18.0782 22.9135 17.9729 22.9536 17.782C22.9933 17.5772 23.0618 17.2937 23.2298 16.5366C23.3092 16.181 23.3977 15.8265 23.4801 15.4636C23.5657 15.1022 23.6553 14.7462 23.7406 14.3906L23.7278 14.3476L23.7107 14.3079ZM23.7207 12.8534C23.2966 12.603 22.5522 12.6825 22.0512 13.0282C21.5517 13.3671 21.4949 13.848 21.9175 14.1016C22.3343 14.345 23.0816 14.2725 23.5782 13.9238C24.0766 13.5777 24.1389 13.1011 23.7207 12.8534ZM26.2855 18.6503C27.1435 18.6503 28.0231 18.4139 28.6851 17.7121C29.1944 17.143 29.428 16.2963 29.5089 15.9476C29.7723 14.7919 29.5672 14.2523 29.3096 13.9236C28.9183 13.4227 28.2267 13.262 27.5093 13.262C27.0779 13.262 26.0505 13.3046 25.2478 14.0446C24.6714 14.5784 24.4051 15.3027 24.2444 15.9971C24.0823 16.7047 23.8957 17.9785 25.0671 18.4525C25.4285 18.6077 25.9496 18.6503 26.2855 18.6503ZM26.2184 16.05C26.4163 15.1748 26.6498 14.4403 27.2459 14.4403C27.713 14.4403 27.7469 14.9868 27.5392 15.8649C27.502 16.0598 27.3315 16.7845 27.1009 17.0931C26.9399 17.3208 26.7493 17.4589 26.5387 17.4589C26.476 17.4589 26.1033 17.4589 26.0975 16.9055C26.0946 16.6322 26.1503 16.3531 26.2184 16.05ZM31.6538 18.5378L31.7208 18.4696C31.8159 17.9657 31.8316 17.8473 32.0422 16.8272C32.1475 16.3433 32.3654 15.2801 32.4677 14.9016C32.6616 14.8116 32.8492 14.7234 33.0372 14.7234C33.4682 14.7234 33.4158 15.102 33.3987 15.2528C33.383 15.5064 33.2249 16.3331 33.0598 17.0432L32.9574 17.5016C32.8791 17.8404 32.7938 18.169 32.7184 18.505L32.7512 18.572C33.6322 18.525 33.8898 18.525 34.644 18.5378L34.7351 18.4696C34.8673 17.6823 34.903 17.4717 35.1508 16.3262L35.2689 15.7993C35.5049 14.769 35.6245 14.2468 35.4496 13.8213C35.2561 13.3444 34.8021 13.2292 34.3937 13.2292C34.123 13.2292 33.6264 13.2944 33.1851 13.5123C33.0274 13.595 32.8693 13.6901 32.714 13.7856L32.8492 13.262L32.7767 13.1735C31.836 13.3644 31.621 13.3899 30.7528 13.5123L30.6861 13.5608C30.5808 14.3977 30.4952 15.0265 30.121 16.6719C29.9785 17.2782 29.8306 17.8903 29.6827 18.4951L29.7224 18.572C30.6147 18.525 30.881 18.525 31.6538 18.5378ZM38.1266 18.5718C38.182 18.3015 38.511 16.6991 38.5139 16.6991C38.5139 16.6991 38.7941 15.5233 38.8112 15.4807C38.8112 15.4807 38.8994 15.3583 38.9876 15.3098H39.1173C40.3411 15.3098 41.7231 15.3098 42.8063 14.513C43.5434 13.9665 44.0473 13.1594 44.2721 12.1786C44.3304 11.9382 44.3734 11.6521 44.3734 11.3661C44.3734 10.9905 44.2979 10.6188 44.0801 10.3285C43.5277 9.55568 42.4277 9.54147 41.158 9.53564C41.154 9.53564 40.532 9.54147 40.532 9.54147C38.9067 9.56151 38.2549 9.55568 37.9871 9.52289C37.9645 9.6413 37.9219 9.85189 37.9219 9.85189C37.9219 9.85189 37.3396 12.5503 37.3396 12.5546C37.3396 12.5546 35.9464 18.2917 35.8808 18.562C37.2999 18.5449 37.8818 18.5449 38.1266 18.5718ZM39.2054 13.7785C39.2054 13.7785 39.8245 11.0856 39.8216 11.0958L39.8416 10.9577L39.8503 10.8524L40.0977 10.8779C40.0977 10.8779 41.3744 10.9876 41.4043 10.9905C41.9082 11.1854 42.1159 11.6878 41.9708 12.3437C41.8386 12.943 41.4498 13.4469 40.9503 13.6903C40.539 13.8965 40.0351 13.9136 39.5159 13.9136H39.1799L39.2054 13.7785ZM43.0597 16.0998C42.8961 16.7972 42.7081 18.071 43.8736 18.5249C44.2453 18.6831 44.5783 18.7301 44.9168 18.7129C45.2742 18.6936 45.6054 18.5144 45.9121 18.2564C45.8845 18.3624 45.8568 18.4685 45.8291 18.5749L45.8819 18.643C46.7203 18.6077 46.9804 18.6077 47.8887 18.6146L47.9711 18.5519C48.1037 17.7722 48.2287 17.0151 48.5733 15.5234C48.7413 14.809 48.9089 14.1014 49.0812 13.3898L49.0543 13.3115C48.1165 13.4853 47.8658 13.5224 46.9637 13.6503L46.8952 13.7061C46.8861 13.7786 46.8766 13.8482 46.8678 13.9178C46.7276 13.6911 46.5243 13.4977 46.2105 13.3771C45.8094 13.2193 44.8672 13.4226 44.0573 14.1601C43.4881 14.6865 43.2149 15.4079 43.0597 16.0998ZM45.0293 16.1425C45.2301 15.283 45.4607 14.5557 46.0583 14.5557C46.4361 14.5557 46.635 14.9044 46.5946 15.499C46.5625 15.6473 46.5279 15.8036 46.4867 15.9803C46.427 16.2357 46.3621 16.489 46.2991 16.7426C46.235 16.916 46.1603 17.0796 46.0783 17.1885C45.9245 17.4064 45.5587 17.5416 45.3481 17.5416C45.2884 17.5416 44.9197 17.5416 44.9069 16.998C44.904 16.7273 44.9597 16.4485 45.0293 16.1425ZM55.3151 13.3045L55.2426 13.2218C54.3146 13.4098 54.1466 13.4397 53.294 13.5548L53.2314 13.6175C53.2284 13.6277 53.2259 13.6434 53.2215 13.6576L53.2186 13.6434C52.5839 15.1077 52.6025 14.7918 52.0858 15.9446C52.0829 15.8921 52.0829 15.8593 52.08 15.8036L51.9507 13.3045L51.8694 13.2218C50.8973 13.4098 50.8744 13.4397 49.9766 13.5548L49.9067 13.6175C49.8968 13.6474 49.8968 13.6802 49.891 13.7159L49.8968 13.7286C50.0091 14.3021 49.9821 14.1742 50.0947 15.0793C50.1471 15.5234 50.2171 15.9701 50.2696 16.4088C50.3581 17.1429 50.4077 17.5044 50.5159 18.6247C49.9096 19.6252 49.766 20.0038 49.1824 20.8819L49.1864 20.8906L48.7754 21.5406C48.7284 21.6091 48.6857 21.6561 48.626 21.6762C48.5604 21.7086 48.4752 21.7144 48.3567 21.7144H48.129L47.7905 22.8402L48.9517 22.8603C49.6334 22.8574 50.0619 22.5386 50.2925 22.1101L51.0227 20.8589H51.011L51.0879 20.7707C51.579 19.7134 55.3151 13.3045 55.3151 13.3045ZM43.0596 28.0907H42.567L44.3902 22.0604H44.995L45.1871 21.4391L45.2056 22.1299C45.183 22.557 45.519 22.9355 46.4014 22.8729H47.422L47.7732 21.7117H47.3892C47.1684 21.7117 47.066 21.6559 47.0788 21.5364L47.0602 20.8336H45.1703V20.8372C44.5593 20.85 42.7346 20.8959 42.3652 20.9943C41.9181 21.1094 41.447 21.4483 41.447 21.4483L41.6321 20.8263H39.8643L39.4959 22.0604L37.6483 28.1829H37.2898L36.9382 29.3357H40.4593L40.3412 29.72H42.0763L42.1914 29.3357H42.6782L43.0596 28.0907ZM41.615 23.2857C41.3319 23.364 40.805 23.6016 40.805 23.6016L41.2736 22.0604H42.6782L42.3393 23.1833C42.3393 23.1833 41.9054 23.2088 41.615 23.2857ZM41.642 25.4874C41.642 25.4874 41.2007 25.5428 40.9103 25.6084C40.6243 25.6951 40.088 25.9684 40.088 25.9684L40.5719 24.3645H41.9837L41.642 25.4874ZM40.855 28.1049H39.446L39.8545 26.7513H41.259L40.855 28.1049ZM44.248 24.3645H46.2789L45.987 25.3096H43.9292L43.6202 26.3429H45.4208L44.0574 28.2627C43.962 28.4037 43.8764 28.4536 43.7813 28.4933C43.6858 28.5417 43.5605 28.5986 43.4155 28.5986H42.9159L42.5727 29.7302H43.8793C44.5584 29.7302 44.9596 29.4213 45.2558 29.0158L46.1907 27.7362L46.3914 29.0354C46.4341 29.2788 46.609 29.4213 46.7274 29.4767C46.8582 29.5422 46.9934 29.6548 47.1843 29.6716C47.389 29.6803 47.537 29.6873 47.6353 29.6873H48.2773L48.6628 28.4208H48.4096C48.2642 28.4208 48.0139 28.3964 47.9713 28.3508C47.9286 28.2954 47.9286 28.2102 47.9057 28.0805L47.702 26.7783H46.868L47.2338 26.3429H49.2877L49.6035 25.3096H47.702L47.9982 24.3645H49.8939L50.2455 23.1989H44.5938L44.248 24.3645ZM27.0951 28.3681L27.5692 26.7912H29.5173L29.8733 25.6183H27.9233L28.221 24.6477H30.1265L30.4796 23.512H25.7117L25.3659 24.6477H26.4492L26.1602 25.6183H25.0741L24.7141 26.8112H25.797L25.1652 28.8975C25.0799 29.1736 25.2053 29.2789 25.2847 29.4072C25.3659 29.5322 25.4483 29.6149 25.6334 29.6619C25.8243 29.7045 25.9551 29.73 26.1329 29.73H28.3292L28.7205 28.4307L27.747 28.5644C27.559 28.5644 27.0383 28.5419 27.0951 28.3681ZM27.3186 20.8192L26.8249 21.7115C26.7192 21.9064 26.6241 22.0274 26.5385 22.0831C26.4631 22.1301 26.3137 22.1498 26.0973 22.1498H25.8397L25.4954 23.2913H26.3509C26.7622 23.2913 27.0781 23.1405 27.229 23.065C27.3911 22.9783 27.4337 23.0279 27.5591 22.9069L27.848 22.6566H30.5194L30.8739 21.4681H28.9184L29.2598 20.8192H27.3186ZM31.2624 28.391C31.2169 28.3254 31.2497 28.2099 31.3193 27.9694L32.0494 25.5527H34.6469C35.0254 25.5472 35.2987 25.5429 35.4765 25.5301C35.6674 25.5101 35.8751 25.4419 36.1013 25.3195C36.3349 25.1913 36.4544 25.0561 36.5553 24.9009C36.6679 24.746 36.8486 24.4072 37.0038 23.8847L37.9216 20.8264L35.2262 20.8421C35.2262 20.8421 34.3962 20.9645 34.0308 21.0996C33.662 21.2505 33.1352 21.6717 33.1352 21.6717L33.3786 20.8333H31.7135L29.3824 28.5644C29.2997 28.8646 29.2443 29.0825 29.2316 29.2133C29.2272 29.3543 29.4094 29.4939 29.5274 29.5992C29.667 29.7045 29.8732 29.6873 30.071 29.7045C30.2791 29.7201 30.5749 29.73 30.9834 29.73H32.2629L32.6557 28.4037L31.5102 28.5119C31.3878 28.5119 31.2992 28.4464 31.2624 28.391ZM32.5205 23.9204H35.2488L35.0753 24.464C35.0509 24.4768 34.9926 24.4371 34.715 24.4699H32.3526L32.5205 23.9204ZM33.0671 22.0972H35.8183L35.6204 22.752C35.6204 22.752 34.3237 22.7392 34.116 22.7775C33.2022 22.9356 32.6685 23.4238 32.6685 23.4238L33.0671 22.0972ZM35.1364 26.2844C35.1138 26.3657 35.0781 26.4152 35.0282 26.4524C34.9728 26.4881 34.8832 26.5009 34.7495 26.5009H34.3607L34.3837 25.8388H32.7667L32.7011 29.0753C32.6986 29.3089 32.7211 29.4441 32.892 29.5523C33.0629 29.6874 33.5894 29.7046 34.298 29.7046H35.3113L35.6771 28.4931L34.795 28.5416L34.5017 28.5587C34.4616 28.5416 34.4234 28.5259 34.3808 28.4833C34.3436 28.4465 34.2809 28.4691 34.2911 28.2355L34.298 27.4059L35.2231 27.3676C35.7226 27.3676 35.9362 27.2051 36.1183 27.0503C36.2921 26.902 36.349 26.7315 36.4145 26.5009L36.5698 25.7663H35.2985L35.1364 26.2844Z" fill="#FEFEFE"/>
</g>
<defs>
<clipPath id="clip0_14305_33797">
<rect width="60" height="37.5" fill="white"/>
</clipPath>
</defs>
</svg>
