<svg width="60" height="41" viewBox="0 0 60 41" fill="none" xmlns="http://www.w3.org/2000/svg">
<rect x="0.5" y="0.5" width="59" height="40" rx="3.5" fill="black" stroke="#5D6169"/>
<path d="M16.4311 36.9299V34.8062C16.4311 33.9938 15.9387 33.4619 15.0934 33.4619C14.6707 33.4619 14.2112 33.6021 13.8952 34.0639C13.649 33.6763 13.2961 33.4619 12.7668 33.4619C12.4139 33.4619 12.0611 33.5691 11.782 33.9567V33.532H11.0434V36.9299H11.782V35.0536C11.782 34.4515 12.098 34.167 12.5904 34.167C13.0828 34.167 13.329 34.4845 13.329 35.0536V36.9299H14.0676V35.0536C14.0676 34.4515 14.4204 34.167 14.8759 34.167C15.3683 34.167 15.6145 34.4845 15.6145 35.0536V36.9299H16.4311ZM27.3868 33.532H26.1887V32.5051H25.4501V33.532H24.7812V34.2041H25.4501V35.7629C25.4501 36.5423 25.766 37 26.6113 37C26.9273 37 27.2801 36.8928 27.5263 36.7526L27.313 36.1134C27.0996 36.2536 26.8534 36.2907 26.677 36.2907C26.3241 36.2907 26.1846 36.0763 26.1846 35.7258V34.2041H27.3827V33.532H27.3868ZM33.6566 33.4577C33.234 33.4577 32.9509 33.6722 32.7744 33.9526V33.5278H32.0358V36.9258H32.7744V35.0124C32.7744 34.4474 33.0206 34.1258 33.4802 34.1258C33.6197 34.1258 33.7961 34.1629 33.9398 34.1959L34.1531 33.4866C34.0054 33.4577 33.7961 33.4577 33.6566 33.4577ZM24.1822 33.8124C23.8293 33.5649 23.3369 33.4577 22.8076 33.4577C21.9623 33.4577 21.4001 33.8825 21.4001 34.5546C21.4001 35.1196 21.8228 35.4412 22.5614 35.5443L22.9142 35.5814C23.2999 35.6515 23.5133 35.7588 23.5133 35.9361C23.5133 36.1835 23.2302 36.3608 22.7378 36.3608C22.2454 36.3608 21.8556 36.1835 21.6094 36.0062L21.2565 36.5711C21.6422 36.8557 22.1715 36.9959 22.7009 36.9959C23.6857 36.9959 24.2519 36.534 24.2519 35.899C24.2519 35.2969 23.7923 34.9794 23.0907 34.8722L22.7378 34.835C22.4218 34.7979 22.1756 34.7278 22.1756 34.5175C22.1756 34.2701 22.4218 34.1299 22.8117 34.1299C23.2343 34.1299 23.6569 34.3072 23.8703 34.4144L24.1822 33.8124ZM43.8328 33.4577C43.4101 33.4577 43.127 33.6722 42.9506 33.9526V33.5278H42.212V36.9258H42.9506V35.0124C42.9506 34.4474 43.1968 34.1258 43.6563 34.1258C43.7958 34.1258 43.9723 34.1629 44.1159 34.1959L44.3293 33.4948C44.1857 33.4577 43.9764 33.4577 43.8328 33.4577ZM34.3952 35.2309C34.3952 36.2577 35.101 37 36.1925 37C36.6849 37 37.0377 36.8928 37.3906 36.6124L37.0377 36.0103C36.7546 36.2247 36.4756 36.3278 36.1555 36.3278C35.5565 36.3278 35.1338 35.9031 35.1338 35.2309C35.1338 34.5917 35.5565 34.167 36.1555 34.134C36.4715 34.134 36.7546 34.2412 37.0377 34.4515L37.3906 33.8495C37.0377 33.5649 36.6849 33.4619 36.1925 33.4619C35.101 33.4577 34.3952 34.2041 34.3952 35.2309ZM41.2272 35.2309V33.532H40.4886V33.9567C40.2424 33.6392 39.8895 33.4619 39.43 33.4619C38.478 33.4619 37.7394 34.2041 37.7394 35.2309C37.7394 36.2577 38.478 37 39.43 37C39.9223 37 40.2752 36.8227 40.4886 36.5051V36.9299H41.2272V35.2309ZM38.5149 35.2309C38.5149 34.6289 38.9006 34.134 39.5366 34.134C40.1357 34.134 40.5584 34.5959 40.5584 35.2309C40.5584 35.833 40.1357 36.3278 39.5366 36.3278C38.9047 36.2907 38.5149 35.8289 38.5149 35.2309ZM29.6765 33.4577C28.6917 33.4577 27.9859 34.167 27.9859 35.2268C27.9859 36.2907 28.6917 36.9959 29.7134 36.9959C30.2058 36.9959 30.6982 36.8557 31.088 36.534L30.7351 36.0021C30.452 36.2165 30.0991 36.3567 29.7503 36.3567C29.2907 36.3567 28.8353 36.1423 28.7286 35.5443H31.2275C31.2275 35.4371 31.2275 35.367 31.2275 35.2598C31.2603 34.167 30.6243 33.4577 29.6765 33.4577ZM29.6765 34.0969C30.136 34.0969 30.452 34.3814 30.5217 34.9093H28.7614C28.8312 34.4515 29.1471 34.0969 29.6765 34.0969ZM48.0263 35.2309V32.1876H47.2877V33.9567C47.0415 33.6392 46.6887 33.4619 46.2291 33.4619C45.2771 33.4619 44.5385 34.2041 44.5385 35.2309C44.5385 36.2577 45.2771 37 46.2291 37C46.7215 37 47.0744 36.8227 47.2877 36.5051V36.9299H48.0263V35.2309ZM45.3141 35.2309C45.3141 34.6289 45.6998 34.134 46.3358 34.134C46.9349 34.134 47.3575 34.5959 47.3575 35.2309C47.3575 35.833 46.9349 36.3278 46.3358 36.3278C45.6998 36.2907 45.3141 35.8289 45.3141 35.2309ZM20.5877 35.2309V33.532H19.8491V33.9567C19.6029 33.6392 19.25 33.4619 18.7904 33.4619C17.8385 33.4619 17.0999 34.2041 17.0999 35.2309C17.0999 36.2577 17.8385 37 18.7904 37C19.2828 37 19.6357 36.8227 19.8491 36.5051V36.9299H20.5877V35.2309ZM17.8426 35.2309C17.8426 34.6289 18.2283 34.134 18.8643 34.134C19.4634 34.134 19.886 34.5959 19.886 35.2309C19.886 35.833 19.4634 36.3278 18.8643 36.3278C18.2283 36.2907 17.8426 35.8289 17.8426 35.2309Z" fill="white"/>
<path d="M35.0312 7.72577H23.9359V27.7588H35.0312V7.72577Z" fill="#FF5A00"/>
<path d="M24.6745 17.7423C24.6745 13.6722 26.5785 10.0598 29.5 7.72577C27.3499 6.0268 24.6376 5 21.6791 5C14.6707 5 9 10.699 9 17.7423C9 24.7856 14.6707 30.4845 21.6791 30.4845C24.6376 30.4845 27.3499 29.4577 29.5 27.7588C26.5744 25.4577 24.6745 21.8124 24.6745 17.7423Z" fill="#EB001B"/>
<path d="M50 17.7423C50 24.7856 44.3293 30.4845 37.3209 30.4845C34.3624 30.4845 31.6501 29.4577 29.5 27.7588C32.4585 25.4206 34.3255 21.8124 34.3255 17.7423C34.3255 13.6722 32.4215 10.0598 29.5 7.72577C31.646 6.0268 34.3583 5 37.3168 5C44.3293 5 50 10.7361 50 17.7423Z" fill="#F79E1B"/>
</svg>
