<svg width="64" height="64" viewBox="0 0 64 64" fill="none" xmlns="http://www.w3.org/2000/svg">
<rect x="38" y="36" width="12" height="10" rx="2" stroke="white" stroke-width="2.4"/>
<path fill-rule="evenodd" clip-rule="evenodd" d="M3.08506 20.8L10.9901 7.20005H52.5113L60.8555 20.8H46.9996H31.9996H16.9996H3.08506ZM39.4996 31.2001C42.7304 31.2001 45.4989 29.3596 46.9996 26.6615C48.5003 29.3596 51.2688 31.2001 54.4996 31.2001C55.2986 31.2001 56.0693 31.0875 56.7996 30.8772V56C56.7996 56.4419 56.4414 56.8 55.9996 56.8H30.2V38C30.2 36.2327 28.7673 34.8 27 34.8H19C17.2327 34.8 15.8 36.2327 15.8 38V56.8H8.49958C7.83684 56.8 7.29958 57.3373 7.29958 58C7.29958 58.6628 7.83684 59.2001 8.49958 59.2001H55.9996C57.7669 59.2001 59.1996 57.7674 59.1996 56V29.7466C61.6214 28.0978 63.1996 25.2169 63.1996 22C63.1996 21.9824 63.1992 21.9649 63.1984 21.9475C63.5018 21.314 63.5091 20.5359 63.088 19.8495L54.4984 5.84954C54.0984 5.19747 53.3883 4.80005 52.6232 4.80005H10.875C10.0913 4.80005 9.36677 5.21694 8.97295 5.89449L0.835446 19.8945C0.421388 20.6068 0.458054 21.407 0.799666 22.0417C0.816706 26.0686 3.30641 29.5621 6.82375 30.7592C6.8079 30.837 6.79958 30.9176 6.79958 31V48.5C6.79958 49.1628 7.33684 49.7001 7.99958 49.7001C8.66232 49.7001 9.19958 49.1628 9.19958 48.5V31.1947C9.29911 31.1983 9.39912 31.2001 9.49958 31.2001C12.7304 31.2001 15.4989 29.3596 16.9996 26.6615C18.5003 29.3596 21.2688 31.2001 24.4996 31.2001C27.7304 31.2001 30.4989 29.3596 31.9996 26.6615C33.5003 29.3596 36.2688 31.2001 39.4996 31.2001ZM54.4996 28.8C57.5417 28.8 60.1732 26.4327 60.7027 23.2001H48.2965C48.826 26.4327 51.4574 28.8 54.4996 28.8ZM45.7027 23.2001C45.1732 26.4327 42.5417 28.8 39.4996 28.8C36.4574 28.8 33.826 26.4327 33.2965 23.2001H45.7027ZM24.4996 28.8C21.4574 28.8 18.826 26.4327 18.2965 23.2001H30.7027C30.1732 26.4327 27.5417 28.8 24.4996 28.8ZM3.29646 23.2001C3.82595 26.4327 6.45745 28.8 9.49958 28.8C12.5417 28.8 15.1732 26.4327 15.7027 23.2001H3.29646ZM18.2 38C18.2 37.5582 18.5582 37.2 19 37.2H27C27.4418 37.2 27.8 37.5582 27.8 38V56.8H18.2V38Z" fill="url(#paint0_angular)"/>
<defs>
<radialGradient id="paint0_angular" cx="0" cy="0" r="1" gradientUnits="userSpaceOnUse" gradientTransform="translate(13 54) rotate(-90) scale(37.5 59.6017)">
<stop offset="0.435253" stop-color="#F7931A"/>
<stop offset="0.469524" stop-color="#F7931A" stop-opacity="0.127095"/>
<stop offset="0.615404" stop-color="#F7931A" stop-opacity="0"/>
<stop offset="0.919182" stop-color="#F8B017"/>
</radialGradient>
</defs>
</svg>
