<svg width="64" height="64" viewBox="0 0 64 64" fill="none" xmlns="http://www.w3.org/2000/svg">
<path d="M39.5 32.5C38.81 32.5 38.25 33.06 38.25 33.75C38.25 34.44 38.81 35 39.5 35C40.19 35 40.75 34.44 40.75 33.75C40.75 33.06 40.19 32.5 39.5 32.5Z" fill="white"/>
<path d="M0.311578 29.5748C0.314953 29.5786 0.317953 29.583 0.321453 29.5868C0.321953 29.5872 0.322328 29.5879 0.322828 29.5885L31.0728 63.5885C31.302 63.8419 31.6492 64 32 64C32.3496 64 32.6962 63.8436 32.9271 63.5885L63.6771 29.5885C63.6776 29.588 63.678 29.5874 63.6785 29.5868C63.682 29.5829 63.6848 29.5786 63.6883 29.5748C64.089 29.119 64.0994 28.4496 63.7358 27.9832C63.7323 27.9787 63.7297 27.9736 63.7261 27.9691L53.7261 15.4691C53.489 15.1726 53.1297 15 52.75 15C47.6541 15 15.3963 15 11.25 15C10.8702 15 10.5111 15.1726 10.2738 15.4691L0.273828 27.9691C0.270203 27.9736 0.267703 27.9786 0.264078 27.9832C-0.103297 28.4545 -0.0845471 29.1241 0.311578 29.5748ZM25.2076 17.5H38.7922L44.7922 27.5H19.2076L25.2076 17.5ZM18.9176 30H45.0821L31.9998 59.6533L18.9176 30ZM47.8147 30H59.9341L36.2724 56.1623L47.8147 30ZM16.1851 30L27.7272 56.1623L4.0657 30H16.1851ZM60.1491 27.5H47.7076L41.7076 17.5H52.1491L60.1491 27.5ZM11.8506 17.5H22.2921L16.2921 27.5H3.85058L11.8506 17.5Z" fill="url(#paint0_angular)"/>
<path d="M34.4992 32.5H25.2217C24.5313 32.5 23.9717 33.0596 23.9717 33.75C23.9717 34.4404 24.5313 35 25.2217 35H34.4992C35.1896 35 35.7492 34.4404 35.7492 33.75C35.7492 33.0596 35.1896 32.5 34.4992 32.5Z" fill="white"/>
<path d="M32 10C32.6904 10 33.25 9.44038 33.25 8.75V1.25C33.25 0.559625 32.6904 0 32 0C31.3096 0 30.75 0.559625 30.75 1.25V8.75C30.75 9.44038 31.3096 10 32 10Z" fill="white"/>
<path d="M40.384 9.63402L45.384 4.63402C45.8721 4.14589 45.8721 3.35439 45.384 2.86614C44.8959 2.37789 44.1044 2.37802 43.6161 2.86614L38.6161 7.86614C38.128 8.35427 38.128 9.14577 38.6161 9.63402C39.1042 10.1221 39.8957 10.1223 40.384 9.63402Z" fill="white"/>
<path d="M23.6161 9.63397C24.1043 10.1221 24.8958 10.1221 25.384 9.63397C25.8721 9.14584 25.8721 8.35434 25.384 7.86609L20.384 2.86609C19.8959 2.37797 19.1044 2.37797 18.6161 2.86609C18.1279 3.35422 18.128 4.14572 18.6161 4.63397L23.6161 9.63397Z" fill="white"/>
<defs>
<radialGradient id="paint0_angular" cx="0" cy="0" r="1" gradientUnits="userSpaceOnUse" gradientTransform="translate(30.5 23.5) rotate(103.092) scale(22.0737 38.6333)">
<stop offset="0.308034" stop-color="#F7931A"/>
<stop offset="0.438074" stop-color="#F7931A" stop-opacity="0"/>
<stop offset="0.53944" stop-color="#F7951A" stop-opacity="0"/>
<stop offset="0.716869" stop-color="#F8B017"/>
</radialGradient>
</defs>
</svg>
