<svg width="64" height="64" viewBox="0 0 64 64" fill="none" xmlns="http://www.w3.org/2000/svg">
<path d="M9.84 56.9528V6.56003C9.84 4.74853 11.3085 3.28003 13.12 3.28003H54.12C55.9315 3.28003 57.4 4.74854 57.4 6.56003V59.04C57.4 60.8515 55.9315 62.32 54.12 62.32H15.58" stroke="url(#paint0_angular)" stroke-width="2.4" stroke-linecap="round" stroke-linejoin="round"/>
<path fill-rule="evenodd" clip-rule="evenodd" d="M19.68 27.88C19.68 26.9742 20.4143 26.24 21.32 26.24H22.96C23.8657 26.24 24.6 26.9742 24.6 27.88V29.52C24.6 30.4257 23.8657 31.16 22.96 31.16H21.32C20.4143 31.16 19.68 30.4257 19.68 29.52V27.88ZM19.68 37.72C19.68 36.8143 20.4143 36.08 21.32 36.08H22.96C23.8657 36.08 24.6 36.8143 24.6 37.72V39.36C24.6 40.2657 23.8657 41 22.96 41H21.32C20.4143 41 19.68 40.2657 19.68 39.36V37.72ZM21.32 45.92C20.4143 45.92 19.68 46.6543 19.68 47.56V49.2C19.68 50.1057 20.4143 50.84 21.32 50.84H22.96C23.8657 50.84 24.6 50.1057 24.6 49.2V47.56C24.6 46.6543 23.8657 45.92 22.96 45.92H21.32ZM31.16 27.88C31.16 26.9743 31.8943 26.24 32.8 26.24H34.44C35.3457 26.24 36.08 26.9743 36.08 27.88V29.52C36.08 30.4257 35.3457 31.16 34.44 31.16H32.8C31.8943 31.16 31.16 30.4257 31.16 29.52V27.88ZM32.8 36.08C31.8943 36.08 31.16 36.8143 31.16 37.72V39.36C31.16 40.2657 31.8943 41 32.8 41H34.44C35.3457 41 36.08 40.2657 36.08 39.36V37.72C36.08 36.8143 35.3457 36.08 34.44 36.08H32.8ZM31.16 47.56C31.16 46.6543 31.8943 45.92 32.8 45.92H34.44C35.3457 45.92 36.08 46.6543 36.08 47.56V49.2C36.08 50.1057 35.3457 50.84 34.44 50.84H32.8C31.8943 50.84 31.16 50.1057 31.16 49.2V47.56ZM44.28 26.24C43.3743 26.24 42.64 26.9743 42.64 27.88V29.52C42.64 30.4257 43.3743 31.16 44.28 31.16H45.92C46.8257 31.16 47.56 30.4257 47.56 29.52V27.88C47.56 26.9743 46.8257 26.24 45.92 26.24H44.28ZM42.64 37.72C42.64 36.8143 43.3743 36.08 44.28 36.08H45.92C46.8257 36.08 47.56 36.8143 47.56 37.72V39.36C47.56 40.2657 46.8257 41 45.92 41H44.28C43.3743 41 42.64 40.2657 42.64 39.36V37.72ZM44.28 45.92C43.3743 45.92 42.64 46.6543 42.64 47.56V49.2C42.64 50.1057 43.3743 50.84 44.28 50.84H45.92C46.8257 50.84 47.56 50.1057 47.56 49.2V47.56C47.56 46.6543 46.8257 45.92 45.92 45.92H44.28Z" fill="url(#paint1_linear)"/>
<mask id="path-3-inside-1" fill="white">
<rect x="18.04" y="12.3" width="31.16" height="6.56" rx="1.64"/>
</mask>
<rect x="18.04" y="12.3" width="31.16" height="6.56" rx="1.64" stroke="white" stroke-width="4.8" mask="url(#path-3-inside-1)"/>
<defs>
<radialGradient id="paint0_angular" cx="0" cy="0" r="1" gradientUnits="userSpaceOnUse" gradientTransform="translate(12.3 21.1709) rotate(90) scale(49.2 45.1)">
<stop stop-color="#F8B017"/>
<stop offset="0.916361" stop-color="#F7931A"/>
<stop offset="0.987707" stop-color="#F7931A" stop-opacity="0"/>
<stop offset="0.9999" stop-color="#F7931A" stop-opacity="0"/>
</radialGradient>
<linearGradient id="paint1_linear" x1="18.04" y1="54.12" x2="49.2" y2="54.12" gradientUnits="userSpaceOnUse">
<stop stop-color="#F8B017"/>
<stop offset="1" stop-color="#F7931A"/>
</linearGradient>
</defs>
</svg>
