<svg width="40" height="40" viewBox="0 0 40 40" fill="none" xmlns="http://www.w3.org/2000/svg">
<path d="M32.4057 18.9799V19.5298L32.811 19.9014L35.2444 22.132L35.2542 22.141L35.2643 22.1498C35.4955 22.3529 35.6494 22.6304 35.6991 22.935C35.7488 23.2397 35.6911 23.5521 35.5362 23.8187L35.5361 23.8186L35.5305 23.8285L32.5985 28.98C32.598 28.9808 32.5975 28.9816 32.597 28.9825C32.4807 29.1832 32.3141 29.3498 32.1138 29.4657C31.9127 29.5821 31.6848 29.6434 31.4528 29.6436L31.4445 29.6437C31.3022 29.6448 31.1607 29.6229 31.0254 29.5789L27.916 28.5237L27.3364 28.327L26.8256 28.6643C26.3271 28.9934 25.8074 29.2891 25.2699 29.5495L24.7124 29.8196L24.5896 30.4268L23.933 33.676L23.9321 33.6805C23.8714 33.9868 23.7051 34.2615 23.4628 34.4569C23.2205 34.6522 22.9177 34.7557 22.6073 34.7498L22.5953 34.7495H22.5833H16.5063H16.4943L16.4824 34.7498C16.1719 34.7557 15.8691 34.6522 15.6268 34.4569C15.3845 34.2615 15.2182 33.9868 15.1575 33.6805L15.1566 33.676L14.5 30.4268L14.3777 29.8218L13.8229 29.5511C13.2898 29.2909 12.7746 28.9955 12.2807 28.6668L11.7696 28.3267L11.1879 28.5232L8.06468 29.5787C7.92921 29.6228 7.78755 29.6448 7.64514 29.6437L7.64514 29.6437L7.63683 29.6436C7.40483 29.6434 7.17687 29.5821 6.97579 29.4657C6.77471 29.3493 6.6075 29.1818 6.49112 28.98L6.49117 28.9799L6.48519 28.9698L3.44671 23.8123L3.44676 23.8123L3.44066 23.8022C3.27865 23.533 3.21698 23.2149 3.26685 22.9043C3.31672 22.5937 3.47479 22.3112 3.71255 22.1068L3.7207 22.0997L3.72872 22.0926L6.16208 19.9265L6.58094 19.5536V18.9928V18V17.0201V16.4702L6.17561 16.0986L3.74225 13.868L3.73239 13.859L3.72233 13.8502C3.49109 13.6471 3.33723 13.3696 3.28753 13.065C3.238 12.7613 3.29512 12.4499 3.4489 12.184L6.48519 7.03022L6.48523 7.03025L6.49112 7.02004C6.6075 6.81817 6.77471 6.65072 6.9758 6.53432C7.17687 6.41792 7.40483 6.35659 7.63683 6.35636L7.67872 6.35631L7.72051 6.35347C7.84687 6.34486 7.97373 6.35447 8.09723 6.38194L11.0984 7.46798L11.6887 7.68157L12.2125 7.33572C12.711 7.00659 13.2307 6.71088 13.7682 6.45051L14.3258 6.18042L14.4485 5.57315L15.1051 2.32395L15.1051 2.32395L15.106 2.31953C15.1667 2.01323 15.333 1.73847 15.5753 1.54314C15.8176 1.34784 16.1204 1.24429 16.4309 1.25024L16.4428 1.25047H16.4548H22.4803H22.4923L22.5043 1.25024C22.8147 1.24429 23.1175 1.34784 23.3598 1.54314C23.6021 1.73847 23.7684 2.01323 23.8291 2.31953L23.83 2.32395L24.4866 5.57315L24.6089 6.17821L25.1637 6.44893C25.6968 6.70908 26.212 7.00449 26.706 7.3332L27.2171 7.67333L27.7987 7.47678L30.9219 6.42133C31.0574 6.37717 31.199 6.35523 31.3415 6.35632L31.3415 6.35635L31.3498 6.35636C31.5818 6.35659 31.8097 6.41792 32.0108 6.53432L32.6371 5.4525L32.0108 6.53432C32.2119 6.65072 32.3791 6.81817 32.4955 7.02004L32.4954 7.02006L32.5014 7.03022L35.5399 12.1877L35.5461 12.1981L35.5524 12.2085C35.7168 12.4754 35.7817 12.7921 35.7355 13.1026C35.6894 13.4124 35.5357 13.6956 35.302 13.9025C35.3015 13.903 35.301 13.9034 35.3004 13.9039L32.8319 16.0671L32.4057 16.4405V17.0072V18V18.9799Z" stroke="url(#paint0_angular)" stroke-width="2.5"/>
<circle cx="19.5" cy="18.5" r="6.25" stroke="url(#paint1_angular)" stroke-width="2.5"/>
<mask id="path-3-inside-1" fill="white">
<rect x="25" y="28" width="5" height="5" rx="1"/>
</mask>
<rect x="25" y="28" width="5" height="5" rx="1" stroke="white" stroke-width="5" mask="url(#path-3-inside-1)"/>
<mask id="path-4-inside-2" fill="white">
<rect x="25" y="35" width="5" height="5" rx="1"/>
</mask>
<rect x="25" y="35" width="5" height="5" rx="1" stroke="white" stroke-width="5" mask="url(#path-4-inside-2)"/>
<mask id="path-5-inside-3" fill="white">
<rect x="32" y="28" width="5" height="5" rx="1"/>
</mask>
<rect x="32" y="28" width="5" height="5" rx="1" stroke="white" stroke-width="5" mask="url(#path-5-inside-3)"/>
<mask id="path-6-inside-4" fill="white">
<rect x="32" y="35" width="5" height="5" rx="1"/>
</mask>
<rect x="32" y="35" width="5" height="5" rx="1" stroke="white" stroke-width="5" mask="url(#path-6-inside-4)"/>
<defs>
<radialGradient id="paint0_angular" cx="0" cy="0" r="1" gradientUnits="userSpaceOnUse" gradientTransform="translate(19.5 18) rotate(90) scale(40.5 39.375)">
<stop stop-color="#F8B017"/>
<stop offset="0.703125" stop-color="#F7931A"/>
<stop offset="0.802083" stop-color="#F7931A" stop-opacity="0"/>
<stop offset="1" stop-color="#F7931A" stop-opacity="0"/>
</radialGradient>
<radialGradient id="paint1_angular" cx="0" cy="0" r="1" gradientUnits="userSpaceOnUse" gradientTransform="translate(19.5 18.5) rotate(90) scale(8.54167)">
<stop stop-color="#F8B017"/>
<stop offset="0.703125" stop-color="#F7931A"/>
<stop offset="0.864583" stop-color="#F7931A" stop-opacity="0"/>
<stop offset="1" stop-color="#F7931A" stop-opacity="0"/>
</radialGradient>
</defs>
</svg>
