<svg width="40" height="40" viewBox="0 0 40 40" fill="none" xmlns="http://www.w3.org/2000/svg">
<g clip-path="url(#clip0)">
<path d="M20 7.96443C20.4314 7.96443 20.7812 7.61458 20.7812 7.18318V3.20349C20.7812 2.77208 20.4315 2.42224 20 2.42224C19.5685 2.42224 19.2188 2.77201 19.2188 3.20349V7.18318C19.2188 7.61458 19.5686 7.96443 20 7.96443Z" fill="white"/>
<path d="M14.1258 9.24785C14.2743 9.48355 14.528 9.61262 14.7874 9.61262C14.9298 9.61262 15.0739 9.57371 15.2032 9.49223C15.5682 9.26223 15.6776 8.7798 15.4476 8.41472L13.366 5.11199C13.1359 4.74699 12.6535 4.63754 12.2886 4.86762C11.9236 5.09762 11.8142 5.58004 12.0442 5.94512L14.1258 9.24785Z" fill="white"/>
<path d="M24.7987 9.49252C24.928 9.57384 25.072 9.61267 25.2142 9.61267C25.4737 9.61267 25.7275 9.48345 25.876 9.24759L27.9554 5.94486C28.1853 5.57971 28.0756 5.09744 27.7105 4.86744C27.3452 4.63768 26.8631 4.74736 26.6331 5.11236L24.5538 8.41509C24.3239 8.78033 24.4336 9.26259 24.7987 9.49252Z" fill="white"/>
<path d="M39.7482 20.8149L38.3907 18.4169C38.1781 18.0413 37.7014 17.9092 37.3261 18.1219C36.9506 18.3345 36.8186 18.8111 37.0311 19.1865L38.3879 21.5835C38.4559 21.704 38.4382 21.8202 38.4217 21.8787C38.4057 21.935 38.3618 22.039 38.247 22.1024L36.155 23.2613C35.9691 23.3639 35.7265 23.2991 35.6252 23.1203L35.0937 22.1802C35.0915 22.176 35.089 22.1721 35.0868 22.1679L29.5922 12.4496C29.5243 12.33 29.5415 12.2153 29.5578 12.1576C29.5735 12.1017 29.6171 11.9985 29.7319 11.935L31.8264 10.776C32.0146 10.6717 32.2513 10.735 32.3542 10.9174L33.5787 13.0809C33.7913 13.4564 34.2681 13.5884 34.6434 13.376C35.0189 13.1635 35.151 12.6867 34.9385 12.3113L33.7145 10.1487C33.1925 9.22322 32.0064 8.89127 31.0703 9.40869L28.9758 10.5678C28.5226 10.8182 28.1952 11.2322 28.0539 11.7337C27.9207 12.2065 27.9683 12.7001 28.1865 13.1333L27.0328 13.4677C26.5413 13.6099 26.243 13.687 26.0775 13.687C26.0768 13.687 26.0761 13.687 26.0755 13.687C25.9615 13.6866 25.8372 13.6431 25.4825 13.5087C25.3215 13.4478 25.1211 13.3718 24.8748 13.2859L22.8307 12.5713C21.7001 12.1764 21.1902 12.1977 20.4514 12.2651L16.9658 12.5771C15.3768 12.7178 14.3638 13.0763 13.8046 13.6979L11.8182 13.1224C12.0319 12.691 12.0778 12.2022 11.9457 11.7337C11.8045 11.2325 11.4773 10.8186 11.0246 10.5681L8.93129 9.40853C7.99441 8.89064 6.80762 9.22275 6.28551 10.148L0.253943 20.8138C-0.00425974 21.2685 -0.068166 21.7972 0.0741777 22.3028C0.215584 22.8048 0.542928 23.2192 0.995272 23.4693L3.08855 24.6288C3.38785 24.7942 3.71301 24.8728 4.03387 24.8728C4.71551 24.8728 5.37816 24.5182 5.73433 23.8894L5.95551 23.4981C6.5591 23.7638 7.0659 24.1499 7.41129 24.6069C7.07394 25.0011 6.86144 25.4876 6.80183 26.0167C6.72308 26.7165 6.92074 27.4031 7.3584 27.9503C7.7923 28.4929 8.41277 28.8353 9.1066 28.9159C9.03316 29.6097 9.2316 30.2896 9.6659 30.8307C10.1148 31.392 10.7493 31.7194 11.4129 31.7967C11.3398 32.4895 11.5375 33.1687 11.9705 33.7102C12.4042 34.2539 13.0248 34.597 13.7193 34.6776C13.6458 35.372 13.8443 36.0522 14.2786 36.5935C14.7962 37.2406 15.5604 37.5776 16.3319 37.5775C16.9079 37.5775 17.4879 37.3897 17.9721 37.003L19.6078 35.6941C19.7378 35.5904 19.8558 35.4758 19.962 35.3524L20.8964 36.0988C21.3796 36.4844 21.9582 36.6717 22.5334 36.6717C23.3053 36.6716 24.0707 36.3342 24.5891 35.6864C24.8623 35.3449 25.0353 34.955 25.1134 34.5526C25.3866 34.6471 25.675 34.696 25.9691 34.6959C26.0677 34.6959 26.1669 34.6904 26.2664 34.6794C26.9664 34.6017 27.5924 34.2574 28.0273 33.712C28.4624 33.1699 28.6608 32.4902 28.5875 31.7964C29.2507 31.719 29.8854 31.3917 30.3357 30.8306C30.7841 30.2699 30.9641 29.5796 30.8936 28.9157C31.5871 28.8349 32.2072 28.4927 32.6401 27.9514C33.0781 27.4056 33.2766 26.72 33.199 26.0208C33.1401 25.49 32.9275 25.0019 32.5895 24.6066C32.9339 24.1497 33.4396 23.7632 34.0436 23.4977L34.2653 23.8897C34.6212 24.5183 35.2836 24.8728 35.9654 24.8728C36.2864 24.8727 36.6118 24.7941 36.9114 24.6285L39.0036 23.4696C39.4557 23.2196 39.7829 22.8058 39.9249 22.3046C40.068 21.7996 40.0054 21.2708 39.7482 20.8149ZM4.37449 23.1199C4.27293 23.2993 4.03019 23.364 3.84512 23.2616L1.75191 22.1022C1.63762 22.0389 1.59402 21.9353 1.57808 21.8792C1.56176 21.821 1.54433 21.7054 1.61324 21.5843L7.64574 10.9163C7.7148 10.7939 7.84496 10.7253 7.98011 10.7253C8.0459 10.7253 8.11277 10.7415 8.17449 10.7756L10.2671 11.9349C10.2669 11.9348 10.2674 11.935 10.2671 11.9349C10.3817 11.9982 10.4259 12.1018 10.4417 12.1577C10.4579 12.2154 10.4751 12.3301 10.4064 12.451L4.37449 23.1199ZM10.0756 27.1403C9.85527 27.3167 9.57707 27.3965 9.29277 27.3649C9.00832 27.3333 8.7548 27.1947 8.57871 26.9746C8.40222 26.7538 8.32269 26.4757 8.35465 26.1915C8.38644 25.9085 8.52512 25.6562 8.74652 25.48L11.6714 23.1421C12.1304 22.7756 12.8024 22.851 13.1693 23.3092C13.3457 23.5297 13.4253 23.8074 13.3934 24.0907C13.3617 24.3731 13.2229 24.6252 13.0028 24.8003C12.9979 24.8042 12.9938 24.8085 12.9891 24.8124L10.0756 27.1403C10.0753 27.1404 10.0758 27.1401 10.0756 27.1403ZM10.8853 29.8538C10.7089 29.6341 10.6293 29.3571 10.6607 29.074C10.6922 28.7906 10.8311 28.5372 11.0515 28.3604C11.0514 28.3605 11.0517 28.3603 11.0515 28.3604C11.0516 28.3604 11.0523 28.3599 11.0524 28.3598L15.2653 24.9938C15.7243 24.6273 16.3964 24.7021 16.7632 25.161C16.9394 25.3812 17.019 25.6585 16.9875 25.9418C16.956 26.2254 16.8168 26.4788 16.5957 26.6554L12.3839 30.0201C11.9243 30.3868 11.2525 30.3128 10.8853 29.8538ZM13.9054 33.1265C13.6211 33.0949 13.3678 32.9562 13.1914 32.7351C13.0153 32.5149 12.9357 32.2375 12.9671 31.9542C12.9987 31.6709 13.1377 31.4177 13.3584 31.2411C13.3582 31.2413 13.3586 31.241 13.3584 31.2411L16.2744 28.9116C16.2778 28.9089 16.2816 28.9067 16.285 28.9039C16.7428 28.5374 17.4147 28.6121 17.7819 29.0697C17.9584 29.2903 18.038 29.5685 18.0061 29.8527C17.9742 30.1357 17.8355 30.388 17.6142 30.5642L14.6894 32.9021C14.4684 33.0785 14.1899 33.1579 13.9054 33.1265ZM19.024 33.7607C18.9924 34.0441 18.8536 34.297 18.6325 34.4735L16.9966 35.7827C16.537 36.1495 15.8651 36.0756 15.4981 35.6166C15.3218 35.397 15.242 35.1198 15.2735 34.8361C15.305 34.5524 15.4436 34.2994 15.6637 34.1236C15.6635 34.1238 15.6639 34.1235 15.6637 34.1236L17.3 32.8157C17.3008 32.815 17.3018 32.8145 17.3026 32.8139C17.7618 32.4474 18.4337 32.5225 18.8006 32.981C18.9763 33.2008 19.0557 33.4776 19.024 33.7607ZM31.4207 26.9745C31.2446 27.1946 30.9911 27.3333 30.7067 27.3649C30.4225 27.3968 30.1442 27.3168 29.9239 27.1403L27.8327 25.4696C27.4955 25.2002 27.0039 25.2552 26.7347 25.5922C26.4654 25.9292 26.5204 26.4209 26.8574 26.6902L28.9471 28.3599C29.4056 28.727 29.4811 29.3976 29.1163 29.8538C28.7482 30.3125 28.0762 30.3871 27.6175 30.0197L25.3499 28.2102C25.0127 27.9411 24.5211 27.9964 24.252 28.3335C23.9829 28.6707 24.0381 29.1623 24.3754 29.4314L26.6418 31.2401C26.8627 31.417 27.0017 31.6706 27.0332 31.9542C27.0647 32.2374 26.985 32.5144 26.8072 32.7359C26.6315 32.9562 26.3782 33.0949 26.0939 33.1265C25.8093 33.1578 25.5308 33.0784 25.3107 32.9027L24.1824 32.0003C24.1804 31.9988 24.1787 31.9971 24.1768 31.9956L23.2235 31.2335L23.0453 31.091C22.7082 30.8214 22.2166 30.8762 21.9472 31.2131C21.9136 31.2553 21.8849 31.2998 21.8613 31.346C21.7482 31.5671 21.75 31.8264 21.8562 32.0438C21.9054 32.1446 21.9761 32.2365 22.0694 32.3111L23.2039 33.2184C23.6593 33.5861 23.7337 34.2545 23.3691 34.7103C23.0021 35.169 22.3301 35.2439 21.8713 34.8779L20.5842 33.8496C20.6378 33.181 20.4396 32.5289 20.0206 32.0049C19.7601 31.6793 19.4371 31.4328 19.0823 31.2674C19.3423 30.9067 19.5074 30.4829 19.5586 30.0273C19.6374 29.3276 19.4397 28.641 19.0013 28.0928C18.7407 27.7681 18.4181 27.5221 18.064 27.3571C18.3245 26.9953 18.4896 26.5707 18.5403 26.1145C18.6181 25.4163 18.4203 24.7311 17.9834 24.1848C17.2317 23.2449 15.9604 22.9592 14.9024 23.4083C14.8177 23.0194 14.6446 22.6525 14.3892 22.3331C13.4846 21.2028 11.8282 21.0178 10.6961 21.9211L8.60426 23.5932C8.13121 22.9896 7.48816 22.4889 6.72785 22.1319L11.0309 14.5209L13.322 15.1847C13.3325 15.3073 13.3523 15.4362 13.3855 15.5728C13.9401 17.8531 16.0396 18.9156 18.8649 18.3463C21.2453 17.8673 22.2254 18.5808 24.1771 20.0021C24.3796 20.1496 24.59 20.3028 24.8103 20.4605C26.2139 21.4675 27.7139 22.6512 28.7196 23.4535L31.2556 25.4802C31.4759 25.656 31.6146 25.9091 31.6461 26.193C31.6775 26.4767 31.5979 26.7538 31.4207 26.9745ZM31.3964 23.5928L29.6946 22.2327C28.675 21.4193 27.1539 20.2191 25.7207 19.1908C25.5035 19.0353 25.2964 18.8844 25.097 18.7392C23.0731 17.2654 21.6104 16.2006 18.5566 16.8147C17.6219 17.0031 15.395 17.2233 14.9039 15.2039C14.8346 14.9188 14.905 14.8209 14.9349 14.7791C15.0393 14.6335 15.4596 14.279 17.1041 14.1334L20.5934 13.8211C21.162 13.7692 21.4472 13.7431 22.315 14.0463L24.3594 14.761C24.5867 14.8403 24.7684 14.9091 24.9288 14.9699C25.9132 15.3428 26.174 15.3427 27.4672 14.9684L28.9744 14.5317L33.2717 22.1324C32.5111 22.4892 31.8687 22.9894 31.3964 23.5928Z" fill="url(#paint0_linear)"/>
<path d="M36 17C36.8283 17 37.5 16.3267 37.5 15.4989C37.5 14.671 36.8283 14 36 14C35.1717 14 34.5 14.6712 34.5 15.4989V15.5031C34.5 16.3309 35.1717 17 36 17Z" fill="url(#paint1_linear)"/>
</g>
<defs>
<linearGradient id="paint0_linear" x1="20.5859" y1="36.8749" x2="22.0376" y2="6.28629" gradientUnits="userSpaceOnUse">
<stop stop-color="#F8B017"/>
<stop offset="0.651042" stop-color="#F7931A"/>
<stop offset="0.911458" stop-color="#F7931A" stop-opacity="0"/>
<stop offset="0.9999" stop-color="#F7931A" stop-opacity="0"/>
</linearGradient>
<linearGradient id="paint1_linear" x1="34.6176" y1="16.3478" x2="37.3824" y2="16.3478" gradientUnits="userSpaceOnUse">
<stop stop-color="#F8B017"/>
<stop offset="1" stop-color="#F7931A"/>
</linearGradient>
<clipPath id="clip0">
<rect width="40" height="40" fill="white"/>
</clipPath>
</defs>
</svg>
