<svg width="40" height="40" viewBox="0 0 40 40" fill="none" xmlns="http://www.w3.org/2000/svg">
<path d="M8.1788 5.69486C7.62049 6.10091 7.49705 6.88268 7.9031 7.441C8.30914 7.99931 9.09092 8.12275 9.64923 7.7167L8.1788 5.69486ZM29.9163 7.20109C30.4358 7.65569 31.2255 7.60304 31.6801 7.0835C32.1347 6.56395 32.0821 5.77425 31.5625 5.31965L29.9163 7.20109ZM3.89192 14.4368C3.48773 14.9965 3.61375 15.7778 4.17341 16.182C4.73307 16.5862 5.51443 16.4602 5.91862 15.9005L3.89192 14.4368ZM20.4948 7.59661L20.5516 6.3479L20.4948 7.59661ZM33.2133 15.7815C33.5517 16.3832 34.3139 16.5966 34.9155 16.2582C35.5172 15.9197 35.7306 15.1576 35.3922 14.5559L33.2133 15.7815ZM9.15916 32.6504C8.48221 32.515 7.82368 32.9541 7.68829 33.631C7.5529 34.308 7.99192 34.9665 8.66887 35.1019L9.15916 32.6504ZM16.4861 32.0945L15.663 31.1538L16.4861 32.0945ZM21.2621 25.7164C21.4295 25.0467 21.0223 24.368 20.3526 24.2006C19.6828 24.0331 19.0042 24.4403 18.8367 25.1101L21.2621 25.7164ZM9.64923 7.7167C11.1247 6.64365 15.4756 4.39246 20.4948 4.39246V1.89246C14.824 1.89246 9.96973 4.39237 8.1788 5.69486L9.64923 7.7167ZM20.4948 4.39246C25.5424 4.39246 28.9603 6.36464 29.9163 7.20109L31.5625 5.31965C30.1429 4.07748 26.1373 1.89246 20.4948 1.89246V4.39246ZM5.91862 15.9005C7.70982 13.4204 13.1755 8.51521 20.4381 8.84533L20.5516 6.3479C12.1355 5.96536 5.961 11.5719 3.89192 14.4368L5.91862 15.9005ZM20.4381 8.84533C27.7722 9.17869 32.0492 13.7121 33.2133 15.7815L35.3922 14.5559C33.8837 11.8741 28.8961 6.7272 20.5516 6.3479L20.4381 8.84533ZM8.66887 35.1019C10.2557 35.4192 14.0037 35.9275 17.3092 33.0352L15.663 31.1538C13.2672 33.2501 10.5417 32.9269 9.15916 32.6504L8.66887 35.1019ZM17.3092 33.0352C20.5006 30.2427 20.833 27.4326 21.2621 25.7164L18.8367 25.1101C18.375 26.9572 18.1728 28.9576 15.663 31.1538L17.3092 33.0352Z" fill="url(#paint0_linear)"/>
<path fill-rule="evenodd" clip-rule="evenodd" d="M8.61147 21.0727C10.2249 17.8459 15.113 12.9486 22.8881 14.1763C26.6254 14.7664 28.9041 17.1092 30.2841 19.6136C31.6882 22.1618 32.0776 24.7387 32.0776 25.4132C32.0776 26.1036 32.6372 26.6632 33.3276 26.6632C34.0179 26.6632 34.5776 26.1036 34.5776 25.4132C34.5776 24.3061 34.0762 21.3153 32.4737 18.4071C30.8471 15.4551 28.0035 12.453 23.278 11.7069C14.1272 10.262 8.32535 16.0547 6.37541 19.9546C5.38786 21.9297 4.89539 24.4219 5.24398 26.5608C5.42001 27.6409 5.82318 28.7016 6.56252 29.5437C7.32071 30.4073 8.36808 30.9654 9.66672 31.1097C12.0176 31.3709 13.693 30.6651 14.7944 29.4901C15.8373 28.3774 16.2335 26.9846 16.3836 26.0587C16.4853 25.4316 16.9388 24.1222 17.7895 23.2115C18.1975 22.7747 18.6607 22.4676 19.1857 22.3323C19.6999 22.1997 20.3799 22.204 21.2825 22.5651C22.1125 22.8971 22.6061 23.406 22.9007 24.0035C23.2085 24.6277 23.3326 25.4219 23.27 26.3294C23.1428 28.1739 22.2672 30.153 21.3162 31.2942C19.198 33.8361 17.6027 35.0044 15.1266 35.8046C14.4697 36.0169 14.1092 36.7215 14.3215 37.3784C14.5338 38.0353 15.2384 38.3957 15.8953 38.1835C18.9327 37.2019 20.9008 35.6978 23.2367 32.8947C24.5128 31.3634 25.5994 28.8884 25.7641 26.5014C25.8475 25.2932 25.7 24.0274 25.1429 22.8978C24.5726 21.7414 23.6081 20.8027 22.211 20.2439C20.8865 19.7141 19.661 19.628 18.5617 19.9114C17.473 20.192 16.6144 20.8072 15.9626 21.5049C14.6938 22.8633 14.0759 24.6717 13.9159 25.6586C13.8043 26.3466 13.5324 27.1808 12.9704 27.7804C12.4669 28.3176 11.6007 28.8092 9.9428 28.625C9.23707 28.5466 8.77064 28.2695 8.44124 27.8944C8.093 27.4977 7.83484 26.9159 7.71142 26.1587C7.46112 24.6228 7.81736 22.6609 8.61147 21.0727ZM12.3053 25.4756C12.3682 24.2165 12.8919 22.2963 14.2365 20.7569C15.5351 19.2702 17.6841 18.0372 21.2446 18.199C22.9894 18.2783 24.2411 18.7653 25.1512 19.4407C26.067 20.1203 26.7123 21.0472 27.1473 22.1194C28.0331 24.303 27.9889 26.9572 27.646 28.7405C27.5156 29.4184 27.9595 30.0737 28.6374 30.204C29.3154 30.3344 29.9706 29.8905 30.101 29.2126C30.5004 27.1356 30.5898 23.9549 29.4639 21.1795C28.893 19.7722 27.996 18.4386 26.6411 17.4331C25.2805 16.4234 23.5331 15.8005 21.3582 15.7016C17.0794 15.5071 14.1804 17.0209 12.3536 19.1123C10.5729 21.1511 9.89391 23.6405 9.8084 25.3508C9.77393 26.0403 10.3049 26.6272 10.9944 26.6617C11.6839 26.6961 12.2708 26.1651 12.3053 25.4756Z" fill="url(#paint1_linear)"/>
<path d="M27 34.4286L30 37L36 31" stroke="white" stroke-width="2.5"/>
<defs>
<linearGradient id="paint0_linear" x1="4.90527" y1="28.0777" x2="34.3027" y2="28.0777" gradientUnits="userSpaceOnUse">
<stop stop-color="#F8B017"/>
<stop offset="1" stop-color="#F7931A"/>
</linearGradient>
<linearGradient id="paint1_linear" x1="10.0636" y1="15.8549" x2="33.78" y2="25.986" gradientUnits="userSpaceOnUse">
<stop stop-color="#F8B017"/>
<stop offset="0.651042" stop-color="#F7931A"/>
<stop offset="0.911458" stop-color="#F7931A" stop-opacity="0"/>
<stop offset="0.9999" stop-color="#F7931A" stop-opacity="0"/>
</linearGradient>
</defs>
</svg>
