<svg width="757" height="551" viewBox="0 0 757 551" fill="none" xmlns="http://www.w3.org/2000/svg">
<path d="M585.001 206.625H541.658C528.788 156.725 502.194 111.439 464.9 75.9139C427.605 40.3884 381.104 16.0476 330.681 5.65726C280.258 -4.73306 227.935 -0.756238 179.657 17.1358C131.379 35.0279 89.0819 66.1177 57.5722 106.873C26.0624 147.628 6.60337 196.413 1.40616 247.687C-3.79105 298.96 5.48196 350.664 28.1715 396.925C50.8611 443.186 86.0574 482.148 129.761 509.384C173.465 536.62 223.923 551.038 275.403 551H585.001C630.618 551 674.367 532.859 706.623 500.567C738.879 468.276 757 424.479 757 378.812C757 333.146 738.879 289.349 706.623 257.057C674.367 224.766 630.618 206.625 585.001 206.625Z" fill="#191C25"/>
</svg>
