<svg width="40" height="40" viewBox="0 0 40 40" fill="none" xmlns="http://www.w3.org/2000/svg">
<circle cx="32" cy="31" r="4" stroke="white" stroke-width="2.5" stroke-linecap="round" stroke-linejoin="round"/>
<rect x="4" y="5" width="8" height="8" stroke="white" stroke-width="2.5" stroke-linecap="round" stroke-linejoin="round"/>
<path d="M16.1277 27.3144V26.0644C15.4373 26.0644 14.8777 26.624 14.8777 27.3144H16.1277ZM23.8722 27.3144H25.1222C25.1222 26.624 24.5626 26.0644 23.8722 26.0644V27.3144ZM16.1277 35.0589H14.8777C14.8777 35.7492 15.4373 36.3089 16.1277 36.3089V35.0589ZM23.8722 35.0589V36.3089C24.5626 36.3089 25.1222 35.7492 25.1222 35.0589H23.8722ZM22.6222 8.81354C22.6222 10.2618 21.4482 11.4358 20 11.4358V13.9358C22.8289 13.9358 25.1222 11.6425 25.1222 8.81354H22.6222ZM20 6.19128C21.4482 6.19128 22.6222 7.36531 22.6222 8.81354H25.1222C25.1222 5.9846 22.8289 3.69128 20 3.69128V6.19128ZM17.3777 8.81354C17.3777 7.36531 18.5517 6.19128 20 6.19128V3.69128C17.171 3.69128 14.8777 5.9846 14.8777 8.81354H17.3777ZM20 11.4358C18.5517 11.4358 17.3777 10.2618 17.3777 8.81354H14.8777C14.8777 11.6425 17.171 13.9358 20 13.9358V11.4358ZM33.8088 8.81354C33.8088 10.2618 32.6347 11.4358 31.1865 11.4358V13.9358C34.0154 13.9358 36.3088 11.6425 36.3088 8.81354H33.8088ZM31.1865 6.19128C32.6347 6.19128 33.8088 7.36531 33.8088 8.81354H36.3088C36.3088 5.9846 34.0154 3.69128 31.1865 3.69128V6.19128ZM28.5642 8.81354C28.5642 7.36531 29.7383 6.19128 31.1865 6.19128V3.69128C28.3576 3.69128 26.0642 5.9846 26.0642 8.81354H28.5642ZM31.1865 11.4358C29.7383 11.4358 28.5642 10.2618 28.5642 8.81354H26.0642C26.0642 11.6425 28.3576 13.9358 31.1865 13.9358V11.4358ZM8.81342 36.3089C11.6424 36.3089 13.9357 34.0156 13.9357 31.1866H11.4357C11.4357 32.6349 10.2617 33.8089 8.81342 33.8089V36.3089ZM3.69116 31.1866C3.69116 34.0156 5.98447 36.3089 8.81342 36.3089V33.8089C7.36519 33.8089 6.19116 32.6349 6.19116 31.1866H3.69116ZM8.81342 26.0644C5.98447 26.0644 3.69116 28.3577 3.69116 31.1866H6.19116C6.19116 29.7384 7.36519 28.5644 8.81342 28.5644V26.0644ZM13.9357 31.1866C13.9357 28.3577 11.6424 26.0644 8.81342 26.0644V28.5644C10.2617 28.5644 11.4357 29.7384 11.4357 31.1866H13.9357ZM16.1277 28.5644H23.8722V26.0644H16.1277V28.5644ZM17.3777 35.0589V27.3144H14.8777V35.0589H17.3777ZM23.8722 33.8089H16.1277V36.3089H23.8722V33.8089ZM22.6222 27.3144V35.0589H25.1222V27.3144H22.6222Z" fill="url(#paint0_linear)"/>
<path d="M9 16V20.05H31V25" stroke="url(#paint1_linear)" stroke-width="2.5" stroke-linecap="round" stroke-linejoin="round"/>
<defs>
<linearGradient id="paint0_linear" x1="35.0588" y1="4.94128" x2="4.94116" y2="35.0589" gradientUnits="userSpaceOnUse">
<stop stop-color="#F8B017"/>
<stop offset="1" stop-color="#F7931A"/>
</linearGradient>
<linearGradient id="paint1_linear" x1="40.9216" y1="15.1" x2="41.0813" y2="24.8346" gradientUnits="userSpaceOnUse">
<stop offset="0.328125" stop-color="#F8B017"/>
<stop offset="0.677004" stop-color="#F7931A"/>
<stop offset="1" stop-color="#F7931A" stop-opacity="0"/>
</linearGradient>
</defs>
</svg>
