<svg width="561" height="440" viewBox="0 0 561 440" fill="none" xmlns="http://www.w3.org/2000/svg">
<g opacity="0.1">
<path opacity="0.1" d="M55.0156 255.436C55.0156 242.939 63.7913 227.742 74.618 221.488C80.0426 218.361 84.9516 218.069 88.4933 220.131L92.203 222.295L91.1271 222.395C93.0772 224.783 94.2204 228.313 94.2204 232.807C94.2204 245.304 85.4447 260.502 74.618 266.756C70.8971 268.908 67.4227 269.715 64.4638 269.345L64.5422 270.342L60.7764 268.146C60.7652 268.134 60.7428 268.123 60.7316 268.123L60.5747 268.033H60.5859C57.1339 265.926 55.0156 261.578 55.0156 255.436Z" fill="#9FFFF8"/>
<path opacity="0.1" d="M92.2094 254.31C99.8632 241.054 99.8625 226.725 92.2078 222.305C84.5531 217.885 72.1431 225.049 64.4893 238.305C56.8355 251.562 56.8362 265.891 64.4909 270.311C72.1456 274.73 84.5556 267.567 92.2094 254.31Z" fill="#42E8E0"/>
</g>
<path opacity="0.2" d="M77.0854 284.027C59.9263 284.027 42.7672 280.261 29.7101 272.718C17.0229 265.388 10.0293 255.638 10.0293 245.259C10.0293 234.881 17.0229 225.119 29.7101 217.789C55.8354 202.703 98.3353 202.703 124.461 217.789C137.148 225.119 144.141 234.87 144.141 245.248C144.141 255.627 137.148 265.388 124.461 272.707C111.404 280.25 94.2445 284.027 77.0854 284.027ZM77.0966 206.85C60.0047 206.85 42.9241 210.605 29.9119 218.114C17.348 225.366 10.4216 235.004 10.4216 245.248C10.4216 255.492 17.3368 265.119 29.9119 272.371C55.9251 287.389 98.2569 287.389 124.27 272.371C136.834 265.119 143.76 255.481 143.76 245.248C143.76 235.015 136.845 225.377 124.27 218.125C111.269 210.605 94.1772 206.85 77.0966 206.85Z" fill="#FAC451"/>
<path d="M77.0978 269.367C66.4392 269.367 55.7918 267.025 47.6774 262.34C39.7871 257.778 35.4385 251.715 35.4385 245.248C35.4385 238.781 39.7871 232.707 47.6774 228.145C63.895 218.775 90.3005 218.775 106.518 228.145C114.408 232.707 118.757 238.781 118.757 245.248C118.757 251.715 114.408 257.79 106.518 262.351C98.4037 267.025 87.7451 269.367 77.0978 269.367ZM77.0978 221.51C66.5176 221.51 55.9263 223.841 47.8679 228.493C40.1009 232.976 35.8196 238.938 35.8196 245.259C35.8196 251.581 40.1009 257.532 47.8679 262.015C63.9847 271.317 90.2108 271.317 106.316 262.015C114.083 257.532 118.365 251.581 118.365 245.248C118.365 238.916 114.083 232.976 106.316 228.481C98.258 223.83 87.6779 221.51 77.0978 221.51Z" fill="#FAC451"/>
<g filter="url(#filter0_d_10520_31075)">
<path d="M55.0156 255.436C55.0156 242.939 63.7913 227.742 74.618 221.488C80.0426 218.361 84.9516 218.069 88.4933 220.131L92.203 222.295L91.1271 222.395C93.0772 224.783 94.2204 228.313 94.2204 232.807C94.2204 245.304 85.4447 260.502 74.618 266.756C70.8971 268.908 67.4227 269.715 64.4638 269.345L64.5422 270.342L60.7764 268.146C60.7652 268.134 60.7428 268.123 60.7316 268.123L60.5747 268.033H60.5859C57.1339 265.926 55.0156 261.578 55.0156 255.436Z" fill="#FAC451"/>
<path d="M91.9578 222.738C95.565 224.821 97.449 229.289 97.4493 234.994C97.4496 240.683 95.5674 247.494 91.7764 254.06C87.9854 260.626 83.0278 265.662 78.1005 268.506C73.1601 271.358 68.3481 271.96 64.7409 269.878C61.1337 267.795 59.2497 263.326 59.2494 257.622C59.2491 251.933 61.1313 245.122 64.9223 238.555C68.7133 231.989 73.6709 226.954 78.5981 224.11C83.5386 221.258 88.3506 220.655 91.9578 222.738Z" fill="url(#paint0_linear_10520_31075)" stroke="url(#paint1_linear_10520_31075)"/>
</g>
<path d="M264.287 397.256C260.702 397.256 257.279 396.536 254.739 395.054L129.694 322.806C127.195 321.366 125.81 319.34 125.81 317.138C125.81 314.487 127.792 311.81 131.256 309.811L369.721 172.018C376.199 168.266 386.06 167.872 391.682 171.121L516.714 243.368C519.227 244.823 520.599 246.834 520.599 249.05C520.599 251.701 518.616 254.379 515.152 256.377L276.687 394.157C273.156 396.209 268.606 397.256 264.287 397.256ZM254.997 394.592C260.471 397.759 270.087 397.351 276.416 393.695L514.881 255.901C518.167 253.998 520.055 251.497 520.055 249.05C520.055 247.038 518.765 245.19 516.443 243.844L391.411 171.596C385.937 168.429 376.322 168.837 369.993 172.493L131.527 310.274C128.241 312.177 126.353 314.678 126.353 317.124C126.353 319.136 127.643 320.985 129.966 322.331L254.997 394.592Z" fill="#FAC451"/>
<path d="M520.341 215.665L502.386 218.765L391.561 154.727C386.006 151.519 376.295 151.914 369.871 155.625L157.836 278.14L126.082 283.618V294.886H126.096C126.082 296.939 127.304 298.91 129.831 300.364L254.862 372.612C260.417 375.82 270.128 375.426 276.552 371.715L515.031 233.907C518.481 231.909 520.273 229.367 520.328 226.934H520.341V215.665Z" fill="url(#paint2_linear_10520_31075)"/>
<path d="M254.862 361.261L129.83 289.014C124.275 285.806 124.968 280.192 131.392 276.481L369.857 138.687C376.281 134.976 385.992 134.568 391.547 137.79L516.579 210.038C522.134 213.246 521.441 218.86 515.017 222.57L276.565 360.364C270.141 364.075 260.43 364.483 254.862 361.261Z" fill="#272727"/>
<path d="M515.03 222.571L276.565 360.364C270.141 364.075 260.43 364.483 254.875 361.262L129.83 289.014C127.602 287.723 126.393 286.051 126.149 284.27C125.809 286.581 127.005 288.837 129.83 290.482L254.861 362.73C260.416 365.938 270.127 365.543 276.551 361.833L515.016 224.039C518.86 221.823 520.639 218.914 520.259 216.25C519.933 218.466 518.181 220.749 515.03 222.571Z" fill="white"/>
<path opacity="0.51" d="M255.12 358.461L134.53 288.769C129.151 285.656 129.83 280.232 136.037 276.644L370.075 141.446C376.282 137.858 385.68 137.463 391.058 140.576L511.635 210.268C517.014 213.381 516.335 218.805 510.128 222.393L276.09 357.591C269.897 361.179 260.499 361.574 255.12 358.461Z" fill="#1C1A34"/>
<path opacity="0.8" d="M264.234 357.837C260.743 357.837 257.416 357.13 254.93 355.703L134.34 285.998C131.868 284.57 130.51 282.586 130.51 280.397C130.51 277.787 132.452 275.164 135.847 273.193L369.885 137.995C376.2 134.352 385.789 133.958 391.262 137.125L511.839 206.817C514.311 208.245 515.669 210.229 515.669 212.418C515.669 215.028 513.727 217.651 510.332 219.622L276.294 354.82C272.858 356.818 268.431 357.837 264.234 357.837ZM255.311 355.024C260.58 358.068 269.816 357.674 275.914 354.154L509.952 218.956C513.089 217.135 514.895 214.756 514.895 212.431C514.895 210.528 513.673 208.788 511.459 207.497L390.882 137.805C385.612 134.76 376.377 135.154 370.279 138.675L136.241 273.872C133.104 275.694 131.297 278.073 131.297 280.397C131.297 282.3 132.52 284.04 134.734 285.331L255.311 355.024Z" fill="url(#paint3_linear_10520_31075)"/>
<g opacity="0.1">
<path opacity="0.5" d="M255.119 355.348L134.529 285.656C129.15 282.543 129.829 277.12 136.036 273.531L370.074 138.334C376.281 134.745 385.679 134.351 391.057 137.464L511.634 207.156C517.013 210.269 516.334 215.692 510.127 219.281L276.103 354.478C269.896 358.067 260.498 358.461 255.119 355.348Z" fill="url(#paint4_radial_10520_31075)"/>
<g opacity="0.1">
<path opacity="0.1" d="M388.299 329.182C388.299 314.025 377.665 295.593 364.545 288.008C357.972 284.216 352.023 283.862 347.731 286.363L343.236 288.987L344.54 289.109C342.176 292.004 340.791 296.286 340.791 301.737C340.791 316.893 351.425 335.326 364.545 342.911C369.054 345.521 373.265 346.499 376.85 346.051L376.755 347.26L381.318 344.596C381.332 344.583 381.359 344.569 381.373 344.569L381.563 344.46H381.549C385.719 341.905 388.299 336.644 388.299 329.182Z" fill="#9FFFF8"/>
<path opacity="0.1" d="M376.792 347.232C386.068 341.872 386.069 324.493 376.794 308.415C367.519 292.337 352.481 283.649 343.205 289.009C333.929 294.369 333.928 311.748 343.203 327.826C352.478 343.904 367.516 352.592 376.792 347.232Z" fill="#42E8E0"/>
</g>
</g>
<path opacity="0.4" d="M485.897 218.724C484.05 219.785 481.075 219.785 479.228 218.724C477.381 217.664 477.381 215.938 479.228 214.878C481.075 213.817 484.05 213.817 485.897 214.878C487.744 215.938 487.744 217.651 485.897 218.724Z" fill="#F8B017"/>
<path opacity="0.4" d="M460.46 200.17L473.512 207.714C475.101 208.638 474.911 210.242 473.064 211.302C471.217 212.363 468.432 212.485 466.843 211.561L453.791 204.016C452.202 203.092 452.392 201.488 454.24 200.428C456.087 199.368 458.871 199.245 460.46 200.17Z" fill="#F8B017"/>
<path opacity="0.4" d="M386.031 154.945L399.083 162.489C400.672 163.413 400.482 165.017 398.635 166.078C396.788 167.138 394.017 167.26 392.415 166.336L379.363 158.792C377.774 157.867 377.964 156.263 379.811 155.203C381.658 154.143 384.442 154.02 386.031 154.945Z" fill="#F8B017"/>
<path d="M485.897 214.034C484.05 215.094 481.075 215.094 479.228 214.034C477.381 212.974 477.381 211.247 479.228 210.187C481.075 209.127 484.05 209.127 485.897 210.187C487.744 211.247 487.744 212.974 485.897 214.034Z" fill="#FAC451"/>
<path d="M460.46 195.479L473.512 203.023C475.101 203.948 474.911 205.552 473.064 206.612C471.217 207.672 468.432 207.795 466.843 206.87L453.791 199.326C452.202 198.402 452.392 196.798 454.24 195.738C456.087 194.677 458.871 194.569 460.46 195.479Z" fill="#FAC451"/>
<path d="M386.031 150.269L399.083 157.814C400.672 158.738 400.482 160.342 398.635 161.402C396.788 162.462 394.017 162.585 392.415 161.66L379.363 154.116C377.774 153.192 377.964 151.588 379.811 150.528C381.658 149.467 384.442 149.345 386.031 150.269Z" fill="#FAC451"/>
<g opacity="0.3">
<path opacity="0.3" d="M560.381 333.481V327.391L558.697 326.453C558.222 329.335 554.84 331.224 552.015 331.618L532.77 342.887L524.363 345.918L497.553 332.067L498.178 331.714C495.882 330.64 494.646 328.193 493.411 325.95L491.604 327.024L490.531 327.323V333.576C490.531 334.772 491.319 335.968 492.894 336.865L519.759 352.389C522.91 354.21 528.016 354.21 531.167 352.389L558.032 336.865C559.58 335.968 560.368 334.799 560.395 333.63C560.381 333.576 560.381 333.535 560.381 333.481Z" fill="url(#paint5_linear_10520_31075)"/>
<path opacity="0.3" d="M552.016 331.618L532.771 342.887L525.464 345.524V353.762C527.528 353.762 529.593 353.313 531.168 352.402L558.032 336.879C559.581 335.982 560.368 334.813 560.396 333.644C560.396 333.589 560.396 333.535 560.396 333.481V327.391L558.861 326.534H558.698C558.155 329.362 554.814 331.224 552.016 331.618Z" fill="#0F054C"/>
<g opacity="0.3">
<path opacity="0.3" d="M519.746 346.204L492.882 330.681C489.731 328.859 489.731 325.909 492.882 324.088L519.746 308.565C522.897 306.743 528.004 306.743 531.155 308.565L558.019 324.088C561.17 325.909 561.17 328.859 558.019 330.681L531.155 346.204C528.017 348.025 522.897 348.025 519.746 346.204Z" fill="url(#paint6_linear_10520_31075)"/>
</g>
<g opacity="0.3">
<path opacity="0.3" d="M519.746 346.204L492.882 330.681C489.731 328.859 489.731 325.909 492.882 324.088L519.746 308.565C522.897 306.743 528.004 306.743 531.155 308.565L558.019 324.088C561.17 325.909 561.17 328.859 558.019 330.681L531.155 346.204C528.017 348.025 522.897 348.025 519.746 346.204Z" fill="#0F054C"/>
</g>
</g>
<path d="M525.45 323.624C523.617 323.624 521.783 323.216 520.384 322.414L493.52 306.891C492.121 306.089 491.36 305.002 491.36 303.833C491.36 302.664 492.134 301.576 493.52 300.774L520.384 285.251C523.182 283.633 527.718 283.633 530.516 285.251L557.38 300.774C558.779 301.576 559.54 302.664 559.54 303.833C559.54 305.002 558.766 306.089 557.38 306.891L530.516 322.414C529.117 323.216 527.284 323.624 525.45 323.624ZM520.629 322.007C523.291 323.543 527.623 323.543 530.285 322.007L557.149 306.483C558.399 305.763 559.078 304.825 559.078 303.833C559.078 302.84 558.399 301.902 557.149 301.182L530.285 285.659C527.623 284.123 523.291 284.123 520.629 285.659L493.764 301.182C492.515 301.902 491.836 302.84 491.836 303.833C491.836 304.825 492.515 305.763 493.764 306.483L520.629 322.007Z" fill="#F8B017"/>
<path opacity="0.4" d="M560.381 297.866V288.663L558.697 287.725C558.222 290.607 554.84 292.496 552.015 292.891L532.77 304.159L524.363 307.191L497.553 293.339L498.178 292.986C495.882 291.912 494.646 289.465 493.411 287.222L491.604 288.296L490.531 288.595V297.961C490.531 299.157 491.319 300.353 492.894 301.25L519.759 316.774C522.91 318.595 528.016 318.595 531.167 316.774L558.032 301.25C559.58 300.353 560.368 299.184 560.395 298.015C560.381 297.974 560.381 297.92 560.381 297.866Z" fill="#FDC64F"/>
<path d="M560.381 289.682V283.593L558.697 282.655C558.222 285.537 554.84 287.426 552.015 287.82L532.77 299.089L524.363 302.12L497.553 288.269L498.178 287.915C495.882 286.842 494.646 284.395 493.411 282.152L491.604 283.226L490.531 283.525V289.778C490.531 290.974 491.319 292.17 492.894 293.067L519.759 308.591C522.91 310.412 528.016 310.412 531.167 308.591L558.032 293.067C559.58 292.17 560.368 291.001 560.395 289.832C560.381 289.791 560.381 289.737 560.381 289.682Z" fill="url(#paint7_linear_10520_31075)"/>
<path opacity="0.3" d="M552.016 287.82L532.771 299.089L525.464 301.726V309.963C527.528 309.963 529.593 309.515 531.168 308.604L558.032 293.081C559.581 292.183 560.368 291.014 560.396 289.845C560.396 289.791 560.396 289.737 560.396 289.682V283.593L558.861 282.736H558.698C558.155 285.564 554.814 287.426 552.016 287.82Z" fill="#686868"/>
<path d="M519.745 302.406L492.881 286.882C489.73 285.061 489.73 282.111 492.881 280.29L519.745 264.766C522.896 262.945 528.003 262.945 531.154 264.766L558.018 280.29C561.169 282.111 561.169 285.061 558.018 286.882L531.154 302.406C528.016 304.227 522.896 304.227 519.745 302.406Z" fill="url(#paint8_linear_10520_31075)"/>
<path d="M525.45 299.592C523.793 299.592 522.136 299.225 520.873 298.504L499.889 286.379C498.626 285.645 497.934 284.666 497.934 283.606C497.934 282.546 498.626 281.553 499.889 280.833L520.873 268.708C523.399 267.253 527.501 267.253 530.027 268.708L551.01 280.833C552.273 281.567 552.966 282.546 552.966 283.62C552.966 284.68 552.273 285.672 551.01 286.393L530.027 298.518C528.764 299.225 527.107 299.592 525.45 299.592ZM521.117 298.096C523.508 299.483 527.406 299.483 529.796 298.096L550.779 285.971C551.893 285.332 552.504 284.49 552.504 283.606C552.504 282.722 551.893 281.88 550.779 281.227L529.796 269.102C527.406 267.716 523.508 267.716 521.117 269.102L500.134 281.227C499.02 281.866 498.409 282.709 498.409 283.592C498.409 284.476 499.02 285.319 500.134 285.958L521.117 298.096Z" fill="white"/>
<path d="M558.019 286.882L531.154 302.406C528.003 304.227 522.897 304.227 519.746 302.406L492.881 286.882C491.469 286.067 490.695 285.034 490.545 283.96C490.355 285.278 491.143 286.624 492.881 287.63L519.746 303.153C522.897 304.975 528.003 304.975 531.154 303.153L558.019 287.63C559.757 286.624 560.531 285.265 560.355 283.96C560.205 285.034 559.431 286.08 558.019 286.882Z" fill="white"/>
<g opacity="0.3">
<path opacity="0.3" d="M446.531 418.725V412.635L444.847 411.697C444.371 414.579 440.989 416.469 438.164 416.863L418.919 428.132L410.512 431.163L383.702 417.311L384.327 416.958C382.032 415.884 380.796 413.437 379.56 411.195L377.754 412.268L376.681 412.567V418.82C376.681 420.016 377.468 421.213 379.044 422.11L405.908 437.633C409.059 439.455 414.166 439.455 417.317 437.633L444.181 422.123C445.729 421.226 446.517 420.057 446.544 418.888C446.531 418.834 446.531 418.779 446.531 418.725Z" fill="url(#paint9_linear_10520_31075)"/>
<path opacity="0.3" d="M438.164 416.863L418.919 428.131L411.612 430.768V439.006C413.677 439.006 415.741 438.557 417.317 437.647L444.181 422.123C445.729 421.226 446.517 420.057 446.544 418.888C446.544 418.834 446.544 418.779 446.544 418.725V412.635L445.009 411.779H444.846C444.317 414.606 440.962 416.469 438.164 416.863Z" fill="#0F054C"/>
<g opacity="0.3">
<path opacity="0.3" d="M405.908 431.462L379.044 415.938C375.893 414.117 375.893 411.167 379.044 409.346L405.908 393.822C409.059 392.001 414.166 392.001 417.317 393.822L444.181 409.346C447.332 411.167 447.332 414.117 444.181 415.938L417.317 431.462C414.166 433.27 409.046 433.27 405.908 431.462Z" fill="url(#paint10_linear_10520_31075)"/>
</g>
<g opacity="0.3">
<path opacity="0.3" d="M405.908 431.462L379.044 415.938C375.893 414.117 375.893 411.167 379.044 409.346L405.908 393.822C409.059 392.001 414.166 392.001 417.317 393.822L444.181 409.346C447.332 411.167 447.332 414.117 444.181 415.938L417.317 431.462C414.166 433.27 409.046 433.27 405.908 431.462Z" fill="#0F054C"/>
</g>
</g>
<path d="M411.612 412.853C409.779 412.853 407.945 412.445 406.546 411.643L379.682 396.119C378.283 395.317 377.522 394.23 377.522 393.061C377.522 391.892 378.297 390.804 379.682 390.002L406.546 374.479C409.344 372.861 413.88 372.861 416.678 374.479L443.529 390.002C444.928 390.804 445.688 391.892 445.688 393.061C445.688 394.23 444.914 395.317 443.529 396.119L416.665 411.643C415.279 412.458 413.446 412.853 411.612 412.853ZM411.612 373.731C409.86 373.731 408.122 374.112 406.777 374.887L379.913 390.41C378.677 391.131 377.984 392.069 377.984 393.061C377.984 394.053 378.663 394.991 379.913 395.712L406.777 411.235C409.439 412.771 413.772 412.771 416.434 411.235L443.298 395.712C444.547 394.991 445.227 394.053 445.227 393.061C445.227 392.069 444.547 391.131 443.298 390.41L416.434 374.887C415.103 374.112 413.351 373.731 411.612 373.731Z" fill="#F8B017"/>
<path opacity="0.4" d="M446.531 387.108V377.905L444.847 376.967C444.371 379.849 440.989 381.738 438.164 382.132L418.919 393.388L410.512 396.419L383.702 382.581L384.327 382.228C382.032 381.154 380.796 378.707 379.56 376.464L377.754 377.538L376.681 377.837V387.203C376.681 388.399 377.468 389.595 379.044 390.492L405.908 406.016C409.059 407.837 414.166 407.837 417.317 406.016L444.181 390.492C445.729 389.595 446.517 388.426 446.544 387.257C446.531 387.203 446.531 387.148 446.531 387.108Z" fill="#FAC451"/>
<path d="M446.531 378.924V372.834L444.847 371.897C444.371 374.778 440.989 376.668 438.164 377.062L418.919 388.317L410.512 391.348L383.702 377.511L384.327 377.157C382.032 376.083 380.796 373.636 379.56 371.394L377.754 372.467L376.681 372.767V379.019C376.681 380.216 377.468 381.412 379.044 382.309L405.908 397.832C409.059 399.654 414.166 399.654 417.317 397.832L444.181 382.309C445.729 381.412 446.517 380.243 446.544 379.074C446.531 379.019 446.531 378.965 446.531 378.924Z" fill="url(#paint11_linear_10520_31075)"/>
<path opacity="0.3" d="M438.164 377.048L418.919 388.317L411.612 390.954V399.192C413.677 399.192 415.741 398.743 417.317 397.832L444.181 382.309C445.729 381.412 446.517 380.243 446.544 379.074C446.544 379.019 446.544 378.965 446.544 378.911V372.821L445.009 371.965H444.846C444.317 374.806 440.962 376.668 438.164 377.048Z" fill="#686868"/>
<path d="M384.327 377.143L409.779 362.436C410.784 361.851 412.427 361.851 413.432 362.436L438.449 376.885L438.178 377.048C441.003 376.654 444.384 374.765 444.86 371.883L416.787 356.251L408.624 354.089L401.969 358.004L379.56 371.38C380.795 373.623 382.031 376.069 384.327 377.143Z" fill="url(#paint12_linear_10520_31075)"/>
<path opacity="0.3" d="M411.612 354.891L408.624 354.103L401.969 358.018L379.56 371.393C380.795 373.623 382.031 376.083 384.327 377.157L409.779 362.449C410.281 362.164 410.947 362.014 411.612 362.014V354.891Z" fill="#0F054C"/>
<path d="M405.907 391.647L379.029 376.124C375.878 374.303 375.878 371.353 379.029 369.531L405.894 354.008C409.044 352.187 414.151 352.187 417.302 354.008L444.18 369.531C447.331 371.353 447.331 374.303 444.18 376.124L417.316 391.647C414.165 393.469 409.044 393.469 405.907 391.647ZM413.431 356.251C412.426 355.666 410.783 355.666 409.778 356.251L382.914 371.774C381.909 372.359 381.909 373.297 382.914 373.881L409.778 389.405C410.783 389.989 412.426 389.989 413.431 389.405L440.296 373.881C441.301 373.297 441.301 372.359 440.296 371.774L413.431 356.251Z" fill="url(#paint13_linear_10520_31075)"/>
<path d="M440.296 371.774L413.431 356.251C412.426 355.666 410.783 355.666 409.778 356.251L382.914 371.774C382.248 372.168 382.017 372.712 382.248 373.215C382.357 372.97 382.588 372.739 382.914 372.535L409.778 357.012C410.783 356.427 412.426 356.427 413.431 357.012L440.296 372.535C440.635 372.726 440.853 372.97 440.961 373.215C441.192 372.712 440.975 372.155 440.296 371.774Z" fill="white"/>
<path d="M444.181 376.124L417.316 391.647C414.165 393.469 409.059 393.469 405.908 391.647L379.03 376.124C377.617 375.308 376.843 374.275 376.694 373.201C376.504 374.52 377.291 375.866 379.03 376.872L405.894 392.395C409.045 394.216 414.152 394.216 417.303 392.395L444.181 376.885C445.919 375.879 446.693 374.52 446.517 373.215C446.354 374.275 445.579 375.308 444.181 376.124Z" fill="url(#paint14_linear_10520_31075)"/>
<path d="M406.655 391.212L379.791 375.689C377.061 374.112 377.061 371.543 379.791 369.966L406.655 354.443C409.385 352.866 413.826 352.866 416.542 354.443L443.407 369.966C446.137 371.543 446.137 374.112 443.407 375.676L416.556 391.212C413.826 392.789 409.385 392.789 406.655 391.212ZM414.193 355.816C412.767 354.987 410.444 354.987 409.018 355.816L382.154 371.339C380.728 372.168 380.728 373.501 382.154 374.33L409.018 389.853C410.444 390.682 412.767 390.682 414.193 389.853L441.057 374.316C442.483 373.487 442.483 372.155 441.057 371.326L414.193 355.816Z" fill="url(#paint15_linear_10520_31075)"/>
<path opacity="0.4" d="M413.432 356.251C412.427 355.666 410.783 355.666 409.778 356.251L382.914 371.774C381.909 372.359 381.909 373.297 382.914 373.881L409.778 389.404C410.783 389.989 412.427 389.989 413.432 389.404L440.296 373.881C441.301 373.297 441.301 372.359 440.296 371.774L413.432 356.251Z" fill="#E8A642"/>
<path opacity="0.5" d="M441.043 372.807V276.908H382.153V372.807C382.139 373.202 382.397 373.582 382.9 373.881L409.764 389.405C410.769 389.989 412.413 389.989 413.418 389.405L440.282 373.881C440.812 373.582 441.056 373.202 441.043 372.807Z" fill="url(#paint16_linear_10520_31075)"/>
<g opacity="0.3">
<path opacity="0.3" d="M301.805 141.817V135.728L300.121 134.79C299.646 137.671 296.264 139.561 293.439 139.955L274.194 151.224L265.787 154.255L238.977 140.404L239.601 140.05C237.306 138.976 236.07 136.53 234.834 134.287L233.028 135.361L231.955 135.66V141.912C231.955 143.109 232.743 144.305 234.318 145.202L261.183 160.725C264.334 162.547 269.44 162.547 272.591 160.725L299.455 145.216C301.004 144.318 301.791 143.149 301.819 141.98C301.805 141.926 301.805 141.872 301.805 141.817Z" fill="url(#paint17_linear_10520_31075)"/>
<path opacity="0.3" d="M293.439 139.955L274.194 151.224L266.887 153.861V162.098C268.951 162.098 271.016 161.65 272.591 160.739L299.455 145.215C301.004 144.318 301.791 143.149 301.819 141.98C301.819 141.926 301.819 141.872 301.819 141.817V135.727L300.284 134.871H300.121C299.591 137.698 296.236 139.561 293.439 139.955Z" fill="#0F054C"/>
<g opacity="0.3">
<path opacity="0.3" d="M261.183 154.554L234.318 139.031C231.167 137.209 231.167 134.259 234.318 132.438L261.183 116.915C264.334 115.093 269.44 115.093 272.591 116.915L299.455 132.438C302.606 134.259 302.606 137.209 299.455 139.031L272.591 154.554C269.44 156.362 264.32 156.362 261.183 154.554Z" fill="url(#paint18_linear_10520_31075)"/>
</g>
<g opacity="0.3">
<path opacity="0.3" d="M261.183 154.554L234.318 139.031C231.167 137.209 231.167 134.259 234.318 132.438L261.183 116.915C264.334 115.093 269.44 115.093 272.591 116.915L299.455 132.438C302.606 134.259 302.606 137.209 299.455 139.031L272.591 154.554C269.44 156.362 264.32 156.362 261.183 154.554Z" fill="#0F054C"/>
</g>
</g>
<path d="M266.888 135.945C265.054 135.945 263.221 135.537 261.822 134.735L234.957 119.212C233.558 118.41 232.798 117.322 232.798 116.153C232.798 114.984 233.572 113.897 234.957 113.095L261.822 97.5713C264.619 95.9537 269.156 95.9537 271.953 97.5713L298.804 113.095C300.203 113.897 300.964 114.984 300.964 116.153C300.964 117.322 300.19 118.41 298.804 119.212L271.94 134.735C270.555 135.55 268.721 135.945 266.888 135.945ZM266.888 96.8236C265.136 96.8236 263.397 97.2042 262.053 97.979L235.188 113.502C233.952 114.223 233.26 115.161 233.26 116.153C233.26 117.145 233.939 118.083 235.188 118.804L262.053 134.327C264.715 135.863 269.047 135.863 271.709 134.327L298.573 118.804C299.823 118.083 300.502 117.145 300.502 116.153C300.502 115.161 299.823 114.223 298.573 113.502L271.709 97.979C270.378 97.2042 268.626 96.8236 266.888 96.8236Z" fill="#F8B017"/>
<path opacity="0.4" d="M301.806 110.2V100.997L300.122 100.059C299.647 102.941 296.265 104.83 293.44 105.225L274.195 116.48L265.788 119.511L238.978 105.673L239.602 105.32C237.307 104.246 236.071 101.799 234.835 99.5563L233.029 100.63L231.956 100.929V110.295C231.956 111.491 232.744 112.687 234.319 113.584L261.184 129.108C264.335 130.929 269.441 130.929 272.592 129.108L299.456 113.584C301.005 112.687 301.792 111.518 301.82 110.349C301.806 110.295 301.806 110.24 301.806 110.2Z" fill="#FAC451"/>
<path d="M301.806 102.016V95.9267L300.122 94.9888C299.647 97.8705 296.265 99.76 293.44 100.154L274.195 111.409L265.788 114.441L238.978 100.603L239.602 100.249C237.307 99.1755 236.071 96.7287 234.835 94.4858L233.029 95.5597L231.956 95.8587V102.112C231.956 103.308 232.744 104.504 234.319 105.401L261.184 120.924C264.335 122.746 269.441 122.746 272.592 120.924L299.456 105.401C301.005 104.504 301.792 103.335 301.82 102.166C301.806 102.112 301.806 102.057 301.806 102.016Z" fill="url(#paint19_linear_10520_31075)"/>
<path opacity="0.3" d="M293.44 100.141L274.195 111.409L266.888 114.046V122.284C268.952 122.284 271.016 121.835 272.592 120.924L299.456 105.401C301.005 104.504 301.792 103.335 301.819 102.166C301.819 102.112 301.819 102.057 301.819 102.003V95.9131L300.285 95.0567H300.122C299.592 97.8977 296.237 99.7599 293.44 100.141Z" fill="#686868"/>
<path d="M239.602 100.236L265.054 85.5278C266.059 84.9433 267.702 84.9433 268.707 85.5278L293.725 99.9773L293.453 100.14C296.278 99.7462 299.66 97.8568 300.135 94.975L272.062 79.3429L263.9 77.1816L257.245 81.0964L234.835 94.4721C236.071 96.7149 237.307 99.1617 239.602 100.236Z" fill="url(#paint20_linear_10520_31075)"/>
<path opacity="0.3" d="M266.887 77.9835L263.9 77.1951L257.245 81.1099L234.835 94.4856C236.071 96.7148 237.307 99.1752 239.602 100.249L265.054 85.5413C265.556 85.2558 266.222 85.1063 266.887 85.1063V77.9835Z" fill="#0F054C"/>
<path d="M261.183 114.74L234.305 99.2163C231.154 97.3948 231.154 94.4451 234.305 92.6236L261.169 77.1002C264.32 75.2788 269.427 75.2788 272.577 77.1002L299.455 92.6236C302.606 94.4451 302.606 97.3948 299.455 99.2163L272.591 114.74C269.44 116.561 264.32 116.561 261.183 114.74ZM268.707 79.3431C267.702 78.7586 266.058 78.7586 265.053 79.3431L238.189 94.8665C237.184 95.451 237.184 96.3889 238.189 96.9734L265.053 112.497C266.058 113.081 267.702 113.081 268.707 112.497L295.571 96.9734C296.576 96.3889 296.576 95.451 295.571 94.8665L268.707 79.3431Z" fill="url(#paint21_linear_10520_31075)"/>
<path d="M295.571 94.8663L268.707 79.3429C267.702 78.7584 266.058 78.7584 265.053 79.3429L238.189 94.8663C237.524 95.2605 237.293 95.8042 237.524 96.3072C237.632 96.0625 237.863 95.8314 238.189 95.6275L265.053 80.1041C266.058 79.5196 267.702 79.5196 268.707 80.1041L295.571 95.6275C295.911 95.8178 296.128 96.0625 296.237 96.3072C296.468 95.8042 296.25 95.2469 295.571 94.8663Z" fill="white"/>
<path d="M299.456 99.2163L272.592 114.74C269.441 116.561 264.334 116.561 261.183 114.74L234.305 99.2163C232.893 98.4007 232.119 97.3676 231.969 96.2938C231.779 97.6123 232.567 98.958 234.305 99.9639L261.17 115.487C264.32 117.309 269.427 117.309 272.578 115.487L299.456 99.9775C301.194 98.9716 301.969 97.6123 301.792 96.3074C301.629 97.3676 300.855 98.4007 299.456 99.2163Z" fill="url(#paint22_linear_10520_31075)"/>
<path d="M261.93 114.305L235.066 98.7813C232.336 97.2045 232.336 94.6354 235.066 93.0586L261.93 77.5352C264.66 75.9584 269.101 75.9584 271.818 77.5352L298.682 93.0586C301.412 94.6354 301.412 97.2045 298.682 98.7677L271.831 114.305C269.101 115.881 264.66 115.881 261.93 114.305ZM269.468 78.9081C268.042 78.079 265.72 78.079 264.294 78.9081L237.429 94.4315C236.003 95.2607 236.003 96.5928 237.429 97.422L264.294 112.945C265.72 113.775 268.042 113.775 269.468 112.945L296.332 97.4084C297.758 96.5792 297.758 95.2471 296.332 94.4179L269.468 78.9081Z" fill="url(#paint23_linear_10520_31075)"/>
<path opacity="0.4" d="M268.707 79.3429C267.702 78.7584 266.059 78.7584 265.054 79.3429L238.189 94.8663C237.184 95.4508 237.184 96.3887 238.189 96.9732L265.054 112.497C266.059 113.081 267.702 113.081 268.707 112.497L295.571 96.9732C296.576 96.3887 296.576 95.4508 295.571 94.8663L268.707 79.3429Z" fill="#E8A642"/>
<path opacity="0.5" d="M296.318 95.8996V0H237.428V95.8996C237.415 96.2938 237.673 96.6744 238.175 96.9735L265.04 112.497C266.045 113.081 267.688 113.081 268.693 112.497L295.557 96.9735C296.087 96.6744 296.331 96.2938 296.318 95.8996Z" fill="url(#paint24_linear_10520_31075)"/>
<path opacity="0.4" d="M314.049 288.199C297.669 288.199 281.276 284.597 268.809 277.392C256.68 270.378 249.998 261.053 249.998 251.117C249.998 241.18 256.68 231.855 268.809 224.841C293.758 210.419 334.34 210.432 359.289 224.841C371.417 231.855 378.099 241.18 378.099 251.117C378.099 261.053 371.417 270.392 359.289 277.392L359.167 277.188L359.289 277.392C346.807 284.597 330.428 288.199 314.049 288.199ZM314.049 214.483C297.751 214.483 281.453 218.072 269.039 225.235C257.06 232.154 250.473 241.343 250.473 251.103C250.473 260.863 257.074 270.052 269.053 276.971C293.867 291.312 334.244 291.312 359.058 276.971C371.037 270.052 377.624 260.863 377.624 251.103C377.624 241.343 371.023 232.154 359.044 225.235C346.644 218.072 330.347 214.483 314.049 214.483Z" fill="#FAC451"/>
<path opacity="0.2" d="M314.05 298.135C293.256 298.135 272.463 293.568 256.64 284.42C241.266 275.53 232.791 263.704 232.791 251.116C232.791 238.529 241.266 226.69 256.64 217.813C288.299 199.517 339.8 199.517 371.459 217.813C386.833 226.703 395.308 238.529 395.308 251.116C395.308 263.704 386.833 275.543 371.459 284.42C355.636 293.568 334.843 298.135 314.05 298.135ZM314.05 204.546C293.338 204.546 272.639 209.1 256.871 218.207C241.646 227.002 233.253 238.692 233.253 251.103C233.253 263.527 241.633 275.204 256.871 283.998C288.394 302.213 339.692 302.213 371.214 283.998C386.439 275.204 394.833 263.513 394.833 251.103C394.833 238.679 386.453 227.002 371.214 218.207C355.46 209.1 334.748 204.546 314.05 204.546Z" fill="#FAC451"/>
<path d="M314.049 280.369C301.133 280.369 288.231 277.528 278.397 271.846C268.836 266.314 263.566 258.946 263.566 251.103C263.566 243.26 268.836 235.892 278.397 230.36C298.064 218.996 330.048 218.996 349.701 230.36C359.262 235.892 364.532 243.26 364.532 251.103C364.532 258.946 359.262 266.314 349.701 271.846L349.578 271.642L349.701 271.846C339.868 277.528 326.952 280.369 314.049 280.369ZM314.049 222.313C301.228 222.313 288.394 225.14 278.628 230.781C269.216 236.218 264.028 243.436 264.028 251.116C264.028 258.797 269.216 266.001 278.628 271.452C298.159 282.734 329.94 282.734 349.47 271.452C358.882 266.015 364.07 258.797 364.07 251.13C364.07 243.464 358.882 236.246 349.47 230.795C339.691 225.14 326.87 222.313 314.049 222.313Z" fill="#FAC451"/>
<path opacity="0.4" d="M250.259 329.032L175.669 285.929C173.469 284.651 173.469 281.484 175.669 280.206L187.05 273.572C190.853 271.37 195.552 271.37 199.355 273.572L273.945 316.676C276.145 317.954 276.145 321.121 273.945 322.399L262.564 329.032C258.761 331.235 254.075 331.235 250.259 329.032Z" fill="#F8B017"/>
<path d="M212.923 284.977L200.984 278.086L203.361 276.713L215.299 283.604L212.923 284.977Z" fill="#FAC451"/>
<path d="M246.578 304.918L242.911 302.798L245.288 301.425L248.955 303.545L246.578 304.918Z" fill="#FAC451"/>
<path d="M219.836 289.082L216.169 286.962L218.546 285.589L222.213 287.709L219.836 289.082Z" fill="#FAC451"/>
<path d="M256.411 320.455C254.238 320.455 252.065 319.898 250.123 318.77L175.533 275.666C174.419 275.014 173.754 273.858 173.754 272.567C173.754 271.275 174.419 270.12 175.533 269.468L186.914 262.834C190.799 260.591 195.607 260.591 199.491 262.834L274.081 305.938C275.195 306.577 275.86 307.746 275.86 309.037C275.86 310.329 275.195 311.484 274.081 312.136L262.7 318.77C260.757 319.898 258.584 320.455 256.411 320.455ZM193.216 261.706C191.138 261.706 189.06 262.236 187.2 263.31L175.818 269.943C174.868 270.487 174.297 271.479 174.297 272.567C174.297 273.668 174.868 274.647 175.818 275.19L250.408 318.294C254.116 320.442 258.734 320.442 262.442 318.294L273.823 311.661C274.774 311.117 275.344 310.125 275.344 309.037C275.344 307.936 274.774 306.957 273.823 306.414L199.233 263.31C197.372 262.236 195.294 261.706 193.216 261.706Z" fill="#FAC451"/>
<g filter="url(#filter1_d_10520_31075)">
<g opacity="0.3">
<path opacity="0.1" d="M352.362 262.003C352.362 240.567 337.308 214.497 318.736 203.769C309.431 198.405 301.01 197.905 294.935 201.442L288.571 205.153L290.417 205.326C287.071 209.421 285.11 215.477 285.11 223.187C285.11 244.623 300.164 270.693 318.736 281.421C325.119 285.113 331.079 286.497 336.155 285.862L336.02 287.573L342.48 283.805C342.499 283.786 342.538 283.767 342.557 283.767L342.826 283.613H342.807C348.709 279.998 352.362 272.558 352.362 262.003Z" fill="#FAC451"/>
<path opacity="0.1" d="M336.082 287.528C349.213 279.946 349.214 255.366 336.085 232.626C322.956 209.886 301.668 197.598 288.537 205.179C275.406 212.761 275.405 237.341 288.534 260.081C301.664 282.82 322.951 295.109 336.082 287.528Z" fill="#F8B017"/>
</g>
<mask id="mask0_10520_31075" style="mask-type:alpha" maskUnits="userSpaceOnUse" x="259" y="169" width="119" height="108">
<path d="M367.586 276.514L259.922 222.682L268.573 169.811L377.199 196.727L367.586 276.514Z" fill="#C4C4C4"/>
</mask>
<g mask="url(#mask0_10520_31075)">
<path d="M352.361 262C352.361 240.564 337.307 214.494 318.735 203.766C309.43 198.402 301.009 197.902 294.934 201.439L288.57 205.15L290.416 205.323C287.07 209.418 285.109 215.474 285.109 223.184C285.109 244.62 300.163 270.69 318.735 281.418C325.118 285.11 331.078 286.494 336.154 285.859L336.019 287.57L342.479 283.802C342.498 283.783 342.537 283.764 342.556 283.764L342.825 283.61H342.806C348.708 279.995 352.361 272.555 352.361 262Z" fill="#FAC451"/>
<path d="M336.081 287.524C349.212 279.943 349.213 255.363 336.084 232.623C322.955 209.883 301.667 197.595 288.536 205.176C275.405 212.758 275.404 237.338 288.533 260.078C301.663 282.817 322.951 295.106 336.081 287.524Z" fill="#F8B017"/>
<path d="M290.187 254.49C290.187 254.083 290.187 253.723 290.187 253.323C290.307 253.38 290.419 253.422 290.53 253.486C291.422 253.999 292.314 254.514 293.206 255.03C293.321 255.096 293.437 255.163 293.576 255.243C293.593 255.154 293.614 255.084 293.62 255.005C293.628 254.911 293.623 254.808 293.623 254.709C293.623 241.959 293.623 229.209 293.622 216.459C293.622 216.285 293.612 216.106 293.605 215.885C292.458 215.223 291.339 214.577 290.196 213.917C290.196 213.504 290.196 213.135 290.196 212.728C290.332 212.795 290.463 212.85 290.594 212.926C293.629 214.676 296.663 216.429 299.698 218.181C301.385 219.155 303.072 220.121 304.759 221.105C306.039 221.852 307.319 222.584 308.597 223.389C311.108 224.971 313.587 226.79 315.995 229.04C317.471 230.418 318.876 231.934 320.186 233.634C322.395 236.499 323.978 239.599 324.993 242.917C325.597 244.889 325.977 246.802 326.216 248.679C326.423 250.306 326.516 251.878 326.528 253.409C326.551 256.133 326.376 258.722 325.807 261.036C325.436 262.544 324.9 263.883 324.13 264.985C322.953 266.671 321.293 267.52 319.231 267.678C317.291 267.828 315.213 267.477 313.037 266.781C311.913 266.421 310.778 265.983 309.633 265.457C308.709 265.032 307.78 264.581 306.852 264.07C301.404 261.066 295.955 257.807 290.507 254.695C290.412 254.642 290.318 254.574 290.187 254.49ZM303.918 261.214C304.077 261.306 304.173 261.361 304.269 261.417C304.889 261.774 305.51 262.132 306.13 262.49C306.976 262.978 307.811 263.347 308.633 263.596C310.9 264.283 312.592 263.789 313.676 262.052C314.173 261.258 314.514 260.308 314.776 259.28C315.098 258.01 315.317 256.658 315.424 255.223C315.515 254.011 315.614 252.803 315.639 251.551C315.678 249.587 315.659 247.589 315.661 245.603C315.663 244.103 315.605 242.571 315.486 241.007C315.377 239.569 315.213 238.111 314.948 236.611C314.659 234.975 314.256 233.32 313.616 231.623C312.759 229.347 311.497 227.427 309.771 225.865C308.533 224.745 307.268 223.85 305.99 223.048C305.409 222.684 304.827 222.366 304.245 222.03C304.151 221.975 304.056 221.932 303.918 221.861C303.918 234.978 303.918 248.072 303.918 261.214Z" fill="black"/>
<path d="M333.463 269.626C334.129 270.015 334.778 270.492 335.406 271.102C336.797 272.455 337.691 274.036 337.977 275.87C338.179 277.162 338.158 278.325 337.848 279.295C337.368 280.794 336.306 281.24 334.71 280.673C333.896 280.384 333.078 279.919 332.257 279.275C331.024 278.308 330.089 277.033 329.502 275.439C328.692 273.239 328.618 271.399 329.325 270.02C329.938 268.825 331.016 268.536 332.51 269.17C332.826 269.304 333.145 269.473 333.463 269.626Z" fill="black"/>
</g>
</g>
<g filter="url(#filter2_d_10520_31075)">
<path d="M179.045 138.362C172.562 157.508 151.682 167.677 132.401 161.066C113.121 154.455 102.754 133.571 109.237 114.425C115.719 95.2792 136.6 85.1096 155.881 91.7209C175.161 98.3321 185.527 119.216 179.045 138.362Z" fill="url(#paint25_linear_10520_31075)" stroke="url(#paint26_linear_10520_31075)"/>
<path d="M179.225 136.106C173.139 154.081 152.706 163.393 133.546 156.823C114.386 150.253 103.854 130.323 109.94 112.348C116.026 94.3729 136.459 85.0611 155.619 91.6312C174.779 98.2012 185.311 118.131 179.225 136.106Z" fill="url(#paint27_linear_10520_31075)" stroke="url(#paint28_linear_10520_31075)"/>
<g filter="url(#filter3_dd_10520_31075)">
<path fill-rule="evenodd" clip-rule="evenodd" d="M123.005 112.432L137.215 109.303C143.144 107.782 155.799 108.457 158.596 121.471C161.925 136.965 149.568 139.686 144.007 140.911L129.797 144.04L129.663 143.42L132.753 142.74L126.227 112.372L123.138 113.052L123.005 112.432ZM134.859 110.454L141.397 140.853L141.397 140.853C147.588 139.491 151.921 138.538 148.719 123.649C145.383 108.139 139.812 109.365 134.859 110.454Z" fill="black"/>
<ellipse rx="4.4256" ry="4.44052" transform="matrix(0.976706 -0.214591 0.210521 0.977591 166.055 132.214)" fill="black"/>
</g>
</g>
<defs>
<filter id="filter0_d_10520_31075" x="0.015625" y="193.814" width="122.934" height="132.802" filterUnits="userSpaceOnUse" color-interpolation-filters="sRGB">
<feFlood flood-opacity="0" result="BackgroundImageFix"/>
<feColorMatrix in="SourceAlpha" type="matrix" values="0 0 0 0 0 0 0 0 0 0 0 0 0 0 0 0 0 0 127 0" result="hardAlpha"/>
<feOffset dx="-15" dy="15"/>
<feGaussianBlur stdDeviation="20"/>
<feComposite in2="hardAlpha" operator="out"/>
<feColorMatrix type="matrix" values="0 0 0 0 1 0 0 0 0 0.803922 0 0 0 0 0.34902 0 0 0 0.4 0"/>
<feBlend mode="normal" in2="BackgroundImageFix" result="effect1_dropShadow_10520_31075"/>
<feBlend mode="normal" in="SourceGraphic" in2="effect1_dropShadow_10520_31075" result="shape"/>
</filter>
<filter id="filter1_d_10520_31075" x="258.688" y="159.18" width="153.675" height="170.587" filterUnits="userSpaceOnUse" color-interpolation-filters="sRGB">
<feFlood flood-opacity="0" result="BackgroundImageFix"/>
<feColorMatrix in="SourceAlpha" type="matrix" values="0 0 0 0 0 0 0 0 0 0 0 0 0 0 0 0 0 0 127 0" result="hardAlpha"/>
<feOffset dx="20"/>
<feGaussianBlur stdDeviation="20"/>
<feComposite in2="hardAlpha" operator="out"/>
<feColorMatrix type="matrix" values="0 0 0 0 0.360784 0 0 0 0 0.364706 0 0 0 0 0.415686 0 0 0 0.5 0"/>
<feBlend mode="normal" in2="BackgroundImageFix" result="effect1_dropShadow_10520_31075"/>
<feBlend mode="normal" in="SourceGraphic" in2="effect1_dropShadow_10520_31075" result="shape"/>
</filter>
<filter id="filter2_d_10520_31075" x="56.8643" y="64.1165" width="154.554" height="154.554" filterUnits="userSpaceOnUse" color-interpolation-filters="sRGB">
<feFlood flood-opacity="0" result="BackgroundImageFix"/>
<feColorMatrix in="SourceAlpha" type="matrix" values="0 0 0 0 0 0 0 0 0 0 0 0 0 0 0 0 0 0 127 0" result="hardAlpha"/>
<feOffset dx="-10" dy="15"/>
<feGaussianBlur stdDeviation="15"/>
<feColorMatrix type="matrix" values="0 0 0 0 0.360784 0 0 0 0 0.364706 0 0 0 0 0.415686 0 0 0 0.5 0"/>
<feBlend mode="normal" in2="BackgroundImageFix" result="effect1_dropShadow_10520_31075"/>
<feBlend mode="normal" in="SourceGraphic" in2="effect1_dropShadow_10520_31075" result="shape"/>
</filter>
<filter id="filter3_dd_10520_31075" x="122.505" y="108.225" width="48.9736" height="36.8144" filterUnits="userSpaceOnUse" color-interpolation-filters="sRGB">
<feFlood flood-opacity="0" result="BackgroundImageFix"/>
<feColorMatrix in="SourceAlpha" type="matrix" values="0 0 0 0 0 0 0 0 0 0 0 0 0 0 0 0 0 0 127 0" result="hardAlpha"/>
<feOffset dx="-0.5" dy="-0.5"/>
<feColorMatrix type="matrix" values="0 0 0 0 0 0 0 0 0 0 0 0 0 0 0 0 0 0 0.1 0"/>
<feBlend mode="normal" in2="BackgroundImageFix" result="effect1_dropShadow_10520_31075"/>
<feColorMatrix in="SourceAlpha" type="matrix" values="0 0 0 0 0 0 0 0 0 0 0 0 0 0 0 0 0 0 127 0" result="hardAlpha"/>
<feOffset dx="1" dy="1"/>
<feColorMatrix type="matrix" values="0 0 0 0 1 0 0 0 0 1 0 0 0 0 1 0 0 0 0.25 0"/>
<feBlend mode="normal" in2="effect1_dropShadow_10520_31075" result="effect2_dropShadow_10520_31075"/>
<feBlend mode="normal" in="SourceGraphic" in2="effect2_dropShadow_10520_31075" result="shape"/>
</filter>
<linearGradient id="paint0_linear_10520_31075" x1="64.4893" y1="238.305" x2="92.2094" y2="254.31" gradientUnits="userSpaceOnUse">
<stop stop-color="#F4980D"/>
<stop offset="1" stop-color="#FFBF37"/>
</linearGradient>
<linearGradient id="paint1_linear_10520_31075" x1="64.78" y1="234.196" x2="92.9148" y2="254.108" gradientUnits="userSpaceOnUse">
<stop offset="0.541667" stop-color="white" stop-opacity="0"/>
<stop offset="1" stop-color="white" stop-opacity="0.35"/>
</linearGradient>
<linearGradient id="paint2_linear_10520_31075" x1="126.08" y1="263.666" x2="520.338" y2="263.666" gradientUnits="userSpaceOnUse">
<stop stop-color="#737373"/>
<stop offset="0.416667" stop-color="#4B4B4B"/>
<stop offset="0.989583" stop-color="#3F3F3F"/>
</linearGradient>
<linearGradient id="paint3_linear_10520_31075" x1="378.123" y1="319.492" x2="267.949" y2="173.411" gradientUnits="userSpaceOnUse">
<stop stop-color="#FFBF00"/>
<stop offset="0.557292" stop-color="#EF9A03"/>
<stop offset="1" stop-color="#565656"/>
</linearGradient>
<radialGradient id="paint4_radial_10520_31075" cx="0" cy="0" r="1" gradientUnits="userSpaceOnUse" gradientTransform="translate(313.423 250.137) scale(308.588 308.851)">
<stop stop-color="#EDEDED"/>
<stop offset="0.1055" stop-color="#C4C4C4"/>
<stop offset="0.2197" stop-color="#A2A2A2"/>
<stop offset="0.338" stop-color="#8B8B8B"/>
<stop offset="0.4587" stop-color="#686868"/>
<stop offset="0.5824" stop-color="#3A3A3A"/>
<stop offset="0.7105" stop-color="#121355"/>
<stop offset="0.8458" stop-color="#10084E"/>
</radialGradient>
<linearGradient id="paint5_linear_10520_31075" x1="497.474" y1="315.28" x2="552.924" y2="347.266" gradientUnits="userSpaceOnUse">
<stop stop-color="#BCBEFF"/>
<stop offset="0.2271" stop-color="#AAADF8"/>
<stop offset="0.6802" stop-color="#7C83E5"/>
<stop offset="1" stop-color="#5761D7"/>
</linearGradient>
<linearGradient id="paint6_linear_10520_31075" x1="490.525" y1="327.386" x2="560.383" y2="327.386" gradientUnits="userSpaceOnUse">
<stop stop-color="#E9E9FD"/>
<stop offset="0.3601" stop-color="#D3D2F9"/>
<stop offset="0.7062" stop-color="#C5C4F7"/>
<stop offset="1" stop-color="#C0BFF6"/>
</linearGradient>
<linearGradient id="paint7_linear_10520_31075" x1="497.474" y1="271.484" x2="552.924" y2="303.471" gradientUnits="userSpaceOnUse">
<stop stop-color="#F7F7F7"/>
<stop offset="0.2271" stop-color="#E1E1E1"/>
<stop offset="0.6802" stop-color="#BABABA"/>
<stop offset="1" stop-color="#9B9B9B"/>
</linearGradient>
<linearGradient id="paint8_linear_10520_31075" x1="490.523" y1="283.589" x2="560.38" y2="283.589" gradientUnits="userSpaceOnUse">
<stop stop-color="#E9E9FD"/>
<stop offset="0.3601" stop-color="#D3D2F9"/>
<stop offset="0.7062" stop-color="#C5C4F7"/>
<stop offset="1" stop-color="#C0BFF6"/>
</linearGradient>
<linearGradient id="paint9_linear_10520_31075" x1="383.627" y1="400.531" x2="439.077" y2="432.518" gradientUnits="userSpaceOnUse">
<stop stop-color="#BCBEFF"/>
<stop offset="0.2271" stop-color="#AAADF8"/>
<stop offset="0.6802" stop-color="#7C83E5"/>
<stop offset="1" stop-color="#5761D7"/>
</linearGradient>
<linearGradient id="paint10_linear_10520_31075" x1="376.678" y1="412.637" x2="446.535" y2="412.637" gradientUnits="userSpaceOnUse">
<stop stop-color="#E9E9FD"/>
<stop offset="0.3601" stop-color="#D3D2F9"/>
<stop offset="0.7062" stop-color="#C5C4F7"/>
<stop offset="1" stop-color="#C0BFF6"/>
</linearGradient>
<linearGradient id="paint11_linear_10520_31075" x1="383.623" y1="360.726" x2="439.073" y2="392.712" gradientUnits="userSpaceOnUse">
<stop stop-color="#F7F7F7"/>
<stop offset="0.2271" stop-color="#E1E1E1"/>
<stop offset="0.6802" stop-color="#BABABA"/>
<stop offset="1" stop-color="#9B9B9B"/>
</linearGradient>
<linearGradient id="paint12_linear_10520_31075" x1="386.953" y1="358.564" x2="436.403" y2="387.089" gradientUnits="userSpaceOnUse">
<stop offset="0.2421" stop-color="#5761D7"/>
<stop offset="0.3923" stop-color="#7A82E5"/>
<stop offset="0.5463" stop-color="#979CF0"/>
<stop offset="0.7" stop-color="#ACAFF8"/>
<stop offset="0.8519" stop-color="#B8BAFD"/>
<stop offset="1" stop-color="#BCBEFF"/>
</linearGradient>
<linearGradient id="paint13_linear_10520_31075" x1="376.676" y1="372.827" x2="446.534" y2="372.827" gradientUnits="userSpaceOnUse">
<stop stop-color="#E9E9FD"/>
<stop offset="0.3601" stop-color="#D3D2F9"/>
<stop offset="0.7062" stop-color="#C5C4F7"/>
<stop offset="1" stop-color="#C0BFF6"/>
</linearGradient>
<linearGradient id="paint14_linear_10520_31075" x1="376.672" y1="383.484" x2="446.542" y2="383.484" gradientUnits="userSpaceOnUse">
<stop stop-color="#F7F7F7"/>
<stop offset="0.3601" stop-color="#F1F1F1"/>
<stop offset="0.7062" stop-color="#DCDCDC"/>
<stop offset="1" stop-color="#DFDFDF"/>
</linearGradient>
<linearGradient id="paint15_linear_10520_31075" x1="377.749" y1="372.832" x2="445.455" y2="372.832" gradientUnits="userSpaceOnUse">
<stop stop-color="#F7F7F7"/>
<stop offset="0.3601" stop-color="#F1F1F1"/>
<stop offset="0.7062" stop-color="#DCDCDC"/>
<stop offset="1" stop-color="#DFDFDF"/>
</linearGradient>
<linearGradient id="paint16_linear_10520_31075" x1="411.604" y1="389.843" x2="411.897" y2="298.134" gradientUnits="userSpaceOnUse">
<stop stop-color="#E8CD42"/>
<stop offset="0.1055" stop-color="#BFA137"/>
<stop offset="1" stop-color="#C48203" stop-opacity="0"/>
</linearGradient>
<linearGradient id="paint17_linear_10520_31075" x1="238.902" y1="123.623" x2="294.351" y2="155.61" gradientUnits="userSpaceOnUse">
<stop stop-color="#BCBEFF"/>
<stop offset="0.2271" stop-color="#AAADF8"/>
<stop offset="0.6802" stop-color="#7C83E5"/>
<stop offset="1" stop-color="#5761D7"/>
</linearGradient>
<linearGradient id="paint18_linear_10520_31075" x1="231.952" y1="135.729" x2="301.81" y2="135.729" gradientUnits="userSpaceOnUse">
<stop stop-color="#E9E9FD"/>
<stop offset="0.3601" stop-color="#D3D2F9"/>
<stop offset="0.7062" stop-color="#C5C4F7"/>
<stop offset="1" stop-color="#C0BFF6"/>
</linearGradient>
<linearGradient id="paint19_linear_10520_31075" x1="238.899" y1="83.8179" x2="294.348" y2="115.805" gradientUnits="userSpaceOnUse">
<stop stop-color="#F7F7F7"/>
<stop offset="0.2271" stop-color="#E1E1E1"/>
<stop offset="0.6802" stop-color="#BABABA"/>
<stop offset="1" stop-color="#9B9B9B"/>
</linearGradient>
<linearGradient id="paint20_linear_10520_31075" x1="242.229" y1="81.6558" x2="291.679" y2="110.181" gradientUnits="userSpaceOnUse">
<stop offset="0.2421" stop-color="#5761D7"/>
<stop offset="0.3923" stop-color="#7A82E5"/>
<stop offset="0.5463" stop-color="#979CF0"/>
<stop offset="0.7" stop-color="#ACAFF8"/>
<stop offset="0.8519" stop-color="#B8BAFD"/>
<stop offset="1" stop-color="#BCBEFF"/>
</linearGradient>
<linearGradient id="paint21_linear_10520_31075" x1="231.952" y1="95.9191" x2="301.809" y2="95.9191" gradientUnits="userSpaceOnUse">
<stop stop-color="#E9E9FD"/>
<stop offset="0.3601" stop-color="#D3D2F9"/>
<stop offset="0.7062" stop-color="#C5C4F7"/>
<stop offset="1" stop-color="#C0BFF6"/>
</linearGradient>
<linearGradient id="paint22_linear_10520_31075" x1="231.948" y1="106.576" x2="301.817" y2="106.576" gradientUnits="userSpaceOnUse">
<stop stop-color="#F7F7F7"/>
<stop offset="0.3601" stop-color="#F1F1F1"/>
<stop offset="0.7062" stop-color="#DCDCDC"/>
<stop offset="1" stop-color="#DFDFDF"/>
</linearGradient>
<linearGradient id="paint23_linear_10520_31075" x1="233.025" y1="95.9242" x2="300.73" y2="95.9242" gradientUnits="userSpaceOnUse">
<stop stop-color="#F7F7F7"/>
<stop offset="0.3601" stop-color="#F1F1F1"/>
<stop offset="0.7062" stop-color="#DCDCDC"/>
<stop offset="1" stop-color="#DFDFDF"/>
</linearGradient>
<linearGradient id="paint24_linear_10520_31075" x1="266.879" y1="112.935" x2="267.173" y2="21.2264" gradientUnits="userSpaceOnUse">
<stop stop-color="#E8CD42"/>
<stop offset="0.1055" stop-color="#BFA137"/>
<stop offset="1" stop-color="#C48203" stop-opacity="0"/>
</linearGradient>
<linearGradient id="paint25_linear_10520_31075" x1="106.808" y1="156.739" x2="181.466" y2="135.387" gradientUnits="userSpaceOnUse">
<stop stop-color="#F4CE7C"/>
<stop offset="1" stop-color="#F59A0F"/>
</linearGradient>
<linearGradient id="paint26_linear_10520_31075" x1="156.041" y1="91.2473" x2="131.97" y2="161.447" gradientUnits="userSpaceOnUse">
<stop offset="0.3125" stop-color="white" stop-opacity="0"/>
<stop offset="1" stop-color="white" stop-opacity="0.1"/>
</linearGradient>
<linearGradient id="paint27_linear_10520_31075" x1="155.779" y1="91.1576" x2="133.13" y2="157.209" gradientUnits="userSpaceOnUse">
<stop stop-color="#F4980D"/>
<stop offset="1" stop-color="#FFBF37"/>
</linearGradient>
<linearGradient id="paint28_linear_10520_31075" x1="161.734" y1="89.0414" x2="127.28" y2="155.24" gradientUnits="userSpaceOnUse">
<stop offset="0.541667" stop-color="white" stop-opacity="0"/>
<stop offset="1" stop-color="white" stop-opacity="0.35"/>
</linearGradient>
</defs>
</svg>
