<svg width="34" height="21" viewBox="0 0 34 21" fill="none" xmlns="http://www.w3.org/2000/svg">
<path d="M33.2378 15.2426L25.3688 1.80805C23.9448 -0.590966 20.46 -0.590966 19.0361 1.80805L11.167 15.2426C9.74308 17.6416 11.5043 20.6311 14.3521 20.6311H30.0902C32.9006 20.6311 34.6243 17.6416 33.2378 15.2426Z" fill="#00B897"/>
<path d="M22.7455 15.5019L22.2958 14.7268C21.8837 13.9887 20.9469 12.4385 20.9469 12.4385L14.6891 1.80903C13.2652 -0.58999 9.7803 -0.58999 8.35637 1.80903L0.487319 15.2435C-0.936605 17.6426 0.824565 20.6321 3.67241 20.6321H19.2606H25.7432H30.09C26.1929 20.6321 24.5441 18.5653 22.7455 15.5019Z" fill="#76FCB2"/>
<path d="M22.7458 15.5011L22.2961 14.726C21.8839 13.9879 20.9471 12.4377 20.9471 12.4377L16.8627 5.49902L11.167 15.2427C9.74308 17.6418 11.5043 20.6313 14.3521 20.6313H19.2609H25.7435H30.0902C26.1932 20.6313 24.5444 18.5645 22.7458 15.5011Z" fill="url(#paint0_linear)"/>
<defs>
<linearGradient id="paint0_linear" x1="9.02535" y1="10.8255" x2="27.1321" y2="17.5165" gradientUnits="userSpaceOnUse">
<stop stop-color="#53E57A" stop-opacity="0"/>
<stop offset="1" stop-color="#00A977"/>
</linearGradient>
</defs>
</svg>
