<svg width="529" height="348" viewBox="0 0 529 348" fill="none" xmlns="http://www.w3.org/2000/svg">
<g clip-path="url(#clip0_13074_35629)">
<path opacity="0.2" d="M72.2132 301.014C72.2132 301.014 -11.2769 298.953 1.23972 316.538C13.8939 333.987 108.525 319.561 104.811 328.216C101.235 337.009 51.3063 333.025 67.9493 341.818C84.5923 350.61 301.089 349.511 295.312 341.818C289.535 334.124 208.933 332.201 235.205 324.507C261.476 316.813 498.329 331.926 488.563 310.768C478.935 289.336 72.2132 301.014 72.2132 301.014Z" fill="#A3BEE5"/>
<path opacity="0.2" d="M75.2388 90.1255H38.1016V280.268H75.2388V90.1255Z" fill="#A3BEE5"/>
<path opacity="0.2" d="M323.645 90.1255H286.508V280.268H323.645V90.1255Z" fill="#A3BEE5"/>
<path opacity="0.2" d="M382.378 97.8192H345.24V287.962H382.378V97.8192Z" fill="#A3BEE5"/>
<path opacity="0.2" d="M147.723 0H110.586V227.1H147.723V0Z" fill="#A3BEE5"/>
<path opacity="0.2" d="M205.081 71.8531H167.943V261.996H205.081V71.8531Z" fill="#A3BEE5"/>
<path d="M82.1155 260.21H18.707V309.12H82.1155V260.21Z" fill="#FFD126"/>
<path d="M82.1155 258.699H18.707V266.392H82.1155V258.699Z" fill="#E8B418"/>
<path d="M85.0037 256.363H15.8184V264.057H85.0037V256.363Z" fill="#FFD126"/>
<path d="M41.2646 277.383L39.8891 276.009L38.6512 277.383L31.3613 284.802H37.6884V298.816H39.2014H40.7144H42.2274V284.802H48.417L41.2646 277.383Z" fill="#E8B418"/>
<path d="M54.8828 277.521L56.5334 281.917L76.0648 274.086L74.2767 269.964L54.8828 277.521Z" fill="white"/>
<path d="M31.8738 257.031H71.0742V226.806H31.8738L31.8738 257.031Z" fill="#FFB826"/>
<path d="M31.8738 230.558H71.0742V225.749H31.8738V230.558Z" fill="#E89C18"/>
<path d="M30.0847 229.233H72.8613V224.424H30.0847V229.233Z" fill="#FFB826"/>
<path d="M57.2187 237.404L58.044 236.58L58.8692 237.404L63.2707 241.938H59.4194V250.593H58.4566H57.4938H56.531V241.938H52.6797L57.2187 237.404Z" fill="#E89C18"/>
<path d="M48.6918 237.404L47.729 240.152L35.625 235.343L36.7254 232.87L48.6918 237.404Z" fill="white"/>
<path d="M385.543 233.145H279.357V315.165H385.543V233.145Z" fill="#FFB826"/>
<path d="M385.543 230.535H279.357V243.449H385.543V230.535Z" fill="#E89C18"/>
<path d="M390.494 226.688H274.543V239.602H390.494V226.688Z" fill="#FFB826"/>
<path d="M317.045 261.721L314.844 259.523L312.643 261.721L300.539 274.086H310.993V297.717H313.606H316.082H318.695V274.086H329.149L317.045 261.721Z" fill="#E89C18"/>
<path d="M340.016 261.996L342.629 269.415L375.365 256.226L372.476 249.494L340.016 261.996Z" fill="white"/>
<path d="M301.451 227.731H367.061V177.035H301.451V227.731Z" fill="#FF7626"/>
<path d="M301.451 183.436H367.061V175.468H301.451V183.436Z" fill="#E85A18"/>
<path d="M298.427 181.022H370.088V173.054H298.427V181.022Z" fill="#FF7626"/>
<path d="M343.726 194.814L345.102 193.303L346.477 194.814L353.905 202.37H347.44V217.071H345.789H344.276H342.763V202.37H336.299L343.726 194.814Z" fill="#E85A18"/>
<path d="M329.561 194.951L327.911 199.485L307.691 191.379L309.48 187.12L329.561 194.951Z" fill="white"/>
<path d="M313.467 242.762C319.794 240.564 326.946 243.998 331.073 249.219C335.199 254.44 336.987 261.172 338.363 267.629C339.738 274.086 340.976 280.818 344.415 286.588C347.853 292.359 353.905 297.03 360.507 296.755C364.771 296.618 368.623 294.419 372.061 292.084C375.087 290.16 377.976 287.962 381.277 286.588C384.578 285.352 388.567 284.94 391.73 286.863C396.957 289.886 398.47 297.854 404.247 299.503C409.749 301.014 414.7 295.656 420.34 294.282C426.254 292.771 432.444 295.931 438.496 295.381C443.035 294.969 447.436 293.045 451.15 290.435C474.12 273.674 506.581 281.917 528.726 284.802" stroke="#464650" stroke-width="3" stroke-miterlimit="10"/>
<path d="M301.501 199.485V300.876C301.501 308.845 295.037 315.439 286.922 315.439H74.4138C66.4362 315.439 59.834 308.982 59.834 300.876V199.485C59.834 191.517 66.2986 184.922 74.4138 184.922H286.922C295.037 184.922 301.501 191.379 301.501 199.485Z" fill="#727272"/>
<path d="M295.449 197.837C295.449 194.127 292.423 191.105 288.71 191.105H72.7632C69.0494 191.105 66.0234 194.127 66.0234 197.837V214.735H295.449V197.837Z" fill="#8CA0E5"/>
<path d="M66.0234 214.735V302.525C66.0234 306.235 69.0494 309.257 72.7632 309.257H288.572C292.286 309.257 295.312 306.235 295.312 302.525V214.735H66.0234Z" fill="white"/>
<path d="M268.215 148.79L180.599 148.515L92.9824 148.79L40.9902 166.925C77.3022 169.81 116.365 171.596 157.629 171.733C165.331 171.733 173.034 171.733 180.599 171.733C188.164 171.871 195.866 171.871 203.569 171.733C244.833 171.596 283.758 169.672 320.208 166.925L268.215 148.79Z" fill="#F35458"/>
<path d="M56.6696 203.332C48.1418 203.332 41.127 196.325 41.127 187.807V166.787H72.2122V187.807C72.2122 196.463 65.1974 203.332 56.6696 203.332Z" fill="#DD434E"/>
<path d="M87.7536 203.332C79.2258 203.332 72.2109 196.325 72.2109 187.807V166.787H103.296V187.807C103.296 196.463 96.2814 203.332 87.7536 203.332Z" fill="#EFE1E2"/>
<path d="M118.841 203.332C110.314 203.332 103.299 196.325 103.299 187.807V166.787H134.384V187.807C134.247 196.463 127.369 203.332 118.841 203.332Z" fill="#DD434E"/>
<path d="M149.789 203.332C141.261 203.332 134.246 196.325 134.246 187.807V166.787H165.331V187.807C165.331 196.463 158.454 203.332 149.789 203.332Z" fill="#EFE1E2"/>
<path d="M72.2109 166.925L118.839 148.79H131.355L103.296 166.925H72.2109Z" fill="white"/>
<path d="M134.246 166.925H165.331L168.632 148.79H149.789L134.246 166.925Z" fill="white"/>
<path d="M304.802 203.332C313.33 203.332 320.345 196.325 320.345 187.807V166.787H289.26V187.807C289.26 196.463 296.137 203.332 304.802 203.332Z" fill="#DD434E"/>
<path d="M273.718 203.332C282.246 203.332 289.261 196.325 289.261 187.807V166.787H258.176V187.807C258.176 196.463 265.191 203.332 273.718 203.332Z" fill="#EFE1E2"/>
<path d="M242.632 203.332C251.16 203.332 258.175 196.325 258.175 187.807V166.787H227.09V187.807C227.09 196.463 234.105 203.332 242.632 203.332Z" fill="#DD434E"/>
<path d="M211.685 203.332C220.213 203.332 227.228 196.325 227.228 187.807V166.787H196.143V187.807C196.143 196.463 203.02 203.332 211.685 203.332Z" fill="#EFE1E2"/>
<path d="M180.737 166.925H165.332V187.945C165.332 196.463 172.209 203.332 180.737 203.469C189.265 203.332 196.142 196.463 196.142 187.945V166.925H180.737Z" fill="#DD434E"/>
<path d="M289.262 166.925L242.634 148.79H230.117L258.176 166.925H289.262Z" fill="white"/>
<path d="M227.091 166.925H196.144L192.705 148.79H211.686L227.091 166.925Z" fill="white"/>
<path d="M268.903 93.835H87.7559V153.186H268.903V93.835Z" fill="#F35458"/>
<path d="M93.8086 139.447V107.436C93.8086 103.177 97.2472 99.88 101.374 99.88H255.149C259.413 99.88 262.714 103.315 262.714 107.436V139.31C262.714 143.569 259.276 146.866 255.149 146.866H101.511C97.2472 147.004 93.8086 143.569 93.8086 139.447Z" fill="white"/>
<path d="M312.916 238.915L308.79 236.305H301.5V242.075V247.845H308.79L312.916 245.235H318.831V242.075V238.915H312.916Z" fill="#35353D"/>
<path d="M144.012 218.17H89.6816V222.429H144.012V218.17Z" fill="#C7DAFB"/>
<path opacity="0.47" d="M205.495 218.17H151.164V222.429H205.495V218.17Z" fill="#C7DAFB"/>
<path opacity="0.47" d="M267.114 218.17H212.783V222.429H267.114V218.17Z" fill="#C7DAFB"/>
<path d="M129.159 231.496H93.6719V261.172H129.159V231.496Z" fill="#C7DAFB"/>
<path d="M126.682 233.832H95.7344V258.836H126.682V233.832Z" stroke="white" stroke-miterlimit="10"/>
<path d="M95.7344 250.593L104.675 243.998L114.028 251.83" stroke="white" stroke-miterlimit="10"/>
<path d="M104.951 258.836L122.282 245.098L126.683 249.082" stroke="white" stroke-miterlimit="10"/>
<path d="M118.294 244.136C118.294 246.059 116.781 247.433 114.993 247.433C113.204 247.433 111.691 245.922 111.691 244.136C111.691 242.212 113.204 240.839 114.993 240.839C116.781 240.839 118.294 242.212 118.294 244.136Z" stroke="white" stroke-miterlimit="10"/>
<path d="M188.579 234.107H134.248V238.366H188.579V234.107Z" fill="#C7DAFB"/>
<path opacity="0.47" d="M226.541 245.098H134.248V246.059H226.541V245.098Z" fill="#C7DAFB"/>
<path opacity="0.47" d="M226.541 249.631H134.248V250.593H226.541V249.631Z" fill="#C7DAFB"/>
<path d="M140.301 255.402L141.264 257.325L143.327 257.6L141.814 259.111L142.089 261.172L140.301 260.21L138.376 261.172L138.788 259.111L137.275 257.6L139.339 257.325L140.301 255.402Z" fill="#C7DAFB"/>
<path d="M156.669 255.402L157.631 257.325L159.695 257.6L158.182 259.111L158.594 261.172L156.669 260.21L154.88 261.172L155.156 259.111L153.643 257.6L155.706 257.325L156.669 255.402Z" fill="#C7DAFB"/>
<path d="M173.174 255.402L174.137 257.325L176.2 257.6L174.687 259.111L174.963 261.172L173.174 260.21L171.249 261.172L171.661 259.111L170.148 257.6L172.212 257.325L173.174 255.402Z" fill="#C7DAFB"/>
<path d="M189.542 255.402L190.504 257.325L192.568 257.6L191.055 259.111L191.467 261.172L189.542 260.21L187.754 261.172L188.029 259.111L186.516 257.6L188.579 257.325L189.542 255.402Z" fill="#C7DAFB"/>
<path opacity="0.47" d="M206.047 255.402L207.01 257.325L209.073 257.6L207.56 259.111L207.836 261.172L206.047 260.21L204.122 261.172L204.534 259.111L203.021 257.6L205.085 257.325L206.047 255.402Z" fill="#C7DAFB"/>
<path d="M129.159 266.392H93.6719V296.068H129.159V266.392Z" fill="#C7DAFB"/>
<path d="M126.682 268.728H95.7344V293.732H126.682V268.728Z" stroke="white" stroke-miterlimit="10"/>
<path d="M95.7344 285.489L104.675 278.895L114.028 286.726" stroke="white" stroke-miterlimit="10"/>
<path d="M104.951 293.732L122.282 280.131L126.683 283.978" stroke="white" stroke-miterlimit="10"/>
<path d="M118.294 279.032C118.294 280.955 116.781 282.329 114.993 282.329C113.204 282.329 111.691 280.818 111.691 279.032C111.691 277.109 113.204 275.735 114.993 275.735C116.781 275.735 118.294 277.109 118.294 279.032Z" stroke="white" stroke-miterlimit="10"/>
<path d="M188.579 269.14H134.248V273.399H188.579V269.14Z" fill="#C7DAFB"/>
<path opacity="0.47" d="M226.541 280.131H134.248V281.093H226.541V280.131Z" fill="#C7DAFB"/>
<path opacity="0.47" d="M226.541 284.527H134.248V285.489H226.541V284.527Z" fill="#C7DAFB"/>
<path d="M140.301 290.298L141.264 292.221L143.327 292.496L141.814 294.007L142.089 296.068L140.301 295.106L138.376 296.068L138.788 294.007L137.275 292.496L139.339 292.221L140.301 290.298Z" fill="#C7DAFB"/>
<path d="M156.669 290.298L157.631 292.221L159.695 292.496L158.182 294.007L158.594 296.068L156.669 295.106L154.88 296.068L155.156 294.007L153.643 292.496L155.706 292.221L156.669 290.298Z" fill="#C7DAFB"/>
<path d="M173.174 290.298L174.137 292.221L176.2 292.496L174.687 294.007L174.963 296.068L173.174 295.106L171.249 296.068L171.661 294.007L170.148 292.496L172.212 292.221L173.174 290.298Z" fill="#C7DAFB"/>
<path d="M189.542 290.298L190.504 292.221L192.568 292.496L191.055 294.007L191.467 296.068L189.542 295.106L187.754 296.068L188.029 294.007L186.516 292.496L188.579 292.221L189.542 290.298Z" fill="#C7DAFB"/>
<path opacity="0.47" d="M206.047 290.298L207.01 292.221L209.073 292.496L207.56 294.007L207.836 296.068L206.047 295.106L204.122 296.068L204.534 294.007L203.021 292.496L205.085 292.221L206.047 290.298Z" fill="#C7DAFB"/>
<path d="M78.1255 72.9522C80.3285 72.9522 82.1143 71.1685 82.1143 68.968C82.1143 66.7676 80.3285 64.9838 78.1255 64.9838C75.9226 64.9838 74.1367 66.7676 74.1367 68.968C74.1367 71.1685 75.9226 72.9522 78.1255 72.9522Z" stroke="white" stroke-miterlimit="10"/>
<path d="M53.3665 44.9254C58.1523 44.9254 62.0319 41.0503 62.0319 36.27C62.0319 31.4898 58.1523 27.6147 53.3665 27.6147C48.5808 27.6147 44.7012 31.4898 44.7012 36.27C44.7012 41.0503 48.5808 44.9254 53.3665 44.9254Z" stroke="white" stroke-miterlimit="10"/>
<path d="M95.5923 54.8172C94.767 55.9163 93.254 56.1911 92.1536 55.2294C91.0533 54.4051 90.7782 52.8938 91.741 51.7947C92.5662 50.6956 94.0793 50.4209 95.1796 51.3826C96.28 52.2069 96.4175 53.7181 95.5923 54.8172Z" fill="white"/>
<path d="M412.774 112.794C414.977 112.794 416.763 111.01 416.763 108.81C416.763 106.61 414.977 104.826 412.774 104.826C410.571 104.826 408.785 106.61 408.785 108.81C408.785 111.01 410.571 112.794 412.774 112.794Z" stroke="white" stroke-miterlimit="10"/>
<path d="M396.68 76.1121C396.68 80.9206 392.829 84.7674 388.015 84.7674C383.201 84.7674 379.35 80.9206 379.35 76.1121C379.35 71.3035 383.201 67.4567 388.015 67.4567C392.829 67.4567 396.68 71.3035 396.68 76.1121Z" stroke="white" stroke-miterlimit="10"/>
<path d="M430.377 94.6593C429.552 95.7584 428.039 96.0331 426.939 95.0714C425.838 94.2471 425.563 92.7359 426.526 91.6368C427.351 90.5377 428.864 90.2629 429.965 91.2246C430.928 91.9115 431.203 93.5602 430.377 94.6593Z" fill="white"/>
<path d="M158.316 34.0719C158.316 36.27 160.105 38.0561 162.305 38.0561C164.506 38.0561 166.294 36.27 166.294 34.0719C166.294 31.8737 164.506 30.0876 162.305 30.0876C160.105 30.0876 158.316 31.8737 158.316 34.0719Z" stroke="white" stroke-miterlimit="10"/>
<path d="M144.836 19.9211C145.662 21.0201 147.175 21.2949 148.275 20.3332C149.375 19.5089 149.65 17.9976 148.688 16.8985C147.862 15.7995 146.349 15.5247 145.249 16.4864C144.286 17.3107 144.011 18.822 144.836 19.9211Z" fill="white"/>
<path d="M214.848 77.6234C214.848 79.8216 216.636 81.6076 218.836 81.6076C221.037 81.6076 222.825 79.8216 222.825 77.6234C222.825 75.4252 221.037 73.6392 218.836 73.6392C216.636 73.6392 214.848 75.4252 214.848 77.6234Z" stroke="white" stroke-miterlimit="10"/>
<path d="M260.238 72.9522C260.238 77.7608 264.09 81.6076 268.904 81.6076C273.718 81.6076 277.569 77.7608 277.569 72.9522C277.569 68.1437 273.718 64.2969 268.904 64.2969C264.09 64.2969 260.238 68.1437 260.238 72.9522Z" stroke="white" stroke-miterlimit="10"/>
<path d="M201.368 63.4726C202.194 64.5717 203.707 64.8464 204.807 63.8847C205.907 63.0604 206.183 61.5492 205.22 60.4501C204.394 59.351 202.881 59.0762 201.781 60.0379C200.681 60.8622 200.543 62.3735 201.368 63.4726Z" fill="white"/>
<path d="M391.953 315.306H457.562V264.611H391.953V315.306Z" fill="#FF7626"/>
<path d="M391.953 271.011H457.562V263.043H391.953V271.011Z" fill="#E85A18"/>
<path d="M388.929 268.735H460.59V260.766H388.929V268.735Z" fill="#FF7626"/>
<path d="M434.23 282.467L435.606 280.955L436.981 282.467L444.409 290.023H437.944V304.586H436.293H434.78H433.267V290.023H426.803L434.23 282.467Z" fill="#E85A18"/>
<path d="M420.063 282.467L418.413 287.138L398.193 278.895L399.981 274.773L420.063 282.467Z" fill="white"/>
<path d="M123.125 118.43H119V106.794H123.159C124.33 106.794 125.337 107.027 126.182 107.493C127.027 107.955 127.676 108.62 128.131 109.487C128.589 110.355 128.818 111.392 128.818 112.601C128.818 113.813 128.589 114.855 128.131 115.726C127.676 116.597 127.023 117.266 126.17 117.731C125.322 118.197 124.307 118.43 123.125 118.43ZM121.46 116.322H123.023C123.75 116.322 124.362 116.194 124.858 115.936C125.358 115.675 125.733 115.271 125.983 114.726C126.237 114.177 126.364 113.468 126.364 112.601C126.364 111.741 126.237 111.038 125.983 110.493C125.733 109.947 125.36 109.546 124.864 109.288C124.367 109.031 123.756 108.902 123.028 108.902H121.46V116.322Z" fill="#DBA83D"/>
<path d="M133.101 106.794V118.43H130.641V106.794H133.101Z" fill="#DBA83D"/>
<path d="M142.841 110.555C142.761 110.279 142.65 110.035 142.506 109.822C142.362 109.606 142.186 109.425 141.977 109.277C141.773 109.125 141.538 109.01 141.273 108.93C141.011 108.851 140.722 108.811 140.403 108.811C139.809 108.811 139.286 108.959 138.835 109.254C138.388 109.55 138.04 109.98 137.79 110.544C137.54 111.105 137.415 111.79 137.415 112.601C137.415 113.411 137.538 114.101 137.784 114.669C138.03 115.237 138.379 115.671 138.83 115.97C139.28 116.266 139.812 116.413 140.426 116.413C140.983 116.413 141.458 116.315 141.852 116.118C142.25 115.917 142.553 115.635 142.761 115.271C142.973 114.908 143.08 114.478 143.08 113.981L143.58 114.055H140.58V112.203H145.449V113.669C145.449 114.692 145.233 115.57 144.801 116.305C144.369 117.036 143.775 117.601 143.017 117.999C142.259 118.392 141.392 118.589 140.415 118.589C139.324 118.589 138.366 118.349 137.54 117.868C136.714 117.383 136.07 116.695 135.608 115.805C135.15 114.911 134.92 113.851 134.92 112.624C134.92 111.68 135.057 110.839 135.33 110.101C135.606 109.358 135.992 108.73 136.489 108.214C136.985 107.699 137.562 107.307 138.222 107.038C138.881 106.769 139.595 106.635 140.364 106.635C141.023 106.635 141.636 106.731 142.205 106.925C142.773 107.114 143.277 107.383 143.716 107.731C144.159 108.08 144.521 108.495 144.801 108.976C145.081 109.453 145.261 109.98 145.341 110.555H142.841Z" fill="#DBA83D"/>
<path d="M149.757 106.794V118.43H147.297V106.794H149.757Z" fill="#DBA83D"/>
<path d="M151.338 108.822V106.794H160.895V108.822H157.332V118.43H154.901V108.822H151.338Z" fill="#DBA83D"/>
<path d="M163.053 118.43H160.416L164.433 106.794H167.604L171.615 118.43H168.979L166.064 109.453H165.973L163.053 118.43ZM162.888 113.856H169.115V115.777H162.888V113.856Z" fill="#DBA83D"/>
<path d="M173.016 118.43V106.794H175.476V116.402H180.464V118.43H173.016Z" fill="#DBA83D"/>
<path d="M187.803 118.43H185.166L189.183 106.794H192.354L196.365 118.43H193.729L190.814 109.453H190.723L187.803 118.43ZM187.638 113.856H193.865V115.777H187.638V113.856Z" fill="#DBA83D"/>
<path d="M203.812 110.141C203.767 109.682 203.572 109.326 203.227 109.072C202.883 108.819 202.415 108.692 201.824 108.692C201.422 108.692 201.083 108.749 200.807 108.862C200.53 108.972 200.318 109.125 200.17 109.322C200.027 109.519 199.955 109.743 199.955 109.993C199.947 110.201 199.991 110.383 200.085 110.538C200.184 110.694 200.318 110.828 200.489 110.942C200.659 111.052 200.856 111.148 201.08 111.231C201.303 111.311 201.542 111.379 201.795 111.436L202.841 111.686C203.348 111.8 203.814 111.951 204.239 112.141C204.663 112.33 205.03 112.563 205.341 112.839C205.652 113.116 205.892 113.442 206.062 113.817C206.237 114.192 206.326 114.622 206.33 115.106C206.326 115.819 206.144 116.436 205.784 116.959C205.428 117.478 204.913 117.881 204.239 118.169C203.568 118.453 202.759 118.595 201.812 118.595C200.873 118.595 200.055 118.451 199.358 118.163C198.665 117.875 198.123 117.449 197.733 116.885C197.347 116.317 197.144 115.614 197.125 114.777H199.506C199.532 115.167 199.644 115.493 199.841 115.754C200.042 116.012 200.309 116.207 200.642 116.339C200.979 116.468 201.36 116.533 201.784 116.533C202.201 116.533 202.563 116.472 202.869 116.351C203.18 116.23 203.42 116.061 203.591 115.845C203.761 115.629 203.847 115.381 203.847 115.101C203.847 114.839 203.769 114.62 203.614 114.442C203.462 114.264 203.239 114.112 202.943 113.987C202.652 113.862 202.294 113.749 201.869 113.646L200.602 113.328C199.621 113.089 198.847 112.716 198.278 112.209C197.71 111.701 197.428 111.017 197.432 110.158C197.428 109.453 197.616 108.838 197.994 108.311C198.377 107.785 198.902 107.374 199.568 107.078C200.235 106.783 200.992 106.635 201.841 106.635C202.705 106.635 203.458 106.783 204.102 107.078C204.75 107.374 205.254 107.785 205.614 108.311C205.973 108.838 206.159 109.447 206.17 110.141H203.812Z" fill="#DBA83D"/>
<path d="M214.297 110.141C214.251 109.682 214.056 109.326 213.712 109.072C213.367 108.819 212.899 108.692 212.308 108.692C211.907 108.692 211.568 108.749 211.291 108.862C211.015 108.972 210.803 109.125 210.655 109.322C210.511 109.519 210.439 109.743 210.439 109.993C210.431 110.201 210.475 110.383 210.57 110.538C210.668 110.694 210.803 110.828 210.973 110.942C211.143 111.052 211.34 111.148 211.564 111.231C211.787 111.311 212.026 111.379 212.28 111.436L213.325 111.686C213.833 111.8 214.299 111.951 214.723 112.141C215.147 112.33 215.515 112.563 215.825 112.839C216.136 113.116 216.376 113.442 216.547 113.817C216.721 114.192 216.81 114.622 216.814 115.106C216.81 115.819 216.628 116.436 216.268 116.959C215.912 117.478 215.397 117.881 214.723 118.169C214.053 118.453 213.244 118.595 212.297 118.595C211.357 118.595 210.539 118.451 209.842 118.163C209.149 117.875 208.607 117.449 208.217 116.885C207.831 116.317 207.628 115.614 207.609 114.777H209.99C210.017 115.167 210.128 115.493 210.325 115.754C210.526 116.012 210.793 116.207 211.126 116.339C211.464 116.468 211.844 116.533 212.268 116.533C212.685 116.533 213.047 116.472 213.354 116.351C213.664 116.23 213.905 116.061 214.075 115.845C214.246 115.629 214.331 115.381 214.331 115.101C214.331 114.839 214.253 114.62 214.098 114.442C213.947 114.264 213.723 114.112 213.428 113.987C213.136 113.862 212.778 113.749 212.354 113.646L211.087 113.328C210.106 113.089 209.331 112.716 208.763 112.209C208.195 111.701 207.912 111.017 207.916 110.158C207.912 109.453 208.1 108.838 208.479 108.311C208.861 107.785 209.386 107.374 210.053 107.078C210.719 106.783 211.477 106.635 212.325 106.635C213.189 106.635 213.943 106.783 214.587 107.078C215.234 107.374 215.738 107.785 216.098 108.311C216.458 108.838 216.643 109.447 216.655 110.141H214.297Z" fill="#DBA83D"/>
<path d="M218.469 118.43V106.794H226.31V108.822H220.929V111.595H225.906V113.624H220.929V116.402H226.332V118.43H218.469Z" fill="#DBA83D"/>
<path d="M227.822 108.822V106.794H237.379V108.822H233.817V118.43H231.385V108.822H227.822Z" fill="#DBA83D"/>
<path d="M169.734 129.141C169.689 128.682 169.494 128.326 169.149 128.072C168.804 127.819 168.337 127.692 167.746 127.692C167.344 127.692 167.005 127.749 166.729 127.862C166.452 127.972 166.24 128.125 166.092 128.322C165.948 128.519 165.876 128.743 165.876 128.993C165.869 129.201 165.912 129.383 166.007 129.538C166.106 129.694 166.24 129.828 166.411 129.942C166.581 130.052 166.778 130.148 167.001 130.231C167.225 130.311 167.464 130.379 167.717 130.436L168.763 130.686C169.27 130.8 169.736 130.951 170.161 131.141C170.585 131.33 170.952 131.563 171.263 131.839C171.573 132.116 171.814 132.442 171.984 132.817C172.159 133.192 172.248 133.622 172.251 134.106C172.248 134.819 172.066 135.436 171.706 135.959C171.35 136.478 170.835 136.881 170.161 137.169C169.49 137.453 168.681 137.595 167.734 137.595C166.795 137.595 165.977 137.451 165.28 137.163C164.587 136.875 164.045 136.449 163.655 135.885C163.268 135.317 163.066 134.614 163.047 133.777H165.428C165.454 134.167 165.566 134.493 165.763 134.754C165.964 135.012 166.231 135.207 166.564 135.339C166.901 135.468 167.282 135.533 167.706 135.533C168.123 135.533 168.484 135.472 168.791 135.351C169.102 135.23 169.342 135.061 169.513 134.845C169.683 134.629 169.768 134.381 169.768 134.101C169.768 133.839 169.691 133.62 169.536 133.442C169.384 133.264 169.161 133.112 168.865 132.987C168.573 132.862 168.215 132.749 167.791 132.646L166.524 132.328C165.543 132.089 164.768 131.716 164.2 131.209C163.632 130.701 163.35 130.017 163.354 129.158C163.35 128.453 163.537 127.838 163.916 127.311C164.299 126.785 164.823 126.374 165.49 126.078C166.157 125.783 166.914 125.635 167.763 125.635C168.626 125.635 169.38 125.783 170.024 126.078C170.672 126.374 171.176 126.785 171.536 127.311C171.895 127.838 172.081 128.447 172.092 129.141H169.734Z" fill="#DBA83D"/>
<path d="M173.906 137.43V125.794H176.366V130.595H181.361V125.794H183.815V137.43H181.361V132.624H176.366V137.43H173.906Z" fill="#DBA83D"/>
<path d="M196.537 131.612C196.537 132.881 196.296 133.961 195.815 134.851C195.338 135.741 194.687 136.421 193.861 136.891C193.039 137.356 192.115 137.589 191.088 137.589C190.054 137.589 189.126 137.355 188.304 136.885C187.482 136.415 186.832 135.735 186.355 134.845C185.878 133.955 185.639 132.877 185.639 131.612C185.639 130.343 185.878 129.264 186.355 128.374C186.832 127.483 187.482 126.805 188.304 126.339C189.126 125.87 190.054 125.635 191.088 125.635C192.115 125.635 193.039 125.87 193.861 126.339C194.687 126.805 195.338 127.483 195.815 128.374C196.296 129.264 196.537 130.343 196.537 131.612ZM194.043 131.612C194.043 130.79 193.92 130.097 193.673 129.533C193.431 128.968 193.088 128.54 192.645 128.249C192.202 127.957 191.683 127.811 191.088 127.811C190.493 127.811 189.974 127.957 189.531 128.249C189.088 128.54 188.743 128.968 188.497 129.533C188.255 130.097 188.134 130.79 188.134 131.612C188.134 132.434 188.255 133.127 188.497 133.692C188.743 134.256 189.088 134.684 189.531 134.976C189.974 135.267 190.493 135.413 191.088 135.413C191.683 135.413 192.202 135.267 192.645 134.976C193.088 134.684 193.431 134.256 193.673 133.692C193.92 133.127 194.043 132.434 194.043 131.612Z" fill="#DBA83D"/>
<path d="M198.359 137.43V125.794H202.95C203.833 125.794 204.585 125.963 205.206 126.3C205.827 126.633 206.301 127.097 206.626 127.692C206.956 128.283 207.121 128.964 207.121 129.737C207.121 130.51 206.954 131.192 206.621 131.783C206.287 132.374 205.804 132.834 205.172 133.163C204.543 133.493 203.782 133.658 202.888 133.658H199.962V131.686H202.49C202.964 131.686 203.354 131.605 203.661 131.442C203.971 131.275 204.202 131.046 204.354 130.754C204.509 130.459 204.587 130.12 204.587 129.737C204.587 129.351 204.509 129.014 204.354 128.726C204.202 128.434 203.971 128.209 203.661 128.05C203.35 127.887 202.956 127.805 202.479 127.805H200.82V137.43H198.359Z" fill="#DBA83D"/>
</g>
<defs>
<clipPath id="clip0_13074_35629">
<rect width="529" height="348" fill="white"/>
</clipPath>
</defs>
</svg>
