<svg width="435" height="175" viewBox="0 0 435 175" fill="none" xmlns="http://www.w3.org/2000/svg">
<path opacity="0.3" d="M263.583 77.1207C263.309 73.1107 260.68 69.7432 256.812 68.7556C251.22 67.3277 247.638 70.0764 245.116 75.0027C243.926 71.421 242.474 68.4224 238.726 67.4229C238.714 65.638 240.344 66.2448 241.189 65.8164C244.854 64.0078 247.293 59.9144 246.698 56.2732C245.913 51.5135 242.474 48.2413 237.928 47.8962C233.918 47.5868 229.908 50.2879 228.564 54.2028C227.148 58.308 228.671 62.687 232.312 65.1144C233.097 65.638 234.192 65.7332 234.656 66.7446C230.539 66.8041 228.135 69.3505 226.1 72.8251C225.613 70.8736 224.899 69.2791 223.78 67.875C222.674 66.4947 221.055 65.757 219.437 64.7098C224.827 62.3062 227.195 59.248 227.124 55.0833C227.052 51.3231 224.613 47.7058 221.043 46.4921C214.903 44.3978 211.036 47.5035 208.228 52.8701C205.753 46.8015 202.671 44.4574 198.018 44.8143C194.032 45.1118 190.7 47.9676 189.879 51.7753C188.856 56.5707 190.653 59.6526 196.543 63.151C190.379 65.5547 187.844 68.4819 187.975 73.0274C188.094 77.1445 190.51 80.2264 194.746 81.6424C194.472 83.225 193.021 82.6777 192.116 83.0347C188.237 84.5697 185.572 88.663 186.012 92.6136C186.512 97.1234 190.236 100.895 194.615 101.324C198.387 101.693 202.73 98.813 204.135 95.0291C206.134 89.603 203.349 84.8195 196.805 82.4516C201.433 82.1422 204.789 80.0003 206.61 75.2406C207.395 79.2626 209.465 81.8447 212.94 83.3916C206.812 86.6877 204.801 89.8291 205.515 94.7911C206.074 98.6822 209.418 102.073 213.309 102.68C218.021 103.418 221.448 101.479 224.28 96.3499C225.244 100.229 227.386 103.025 231.277 104.513C225.387 106.952 224.387 107.904 222.745 112.521C219.627 105.274 216.486 102.823 211.512 103.739C207.002 104.572 203.766 108.249 203.67 112.64C203.575 116.888 206.574 120.731 210.798 121.779C215.736 123.004 219.425 120.803 222.269 114.913C225.279 121.529 228.242 123.909 232.824 123.385C236.893 122.921 239.915 120.208 240.903 116.281C241.522 113.818 241.046 111.581 239.868 109.439C238.642 107.214 236.5 106.012 233.597 104.822C238.69 104.656 241.343 101.883 243.473 98.1824C246.436 104.192 249.828 106.417 254.337 105.655C258.526 104.953 261.417 102.026 262.084 97.8254C262.798 93.3275 260.513 89.9243 255.028 87.3184C261.56 84.296 263.881 81.5234 263.583 77.1207ZM210.12 66.7446C208.811 67.8631 207.883 69.2554 206.99 71.3496C205.443 67.4705 203.385 64.5313 199.256 63.4247C203.54 62.4014 206.562 60.1286 207.954 55.0001C208.989 59.8074 210.965 62.794 215.129 64.3052C213.142 65.0668 211.476 65.5904 210.12 66.7446ZM224.851 92.3875C223.84 88.3417 221.936 85.5335 218.092 84.0223C221.448 82.8561 224.054 81.1189 225.565 77.4777C226.695 81.3449 228.564 83.9985 232.383 85.4383C229.028 86.8067 226.231 88.4964 224.851 92.3875ZM243.89 94.5531C243.069 92.5303 242.676 90.7097 241.462 89.258C240.273 87.8419 238.809 86.8543 236.798 85.9857C240.546 84.9742 242.997 82.7253 244.913 79.0603C246.365 83.1298 248.542 85.8191 253.493 86.9019C248.388 87.961 245.246 90.0314 243.89 94.5531ZM265.332 58.7721C265.273 63.8293 261.298 67.6846 256.206 67.6132C251.148 67.5537 247.305 63.5794 247.364 58.4985C247.424 53.4413 251.398 49.5859 256.491 49.6573C261.536 49.7168 265.392 53.6792 265.332 58.7721ZM202.992 110.855C202.968 115.924 199.053 119.815 193.961 119.791C188.88 119.768 185.001 115.841 185.024 110.76C185.048 105.691 188.975 101.8 194.056 101.824C199.125 101.847 203.004 105.774 202.992 110.855ZM210.881 36.2706C210.881 31.2134 214.856 27.3224 219.937 27.3938C224.827 27.4652 228.647 31.3562 228.647 36.2706C228.647 41.3278 224.673 45.2189 219.592 45.1475C214.689 45.0761 210.881 41.185 210.881 36.2706ZM187.297 70.838C187.297 75.7523 183.477 79.6433 178.575 79.7028C173.506 79.7742 169.532 75.8713 169.543 70.8141C169.543 65.8997 173.363 62.0087 178.266 61.9492C183.335 61.8778 187.309 65.7808 187.297 70.838ZM259.823 116.091C259.882 121.16 256.027 125.098 250.982 125.122C245.937 125.146 242.022 121.243 242.034 116.198C242.045 111.295 245.829 107.428 250.708 107.333C255.777 107.238 259.763 111.057 259.823 116.091ZM191.997 34.0217C192.116 29.3215 196.043 25.478 200.743 25.4542C205.586 25.4304 209.584 29.4405 209.561 34.2834C209.537 39.1145 205.467 43.1008 200.648 43.0175C195.829 42.9461 191.878 38.8409 191.997 34.0217ZM229.873 37.6152C229.884 32.5938 233.871 28.6908 238.916 28.7741C243.783 28.8574 247.59 32.7485 247.59 37.6391C247.579 42.6605 243.592 46.5635 238.547 46.4802C233.68 46.3969 229.873 42.5058 229.873 37.6152ZM200.684 129.62C200.791 134.332 196.709 138.497 191.973 138.497C187.368 138.497 183.37 134.57 183.263 129.953C183.156 125.241 187.238 121.077 191.973 121.077C196.578 121.077 200.577 124.991 200.684 129.62ZM248.959 39.5667C249.018 34.7713 253.207 30.7494 257.967 30.9041C262.631 31.0588 266.51 35.1045 266.451 39.7452C266.391 44.5406 262.203 48.5625 257.443 48.4079C252.779 48.2532 248.899 44.2074 248.959 39.5667ZM284.038 60.0453C284.002 64.7931 279.802 68.8507 275.102 68.696C270.485 68.5414 266.582 64.5075 266.617 59.9263C266.653 55.1785 270.854 51.1209 275.554 51.2756C280.171 51.4184 284.074 55.4641 284.038 60.0453ZM280.718 98.5513C280.754 103.359 276.803 107.369 271.984 107.392C267.177 107.428 263.167 103.478 263.143 98.6584C263.107 93.8511 267.058 89.841 271.877 89.8172C276.684 89.7934 280.682 93.744 280.718 98.5513ZM265.166 79.6672C265.154 74.8361 269.092 70.8618 273.935 70.838C278.767 70.8261 282.741 74.7647 282.765 79.6077C282.777 84.4388 278.838 88.4131 273.995 88.4369C269.164 88.4488 265.19 84.5102 265.166 79.6672ZM185.239 90.6264C185.179 95.5051 181.3 99.3247 176.409 99.3366C171.388 99.3485 167.461 95.3741 167.521 90.3408C167.58 85.4621 171.459 81.6424 176.35 81.6305C181.383 81.6186 185.31 85.5811 185.239 90.6264ZM239.38 133.238C239.344 138.045 235.346 141.995 230.527 141.96C225.72 141.924 221.769 137.926 221.805 133.107C221.841 128.299 225.839 124.349 230.658 124.385C235.477 124.42 239.416 128.43 239.38 133.238ZM170.995 51.6564C171.114 46.8253 175.255 42.9104 180.062 43.077C184.774 43.2436 188.57 47.1822 188.558 51.8943C188.535 56.7254 184.489 60.7117 179.658 60.6403C174.827 60.5689 170.876 56.4756 170.995 51.6564ZM166.295 109.451C166.295 104.822 170.222 100.824 174.862 100.717C179.61 100.61 183.763 104.691 183.763 109.451C183.763 114.08 179.836 118.078 175.196 118.185C170.448 118.292 166.295 114.223 166.295 109.451ZM220.425 131.941C220.365 136.784 216.343 140.686 211.5 140.627C206.657 140.567 202.754 136.546 202.814 131.703C202.873 126.86 206.895 122.957 211.738 123.016C216.593 123.076 220.496 127.086 220.425 131.941ZM258.205 135.332C258.121 139.984 254.064 143.923 249.447 143.84C244.794 143.756 240.856 139.699 240.939 135.082C241.022 130.429 245.08 126.491 249.697 126.574C254.349 126.657 258.288 130.715 258.205 135.332ZM279.219 117.673C279.159 122.314 275.113 126.288 270.497 126.229C265.856 126.169 261.881 122.124 261.941 117.507C262 112.866 266.046 108.904 270.663 108.951C275.304 109.011 279.266 113.056 279.219 117.673ZM173.339 32.689C173.458 28.084 177.23 24.4071 181.835 24.419C186.571 24.4428 190.391 28.3576 190.272 33.0816C190.153 37.6866 186.381 41.3635 181.776 41.3516C177.04 41.3278 173.22 37.413 173.339 32.689ZM167.175 69.7313C167.045 74.3839 163.261 77.9656 158.596 77.8823C153.801 77.7871 150.148 73.8604 150.374 69.0531C150.6 64.4005 154.431 60.9021 159.108 61.0806C163.76 61.259 167.306 65.0668 167.175 69.7313ZM212.69 16.9939C212.857 12.3413 216.664 8.7596 221.329 8.87859C225.981 8.99759 229.599 12.7697 229.527 17.4342C229.456 22.0868 225.72 25.7517 221.055 25.7279C216.272 25.6922 212.523 21.7893 212.69 16.9939ZM165.795 88.306C165.867 92.9824 162.297 96.7069 157.644 96.8259C152.837 96.9449 149.029 93.2204 149.041 88.425C149.053 83.7486 152.682 80.1074 157.359 80.0717C162.035 80.0479 165.724 83.6415 165.795 88.306ZM232.383 18.3861C232.514 13.7335 236.262 10.1756 240.939 10.2708C245.734 10.366 249.352 14.2452 249.126 19.0763C248.911 23.7289 245.115 27.1915 240.415 27.013C235.763 26.8465 232.252 23.0744 232.383 18.3861ZM268.367 40.9827C268.379 36.2825 271.996 32.7009 276.708 32.7127C281.42 32.7246 284.99 36.342 284.978 41.0541C284.966 45.7662 281.349 49.336 276.637 49.3241C271.936 49.3003 268.355 45.6948 268.367 40.9827ZM181.3 128.502C181.264 133.202 177.635 136.772 172.923 136.736C168.223 136.7 164.653 133.071 164.689 128.359C164.724 123.659 168.353 120.089 173.066 120.125C177.778 120.16 181.336 123.79 181.3 128.502ZM152.539 50.2641C152.635 45.7067 156.192 42.244 160.786 42.2321C165.521 42.2202 169.103 45.8257 169.067 50.5616C169.044 55.2856 165.402 58.8316 160.655 58.7602C155.943 58.7007 152.432 55.0238 152.539 50.2641ZM190.522 157.595C186.012 157.548 182.442 153.942 182.454 149.421C182.454 144.768 186.214 141.139 190.879 141.27C195.377 141.389 198.863 145.077 198.78 149.611C198.697 154.121 195.055 157.643 190.522 157.595ZM276.767 136.819C276.66 141.377 273.055 144.827 268.45 144.78C263.738 144.732 260.204 141.043 260.311 136.296C260.418 131.738 264.023 128.287 268.628 128.335C273.352 128.371 276.886 132.071 276.767 136.819ZM236.81 152.05C236.857 156.774 233.288 160.38 228.576 160.392C223.863 160.392 220.282 156.798 220.317 152.074C220.353 147.505 223.828 143.983 228.385 143.899C233.121 143.828 236.762 147.35 236.81 152.05ZM301.197 81.0713C301.161 85.7834 297.52 89.3174 292.784 89.246C288.096 89.1747 284.585 85.4978 284.692 80.75C284.799 76.2045 288.345 72.7418 292.927 72.7418C297.651 72.7418 301.22 76.3354 301.197 81.0713ZM299.15 100.193C299.055 104.87 295.342 108.344 290.594 108.213C286.061 108.083 282.634 104.501 282.658 99.9197C282.681 95.2195 286.311 91.6735 291.047 91.733C295.735 91.7806 299.245 95.4575 299.15 100.193ZM251.517 20.5874C251.553 16.0062 255.087 12.496 259.656 12.4603C264.38 12.4246 267.998 16.0419 267.95 20.7778C267.914 25.3591 264.38 28.8693 259.811 28.905C255.087 28.9407 251.47 25.3233 251.517 20.5874ZM217.842 150.932C217.783 155.632 214.106 159.142 209.37 159.047C204.694 158.952 201.207 155.239 201.338 150.491C201.469 145.946 205.051 142.519 209.644 142.543C214.356 142.567 217.902 146.196 217.842 150.932ZM164.284 107.452C164.272 112.164 160.607 115.734 155.871 115.65C151.314 115.567 147.839 111.997 147.839 107.404C147.851 102.692 151.516 99.1224 156.252 99.2057C160.809 99.289 164.284 102.859 164.284 107.452ZM286.12 61.7588C286.239 57.2609 289.928 53.7625 294.462 53.8458C298.983 53.9291 302.494 57.5584 302.458 62.1039C302.41 66.6256 298.817 70.1834 294.283 70.1834C289.619 70.1834 286.001 66.4471 286.12 61.7588ZM202.171 7.01041C206.883 7.02231 210.441 10.6515 210.394 15.3755C210.346 20.0757 206.681 23.5979 201.945 23.5146C197.388 23.4314 193.913 19.8973 193.889 15.3161C193.865 10.5921 197.447 6.9985 202.171 7.01041ZM183.347 5.79666C187.785 5.90375 191.426 9.74725 191.271 14.1738C191.117 18.6122 187.238 22.2176 182.811 22.0153C178.503 21.825 174.993 18.1124 175.053 13.8167C175.112 9.37833 178.92 5.70146 183.347 5.79666ZM255.67 154.204C255.658 158.69 251.993 162.331 247.507 162.319C243.021 162.307 239.38 158.642 239.392 154.156C239.404 149.67 243.069 146.029 247.555 146.041C252.053 146.053 255.694 149.718 255.67 154.204ZM297.686 119.018C297.639 123.504 293.962 127.121 289.464 127.074C284.978 127.026 281.361 123.349 281.408 118.851C281.456 114.365 285.133 110.748 289.631 110.796C294.117 110.843 297.734 114.532 297.686 119.018ZM154.051 31.3444C154.158 26.906 158.001 23.2648 162.428 23.4194C166.866 23.5741 170.472 27.4533 170.269 31.8798C170.079 36.1873 166.366 39.6976 162.071 39.6381C157.62 39.5786 153.943 35.7709 154.051 31.3444ZM286.763 22.17C286.68 26.4657 282.955 30.1187 278.671 30.0949C274.245 30.0711 270.473 26.1325 270.663 21.7536C270.854 17.4461 274.661 13.8644 278.921 14.0072C283.229 14.1262 286.846 17.8982 286.763 22.17ZM171.769 155.43C167.39 155.513 163.534 151.658 163.618 147.279C163.701 142.995 167.425 139.354 171.685 139.378C175.957 139.401 179.646 143.09 179.67 147.362C179.693 151.622 176.052 155.346 171.769 155.43ZM231.146 -1.59273C231.086 2.7148 227.338 6.37973 223.054 6.32022C218.747 6.26073 215.082 2.51248 215.141 -1.77124C215.201 -6.07877 218.949 -9.74376 223.233 -9.68427C227.54 -9.61287 231.205 -5.86455 231.146 -1.59273ZM162.071 126.384C162.083 130.798 158.18 134.606 153.789 134.451C149.481 134.297 145.876 130.513 145.971 126.253C146.066 121.945 149.814 118.316 154.086 118.352C158.394 118.387 162.059 122.088 162.071 126.384ZM288.31 43.0889C288.286 38.829 291.927 35.1164 296.199 35.0331C300.447 34.9498 304.195 38.5553 304.338 42.839C304.481 47.1941 300.661 51.0971 296.282 51.0614C292.01 51.0376 288.334 47.3607 288.31 43.0889ZM131.811 67.3277C131.894 63.032 135.654 59.379 139.914 59.4623C144.21 59.5456 147.863 63.3057 147.78 67.5657C147.696 71.8613 143.936 75.5143 139.676 75.431C135.381 75.3477 131.728 71.5876 131.811 67.3277ZM267.153 163.474C262.964 163.45 259.395 159.951 259.252 155.739C259.109 151.479 262.75 147.671 267.07 147.588C271.353 147.505 275.113 151.17 275.137 155.489C275.161 159.797 271.448 163.509 267.153 163.474ZM130.478 87.1161C130.454 82.8324 134.119 79.1436 138.415 79.1198C142.699 79.096 146.387 82.761 146.411 87.0566C146.435 91.3404 142.77 95.0291 138.475 95.0529C134.179 95.0767 130.49 91.4117 130.478 87.1161ZM279.576 138.378C279.718 134.178 283.3 130.679 287.477 130.643C291.784 130.62 295.485 134.332 295.461 138.628C295.426 142.935 291.677 146.612 287.393 146.529C283.074 146.446 279.433 142.638 279.576 138.378ZM242.2 -8.29201C246.496 -8.23251 250.137 -4.50809 250.077 -0.236267C250.018 4.05936 246.293 7.70052 242.022 7.64102C237.738 7.58153 234.085 3.85712 234.144 -0.414719C234.216 -4.69844 237.94 -8.3515 242.2 -8.29201ZM317.677 102.133C317.606 106.417 314.107 109.82 309.835 109.796C305.576 109.772 302.113 106.31 302.089 102.038C302.065 97.635 305.706 94.0771 310.097 94.208C314.369 94.3389 317.748 97.8611 317.677 102.133ZM212.024 -3.44908C211.857 0.917938 208.049 4.4045 203.742 4.13081C199.482 3.85712 196.15 0.227798 196.305 -3.96074C196.471 -8.32776 200.279 -11.8142 204.587 -11.5405C208.847 -11.2788 212.19 -7.6376 212.024 -3.44908ZM234.918 172.315C234.644 176.61 231.098 179.752 226.779 179.514C222.495 179.288 219.294 175.754 219.484 171.446C219.675 167.02 223.364 163.771 227.814 164.092C232.098 164.414 235.192 167.995 234.918 172.315ZM133.965 48.5625C133.905 44.2312 137.57 40.5663 141.901 40.6139C146.126 40.6615 149.624 44.1599 149.684 48.3841C149.743 52.7154 146.078 56.3804 141.747 56.3328C137.523 56.2733 134.024 52.7749 133.965 48.5625ZM144.138 106.036C144.162 110.331 140.819 113.747 136.523 113.806C132.096 113.866 128.598 110.367 128.669 105.929C128.741 101.633 132.156 98.3014 136.452 98.3252C140.759 98.3609 144.127 101.728 144.138 106.036ZM319.712 83.1656C319.64 87.4493 316.142 90.8525 311.87 90.8287C307.61 90.8049 304.148 87.3422 304.124 83.0703C304.1 78.6676 307.741 75.1097 312.132 75.2406C316.404 75.3596 319.783 78.8937 319.712 83.1656ZM216.034 169.887C215.962 174.159 212.476 177.574 208.204 177.55C203.801 177.527 200.279 173.85 200.458 169.471C200.624 165.199 204.194 161.855 208.454 161.974C212.714 162.093 216.105 165.615 216.034 169.887ZM261.132 -6.07877C265.392 -6.05496 268.854 -2.59227 268.878 1.66765C268.902 5.93948 265.487 9.4259 261.215 9.4973C256.943 9.5687 253.421 6.18932 253.302 1.9175C253.171 -2.47333 256.729 -6.10255 261.132 -6.07877ZM320.926 63.5199C320.854 67.8631 317.415 71.1354 313.036 71.0283C308.705 70.9212 305.469 67.4466 305.611 63.0558C305.754 58.8554 309.086 55.6902 313.322 55.714C317.677 55.7497 320.997 59.1529 320.926 63.5199ZM171.888 11.782C171.935 16.1252 168.615 19.5165 164.284 19.5641C159.941 19.6117 156.549 16.2918 156.502 11.9605C156.454 7.61725 159.774 4.22597 164.105 4.17838C168.437 4.14268 171.84 7.4507 171.888 11.782ZM196.198 168.186C196.305 172.553 193.056 175.968 188.725 176.027C184.358 176.087 180.99 172.814 180.967 168.471C180.943 164.116 184.263 160.784 188.618 160.796C192.83 160.808 196.102 163.997 196.198 168.186ZM297.639 16.4822C302.018 16.4584 305.326 19.814 305.266 24.1929C305.207 28.4052 301.946 31.6299 297.722 31.6537C293.486 31.6775 290.19 28.4767 290.095 24.2762C289.999 19.8973 293.284 16.506 297.639 16.4822ZM192.771 -4.56754C192.545 -0.26001 188.963 2.80992 184.536 2.50055C180.407 2.20306 177.409 -1.29526 177.635 -5.55519C177.849 -9.71992 181.264 -12.79 185.536 -12.6472C189.844 -12.5044 192.997 -8.97026 192.771 -4.56754ZM169.627 158.904C173.78 158.916 177.099 162.236 177.087 166.401C177.076 170.554 173.756 173.873 169.591 173.862C165.438 173.85 162.13 170.53 162.13 166.365C162.142 162.2 165.474 158.892 169.627 158.904ZM135.619 29.3334C135.69 25.133 138.95 21.932 143.163 21.932C147.506 21.932 150.802 25.2876 150.731 29.6546C150.659 33.8551 147.399 37.056 143.187 37.056C138.843 37.056 135.547 33.7004 135.619 29.3334ZM142.568 125.408C142.401 129.549 138.998 132.69 134.774 132.559C130.621 132.428 127.444 129.061 127.539 124.849C127.634 120.553 131.145 117.316 135.5 117.531C139.641 117.733 142.734 121.184 142.568 125.408ZM272.555 2.91707C272.627 -1.24768 275.946 -4.47237 280.135 -4.44858C284.323 -4.41287 287.572 -1.1525 287.584 3.04793C287.596 7.37926 284.181 10.6873 279.837 10.5802C275.673 10.4731 272.484 7.11749 272.555 2.91707ZM307.825 44.5287C307.765 40.364 311.025 36.9846 315.178 36.9251C319.343 36.8656 322.722 40.126 322.782 44.2788C322.841 48.4436 319.581 51.8229 315.428 51.8824C311.263 51.9419 307.884 48.6815 307.825 44.5287ZM316.118 121.172C316.035 125.372 312.739 128.573 308.503 128.561C304.148 128.549 300.852 125.158 300.947 120.767C301.03 116.567 304.326 113.366 308.562 113.378C312.917 113.402 316.202 116.793 316.118 121.172ZM238.595 173.029C238.654 168.685 242.081 165.437 246.472 165.568C250.66 165.699 253.826 169.03 253.766 173.278C253.707 177.622 250.28 180.87 245.889 180.739C241.7 180.608 238.547 177.277 238.595 173.029ZM152.551 153.609C148.22 153.55 144.983 150.134 145.114 145.756C145.245 141.591 148.577 138.438 152.801 138.485C157.132 138.545 160.369 141.96 160.238 146.339C160.107 150.515 156.775 153.657 152.551 153.609ZM293.664 157.691C293.605 161.867 290.249 165.116 286.049 165.056C281.872 164.997 278.624 161.641 278.683 157.441C278.743 153.264 282.098 150.015 286.299 150.075C290.475 150.134 293.724 153.49 293.664 157.691ZM313.941 140.032C313.893 144.149 310.454 147.493 306.337 147.398C302.22 147.302 298.924 143.816 299.055 139.699C299.198 135.582 302.72 132.321 306.837 132.512C310.811 132.69 313.976 136.046 313.941 140.032ZM113.391 66.233C113.308 62.1158 116.711 58.6412 120.84 58.6531C124.826 58.665 128.158 61.9373 128.253 65.9236C128.336 70.0407 124.933 73.5153 120.804 73.5034C116.818 73.5034 113.486 70.2311 113.391 66.233ZM257.729 174.861C257.907 170.875 261.322 167.674 265.308 167.757C269.438 167.84 272.769 171.398 272.579 175.504C272.4 179.49 268.985 182.691 264.999 182.608C260.882 182.524 257.55 178.966 257.729 174.861ZM251.553 -19.1917C251.482 -15.1103 247.924 -11.719 243.866 -11.8975C239.904 -12.0641 236.667 -15.4792 236.738 -19.4178C236.81 -23.4993 240.368 -26.8906 244.425 -26.7121C248.388 -26.5336 251.624 -23.1304 251.553 -19.1917ZM217.069 -21.4407C217.128 -25.5579 220.674 -28.9253 224.78 -28.7587C228.766 -28.604 231.991 -25.2008 231.931 -21.2265C231.872 -17.1093 228.326 -13.7419 224.22 -13.9085C220.234 -14.0632 217.009 -17.4545 217.069 -21.4407ZM152.599 10.2827C152.754 14.3165 149.267 17.922 145.198 17.9101C141.247 17.8982 137.868 14.5545 137.82 10.5921C137.772 6.66533 141.104 3.23833 145.043 3.13124C148.981 3.03604 152.444 6.33215 152.599 10.2827ZM126.885 85.2003C126.801 89.3174 123.243 92.6612 119.15 92.4827C115.164 92.3042 111.963 88.901 112.034 84.9266C112.118 80.8095 115.676 77.4658 119.769 77.6443C123.755 77.8228 126.968 81.2259 126.885 85.2003ZM198.173 -23.0352C198.399 -26.9619 201.933 -30.2104 205.788 -30.0439C209.715 -29.8773 212.999 -26.3789 212.88 -22.4997C212.761 -18.454 209.061 -15.0508 205.086 -15.3364C201.16 -15.6101 197.947 -19.1917 198.173 -23.0352ZM316.547 18.16C320.45 18.0886 323.912 21.4917 323.936 25.4066C323.96 29.3214 320.509 32.7484 316.606 32.7127C312.81 32.677 309.514 29.4523 309.383 25.6327C309.252 21.7416 312.62 18.2314 316.547 18.16ZM263.155 -10.6362C259.228 -10.6124 255.789 -14.0632 255.825 -17.9899C255.861 -21.9286 259.359 -25.3318 263.262 -25.2366C267.07 -25.1414 270.354 -21.8572 270.425 -18.0494C270.508 -14.1345 267.093 -10.66 263.155 -10.6362ZM338.191 84.4388C338.156 88.3774 334.657 91.7806 330.754 91.6854C326.816 91.5902 323.436 88.0442 323.591 84.1651C323.734 80.3335 327.054 77.1089 330.861 77.0851C334.788 77.0613 338.227 80.512 338.191 84.4388ZM158.18 -7.26869C158.299 -11.1835 161.749 -14.5154 165.629 -14.4559C169.543 -14.3964 172.899 -10.9932 172.899 -7.09024C172.899 -3.18729 169.532 0.215958 165.617 0.26355C161.595 0.311157 158.073 -3.25864 158.18 -7.26869ZM299.59 11.6987C295.663 11.6154 292.308 8.09319 292.451 4.21404C292.593 0.406281 295.889 -2.81841 299.685 -2.84221C303.6 -2.866 307.027 0.561005 307.003 4.47586C306.956 8.39072 303.481 11.782 299.59 11.6987ZM232.455 190.699C232.502 194.602 229.087 198.053 225.172 198.053C221.258 198.053 217.842 194.59 217.902 190.687C217.961 186.891 221.21 183.607 225.018 183.5C228.909 183.393 232.395 186.772 232.455 190.699ZM329.636 110.629C325.733 110.7 322.27 107.297 322.258 103.382C322.246 99.4675 325.685 96.0405 329.6 96.0881C333.396 96.1238 336.692 99.3604 336.811 103.168C336.93 107.059 333.563 110.558 329.636 110.629ZM115.497 46.9799C115.58 43.0651 119.007 39.7215 122.91 39.7571C126.825 39.7928 130.205 43.1722 130.216 47.0871C130.24 51.109 126.635 54.6312 122.637 54.4765C118.71 54.3337 115.402 50.871 115.497 46.9799ZM124.731 103.918C124.802 107.833 121.399 111.307 117.46 111.331C113.534 111.355 110.095 107.904 110.131 103.977C110.166 100.17 113.415 96.8615 117.234 96.7307C121.125 96.5998 124.659 99.9911 124.731 103.918ZM140.295 144.102C140.236 148.028 136.749 151.408 132.858 151.289C128.919 151.182 125.588 147.636 125.754 143.768C125.921 139.961 129.241 136.748 133.025 136.748C136.939 136.736 140.343 140.187 140.295 144.102ZM213.511 188.867C213.428 192.805 209.882 196.185 206.003 196.042C202.064 195.899 198.72 192.317 198.911 188.45C199.101 184.618 202.457 181.418 206.253 181.441C210.179 181.465 213.594 184.952 213.511 188.867ZM143.436 164.592C143.71 160.737 147.113 157.631 150.897 157.798C154.86 157.964 158.108 161.546 157.835 165.449C157.561 169.304 154.158 172.41 150.374 172.243C146.411 172.065 143.163 168.483 143.436 164.592ZM194.401 187.51C194.318 191.377 191.033 194.578 187.19 194.554C183.204 194.531 179.884 191.044 180.074 187.082C180.253 183.214 183.62 180.073 187.452 180.204C191.307 180.347 194.484 183.667 194.401 187.51ZM340.095 65.3643C340.119 69.2196 336.918 72.5038 333.051 72.5871C329.077 72.6704 325.673 69.2672 325.745 65.2929C325.816 61.4256 329.1 58.2247 332.956 58.2485C336.811 58.2604 340.06 61.5089 340.095 65.3643ZM332.991 141.781C333.087 145.779 330.064 148.861 326.078 148.826C322.234 148.802 319.295 145.851 319.284 142.007C319.272 138.152 322.187 135.177 326.018 135.13C329.886 135.082 332.908 137.962 332.991 141.781ZM318.653 13.2575C314.952 13.2456 311.989 10.366 311.882 6.67719C311.775 2.83374 314.726 -0.271927 318.546 -0.343323C322.389 -0.414719 325.459 2.57198 325.483 6.40353C325.519 10.247 322.496 13.2694 318.653 13.2575ZM294.307 -14.8366C294.462 -18.4778 297.543 -21.3812 301.185 -21.3217C304.945 -21.2622 307.991 -18.0256 307.836 -14.2774C307.682 -10.6362 304.6 -7.73276 300.959 -7.79225C297.198 -7.85175 294.152 -11.0764 294.307 -14.8366ZM117.103 27.8579C117.258 23.9788 120.542 20.9206 124.41 21.0277C128.301 21.1348 131.383 24.3714 131.323 28.2505C131.264 32.1297 128.063 35.2711 124.184 35.2473C120.173 35.2354 116.937 31.856 117.103 27.8579ZM119.448 8.1765C119.602 4.48775 122.601 1.65576 126.302 1.67957C130.133 1.70337 133.12 4.78523 133.048 8.62868C132.977 12.4483 129.859 15.3993 126.016 15.2922C122.196 15.1732 119.281 12.02 119.448 8.1765ZM320.39 122.278C320.426 118.363 323.639 115.186 327.553 115.222C331.468 115.258 334.645 118.471 334.61 122.385C334.574 126.3 331.361 129.477 327.446 129.442C323.532 129.406 320.354 126.181 320.39 122.278ZM116.056 130.013C112.082 130.001 109.024 126.883 109.071 122.897C109.119 119.066 112.106 116.067 115.937 115.996C119.924 115.924 123.053 118.97 123.089 122.945C123.113 126.931 120.043 130.025 116.056 130.013ZM327.375 46.1827C327.494 42.3392 330.492 39.4954 334.372 39.5311C338.358 39.5668 341.309 42.6724 341.19 46.6944C341.071 50.5378 338.072 53.3818 334.193 53.3461C330.195 53.2985 327.244 50.2046 327.375 46.1827ZM291.237 176.563C291.225 180.478 288.012 183.667 284.097 183.643C280.183 183.631 276.994 180.418 277.017 176.503C277.029 172.588 280.242 169.399 284.157 169.423C288.072 169.447 291.261 172.66 291.237 176.563ZM179.444 -24.6059C179.384 -28.5207 182.525 -31.7573 186.452 -31.8168C190.367 -31.8763 193.604 -28.7349 193.663 -24.8082C193.723 -20.8933 190.581 -17.6567 186.655 -17.5972C182.74 -17.5496 179.503 -20.691 179.444 -24.6059ZM175.184 185.606C175.077 189.45 172.054 192.317 168.175 192.282C164.177 192.246 161.214 189.128 161.321 185.106C161.428 181.263 164.451 178.395 168.33 178.431C172.34 178.455 175.303 181.572 175.184 185.606ZM160.774 -26.129C160.797 -29.9606 163.879 -32.9473 167.723 -32.8759C171.542 -32.8045 174.494 -29.6868 174.386 -25.8434C174.267 -22.0237 171.114 -19.1085 167.271 -19.2751C163.582 -19.4178 160.75 -22.4165 160.774 -26.129ZM238.726 -38.3495C238.761 -42.1335 241.891 -45.144 245.675 -45.0607C249.328 -44.9774 252.255 -42.0145 252.303 -38.3733C252.35 -34.5894 249.316 -31.4955 245.52 -31.4955C241.724 -31.4836 238.678 -34.5536 238.726 -38.3495ZM139.7 -8.50626C139.724 -12.3854 142.663 -15.3007 146.542 -15.3126C150.433 -15.3245 153.384 -12.4211 153.444 -8.55382C153.491 -4.66277 150.624 -1.66417 146.768 -1.56897C142.734 -1.49757 139.676 -4.49622 139.7 -8.50626ZM275.09 -15.8718C275.066 -19.8581 278.16 -22.94 282.146 -22.9162C286.12 -22.8924 289.166 -19.7629 289.107 -15.7767C289.036 -11.8142 285.87 -8.79178 281.884 -8.89888C278.053 -9.00597 275.113 -12.0284 275.09 -15.8718ZM219.746 -40.539C219.865 -44.323 223.054 -47.2621 226.862 -47.0836C230.515 -46.917 233.359 -43.8946 233.323 -40.2296C233.288 -36.4218 230.194 -33.4232 226.374 -33.5065C222.578 -33.5898 219.615 -36.7312 219.746 -40.539ZM138.463 162.938C138.486 166.781 135.476 169.816 131.632 169.792C127.801 169.78 124.802 166.722 124.862 162.879C124.921 159.178 127.825 156.263 131.525 156.191C135.369 156.12 138.439 159.095 138.463 162.938ZM251.934 192.02C251.993 195.935 248.852 199.171 244.925 199.231C241.01 199.29 237.774 196.149 237.714 192.222C237.655 188.307 240.796 185.071 244.723 185.011C248.638 184.952 251.874 188.105 251.934 192.02ZM270.651 193.995C270.723 197.862 267.867 200.897 264.047 201.016C260.049 201.135 256.943 198.148 256.943 194.162C256.943 190.306 259.871 187.355 263.714 187.308C267.581 187.272 270.58 190.164 270.651 193.995ZM312.251 158.821C312.311 162.736 309.169 165.972 305.242 166.032C301.327 166.091 298.091 162.95 298.031 159.023C297.972 155.108 301.113 151.872 305.04 151.812C308.943 151.753 312.191 154.894 312.251 158.821ZM106.596 83.7724C106.561 87.5564 103.443 90.5668 99.6591 90.4955C95.8752 90.4122 92.9004 87.2589 93.0194 83.4749C93.1384 79.8338 96.137 76.9304 99.7901 76.9185C103.586 76.9066 106.632 79.9766 106.596 83.7724ZM108.643 64.1506C108.596 67.9583 105.49 70.945 101.682 70.8498C97.8861 70.7546 94.9351 67.6013 95.066 63.8055C95.1969 60.1524 98.1955 57.2728 101.861 57.2728C105.656 57.2728 108.691 60.3428 108.643 64.1506ZM328.886 27.4176C328.91 23.824 331.909 20.7897 335.502 20.7065C339.215 20.6351 342.404 23.7764 342.38 27.489C342.356 31.0825 339.357 34.1169 335.764 34.2001C332.039 34.2834 328.862 31.142 328.886 27.4176ZM96.4583 45.0403C96.4821 41.3159 99.7067 38.2102 103.419 38.3411C107.013 38.4601 109.976 41.5539 109.952 45.1356C109.928 48.86 106.704 51.9657 102.991 51.8348C99.3974 51.7039 96.4345 48.622 96.4583 45.0403ZM200.815 -41.7051C200.838 -45.2987 203.849 -48.333 207.442 -48.4044C211.155 -48.4758 214.344 -45.3343 214.308 -41.6099C214.285 -38.0163 211.274 -34.982 207.68 -34.9106C203.968 -34.8392 200.779 -37.9806 200.815 -41.7051ZM156.002 183.988C156.002 187.569 152.956 190.663 149.362 190.723C145.662 190.782 142.449 187.534 142.544 183.833C142.639 180.24 145.769 177.217 149.35 177.265C152.944 177.312 156.002 180.406 156.002 183.988ZM356.564 86.3545C356.599 89.9243 353.506 93.0895 349.924 93.1252C346.354 93.1728 343.189 90.0671 343.153 86.4854C343.106 82.9156 346.211 79.7504 349.793 79.7148C353.375 79.6671 356.528 82.761 356.564 86.3545ZM257.753 -36.9454C257.776 -40.658 261.072 -43.8113 264.761 -43.6328C268.355 -43.4662 271.318 -40.2653 271.199 -36.7074C271.08 -33.1257 267.914 -30.1152 264.357 -30.1866C260.775 -30.258 257.729 -33.3637 257.753 -36.9454ZM105.18 102.466C105.311 106.155 102.122 109.427 98.4216 109.403C94.84 109.38 91.758 106.31 91.7343 102.728C91.7104 99.1462 94.7447 96.0286 98.3264 95.9572C101.896 95.8739 105.049 98.8844 105.18 102.466ZM107.298 142.757C107.239 139.044 110.392 135.867 114.117 135.915C117.71 135.951 120.733 138.973 120.792 142.567C120.852 146.279 117.698 149.456 113.974 149.409C110.38 149.361 107.358 146.351 107.298 142.757ZM310.514 178.074C310.407 181.656 307.265 184.678 303.695 184.618C300.114 184.559 297.056 181.465 297.068 177.883C297.068 174.171 300.364 171.006 304.052 171.16C307.634 171.327 310.609 174.516 310.514 178.074ZM98.6239 25.9064C98.7548 22.4437 101.837 19.4808 105.264 19.4927C108.845 19.5165 111.975 22.7531 111.844 26.299C111.713 29.7617 108.643 32.7246 105.204 32.7127C101.623 32.6889 98.493 29.4524 98.6239 25.9064ZM339.893 124.468C339.822 120.898 342.963 117.745 346.533 117.78C350.126 117.828 353.196 121.041 353.054 124.587C352.899 128.049 349.853 130.977 346.414 130.929C342.951 130.905 339.964 127.93 339.893 124.468ZM358.503 66.7446C358.515 70.3144 355.302 73.4677 351.745 73.3725C348.282 73.2773 345.295 70.2311 345.283 66.7803C345.271 63.2105 348.484 60.0572 352.042 60.1524C355.505 60.2476 358.491 63.2938 358.503 66.7446ZM192.461 206.787C192.188 210.273 189.022 213.129 185.619 212.974C182.026 212.808 179.015 209.452 179.289 205.942C179.563 202.455 182.728 199.6 186.131 199.754C189.725 199.921 192.735 203.265 192.461 206.787ZM289.452 195.506C289.464 199.04 286.323 202.182 282.788 202.182C279.254 202.194 276.113 199.052 276.113 195.518C276.113 191.984 279.242 188.843 282.777 188.843C286.299 188.843 289.44 191.972 289.452 195.506ZM249.375 211.166C249.328 214.759 246.115 217.829 242.557 217.675C239.094 217.52 236.167 214.462 236.215 211.023C236.262 207.429 239.475 204.359 243.033 204.514C246.496 204.669 249.423 207.739 249.375 211.166ZM211.524 208.429C211.5 211.975 208.347 215.092 204.813 215.057C201.267 215.033 198.149 211.88 198.185 208.346C198.209 204.8 201.362 201.682 204.896 201.718C208.43 201.741 211.548 204.895 211.524 208.429ZM230.491 209.678C230.539 213.212 227.433 216.378 223.887 216.413C220.353 216.461 217.188 213.355 217.152 209.809C217.105 206.275 220.21 203.11 223.756 203.074C227.29 203.027 230.456 206.132 230.491 209.678ZM181.3 -43.5614C181.217 -47.1192 184.382 -50.3202 187.952 -50.2964C191.402 -50.2726 194.437 -47.274 194.52 -43.8113C194.603 -40.2534 191.438 -37.0525 187.868 -37.0763C184.417 -37.112 181.383 -40.0987 181.3 -43.5614ZM330.778 161.046C330.719 164.592 327.553 167.686 324.019 167.626C320.473 167.567 317.38 164.402 317.439 160.868C317.499 157.322 320.664 154.228 324.198 154.287C327.756 154.347 330.838 157.512 330.778 161.046ZM348.544 112.057C345.01 112.081 341.856 108.963 341.832 105.417C341.809 101.883 344.926 98.7298 348.472 98.706C352.006 98.6822 355.16 101.8 355.183 105.346C355.195 108.892 352.078 112.033 348.544 112.057ZM276.898 -34.9225C276.922 -38.4209 279.921 -41.4076 283.407 -41.4314C286.894 -41.4552 289.928 -38.5042 289.999 -35.0058C290.083 -31.4122 286.918 -28.2471 283.324 -28.3304C279.826 -28.4137 276.875 -31.436 276.898 -34.9225ZM97.3388 128.157C93.7334 128.299 90.5919 125.265 90.6157 121.636C90.6276 118.137 93.5549 115.198 97.0533 115.163C100.552 115.127 103.526 118.007 103.61 121.517C103.693 125.003 100.849 128.014 97.3388 128.157ZM142.104 -27.4855C142.139 -30.9839 145.079 -33.9111 148.577 -33.923C152.075 -33.9349 155.038 -31.0434 155.098 -27.5331C155.169 -24.0348 152.313 -21.048 148.791 -20.929C145.174 -20.81 142.068 -23.8562 142.104 -27.4855ZM121.102 -10.5767C121.161 -14.087 124.112 -16.9904 127.61 -16.9785C131.109 -16.9666 134.06 -14.0632 134.096 -10.5529C134.143 -7.0545 131.275 -4.07967 127.753 -3.97258C124.136 -3.88928 121.042 -6.94745 121.102 -10.5767ZM351.4 143.376C351.388 147.017 348.579 149.718 344.914 149.623C341.416 149.528 338.822 146.826 338.834 143.304C338.846 139.663 341.666 136.962 345.319 137.057C348.817 137.152 351.411 139.854 351.4 143.376ZM331.385 7.85521C331.361 4.20213 334.134 1.46538 337.787 1.52487C341.285 1.58437 343.927 4.24979 343.951 7.76006C343.974 11.4131 341.202 14.15 337.549 14.0905C334.039 14.031 331.409 11.3655 331.385 7.85521ZM118.984 161.855C118.876 165.354 116.163 167.96 112.641 167.936C109 167.912 106.287 165.08 106.394 161.415C106.501 157.917 109.214 155.311 112.736 155.334C116.378 155.358 119.091 158.19 118.984 161.855ZM268.045 213.391C267.926 216.877 265.189 219.459 261.667 219.412C258.038 219.364 255.349 216.532 255.48 212.867C255.599 209.381 258.336 206.799 261.858 206.846C265.499 206.894 268.176 209.738 268.045 213.391ZM359.586 47.9438C359.515 51.5492 356.635 54.2504 353.006 54.1314C349.412 54.0124 346.747 51.0971 346.902 47.4678C347.056 43.9933 349.805 41.4111 353.303 41.4468C356.933 41.4825 359.67 44.3145 359.586 47.9438ZM313.715 -12.2783C313.596 -15.9076 316.273 -18.7633 319.878 -18.8466C323.508 -18.9299 326.328 -16.205 326.363 -12.5995C326.399 -8.97026 323.651 -6.1978 320.033 -6.1978C316.547 -6.1978 313.834 -8.80371 313.715 -12.2783ZM172.554 204.835C172.637 208.465 169.912 211.285 166.307 211.32C162.678 211.356 159.905 208.607 159.905 204.99C159.905 201.504 162.523 198.79 165.986 198.671C169.603 198.552 172.471 201.242 172.554 204.835ZM136.594 182.108C136.523 185.606 133.846 188.236 130.335 188.236C126.694 188.248 123.957 185.463 124.029 181.81C124.1 178.312 126.778 175.682 130.288 175.682C133.929 175.67 136.666 178.455 136.594 182.108ZM162.701 -45.1916C162.773 -48.7018 165.462 -51.3078 168.996 -51.284C172.53 -51.2602 175.16 -48.6067 175.172 -45.0726C175.184 -41.5385 172.566 -38.8612 169.044 -38.8136C165.379 -38.7541 162.63 -41.5266 162.701 -45.1916ZM100.385 7.12936C100.385 3.61909 103.015 0.965607 106.513 0.929901C110.011 0.894211 112.725 3.48817 112.796 6.96275C112.867 10.473 110.309 13.2218 106.846 13.3289C103.181 13.4598 100.385 10.7586 100.385 7.12936ZM189.796 225.659C189.594 228.765 186.738 231.394 183.68 231.287C180.455 231.18 177.671 228.158 177.885 224.993C178.087 221.887 180.943 219.257 184.001 219.364C187.226 219.471 190.01 222.494 189.796 225.659ZM88.926 140.567C88.9498 137.212 91.5439 134.57 94.8757 134.475C98.374 134.38 101.17 137.045 101.218 140.508C101.277 143.994 98.5763 146.755 95.1018 146.767C91.6153 146.791 88.8904 144.054 88.926 140.567ZM368.82 81.7257C372.069 81.7138 374.877 84.5101 374.877 87.7587C374.889 91.0071 372.092 93.8154 368.844 93.8154C365.595 93.8273 362.787 91.031 362.787 87.7825C362.775 84.534 365.572 81.7257 368.82 81.7257ZM183.953 -62.6478C183.941 -65.8368 186.821 -68.6926 189.998 -68.6569C193.068 -68.6212 195.805 -65.932 195.924 -62.862C196.043 -59.6849 193.247 -56.7577 190.046 -56.6863C186.857 -56.6149 183.965 -59.4469 183.953 -62.6478ZM143.972 -47.155C144.02 -50.3559 146.935 -53.164 150.112 -53.0689C153.325 -52.9737 156.097 -50.0108 155.943 -46.8456C155.788 -43.6328 152.789 -40.9078 149.636 -41.1101C146.542 -41.3005 143.924 -44.0969 143.972 -47.155ZM247.341 230.704C247.376 233.798 244.687 236.571 241.569 236.654C238.488 236.737 235.679 234.095 235.537 230.978C235.394 227.789 238.25 224.838 241.474 224.862C244.58 224.874 247.305 227.599 247.341 230.704ZM227.802 228.574C227.885 231.775 225.149 234.643 221.924 234.738C218.735 234.821 215.855 232.073 215.76 228.86C215.677 225.671 218.425 222.791 221.638 222.696C224.839 222.613 227.719 225.361 227.802 228.574ZM333.075 -11.3145C333.17 -14.3964 335.942 -17.0975 339 -17.1094C342.201 -17.1213 345.057 -14.1941 344.962 -11.0051C344.867 -7.92316 342.094 -5.22205 339.036 -5.21014C335.835 -5.21014 332.979 -8.13736 333.075 -11.3145ZM349.162 162.343C349.139 165.603 346.402 168.352 343.141 168.388C339.762 168.424 336.894 165.484 337.013 162.117C337.132 158.857 339.952 156.179 343.201 156.251C346.461 156.31 349.174 159.095 349.162 162.343ZM122.91 -29.318C122.827 -32.5546 125.564 -35.4223 128.812 -35.5056C132.049 -35.5889 134.917 -32.8521 135 -29.6036C135.083 -26.367 132.346 -23.4993 129.098 -23.416C125.861 -23.3208 122.994 -26.0576 122.91 -29.318ZM370.938 74.7647C367.737 74.8123 364.846 71.9088 364.905 68.7079C364.965 65.6261 367.713 62.8892 370.795 62.8416C373.996 62.794 376.888 65.6975 376.828 68.8984C376.769 71.9803 374.02 74.7171 370.938 74.7647ZM79.4304 106.726C76.0272 106.69 73.2309 103.727 73.4094 100.336C73.5879 97.0758 76.4556 94.4342 79.7041 94.565C82.9764 94.6959 85.6418 97.516 85.5585 100.776C85.4871 104.049 82.7027 106.762 79.4304 106.726ZM82.6313 68.827C79.1924 68.708 76.5746 65.8402 76.7412 62.3775C76.8959 59.0815 79.6089 56.535 82.9407 56.5707C86.3915 56.6064 89.0807 59.3909 89.0094 62.8535C88.9261 66.2924 86.1059 68.946 82.6313 68.827ZM286.81 214.521C286.787 217.782 284.038 220.53 280.789 220.554C277.41 220.578 274.542 217.651 274.673 214.271C274.792 211.011 277.624 208.334 280.873 208.405C284.121 208.488 286.834 211.273 286.81 214.521ZM78.1453 43.672C78.181 40.3759 80.9059 37.6509 84.202 37.6391C87.4862 37.6152 90.2587 40.3164 90.3182 43.6125C90.3777 46.8967 87.7242 49.7048 84.4281 49.812C81.013 49.9309 78.1096 47.0871 78.1453 43.672ZM296.27 -33.6374C296.33 -37.0882 299.067 -39.7417 302.541 -39.6822C305.992 -39.6227 308.646 -36.8859 308.586 -33.4114C308.527 -29.9606 305.79 -27.307 302.315 -27.3665C298.864 -27.426 296.211 -30.1629 296.27 -33.6374ZM153.349 203.3C153.182 206.573 150.374 209.167 147.09 209.083C143.674 209 140.961 206.073 141.14 202.646C141.307 199.374 144.115 196.779 147.399 196.863C150.826 196.946 153.527 199.873 153.349 203.3ZM373.496 106.583C373.592 109.772 370.855 112.664 367.642 112.759C364.453 112.854 361.561 110.117 361.466 106.905C361.371 103.716 364.108 100.824 367.321 100.729C370.51 100.634 373.401 103.37 373.496 106.583ZM208.835 227.622C208.668 230.835 205.729 233.536 202.552 233.382C199.339 233.215 196.638 230.276 196.793 227.099C196.959 223.886 199.898 221.185 203.075 221.34C206.288 221.506 208.989 224.457 208.835 227.622ZM307.92 197.398C307.991 200.897 305.361 203.645 301.887 203.717C298.388 203.788 295.64 201.158 295.568 197.684C295.497 194.185 298.127 191.437 301.601 191.365C305.1 191.306 307.86 193.936 307.92 197.398ZM77.4433 114.401C80.5371 114.401 83.2858 117.114 83.3453 120.208C83.4048 123.433 80.5014 126.3 77.2886 126.193C74.171 126.086 71.5055 123.314 71.5531 120.22C71.6007 117.114 74.3494 114.401 77.4433 114.401ZM86.9626 81.702C86.9507 85.1409 84.1782 87.8538 80.7275 87.8062C77.3005 87.7467 74.6113 84.9266 74.7064 81.4877C74.8016 78.1916 77.467 75.5857 80.775 75.5619C84.2258 75.5143 86.9864 78.2512 86.9626 81.702ZM116.592 180.942C116.378 184.035 113.534 186.653 110.487 186.558C107.275 186.451 104.502 183.44 104.716 180.275C104.93 177.181 107.774 174.564 110.821 174.659C114.033 174.766 116.806 177.776 116.592 180.942ZM328.934 179.823C328.981 183.321 326.34 186.046 322.865 186.094C319.367 186.142 316.642 183.5 316.594 180.025C316.547 176.527 319.188 173.802 322.663 173.754C326.161 173.707 328.886 176.348 328.934 179.823ZM371.39 125.61C371.462 128.811 368.582 131.703 365.381 131.655C362.299 131.619 359.562 128.894 359.503 125.812C359.431 122.612 362.311 119.72 365.512 119.768C368.594 119.815 371.331 122.54 371.39 125.61ZM202.814 -60.6487C202.826 -64.0399 205.693 -66.8363 209.085 -66.7292C212.345 -66.634 215.01 -63.8853 214.999 -60.6249C214.987 -57.2336 212.119 -54.4373 208.728 -54.5443C205.467 -54.6276 202.814 -57.3764 202.814 -60.6487ZM221.757 -59.3636C221.805 -62.8144 224.601 -65.5036 228.064 -65.4084C231.503 -65.3251 234.156 -62.4931 234.025 -59.0185C233.895 -55.5915 231.027 -52.9737 227.552 -53.1402C224.256 -53.3068 221.71 -56.0318 221.757 -59.3636ZM240.725 -57.2931C240.748 -60.613 243.343 -63.2784 246.662 -63.3736C250.125 -63.4688 252.933 -60.8034 252.993 -57.3526C253.052 -53.8899 250.351 -51.1174 246.888 -51.1055C243.438 -51.0936 240.701 -53.8305 240.725 -57.2931ZM260.442 -55.9247C260.466 -59.1851 263.202 -61.9338 266.463 -61.9695C269.711 -62.0052 272.508 -59.2921 272.591 -56.0318C272.674 -52.6524 269.783 -49.749 266.403 -49.8204C263.143 -49.8799 260.418 -52.6643 260.442 -55.9247ZM279.588 -54.5682C279.611 -57.662 282.336 -60.3988 285.43 -60.4345C288.524 -60.4702 291.296 -57.781 291.38 -54.6753C291.463 -51.4506 288.583 -48.571 285.359 -48.6424C282.265 -48.7019 279.564 -51.4744 279.588 -54.5682ZM361.395 29.024C361.288 32.3082 358.539 34.9498 355.243 34.926C351.816 34.9022 349.067 32.0345 349.174 28.6075C349.281 25.3233 352.03 22.6817 355.326 22.7055C358.741 22.7293 361.502 25.597 361.395 29.024ZM80.2753 24.5499C80.4062 21.3371 83.3929 18.5884 86.5462 18.7669C89.6281 18.9454 92.2697 21.7298 92.2459 24.7879C92.2221 27.9888 89.3187 30.8089 86.1416 30.7375C82.9288 30.6661 80.1444 27.7151 80.2753 24.5499ZM102.634 -12.0165C102.741 -15.0984 105.466 -17.7757 108.536 -17.8352C111.725 -17.8828 114.605 -15.0389 114.605 -11.8499C114.605 -8.64905 111.725 -5.80508 108.536 -5.86458C105.335 -5.91219 102.527 -8.83937 102.634 -12.0165ZM316.213 -31.5193C316.237 -34.6369 318.903 -37.3143 322.02 -37.35C325.126 -37.3857 327.851 -34.7441 327.934 -31.6265C328.018 -28.4137 325.174 -25.5578 321.961 -25.6292C318.843 -25.7006 316.202 -28.4136 316.213 -31.5193ZM99.5759 159.559C99.5997 162.664 96.958 165.389 93.8404 165.461C90.6157 165.544 87.7718 162.688 87.8551 159.463C87.9384 156.346 90.6514 153.704 93.7571 153.728C96.8747 153.764 99.5521 156.453 99.5759 159.559ZM350.876 9.62825C350.995 6.42735 353.744 3.91658 356.933 4.08316C360.003 4.23785 362.418 6.80809 362.406 9.87808C362.383 13.079 359.717 15.673 356.516 15.6016C353.315 15.5302 350.757 12.8172 350.876 9.62825ZM134.036 201.575C134.06 204.776 131.43 207.406 128.229 207.382C125.159 207.358 122.625 204.895 122.506 201.837C122.387 198.648 124.945 195.935 128.134 195.863C131.347 195.78 134.012 198.362 134.036 201.575ZM326.482 198.826C326.53 202.027 323.9 204.669 320.711 204.657C317.641 204.645 315.095 202.194 314.964 199.135C314.833 195.947 317.38 193.222 320.569 193.126C323.758 193.055 326.447 195.637 326.482 198.826ZM170.555 224.029C170.531 227.242 167.949 229.74 164.724 229.669C161.511 229.598 159.06 226.98 159.167 223.755C159.286 220.554 161.94 218.139 165.165 218.293C168.246 218.448 170.591 220.935 170.555 224.029ZM366.512 49.7882C366.523 46.7063 368.927 44.2193 371.997 44.1003C375.21 43.9813 377.863 46.4683 377.935 49.6692C378.006 52.882 375.483 55.4879 372.271 55.5236C369.058 55.5712 366.5 53.0129 366.512 49.7882ZM369.677 145.791C369.474 148.909 366.928 151.134 363.751 150.967C360.633 150.813 358.361 148.278 358.48 145.125C358.599 141.995 361.085 139.687 364.251 139.77C367.523 139.854 369.891 142.483 369.677 145.791ZM266.022 232.204C265.975 235.345 263.559 237.713 260.406 237.713C257.122 237.713 254.682 235.143 254.813 231.847C254.944 228.717 257.431 226.42 260.596 226.504C263.726 226.587 266.07 229.038 266.022 232.204ZM165.367 -64.2542C165.486 -67.3837 167.961 -69.6921 171.126 -69.6207C174.267 -69.5493 176.612 -67.11 176.576 -63.9448C176.54 -60.7915 174.136 -58.4116 170.983 -58.4116C167.699 -58.4116 165.236 -60.9581 165.367 -64.2542ZM347.33 181.418C347.27 184.559 344.831 186.915 341.678 186.891C338.525 186.867 336.133 184.476 336.121 181.322C336.097 178.038 338.643 175.575 341.94 175.682C345.081 175.777 347.401 178.252 347.33 181.418ZM305.98 216.532C305.968 219.816 303.422 222.244 300.126 222.101C297.008 221.97 294.711 219.495 294.807 216.33C294.89 213.189 297.329 210.88 300.495 210.928C303.636 210.975 305.992 213.379 305.98 216.532ZM82.0245 5.16603C81.9888 2.00084 84.321 -0.414703 87.4624 -0.486099C90.6276 -0.557495 93.0907 1.73906 93.1978 4.86856C93.3168 8.16464 90.8656 10.6991 87.5933 10.6872C84.44 10.6753 82.0602 8.30743 82.0245 5.16603ZM243.462 -77.0578C243.545 -80.0088 245.937 -82.3291 248.888 -82.341C251.981 -82.341 254.421 -79.8303 254.337 -76.7365C254.254 -73.7855 251.862 -71.4651 248.911 -71.4532C245.818 -71.4532 243.366 -73.964 243.462 -77.0578ZM262.476 -74.9754C262.548 -77.8788 265.094 -80.3181 267.986 -80.2468C270.889 -80.1754 273.329 -77.6289 273.257 -74.7374C273.186 -71.834 270.639 -69.3946 267.748 -69.466C264.844 -69.5374 262.405 -72.0839 262.476 -74.9754ZM284.788 233.977C284.883 236.892 282.479 239.438 279.552 239.533C276.637 239.629 274.09 237.225 273.995 234.298C273.9 231.383 276.303 228.836 279.231 228.741C282.146 228.646 284.692 231.049 284.788 233.977ZM81.608 139.247C81.6199 142.4 79.2758 144.768 76.1225 144.78C72.9692 144.792 70.6012 142.436 70.5893 139.294C70.5774 136.141 72.9335 133.773 76.0749 133.761C79.2401 133.749 81.5961 136.093 81.608 139.247ZM84.3091 -14.3012C84.559 -17.0618 87.1055 -19.3345 89.8304 -19.2393C92.71 -19.1322 95.1731 -16.4549 95.0185 -13.6229C94.8638 -10.7433 92.1508 -8.32771 89.3187 -8.53C86.4153 -8.73228 84.0474 -11.4692 84.3091 -14.3012ZM59.8681 41.8513C59.7729 38.9598 62.1884 36.3896 65.0918 36.2944C67.9834 36.1992 70.5536 38.6148 70.6488 41.5182C70.744 44.4097 68.3166 46.9799 65.425 47.0751C62.5335 47.1822 59.9633 44.7548 59.8681 41.8513ZM151.349 221.923C151.361 225.064 148.886 227.468 145.745 227.396C142.746 227.313 140.45 224.957 140.45 221.958C140.438 218.817 142.913 216.413 146.054 216.485C149.041 216.568 151.338 218.924 151.349 221.923ZM65.8772 99.2414C65.9129 102.085 63.426 104.632 60.5701 104.656C57.7262 104.691 55.1798 102.204 55.156 99.3485C55.1203 96.5046 57.6073 93.9582 60.4631 93.9344C63.307 93.8987 65.8415 96.3856 65.8772 99.2414ZM58.4521 61.1281C58.5592 58.1652 60.9628 55.8687 63.9376 55.9044C67.0434 55.9281 69.447 58.4508 69.3399 61.5684C69.2328 64.5313 66.8292 66.8279 63.8543 66.7922C60.7486 66.7565 58.345 64.2457 58.4521 61.1281ZM125.528 -48.5472C125.588 -51.6767 128.122 -54.0327 131.264 -53.8899C134.25 -53.7471 136.499 -51.3316 136.44 -48.333C136.38 -45.2035 133.846 -42.8474 130.704 -42.9902C127.729 -43.1211 125.481 -45.5367 125.528 -48.5472ZM97.0533 179.085C97.1484 181.917 94.709 184.511 91.8532 184.607C89.0093 184.702 86.4272 182.262 86.332 179.407C86.2368 176.563 88.6762 173.981 91.532 173.885C94.364 173.79 96.9462 176.229 97.0533 179.085ZM114.664 199.469C114.736 202.313 112.272 204.883 109.417 204.942C106.573 205.014 104.002 202.551 103.943 199.695C103.871 196.851 106.335 194.281 109.19 194.221C112.034 194.15 114.605 196.613 114.664 199.469ZM298.948 -52.6048C299.007 -55.7343 301.423 -58.0547 304.564 -58.0071C307.694 -57.9476 310.014 -55.532 309.966 -52.3906C309.907 -49.2611 307.491 -46.9408 304.35 -46.9884C301.22 -47.0479 298.9 -49.4634 298.948 -52.6048ZM146.625 -65.9082C146.542 -68.7759 149.053 -71.3818 151.933 -71.4175C154.8 -71.4532 157.37 -68.9068 157.359 -66.0271C157.347 -63.1475 154.753 -60.6249 151.885 -60.6963C149.136 -60.7558 146.721 -63.1595 146.625 -65.9082ZM104.526 -30.8054C104.514 -33.9468 106.989 -36.3504 110.131 -36.279C113.129 -36.1957 115.426 -33.8397 115.426 -30.8411C115.438 -27.6997 112.963 -25.2961 109.821 -25.3675C106.834 -25.4389 104.538 -27.7949 104.526 -30.8054ZM353.303 -9.17261C353.327 -12.0284 355.862 -14.5272 358.706 -14.5034C361.562 -14.4796 364.06 -11.9451 364.037 -9.10121C364.013 -6.24539 361.478 -3.74651 358.634 -3.77031C355.778 -3.7941 353.28 -6.31679 353.303 -9.17261ZM335.657 -30.0081C335.574 -32.8996 338.013 -35.458 340.916 -35.5294C343.808 -35.6127 346.366 -33.1734 346.438 -30.2699C346.521 -27.3784 344.081 -24.8201 341.178 -24.7487C338.298 -24.6654 335.74 -27.1047 335.657 -30.0081ZM56.4292 80.1074C56.5363 77.1564 58.9637 74.8599 61.9148 74.8837C64.9967 74.9075 67.4241 77.4539 67.3052 80.5358C67.1981 83.4868 64.7706 85.7834 61.8195 85.7596C58.7376 85.7239 56.3102 83.1893 56.4292 80.1074ZM205.562 -80.2229C205.527 -83.1144 208.002 -85.6371 210.893 -85.6728C213.785 -85.7085 216.307 -83.2335 216.331 -80.342C216.367 -77.4505 213.892 -74.9278 211 -74.8921C208.109 -74.8564 205.586 -77.3314 205.562 -80.2229ZM368.808 30.0354C368.88 26.9297 371.45 24.5618 374.555 24.7284C377.518 24.8831 379.767 27.3343 379.696 30.3091C379.625 33.4149 377.054 35.7827 373.949 35.6162C370.986 35.4615 368.737 33.0102 368.808 30.0354ZM224.47 -78.1882C224.435 -81.3058 226.91 -83.757 230.027 -83.6975C233.002 -83.638 235.334 -81.2939 235.358 -78.3191C235.394 -75.3443 233.109 -72.9287 230.146 -72.8097C227.041 -72.6788 224.506 -75.0825 224.47 -78.1882ZM368.13 164.33C368.142 167.246 365.667 169.733 362.74 169.744C359.824 169.756 357.337 167.281 357.325 164.354C357.313 161.439 359.789 158.952 362.716 158.94C365.643 158.94 368.13 161.415 368.13 164.33ZM393.773 89.365C393.63 92.078 391.095 94.4579 388.418 94.4104C385.586 94.3628 383.051 91.6854 383.206 88.8891C383.349 86.1761 385.884 83.7962 388.561 83.8438C391.393 83.8914 393.927 86.5687 393.773 89.365ZM391.714 109.201C391.452 111.926 388.858 114.223 386.193 114.068C383.337 113.901 380.922 111.141 381.183 108.356C381.445 105.631 384.039 103.335 386.704 103.489C389.56 103.656 391.976 106.417 391.714 109.201ZM206.74 246.542C206.61 249.255 204.111 251.647 201.421 251.623C198.589 251.599 196.043 248.934 196.174 246.138C196.305 243.424 198.804 241.033 201.493 241.057C204.325 241.08 206.871 243.746 206.74 246.542ZM225.72 247.565C225.803 250.386 223.209 253.003 220.389 252.968C217.688 252.944 215.225 250.505 215.153 247.803C215.07 244.983 217.664 242.366 220.484 242.401C223.173 242.437 225.648 244.864 225.72 247.565ZM187.725 244.162C187.821 246.994 185.215 249.612 182.383 249.541C179.658 249.481 177.242 246.994 177.254 244.281C177.266 241.556 179.705 239.105 182.43 239.069C185.131 239.034 187.63 241.437 187.725 244.162ZM186.036 -81.8175C186.143 -84.5424 188.689 -86.9579 191.39 -86.8984C194.115 -86.8389 196.555 -84.352 196.555 -81.627C196.543 -78.7712 193.854 -76.2129 191.033 -76.3795C188.297 -76.5461 185.929 -79.1282 186.036 -81.8175ZM324.626 217.77C324.698 220.614 322.056 223.232 319.224 223.136C316.499 223.041 314.072 220.53 314.119 217.817C314.155 215.092 316.63 212.641 319.355 212.629C322.068 212.605 324.555 215.045 324.626 217.77ZM79.2995 158.238C79.2995 160.951 76.8721 163.426 74.1472 163.474C71.4461 163.521 68.9234 161.129 68.8282 158.404C68.7211 155.572 71.3033 152.943 74.1472 152.99C76.8721 153.062 79.2995 155.525 79.2995 158.238ZM344.938 201.004C344.902 203.859 342.201 206.37 339.381 206.168C336.645 205.978 334.312 203.395 334.455 200.706C334.598 197.981 337.144 195.613 339.845 195.697C342.57 195.792 344.974 198.291 344.938 201.004ZM318.201 -51.1055C318.177 -53.9494 320.818 -56.5197 323.65 -56.3888C326.375 -56.2579 328.755 -53.7234 328.684 -51.0222C328.612 -48.2973 326.114 -45.8818 323.401 -45.9056C320.676 -45.9294 318.224 -48.3806 318.201 -51.1055ZM62.0337 22.4794C62.1884 19.7426 64.7468 17.3627 67.4479 17.4579C70.1729 17.5531 72.5884 20.0758 72.5527 22.7888C72.5051 25.5137 70.0301 27.965 67.3052 27.9769C64.4493 27.9888 61.879 25.2995 62.0337 22.4794ZM384.646 70.0645C384.694 67.3038 387.181 64.9002 389.929 64.9597C392.69 65.0073 395.093 67.4943 395.034 70.243C394.986 73.0036 392.499 75.4072 389.751 75.3477C386.99 75.3002 384.598 72.8132 384.646 70.0645ZM281.67 -73.5831C281.718 -76.3557 284.169 -78.7236 286.929 -78.676C289.702 -78.6284 292.07 -76.1772 292.022 -73.4166C291.975 -70.6441 289.523 -68.2761 286.763 -68.3237C283.99 -68.3832 281.622 -70.8344 281.67 -73.5831ZM132.049 220.721C131.966 223.541 129.502 225.837 126.706 225.707C123.886 225.576 121.637 223.077 121.816 220.28C121.982 217.591 124.302 215.438 126.98 215.461C129.788 215.497 132.12 217.913 132.049 220.721ZM244.532 249.695C244.556 252.373 242.379 254.693 239.689 254.848C236.893 255.014 234.394 252.753 234.275 249.933C234.156 247.125 236.465 244.674 239.285 244.603C242.105 244.531 244.509 246.875 244.532 249.695ZM370.438 11.1157C370.486 8.34314 372.937 5.97514 375.698 6.02275C378.47 6.07034 380.838 8.52156 380.791 11.2822C380.743 14.0547 378.292 16.4227 375.531 16.3751C372.759 16.3156 370.391 13.8763 370.438 11.1157ZM390.227 127.883C390.155 130.703 387.692 133 384.896 132.881C382.076 132.762 379.827 130.263 379.993 127.466C380.16 124.777 382.468 122.612 385.158 122.635C387.966 122.659 390.298 125.075 390.227 127.883ZM63.6521 118.352C63.6045 121.124 61.1532 123.492 58.3926 123.444C55.62 123.397 53.2521 120.946 53.2997 118.185C53.3473 115.412 55.7985 113.045 58.5592 113.092C61.3317 113.14 63.6997 115.591 63.6521 118.352ZM365.655 183.333C365.655 186.142 363.584 188.236 360.776 188.272C357.825 188.307 355.659 186.094 355.755 183.143C355.838 180.347 357.992 178.324 360.8 178.371C363.608 178.407 365.667 180.513 365.655 183.333ZM303.315 235.416C303.35 238.236 301.316 240.366 298.519 240.45C295.568 240.533 293.355 238.344 293.403 235.404C293.45 232.596 295.544 230.538 298.365 230.55C301.185 230.55 303.279 232.608 303.315 235.416ZM386.966 51.0852C387.014 48.2651 389.132 46.2303 391.964 46.2779C394.796 46.3255 396.819 48.4436 396.771 51.2756C396.724 54.0957 394.606 56.1305 391.774 56.0829C388.953 56.0353 386.919 53.9172 386.966 51.0852ZM107.144 -50.4511C107.144 -53.2593 109.19 -55.3178 111.999 -55.3297C114.807 -55.3297 116.865 -53.2831 116.877 -50.4748C116.877 -47.6666 114.831 -45.6081 112.022 -45.5962C109.214 -45.5962 107.156 -47.6548 107.144 -50.4511ZM263.238 251.064C263.238 253.872 261.191 255.931 258.383 255.943C255.575 255.943 253.516 253.896 253.504 251.088C253.504 248.279 255.551 246.221 258.359 246.209C261.18 246.209 263.238 248.267 263.238 251.064ZM167.735 243.222C167.604 246.019 165.391 247.982 162.559 247.851C159.762 247.72 157.799 245.507 157.93 242.675C158.061 239.879 160.274 237.915 163.106 238.046C165.902 238.177 167.878 240.39 167.735 243.222ZM387.93 146.731C387.918 149.539 385.86 151.586 383.051 151.586C380.243 151.574 378.197 149.516 378.197 146.707C378.209 143.899 380.267 141.853 383.075 141.853C385.884 141.865 387.93 143.935 387.93 146.731ZM63.783 3.86899C63.7235 1.06076 65.7344 -1.0573 68.5188 -1.11681C71.327 -1.1763 73.4451 0.822754 73.5046 3.61908C73.5641 6.42729 71.5651 8.54536 68.7687 8.60486C65.9605 8.67625 63.8424 6.66531 63.783 3.86899ZM167.461 -83.6975C167.473 -86.4938 169.543 -88.5406 172.352 -88.5287C175.16 -88.5168 177.207 -86.4462 177.183 -83.638C177.171 -80.8298 175.1 -78.795 172.292 -78.8069C169.496 -78.8188 167.449 -80.8893 167.461 -83.6975ZM300.994 -71.4889C301.006 -74.1306 302.958 -76.1772 305.587 -76.2843C308.372 -76.4033 310.561 -74.3685 310.645 -71.6079C310.716 -68.8235 308.657 -66.6697 305.885 -66.634C303.101 -66.6221 300.982 -68.7164 300.994 -71.4889ZM148.601 241.045C148.529 243.603 146.292 245.721 143.746 245.65C141.188 245.578 139.069 243.341 139.141 240.795C139.212 238.236 141.449 236.118 143.996 236.19C146.542 236.249 148.66 238.498 148.601 241.045ZM127.515 -67.5145C127.563 -70.1562 129.55 -72.1553 132.192 -72.2267C134.976 -72.2981 137.13 -70.2395 137.166 -67.467C137.201 -64.6945 135.095 -62.5763 132.323 -62.5882C129.55 -62.6001 127.468 -64.7301 127.515 -67.5145ZM388.501 32.0821C388.573 29.5238 390.798 27.4057 393.356 27.4652C395.915 27.5247 398.033 29.7737 397.973 32.3201C397.902 34.8785 395.677 36.9965 393.118 36.937C390.56 36.8775 388.43 34.6405 388.501 32.0821ZM95.0898 198.243C95.0779 200.849 92.9956 202.955 90.3896 202.991C87.6528 203.027 85.4633 200.778 85.5585 198.041C85.6537 195.447 87.8194 193.412 90.4254 193.472C93.0313 193.519 95.1017 195.637 95.0898 198.243ZM355.267 -28.9253C355.35 -31.5075 357.504 -33.5779 360.098 -33.5422C362.68 -33.5065 364.786 -31.3766 364.798 -28.7944C364.81 -26.0814 362.513 -23.88 359.8 -24.0109C357.218 -24.1418 355.184 -26.3551 355.267 -28.9253ZM86.213 -32.7093C86.1416 -35.4937 88.2716 -37.6594 91.0441 -37.6356C93.6857 -37.6237 95.7443 -35.6127 95.8038 -32.9711C95.8752 -30.1867 93.7452 -28.021 90.9727 -28.0448C88.331 -28.0686 86.2725 -30.0795 86.213 -32.7093ZM337.668 -49.3682C337.811 -51.9146 340.131 -53.9851 342.665 -53.8423C345.212 -53.6995 347.282 -51.3792 347.14 -48.8446C346.997 -46.2982 344.676 -44.2277 342.142 -44.3705C339.607 -44.5252 337.525 -46.8456 337.668 -49.3682ZM61.9148 137.331C61.8672 139.973 59.8324 141.995 57.1908 142.031C54.5492 142.067 52.443 140.103 52.3121 137.486C52.1812 134.701 54.2636 132.488 57.0361 132.44C59.8205 132.405 61.9743 134.558 61.9148 137.331ZM282.67 253.241C282.598 255.764 280.218 257.93 277.743 257.751C275.351 257.585 273.317 255.348 273.388 252.991C273.459 250.469 275.839 248.303 278.314 248.482C280.706 248.648 282.741 250.873 282.67 253.241ZM386.383 165.651C386.419 168.138 384.158 170.494 381.683 170.339C378.97 170.173 377.364 168.59 377.078 165.913C376.816 163.462 379.089 161.106 381.588 161.022C384.063 160.951 386.348 163.152 386.383 165.651ZM245.615 -95.9775C245.687 -98.5002 248.055 -100.678 250.53 -100.499C252.91 -100.333 254.956 -98.1075 254.897 -95.7514C254.825 -93.2288 252.457 -91.0512 249.982 -91.2178C247.591 -91.3963 245.544 -93.6215 245.615 -95.9775ZM226.624 -97.5482C226.981 -100.226 228.623 -101.796 231.348 -101.88C233.847 -101.963 236.048 -99.5473 235.953 -97.0604C235.858 -94.5496 233.502 -92.3959 231.027 -92.5387C228.528 -92.6815 226.303 -95.097 226.624 -97.5482ZM39.6037 59.1648C39.6989 56.6541 42.0906 54.4884 44.5537 54.6788C46.9455 54.8692 48.9684 57.0943 48.8732 59.4623C48.778 61.9849 46.3863 64.1386 43.9231 63.9483C41.5433 63.7579 39.5204 61.5209 39.6037 59.1648ZM47.5285 78.3582C47.4809 80.75 45.3629 82.868 42.9831 82.9156C40.4843 82.9751 38.1996 80.6905 38.2591 78.1917C38.3067 75.7999 40.4247 73.6819 42.8165 73.6342C45.3034 73.5867 47.588 75.8713 47.5285 78.3582ZM373.008 -8.19687C373.425 -10.8623 375.091 -12.4092 377.828 -12.433C380.338 -12.4568 382.492 -9.99364 382.338 -7.5186C382.183 -5.00786 379.767 -2.90167 377.304 -3.10396C374.793 -3.30624 372.628 -5.75752 373.008 -8.19687ZM342.987 219.983C342.939 222.375 340.833 224.493 338.441 224.552C335.942 224.612 333.658 222.339 333.705 219.84C333.753 217.448 335.859 215.33 338.251 215.271C340.75 215.211 343.022 217.484 342.987 219.983ZM77.4195 177.11C77.479 179.621 75.3371 181.87 72.8263 181.929C70.3156 181.989 68.0667 179.847 68.0072 177.336C67.9477 174.825 70.0895 172.576 72.6003 172.517C75.111 172.445 77.3481 174.587 77.4195 177.11ZM111.951 218.615C111.915 221.125 109.595 223.422 107.12 223.208C104.419 222.97 102.812 221.363 102.61 218.65C102.42 216.163 104.74 213.879 107.251 213.867C109.75 213.855 111.987 216.116 111.951 218.615ZM148.72 -84.9707C148.684 -87.4696 150.957 -89.7185 153.456 -89.659C155.835 -89.5995 157.942 -87.4696 157.965 -85.0898C158.001 -82.5909 155.728 -80.342 153.23 -80.4014C150.85 -80.4609 148.755 -82.5909 148.72 -84.9707ZM45.3986 97.3375C45.351 99.7412 43.1734 101.835 40.7817 101.788C38.378 101.74 36.2838 99.5627 36.3314 97.171C36.379 94.7673 38.5566 92.673 40.9483 92.7206C43.3519 92.7801 45.4462 94.9458 45.3986 97.3375ZM321.925 236.832C321.937 239.224 319.831 241.378 317.427 241.437C314.905 241.497 312.644 239.2 312.739 236.69C312.834 234.286 315.012 232.204 317.403 232.251C319.807 232.299 321.913 234.441 321.925 236.832ZM321.045 -69.8706C320.795 -72.2742 322.865 -74.4637 325.304 -74.5589C327.732 -74.6541 329.874 -72.6312 329.921 -70.1919C329.969 -67.7525 327.91 -65.575 325.471 -65.6821C322.865 -65.813 321.306 -67.2884 321.045 -69.8706ZM41.6861 40.2092C41.7693 37.8056 43.935 35.7232 46.3268 35.747C48.7304 35.7708 50.8484 37.9008 50.8722 40.3045C50.896 42.6962 48.8018 44.8619 46.3982 44.9333C43.8993 45.0047 41.6028 42.72 41.6861 40.2092ZM265.332 -93.8476C265.344 -96.2393 267.45 -98.3693 269.83 -98.405C272.21 -98.4526 274.376 -96.3821 274.471 -93.9904C274.566 -91.6224 272.531 -89.4092 270.14 -89.2664C267.653 -89.1117 265.32 -91.3368 265.332 -93.8476ZM65.4131 -15.5149C65.5916 -17.9185 67.8405 -19.9414 70.2085 -19.8105C72.6121 -19.6796 74.6708 -17.4664 74.5875 -15.0984C74.5161 -12.6948 72.3504 -10.6005 69.9587 -10.6243C67.4479 -10.66 65.2346 -13.0517 65.4131 -15.5149ZM59.5111 156.382C59.5349 158.821 57.2622 160.808 54.8466 160.665C52.4073 160.523 50.4677 158.309 50.6581 155.882C50.8484 153.419 53.0736 151.491 55.5011 151.812C58.107 152.157 59.4873 153.788 59.5111 156.382ZM363.882 202.372C363.834 204.776 361.657 206.87 359.265 206.822C356.861 206.775 354.767 204.597 354.815 202.206C354.862 199.802 357.04 197.708 359.432 197.755C361.835 197.803 363.929 199.98 363.882 202.372ZM207.716 -99.5711C207.907 -101.975 210.167 -103.986 212.535 -103.843C214.939 -103.7 216.986 -101.475 216.89 -99.107C216.795 -96.7034 214.618 -94.621 212.238 -94.6686C209.727 -94.7043 207.514 -97.0961 207.716 -99.5711ZM411.8 91.1737C411.574 93.8035 410.206 95.3384 407.528 95.4693C404.982 95.5883 402.971 93.5298 403.161 90.9834C403.352 88.3179 404.91 86.8305 407.552 86.8781C410.229 86.9257 411.586 88.544 411.8 91.1737ZM409.73 110.022C409.872 112.557 407.838 114.603 405.291 114.437C402.626 114.27 401.186 112.735 401.126 110.082C401.067 107.666 402.971 105.834 405.648 105.81C408.028 106 409.575 107.345 409.73 110.022ZM189.022 -100.773C189.022 -103.307 191.188 -105.188 193.735 -104.89C196.412 -104.569 197.757 -102.915 197.59 -100.285C197.411 -97.5958 195.686 -96.3702 193.104 -96.275C190.45 -96.632 189.022 -98.1194 189.022 -100.773ZM390.286 13.0314C390.298 10.6397 392.285 8.85475 394.915 8.91425C397.331 9.16414 398.818 10.5921 398.889 13.2575C398.949 15.804 396.855 17.7554 394.308 17.5175C391.643 17.2795 390.274 15.673 390.286 13.0314ZM43.3995 21.2181C43.4828 18.5289 45.1011 17.0653 47.7785 17.1248C50.5153 17.1843 51.7409 18.9097 51.9432 21.3728C51.6219 24.1691 50.1702 25.6922 47.4929 25.6089C44.8037 25.5137 43.3281 23.8954 43.3995 21.2181ZM129.122 239.569C129.11 242.258 127.563 243.805 124.886 243.805C122.196 243.805 120.661 242.246 120.649 239.569C120.637 236.868 122.244 235.5 124.886 235.274C127.539 235.488 129.134 236.868 129.122 239.569ZM203.766 265.379C203.504 268.032 202.1 269.531 199.422 269.615C196.876 269.698 194.901 267.604 195.127 265.057C195.365 262.404 196.947 260.94 199.589 261.023C202.266 261.119 203.587 262.773 203.766 265.379ZM223.316 267.402C223.292 270.103 221.674 271.447 219.032 271.649C216.379 271.4 214.808 269.996 214.844 267.294C214.88 264.605 216.45 263.082 219.128 263.106C221.817 263.142 223.34 264.712 223.316 267.402ZM109.155 -69.5255C109.202 -71.9649 111.082 -73.7974 113.534 -73.6308C116.056 -73.4761 117.449 -72.0482 117.556 -69.5255C117.663 -67.0743 115.818 -65.2299 113.367 -65.2299C110.916 -65.2299 109.119 -67.0624 109.155 -69.5255ZM413.026 72.2421C412.99 74.6933 411.134 76.4663 408.671 76.3949C406.231 76.3235 404.434 74.4077 404.613 71.9565C404.803 69.4339 406.255 68.0654 408.778 67.9821C411.241 67.9107 413.049 69.7908 413.026 72.2421ZM284.68 -92.2412C284.49 -94.6925 286.287 -96.6082 288.726 -96.6915C291.189 -96.7748 293.058 -95.0018 293.093 -92.5505C293.129 -90.0993 291.32 -88.2193 288.869 -88.2907C286.334 -88.362 284.883 -89.7186 284.68 -92.2412ZM43.7208 116.721C43.816 119.185 42.0549 121.065 39.6156 121.112C37.1525 121.16 35.2605 119.375 35.32 116.924C35.3795 114.401 36.7241 112.937 39.2467 112.711C41.6861 112.509 43.6257 114.294 43.7208 116.721ZM88.8308 -52.0217C88.926 -54.4492 90.8775 -56.2341 93.3169 -56.0199C95.8395 -55.7938 97.1841 -54.3183 97.2317 -51.7956C97.2793 -49.3444 95.3873 -47.5596 92.9242 -47.6191C90.4848 -47.6666 88.7237 -49.5586 88.8308 -52.0217ZM340.512 -68.407C340.69 -70.7154 342.285 -71.9053 344.605 -72.1076C346.997 -71.6317 348.567 -70.2752 348.365 -67.7645C348.175 -65.4798 346.604 -64.0162 344.284 -64.159C341.833 -64.3018 340.321 -65.9201 340.512 -68.407ZM57.6548 175.789C57.6667 178.252 56.1079 179.835 53.6448 179.764C51.1935 179.704 49.6824 178.062 49.8252 175.599C49.9561 173.302 51.5624 172.112 53.7519 171.851C56.0961 172.231 57.6429 173.481 57.6548 175.789ZM414.918 53.1556C415.037 55.3808 413.228 57.2252 410.622 57.3085C408.552 57.1538 407.017 55.9401 406.79 53.4413C406.576 51.0852 408.516 49.0504 410.872 49.1456C413.371 49.2527 414.775 50.6568 414.918 53.1556ZM301.137 254.503C301.101 257.168 299.554 258.644 296.889 258.596C294.39 258.548 292.939 257.097 292.879 254.598C292.808 251.909 294.355 250.552 296.949 250.255C299.566 250.505 301.173 251.813 301.137 254.503ZM406.172 148.064C405.755 150.622 404.446 152.193 401.924 152.098C399.425 152.003 397.949 150.468 398.021 147.957C398.092 145.458 399.651 143.994 402.15 144.054C404.696 144.113 405.862 145.791 406.172 148.064ZM130.312 -86.3034C130.193 -88.6714 132.192 -90.6348 134.548 -90.4444C137.035 -90.2421 138.463 -88.7904 138.427 -86.2916C138.379 -83.7808 136.809 -82.5314 134.369 -82.2458C131.93 -82.5433 130.431 -83.7808 130.312 -86.3034ZM374.936 -26.593C374.77 -28.9491 376.733 -30.9601 379.101 -30.8054C381.588 -30.6507 383.051 -29.2228 383.051 -26.724C383.063 -24.2013 381.493 -22.94 379.089 -22.6068C376.626 -22.8567 375.115 -24.0823 374.936 -26.593ZM357.325 -48.1902C357.682 -50.6652 359.241 -52.0098 361.728 -51.8075C364.239 -51.6052 365.405 -49.9632 365.512 -47.4167C365.072 -45.0726 363.739 -43.6447 361.193 -43.6804C358.825 -43.7161 356.98 -45.8222 357.325 -48.1902ZM92.4006 217.282C92.0436 219.709 90.7466 221.28 88.224 221.221C85.7251 221.161 84.2377 219.638 84.2734 217.127C84.321 214.628 85.856 213.141 88.3667 213.177C90.8894 213.212 92.1388 214.819 92.4006 217.282ZM303.886 -90.6586C303.993 -92.9551 305.492 -94.4068 307.813 -94.4187C310.323 -94.4306 311.549 -92.7885 311.93 -90.5515C311.525 -87.9931 310.216 -86.3867 307.717 -86.4819C305.266 -86.5771 303.767 -88.1716 303.886 -90.6586ZM42.1144 135.855C42.1263 138.33 40.5794 139.854 38.0925 139.854C35.7721 139.854 34.2847 138.378 34.1776 136.081C34.0586 133.583 35.6293 132.25 38.033 131.833C40.4723 132.107 42.1025 133.357 42.1144 135.855ZM75.4085 196.137C75.468 198.671 73.9211 199.968 71.5413 200.337C69.0305 200.159 67.4955 198.945 67.2694 196.423C67.0671 194.043 68.9829 192.02 71.3628 192.115C73.8854 192.222 75.3609 193.626 75.4085 196.137ZM45.6485 2.42915C45.6247 -0.0696869 47.124 -1.59276 49.6228 -1.62846C52.1574 -1.66415 53.4306 -0.0815277 53.7756 2.34592C53.4901 4.79716 52.2288 6.39163 49.7061 6.40353C47.2073 6.41544 45.6842 4.92799 45.6485 2.42915ZM408.278 129.085C408.016 131.691 406.695 133.285 404.006 133.238C401.341 133.19 399.877 131.619 399.948 128.966C400.008 126.479 401.483 125.039 403.97 124.979C406.66 124.92 408.004 126.479 408.278 129.085ZM383.884 184.773C383.563 187.355 382.195 188.914 379.517 188.795C376.852 188.688 375.436 187.07 375.555 184.428C375.674 181.941 377.185 180.537 379.672 180.537C382.373 180.549 383.67 182.143 383.884 184.773ZM170.341 -102.629C170.329 -105.128 171.84 -106.639 174.339 -106.675C176.873 -106.699 178.099 -105.069 178.492 -102.855C178.17 -100.226 176.909 -98.6311 174.375 -98.6311C171.876 -98.6311 170.353 -100.118 170.341 -102.629ZM165.617 261.94C165.319 264.367 164.082 265.866 161.559 265.997C159.191 266.116 157.228 264.117 157.418 261.761C157.62 259.274 159.072 257.846 161.571 257.882C164.082 257.918 165.331 259.488 165.617 261.94ZM184.62 263.963C184.608 266.676 183.001 267.985 180.36 268.187C177.742 267.877 176.266 266.485 176.29 263.784C176.314 261.357 178.277 259.584 180.717 259.786C183.216 259.988 184.632 261.44 184.62 263.963ZM67.9715 -33.9944C67.7692 -36.3505 69.7206 -38.3852 72.0767 -38.2662C74.5755 -38.1472 76.0391 -36.7431 76.0867 -34.2442C76.1343 -31.7216 74.5875 -30.4365 72.1957 -30.0677C69.7088 -30.27 68.1857 -31.4956 67.9715 -33.9944ZM242.188 268.484C242.331 271.209 240.689 272.471 238.428 272.923C235.584 272.72 233.942 271.447 233.93 268.758C233.918 266.093 235.43 264.581 238.095 264.581C240.582 264.569 242.045 265.997 242.188 268.484ZM261.12 270.186C260.727 272.578 259.418 274.148 256.908 274.065C254.433 273.97 252.945 272.423 253.017 269.936C253.088 267.461 254.647 265.985 257.134 266.045C259.644 266.116 260.882 267.735 261.12 270.186ZM146.292 260.5C146.138 262.63 145.007 264.129 142.806 264.284C140.426 264.45 138.867 263.058 138.784 260.702C138.701 258.334 140.164 256.847 142.544 256.835C144.745 256.835 145.995 258.239 146.292 260.5ZM109.809 238.153C109.44 240.569 108.155 242.068 105.823 242.02C103.515 241.961 102.039 240.45 102.099 238.129C102.146 235.821 103.669 234.357 105.99 234.393C108.334 234.429 109.5 236.035 109.809 238.153ZM340.869 238.843C340.904 241.176 339.381 242.449 337.085 242.841C334.812 242.603 333.36 241.39 333.087 239.081C332.837 237.023 334.955 234.821 337.037 234.976C339.346 235.155 340.833 236.535 340.869 238.843ZM361.24 221.542C360.848 223.696 359.562 225.088 357.23 225.171C355.112 225.242 353.089 223.005 353.422 220.935C353.779 218.662 355.231 217.341 357.563 217.353C359.539 217.365 361.347 219.483 361.24 221.542ZM392.809 -5.82892C392.856 -8.14928 394.403 -9.37485 396.664 -9.63663C398.984 -9.27965 400.484 -7.99458 400.424 -5.67422C400.365 -3.36577 398.842 -1.89026 396.533 -1.94977C394.225 -1.98546 392.761 -3.50858 392.809 -5.82892ZM416.06 33.5457C415.786 35.8423 414.513 37.3773 412.169 37.3535C409.825 37.3178 408.373 35.7946 408.421 33.4505C408.468 31.2729 409.908 29.8451 412.086 29.7856C414.43 29.7142 415.739 31.1897 416.06 33.5457ZM112.011 -88.5405C112.094 -90.6705 113.391 -91.8723 115.521 -91.8009C117.675 -91.7295 118.698 -90.373 118.853 -88.2549C118.543 -86.2201 117.425 -84.9351 115.271 -85.0303C113.141 -85.1136 111.939 -86.4105 112.011 -88.5405ZM90.9251 -70.8226C90.937 -73.1429 92.2935 -74.3447 94.5901 -74.2733C96.7439 -74.2019 97.7791 -72.8811 97.9219 -70.7749C97.7553 -68.6807 96.6962 -67.3836 94.5425 -67.336C92.2459 -67.2765 90.9132 -68.5141 90.9251 -70.8226ZM70.0181 -53.7829C69.9824 -55.9009 71.2081 -57.1741 73.3262 -57.2217C75.468 -57.2812 76.5508 -55.9723 76.8364 -53.9256C76.6222 -51.8433 75.587 -50.5105 73.457 -50.4748C71.339 -50.451 70.0538 -51.6767 70.0181 -53.7829ZM27.407 77.0374C27.3356 79.334 25.9791 80.5001 23.7182 80.4168C21.6121 80.3335 20.434 79.096 20.4221 76.9779C20.3983 74.6814 21.7073 73.5509 23.9443 73.3843C26.1933 73.5866 27.4784 74.7528 27.407 77.0374ZM410.908 14.614C410.872 12.496 412.24 11.4369 414.287 11.1751C416.322 11.5083 417.643 12.603 417.559 14.7211C417.488 16.6488 416.274 17.8744 414.347 17.9101C412.252 17.9577 410.943 16.7083 410.908 14.614ZM39.5561 154.775C39.5918 157.072 38.2591 158.19 36.0458 158.345C33.9754 158.119 32.6902 157.06 32.6783 154.93C32.6664 152.657 33.9278 151.384 36.2005 151.42C38.3067 151.443 39.5204 152.669 39.5561 154.775ZM404.28 167.805C404.244 170.09 402.852 171.22 400.627 171.363C398.354 171.137 397.045 169.923 397.093 167.65C397.14 165.377 398.497 164.092 400.758 164.14C403.042 164.187 404.315 165.544 404.28 167.805ZM47.481 -17.383C47.5524 -19.6558 48.897 -20.8695 51.146 -20.81C53.4187 -20.7505 54.6324 -19.394 54.5729 -17.157C54.5135 -14.8723 53.1331 -13.7895 50.9199 -13.6824C48.6709 -13.8966 47.4096 -15.1222 47.481 -17.383ZM30.7506 38.3887C30.7149 40.4949 29.5012 41.7205 27.3951 41.7324C25.1223 41.7562 23.861 40.4829 23.8729 38.2102C23.8848 36.0683 25.2294 35.0807 27.0262 34.7832C29.4536 34.9736 30.7863 36.0921 30.7506 38.3887ZM381.909 204.609C381.588 206.846 380.279 208.012 378.042 207.858C375.769 207.703 374.639 206.263 374.782 204.038C374.936 201.765 376.376 200.635 378.601 200.778C380.886 200.932 381.885 202.396 381.909 204.609ZM28.8111 58.0819C28.5612 60.319 27.3474 61.5446 25.0747 61.4375C22.9685 61.3423 21.7905 60.1048 21.7786 57.9986C21.7667 55.7259 23.028 54.4527 25.3008 54.4527C27.6092 54.4765 28.6921 55.833 28.8111 58.0819ZM25.3484 95.9811C25.0747 98.0515 23.98 99.3485 21.8262 99.289C19.6844 99.2414 18.4707 97.9682 18.5064 95.8382C18.542 93.6963 19.8271 92.4827 21.9571 92.5183C24.1108 92.5421 25.158 93.8868 25.3484 95.9811ZM319.569 256.478C319.414 258.703 318.272 260.036 315.999 260.036C313.738 260.048 312.441 258.775 312.43 256.514C312.418 254.253 313.691 252.968 315.952 252.944C318.224 252.944 319.391 254.241 319.569 256.478ZM126.873 258.477C126.897 260.595 125.623 261.868 123.505 261.88C121.542 261.892 120.328 260.678 120.185 258.751C120.031 256.573 121.435 255.562 123.172 255.086C125.469 255.312 126.849 256.347 126.873 258.477ZM210.227 -118.217C210.239 -120.502 211.548 -121.728 213.809 -121.668C215.927 -121.609 216.974 -120.311 217.152 -118.217C216.95 -116.016 215.796 -114.719 213.511 -114.79C211.405 -114.862 210.215 -116.111 210.227 -118.217ZM229.765 -116.123C229.73 -118.372 230.967 -119.705 233.24 -119.74C235.489 -119.776 236.798 -118.538 236.857 -116.278C236.917 -113.993 235.596 -112.839 233.49 -112.613C231.158 -112.732 229.801 -113.838 229.765 -116.123ZM248.792 -115.04C248.876 -117.146 250.125 -118.324 252.231 -118.336C254.528 -118.36 255.658 -117.051 255.825 -114.814C255.623 -112.565 254.445 -111.28 252.172 -111.351C249.875 -111.423 248.697 -112.791 248.792 -115.04ZM267.867 -113.553C267.914 -115.695 269.188 -116.908 271.318 -116.873C273.459 -116.837 274.673 -115.552 274.638 -113.422C274.614 -111.256 273.269 -110.221 271.175 -110.031C269.104 -110.304 267.819 -111.399 267.867 -113.553ZM151.159 -104.045C151.183 -106.306 152.492 -107.556 154.753 -107.544C157.025 -107.52 158.156 -106.175 158.287 -103.95C158.096 -101.701 156.918 -100.416 154.646 -100.452C152.385 -100.487 151.135 -101.796 151.159 -104.045ZM323.389 -89.1236C323.389 -91.2298 324.591 -92.4673 326.697 -92.5268C328.981 -92.5982 330.124 -91.2892 330.326 -89.076C330.135 -86.9817 329.088 -85.6966 326.958 -85.649C324.686 -85.6133 323.389 -86.8509 323.389 -89.1236ZM279.588 272.066C279.611 274.351 278.267 275.529 276.018 275.731C273.769 275.564 272.424 274.398 272.412 272.114C272.4 269.841 273.709 268.52 275.982 268.508C278.255 268.484 279.576 269.793 279.588 272.066ZM23.742 114.96C23.6825 116.888 22.3855 118.149 20.4459 118.09C18.5183 118.03 17.2688 116.733 17.3164 114.794C17.364 112.854 18.6968 111.831 20.6006 111.581C22.5164 111.938 23.8134 113.009 23.742 114.96ZM72.6122 215.319C72.5289 217.234 71.2675 218.484 69.328 218.448C67.2337 218.424 65.9605 217.091 66.0319 214.997C66.1033 213.07 67.4122 212.046 69.3518 211.784C71.3509 212.118 72.7074 213.2 72.6122 215.319ZM54.9894 194.899C54.6443 196.815 53.5734 198.112 51.6101 198.053C49.6824 197.993 48.421 196.696 48.4805 194.757C48.54 192.829 49.837 191.579 51.7766 191.627C53.7281 191.675 54.7514 193.007 54.9894 194.899ZM427.674 112.069C427.697 114.139 426.4 115.46 424.33 115.436C422.426 115.424 421.165 114.163 421.117 112.259C421.07 110.165 422.438 109.094 424.425 108.796C426.341 109.13 427.65 110.141 427.674 112.069ZM191.39 -119.49C191.355 -121.585 192.652 -122.894 194.746 -122.882C196.686 -122.882 197.721 -121.573 198.054 -119.657C197.792 -117.634 196.733 -116.266 194.603 -116.29C192.687 -116.313 191.426 -117.563 191.39 -119.49ZM377.744 -45.8579C377.84 -47.9284 379.232 -49.1897 381.338 -48.9993C383.242 -48.8327 384.241 -47.5 384.396 -45.5604C384.039 -43.7042 383.004 -42.3953 381.052 -42.4191C378.97 -42.4548 377.649 -43.7756 377.744 -45.8579ZM287.001 -111.375C286.989 -113.446 288.334 -114.778 290.404 -114.683C292.284 -114.6 293.533 -113.291 293.474 -111.363C293.414 -109.447 292.106 -108.424 290.225 -108.139C288.345 -108.436 287.001 -109.459 287.001 -111.375ZM220.282 286.476C220.21 288.38 218.866 289.403 216.986 289.629C215.106 289.284 213.809 288.249 213.809 286.321C213.809 284.405 215.058 283.108 216.962 283.085C219.032 283.061 220.353 284.405 220.282 286.476ZM360.193 -67.0267C360.36 -68.8949 361.704 -70.1205 363.632 -69.9658C365.524 -69.8111 366.547 -68.5022 366.726 -66.5983C366.345 -64.7301 365.286 -63.4093 363.358 -63.4926C361.3 -63.5759 360.003 -64.9443 360.193 -67.0267ZM201.35 284.441C201.267 286.333 199.994 287.583 198.09 287.559C196.019 287.523 194.734 286.202 194.805 284.132C194.877 282.228 196.186 281.205 198.102 280.931C200.077 281.252 201.445 282.347 201.35 284.441ZM298.293 273.351C298.091 275.243 297.068 276.588 295.164 276.683C293.081 276.778 291.737 275.469 291.737 273.399C291.737 271.495 293.034 270.245 294.949 270.21C296.877 270.174 297.936 271.471 298.293 273.351ZM401.971 186.701C401.686 188.581 400.662 189.926 398.747 189.937C396.676 189.961 395.343 188.617 395.427 186.546C395.498 184.654 396.807 183.417 398.735 183.464C400.651 183.512 401.674 184.821 401.971 186.701ZM25.3841 19.2904C25.3722 17.3628 26.6811 16.3275 28.5731 15.9705C30.5721 16.2204 31.9525 17.2795 31.9406 19.3737C31.9287 21.2895 30.6792 22.5508 28.7872 22.5984C26.7168 22.6579 25.396 21.3609 25.3841 19.2904ZM429.708 92.4827C429.685 94.5531 428.364 95.8739 426.293 95.7787C424.247 95.6835 422.985 94.2913 423.164 92.209C423.33 90.3289 424.663 89.3293 426.579 89.1628C428.423 89.5197 429.732 90.555 429.708 92.4827ZM359.027 240.438C358.932 242.223 357.73 243.198 355.921 243.341C353.958 243.103 352.792 241.985 352.899 240.033C352.994 238.248 354.196 237.118 356.005 237.177C357.968 237.225 359.122 238.486 359.027 240.438ZM239.071 287.963C238.928 289.772 237.667 290.653 235.989 290.795C233.942 290.486 232.812 289.356 232.966 287.392C233.109 285.595 234.359 284.513 236.143 284.62C238.095 284.715 239.225 286 239.071 287.963ZM182.264 283.073C182.204 284.846 180.99 286.059 179.206 286.095C177.254 286.131 175.957 284.905 175.933 282.954C175.91 280.99 177.218 279.943 179.122 279.705C181.086 280.015 182.335 281.109 182.264 283.073ZM431.017 73.4677C430.803 75.3596 429.78 76.6805 427.816 76.6924C425.865 76.7043 424.627 75.431 424.627 73.4796C424.627 71.6828 425.829 70.4691 427.602 70.3739C429.554 70.2668 430.672 71.5043 431.017 73.4677ZM90.1635 236.178C89.878 238.117 88.7951 239.403 86.8318 239.331C84.8922 239.26 83.6785 237.939 83.7737 235.987C83.8689 234.215 85.0706 233.025 86.8674 233.013C88.8427 232.989 89.9018 234.262 90.1635 236.178ZM426.162 131.238C425.841 133.238 424.699 134.356 422.735 134.178C420.927 134.011 419.88 132.75 419.999 130.977C420.13 129.037 421.403 127.907 423.378 128.085C425.175 128.264 426.043 129.513 426.162 131.238ZM49.9917 -36.398C50.1226 -38.3376 51.3958 -39.4681 53.3711 -39.2896C55.1798 -39.123 56.0484 -37.8736 56.1555 -36.1363C55.8342 -34.1372 54.692 -33.0187 52.7286 -33.1972C50.9318 -33.3519 49.8727 -34.6131 49.9917 -36.398ZM394.808 -25.3912C394.796 -27.3546 396.117 -28.3899 398.009 -28.6278C399.972 -28.3066 401.21 -27.2 401.126 -25.2366C401.055 -23.4636 399.853 -22.2617 398.056 -22.226C396.105 -22.2022 394.82 -23.4397 394.808 -25.3912ZM132.715 -105.783C132.584 -107.77 133.715 -109.031 135.726 -109.067C137.558 -109.09 138.593 -107.96 138.796 -106.068C138.677 -104.307 137.725 -103.117 135.904 -103.01C134.084 -102.903 132.834 -103.95 132.715 -105.783ZM172.863 -121.894C172.982 -123.619 174.041 -124.5 175.743 -124.476C177.635 -124.452 178.539 -123.358 178.611 -121.513C178.432 -119.633 177.385 -118.657 175.529 -118.753C173.625 -118.872 172.732 -120.05 172.863 -121.894ZM337.846 257.834C337.727 259.703 336.775 260.75 334.883 260.714C332.991 260.678 332.028 259.572 332.087 257.704C332.147 255.99 333.134 255.026 334.848 254.991C336.728 254.955 337.715 255.978 337.846 257.834ZM432.719 54.4765C432.648 56.3209 431.743 57.4156 429.839 57.4275C428.138 57.4513 427.079 56.547 426.972 54.8335C426.853 52.9891 427.745 51.8111 429.637 51.704C431.493 51.6088 432.54 52.5964 432.719 54.4765ZM379.184 223.089C379.101 225.04 378.197 226.135 376.305 226.159C374.603 226.182 373.544 225.278 373.437 223.565C373.318 221.72 374.21 220.554 376.102 220.435C377.982 220.328 378.982 221.339 379.184 223.089ZM27.8353 0.418182C27.8115 -1.4738 28.8587 -2.42572 30.715 -2.53281C32.5832 -2.40192 33.6064 -1.41426 33.5469 0.46582C33.4874 2.3578 32.357 3.29784 30.5007 3.21454C28.7991 3.14314 27.8591 2.11977 27.8353 0.418182ZM163.023 280.871C162.904 282.74 161.952 283.787 160.06 283.751C158.168 283.715 157.204 282.609 157.263 280.741C157.323 279.027 158.311 278.063 160.024 278.028C161.904 277.992 162.88 279.015 163.023 280.871ZM412.883 -4.4843C412.954 -6.174 413.99 -7.14973 415.691 -7.09024C417.405 -7.03075 418.226 -5.94791 418.345 -4.25821C418.083 -2.62802 417.202 -1.60463 415.477 -1.67603C413.799 -1.75932 412.823 -2.79462 412.883 -4.4843ZM399.889 205.549C399.687 207.12 398.866 208.191 397.319 208.203C395.772 208.203 394.772 207.179 394.784 205.621C394.796 204.216 395.76 203.265 397.128 203.169C398.687 203.05 399.532 204.098 399.889 205.549ZM29.6916 -18.6206C29.7273 -20.1913 30.7387 -21.0956 32.2975 -20.9647C33.6897 -20.8457 34.5108 -19.8581 34.4037 -18.454C34.2966 -17.0618 33.3685 -16.324 32.012 -16.2289C30.5603 -16.4192 29.6678 -17.2165 29.6916 -18.6206ZM433.814 35.6638C433.54 37.1631 432.707 38.1864 431.172 38.1745C429.649 38.1626 428.614 37.1868 428.602 35.6756C428.578 33.9978 429.661 32.9388 431.339 33.0221C432.85 33.0935 433.659 34.1645 433.814 35.6638ZM424.437 150.253C424.378 151.967 423.33 152.895 421.629 152.871C419.904 152.848 419.047 151.812 418.892 150.146C419.023 148.457 419.856 147.398 421.581 147.362C423.461 147.326 424.508 148.385 424.437 150.253ZM154.348 -123.227C154.479 -124.619 155.49 -125.488 156.906 -125.381C158.311 -125.273 159.048 -124.286 159.191 -123.013C158.965 -121.49 158.144 -120.55 156.728 -120.573C155.157 -120.609 154.193 -121.644 154.348 -123.227ZM106.608 257.204C106.358 258.846 105.478 259.929 103.764 259.845C102.087 259.762 101.099 258.679 101.206 256.99C101.301 255.478 102.277 254.526 103.824 254.503C105.537 254.491 106.394 255.55 106.608 257.204ZM93.2336 -89.5876C93.1265 -91.1583 94.1379 -92.0389 95.6848 -92.3483C97.1841 -92.1579 98.2669 -91.3369 98.2669 -89.7781C98.2669 -88.2312 97.2436 -87.2316 95.6848 -87.2435C94.2807 -87.2554 93.3169 -88.2192 93.2336 -89.5876ZM422.105 169.114C421.926 170.53 421.129 171.482 419.725 171.494C418.142 171.505 417.167 170.47 417.262 168.9C417.357 167.519 418.345 166.603 419.773 166.686C421.165 166.758 421.95 167.686 422.105 169.114ZM343.022 -87.5053C342.915 -89.3734 343.891 -90.5039 345.807 -90.5158C347.532 -90.5277 348.508 -89.54 348.568 -87.8147C348.639 -86.0298 347.532 -85.2444 346.259 -84.9351C344.248 -84.9708 343.13 -85.768 343.022 -87.5053ZM21.2193 133.868C21.2193 135.605 20.1603 136.45 18.4825 136.617C16.8047 136.427 15.7576 135.558 15.7814 133.833C15.7933 132.119 16.8048 131.12 18.5183 131.131C20.2318 131.143 21.2193 132.155 21.2193 133.868ZM37.5332 173.85C37.4975 175.777 36.3552 176.729 34.487 176.598C32.7616 176.467 31.881 175.349 31.9881 173.647C32.0952 171.91 33.1662 171.089 34.8916 171.018C36.5694 171.208 37.5689 172.112 37.5332 173.85ZM316.535 275.386C316.356 276.885 315.547 277.968 313.988 277.992C312.441 278.016 311.43 276.98 311.43 275.422C311.43 274.017 312.394 273.054 313.75 272.947C315.309 272.839 316.202 273.851 316.535 275.386ZM143.056 279.586C142.758 281.133 141.878 282.168 140.319 282.049C138.796 281.93 137.808 280.86 137.963 279.289C138.094 277.932 139.058 276.98 140.474 277.004C142.032 277.04 142.853 278.087 143.056 279.586ZM306.492 -110.078C306.48 -111.792 307.479 -112.767 309.193 -112.815C310.99 -112.863 311.68 -111.673 312.001 -110.376C311.811 -108.424 310.954 -107.365 309.217 -107.365C307.503 -107.377 306.492 -108.365 306.492 -110.078ZM72.9216 -72.5122C72.7074 -74.1067 73.695 -75.1658 75.1824 -75.3443C76.7412 -75.5347 77.6456 -74.4875 78.0026 -72.9525C77.8598 -71.4413 77.0506 -70.3941 75.4918 -70.3108C74.0877 -70.2275 73.1 -71.1438 72.9216 -72.5122ZM257.753 289.867C257.669 291.593 256.598 292.414 254.909 292.509C253.243 292.318 252.219 291.45 252.243 289.724C252.267 287.832 253.385 286.845 255.242 286.964C256.931 287.071 257.836 288.166 257.753 289.867ZM277.005 291.045C276.994 292.616 275.982 293.532 274.423 293.413C273.043 293.306 272.198 292.33 272.293 290.914C272.389 289.51 273.305 288.773 274.709 288.665C276.113 288.844 277.017 289.641 277.005 291.045ZM397.878 -44.1444C397.783 -45.6199 398.509 -46.5005 400.044 -46.5005C401.376 -46.5005 402.126 -45.7509 402.15 -44.4182C402.174 -43.0854 401.471 -42.3476 400.151 -42.2048C398.83 -42.2048 397.961 -42.7998 397.878 -44.1444ZM194.996 -139.505C195.139 -140.469 195.9 -141.123 196.912 -140.98C197.876 -140.85 198.447 -140.148 198.518 -139.172C198.292 -138.148 197.709 -137.434 196.709 -137.494C195.555 -137.553 194.817 -138.327 194.996 -139.505ZM70.1371 234.869C69.9705 236.309 69.209 237.011 67.8882 236.951C66.3413 236.892 65.6868 235.94 65.8534 234.488C65.9962 233.132 66.9362 232.572 68.2213 232.679C69.566 232.798 70.1133 233.691 70.1371 234.869ZM114.616 -107.306C114.593 -108.829 115.438 -109.602 116.925 -109.519C118.27 -109.447 118.936 -108.626 118.9 -107.294C118.865 -105.949 118.079 -105.295 116.77 -105.223C115.426 -105.295 114.64 -105.961 114.616 -107.306ZM232.597 -135.792C232.562 -137.113 233.276 -137.863 234.597 -137.922C235.953 -137.97 236.572 -137.173 236.762 -136.09C236.691 -134.614 236.048 -133.829 234.716 -133.793C233.407 -133.758 232.633 -134.46 232.597 -135.792ZM376.911 242.199C376.602 243.424 375.995 244.234 374.853 244.162C373.746 244.091 372.973 243.329 373.044 242.187C373.116 241.08 373.877 240.319 375.02 240.366C376.162 240.426 376.673 241.295 376.911 242.199ZM362.775 -85.7918C362.799 -86.946 363.572 -87.5529 364.679 -87.7313C365.845 -87.66 366.631 -87.0531 366.75 -85.9346C366.88 -84.6375 366.143 -83.7689 364.834 -83.7094C363.537 -83.6737 362.751 -84.4829 362.775 -85.7918ZM213.701 -137.292C213.725 -138.446 214.499 -139.053 215.605 -139.231C216.771 -139.16 217.557 -138.553 217.676 -137.435C217.807 -136.137 217.069 -135.269 215.76 -135.209C214.451 -135.174 213.678 -135.983 213.701 -137.292ZM34.7845 192.603C34.606 194.043 33.9277 194.852 32.6069 194.792C31.4646 194.733 30.7387 193.995 30.7387 192.841C30.7387 191.532 31.536 190.77 32.8449 190.806C34.0348 190.842 34.5227 191.71 34.7845 192.603ZM326.721 -108.281C326.816 -109.626 327.672 -110.257 328.993 -110.197C330.362 -110.138 330.933 -109.281 331.028 -108.222C330.921 -106.675 330.231 -105.913 328.886 -105.913C327.351 -105.925 326.625 -106.806 326.721 -108.281ZM19.2798 153.597C19.1608 154.918 18.4468 155.644 17.126 155.62C15.6029 155.596 14.9127 154.68 15.0317 153.24C15.1507 151.919 16.0313 151.301 17.3283 151.396C18.6611 151.479 19.256 152.3 19.2798 153.597ZM11.4382 17.9458C11.4144 19.1 10.629 19.8497 9.4748 19.7069C8.52286 19.5998 7.84463 18.862 7.93982 17.8268C8.03501 16.8272 8.77276 16.3156 9.6414 16.1609C10.7361 16.3751 11.4501 16.9463 11.4382 17.9458ZM355.814 259.822C355.885 260.964 355.076 261.583 353.982 261.845C352.875 261.702 352.09 261.083 352.03 259.976C351.971 258.834 352.744 258.072 353.851 258.013C354.993 257.93 355.755 258.715 355.814 259.822ZM86.796 255.074C86.8555 256.216 86.0821 256.978 84.9755 257.037C83.8332 257.097 83.0835 256.323 83.0002 255.217C82.9169 254.039 83.8213 253.527 84.6899 253.17C85.9512 253.348 86.7484 253.955 86.796 255.074ZM8.36817 55.9757C8.33248 57.2966 7.57089 58.0224 6.25007 57.9867C4.92926 57.9629 4.21537 57.1895 4.23917 55.8687C4.25107 54.5122 5.1078 53.941 6.15493 53.8102C7.65424 53.9529 8.40387 54.643 8.36817 55.9757ZM10.3316 36.9965C10.3435 38.1864 9.49863 38.71 8.61808 38.9956C7.16638 38.8766 6.33339 38.2221 6.34529 36.9013C6.35719 35.759 7.07115 35.0093 8.21348 34.9617C9.5224 34.9141 10.3078 35.6876 10.3316 36.9965ZM420.046 188.01C420.129 189.021 419.416 189.604 418.404 189.854C417.416 189.818 416.703 189.247 416.56 188.283C416.405 187.272 417.036 186.51 418.011 186.344C419.201 186.142 419.951 186.879 420.046 188.01ZM4.86979 94.7078C4.7865 95.8264 4.01302 96.5641 2.835 96.5046C1.68077 96.4451 1.07392 95.6717 0.907327 94.5412C1.07392 93.3989 1.68077 92.6016 2.835 92.5778C4.14391 92.5659 4.95309 93.3989 4.86979 94.7078ZM7.01164 74.8361C7.03544 76.1569 6.33338 76.9303 5.00067 76.9541C3.67985 76.9898 2.91834 76.2759 2.88264 74.955C2.84694 73.6342 3.5847 72.9322 4.89362 72.8013C6.19063 72.8727 6.97595 73.5034 7.01164 74.8361ZM52.2764 -55.4011C52.3716 -56.7457 53.2164 -57.3526 54.5135 -57.3645C55.8581 -57.2336 56.5839 -56.5078 56.5482 -55.175C56.5125 -53.64 55.5844 -52.9499 54.1327 -53.0808C52.7881 -53.1998 52.1812 -54.1041 52.2764 -55.4011ZM123.541 277.54C123.243 278.753 122.613 279.551 121.435 279.467C120.138 279.372 119.352 278.515 119.567 277.195C119.745 276.1 120.566 275.386 121.732 275.541C122.863 275.707 123.398 276.54 123.541 277.54ZM435.17 16.506C435.218 17.8268 434.397 18.6478 433.076 18.5764C431.946 18.5169 431.232 17.7435 431.243 16.5655C431.255 15.3636 432.124 14.8758 433.004 14.5902C434.313 14.7568 435.123 15.3637 435.17 16.506ZM270.627 -132.71C270.758 -133.817 271.532 -134.531 272.698 -134.448C274.007 -134.341 274.745 -133.496 274.59 -132.199C274.459 -131.092 273.674 -130.473 272.484 -130.426C271.246 -130.676 270.473 -131.402 270.627 -132.71ZM415.739 -23.2732C415.667 -24.4155 416.441 -25.177 417.547 -25.2484C418.69 -25.3198 419.308 -24.5107 419.582 -23.4279C419.439 -22.3093 418.833 -21.524 417.714 -21.4645C416.572 -21.405 415.798 -22.1785 415.739 -23.2732ZM251.577 -133.651C251.493 -134.959 252.148 -135.781 253.481 -135.876C254.778 -135.959 255.599 -135.305 255.706 -133.972C255.813 -132.639 255.051 -131.961 254.052 -131.723C252.505 -131.735 251.66 -132.318 251.577 -133.651ZM380.184 -64.8253C380.255 -66.3484 381.243 -67.0267 382.683 -66.8958C384.003 -66.7649 384.61 -65.8844 384.61 -64.5755C384.479 -63.2547 383.742 -62.5049 382.433 -62.5049C380.933 -62.493 380.124 -63.3498 380.184 -64.8253ZM447.153 94.7316C447.057 95.6835 446.332 96.3737 445.308 96.2904C444.309 96.219 443.785 95.4931 443.619 94.6007C443.785 93.5179 444.368 92.792 445.356 92.792C446.51 92.792 447.26 93.5774 447.153 94.7316ZM52.4906 213.76C52.5263 215.104 51.7885 215.806 50.6462 215.973C49.1826 215.973 48.3139 215.378 48.2187 214.033C48.1235 212.558 48.8494 211.677 50.3844 211.677C51.7171 211.677 52.4549 212.415 52.4906 213.76ZM295.366 292.913C295.497 293.925 294.831 294.686 293.867 294.817C292.689 294.984 291.915 294.246 291.868 293.104C291.82 292.092 292.546 291.521 293.557 291.307C294.545 291.378 295.247 291.95 295.366 292.913ZM197.78 303.278C197.804 304.277 197.078 304.848 196.091 305.039C195.079 304.944 194.389 304.372 194.282 303.397C194.175 302.373 194.865 301.636 195.805 301.517C196.971 301.386 197.768 302.123 197.78 303.278ZM290.702 -130.557C290.749 -131.485 291.273 -131.973 292.225 -131.997C293.331 -131.985 293.867 -131.39 293.819 -130.307C293.783 -129.367 293.236 -128.879 292.296 -128.867C291.189 -128.855 290.654 -129.474 290.702 -130.557ZM3.13248 113.485C3.04918 114.591 2.53754 115.079 1.5975 115.079C0.478974 115.091 -0.044624 114.472 0.00297293 113.39C0.0386707 112.45 0.586071 111.962 1.52611 111.95C2.63274 111.95 3.13248 112.569 3.13248 113.485ZM397.497 224.612C397.485 225.718 396.89 226.254 395.807 226.206C394.867 226.171 394.38 225.623 394.38 224.683C394.368 223.565 394.986 223.029 396.069 223.089C396.997 223.136 397.485 223.672 397.497 224.612ZM335.157 276.957C335.121 277.897 334.574 278.384 333.634 278.396C332.515 278.408 331.98 277.789 332.039 276.707C332.087 275.779 332.611 275.291 333.563 275.267C334.669 275.279 335.205 275.874 335.157 276.957ZM448.997 75.4549C449.045 76.5377 448.497 77.1326 447.391 77.1326C446.451 77.1088 445.915 76.6209 445.88 75.6928C445.832 74.61 446.379 74.0031 447.486 74.015C448.426 74.015 448.961 74.5267 448.997 75.4549ZM32.5236 -37.7189C32.5593 -38.6589 33.1067 -39.1467 34.0348 -39.1586C35.1534 -39.1705 35.6888 -38.5637 35.6412 -37.469C35.6055 -36.5408 35.0701 -36.0529 34.1301 -36.0291C33.0234 -36.041 32.476 -36.6241 32.5236 -37.7189ZM136.202 -124.964C136.214 -126.071 136.809 -126.606 137.891 -126.559C138.831 -126.511 139.319 -125.976 139.319 -125.036C139.331 -123.917 138.712 -123.393 137.63 -123.441C136.701 -123.489 136.214 -124.024 136.202 -124.964ZM178.623 301.79C178.67 302.873 178.123 303.468 177.016 303.468C176.076 303.444 175.541 302.956 175.505 302.028C175.457 300.945 176.005 300.339 177.111 300.351C178.051 300.351 178.587 300.85 178.623 301.79ZM445.618 113.473C445.546 114.58 445.023 115.067 444.095 115.079C442.976 115.091 442.441 114.484 442.488 113.39C442.524 112.45 443.071 111.962 443.999 111.95C445.118 111.95 445.63 112.557 445.618 113.473ZM217.247 305.241C217.259 306.36 216.652 306.895 215.558 306.847C214.618 306.812 214.13 306.264 214.118 305.336C214.106 304.218 214.713 303.718 215.629 303.718C216.76 303.801 217.236 304.313 217.247 305.241ZM346.449 -106.734C346.473 -107.675 347.092 -108.02 347.734 -108.127C348.841 -107.96 349.293 -107.413 349.198 -106.52C349.091 -105.592 348.425 -105.211 347.568 -105.354C346.842 -105.461 346.426 -105.973 346.449 -106.734ZM443.464 132.44C443.309 133.606 442.69 134.011 441.798 133.904C440.834 133.785 440.489 133.083 440.632 132.202C440.751 131.441 441.298 131.072 442.072 131.096C443.071 131.119 443.393 131.75 443.464 132.44ZM236.072 306.586C236.096 307.538 235.572 308.014 234.668 308.061C233.692 307.99 233.192 307.466 233.264 306.526C233.323 305.562 233.954 305.146 234.87 305.229C235.644 305.312 236.048 305.824 236.072 306.586Z" fill="white"/>
</svg>
