<svg width="200" height="175" viewBox="0 0 200 175" fill="none" xmlns="http://www.w3.org/2000/svg">
<path d="M115.186 15.983C121.54 12.3141 129.666 14.4914 133.335 20.8461C137.004 27.2009 134.827 35.3266 128.472 38.9956L24.7925 98.8549C18.4377 102.524 10.3119 100.347 6.64303 93.9918C2.97412 87.637 5.15142 79.5113 11.5061 75.8424L115.186 15.983Z" fill="white" fill-opacity="0.2"/>
<path d="M140.43 55.2486C146.784 51.5797 154.91 53.757 158.579 60.1117C162.248 66.4665 160.071 74.5923 153.716 78.2612L49.3188 138.535C42.964 142.204 34.8383 140.027 31.1693 133.672C27.5004 127.317 29.6777 119.191 36.0325 115.522L140.43 55.2486Z" fill="white" fill-opacity="0.2"/>
<path d="M175.206 33.5338C181.561 29.8649 189.687 32.0422 193.356 38.3969C197.024 44.7516 194.847 52.8774 188.492 56.5463L181.578 60.5385C175.223 64.2074 167.097 62.0301 163.428 55.6754C159.759 49.3206 161.937 41.1948 168.292 37.5259L175.206 33.5338Z" fill="white" fill-opacity="0.2"/>
<path d="M152.388 99.6822C158.743 96.0133 166.868 98.1906 170.537 104.545C174.206 110.9 172.029 119.026 165.674 122.695L87.1075 168.055C80.7528 171.724 72.627 169.547 68.9581 163.192C65.2892 156.837 67.4665 148.712 73.8212 145.043L152.388 99.6822Z" fill="white" fill-opacity="0.2"/>
<path fill-rule="evenodd" clip-rule="evenodd" d="M95.6617 13.3233C97.1293 13.3233 98.319 12.1337 98.319 10.6661C98.319 9.19852 97.1293 8.00882 95.6617 8.00882C94.1941 8.00882 93.0044 9.19852 93.0044 10.6661C93.0044 12.1337 94.1941 13.3233 95.6617 13.3233ZM95.6617 15.9806C98.5968 15.9806 100.976 13.6012 100.976 10.6661C100.976 7.73096 98.5968 5.35156 95.6617 5.35156C92.7266 5.35156 90.3472 7.73096 90.3472 10.6661C90.3472 13.6012 92.7266 15.9806 95.6617 15.9806Z" fill="white" fill-opacity="0.2"/>
<path fill-rule="evenodd" clip-rule="evenodd" d="M7.97147 59.8257C8.70525 59.8257 9.3001 59.2309 9.3001 58.4971C9.3001 57.7633 8.70525 57.1685 7.97147 57.1685C7.23769 57.1685 6.64284 57.7633 6.64284 58.4971C6.64284 59.2309 7.23769 59.8257 7.97147 59.8257ZM7.97147 61.1544C9.43904 61.1544 10.6287 59.9647 10.6287 58.4971C10.6287 57.0295 9.43904 55.8398 7.97147 55.8398C6.50391 55.8398 5.31421 57.0295 5.31421 58.4971C5.31421 59.9647 6.50391 61.1544 7.97147 61.1544Z" fill="white" fill-opacity="0.2"/>
<path fill-rule="evenodd" clip-rule="evenodd" d="M179.365 118.283C180.099 118.283 180.693 117.688 180.693 116.954C180.693 116.22 180.099 115.626 179.365 115.626C178.631 115.626 178.036 116.22 178.036 116.954C178.036 117.688 178.631 118.283 179.365 118.283ZM179.365 119.611C180.832 119.611 182.022 118.422 182.022 116.954C182.022 115.487 180.832 114.297 179.365 114.297C177.897 114.297 176.708 115.487 176.708 116.954C176.708 118.422 177.897 119.611 179.365 119.611Z" fill="white" fill-opacity="0.2"/>
<path fill-rule="evenodd" clip-rule="evenodd" d="M144.821 172.759C145.555 172.759 146.149 172.164 146.149 171.431C146.149 170.697 145.555 170.102 144.821 170.102C144.087 170.102 143.492 170.697 143.492 171.431C143.492 172.164 144.087 172.759 144.821 172.759ZM144.821 174.088C146.288 174.088 147.478 172.898 147.478 171.431C147.478 169.963 146.288 168.773 144.821 168.773C143.353 168.773 142.164 169.963 142.164 171.431C142.164 172.898 143.353 174.088 144.821 174.088Z" fill="white" fill-opacity="0.2"/>
<path fill-rule="evenodd" clip-rule="evenodd" d="M43.8436 168.773C45.3111 168.773 46.5008 167.583 46.5008 166.115C46.5008 164.648 45.3111 163.458 43.8436 163.458C42.376 163.458 41.1863 164.648 41.1863 166.115C41.1863 167.583 42.376 168.773 43.8436 168.773ZM43.8436 171.43C46.7787 171.43 49.1581 169.05 49.1581 166.115C49.1581 163.18 46.7787 160.801 43.8436 160.801C40.9084 160.801 38.5291 163.18 38.5291 166.115C38.5291 169.05 40.9084 171.43 43.8436 171.43Z" fill="white" fill-opacity="0.2"/>
<path fill-rule="evenodd" clip-rule="evenodd" d="M165.395 0.16386C165.615 0.16386 165.794 0.342258 165.794 0.562324V6.11736C165.794 6.33743 165.615 6.51583 165.395 6.51583C165.175 6.51583 164.997 6.33743 164.997 6.11736V0.562324C164.997 0.342259 165.175 0.16386 165.395 0.16386Z" fill="white" fill-opacity="0.2"/>
<path fill-rule="evenodd" clip-rule="evenodd" d="M16.6279 113.137C16.848 113.137 17.0264 113.315 17.0264 113.535V119.09C17.0264 119.31 16.848 119.488 16.6279 119.488C16.4078 119.488 16.2294 119.31 16.2294 119.09V113.535C16.2294 113.315 16.4078 113.137 16.6279 113.137Z" fill="white" fill-opacity="0.2"/>
<path fill-rule="evenodd" clip-rule="evenodd" d="M162.777 145.023C162.997 145.023 163.176 145.202 163.176 145.422V150.977C163.176 151.197 162.997 151.375 162.777 151.375C162.557 151.375 162.379 151.197 162.379 150.977V145.422C162.379 145.202 162.557 145.023 162.777 145.023Z" fill="white" fill-opacity="0.2"/>
<path fill-rule="evenodd" clip-rule="evenodd" d="M162.219 3.33984C162.219 3.11978 162.398 2.94138 162.618 2.94138L168.173 2.94138C168.393 2.94138 168.571 3.11978 168.571 3.33984C168.571 3.55991 168.393 3.73831 168.173 3.73831L162.618 3.73831C162.398 3.73831 162.219 3.55991 162.219 3.33984Z" fill="white" fill-opacity="0.2"/>
<path fill-rule="evenodd" clip-rule="evenodd" d="M13.4519 116.312C13.4519 116.092 13.6303 115.914 13.8504 115.914L19.4054 115.914C19.6255 115.914 19.8039 116.092 19.8039 116.312C19.8039 116.533 19.6255 116.711 19.4054 116.711L13.8504 116.711C13.6303 116.711 13.4519 116.533 13.4519 116.312Z" fill="white" fill-opacity="0.2"/>
<path fill-rule="evenodd" clip-rule="evenodd" d="M159.601 148.199C159.601 147.979 159.779 147.801 160 147.801L165.555 147.801C165.775 147.801 165.953 147.979 165.953 148.199C165.953 148.419 165.775 148.598 165.555 148.598L160 148.598C159.779 148.598 159.601 148.419 159.601 148.199Z" fill="white" fill-opacity="0.2"/>
<path d="M148.806 85.7382C148.806 113.989 125.905 136.89 97.654 136.89C69.4034 136.89 46.5017 113.989 46.5017 85.7382C46.5017 57.4876 69.4034 34.5859 97.654 34.5859C125.905 34.5859 148.806 57.4876 148.806 85.7382Z" fill="#D94141"/>
<path fill-rule="evenodd" clip-rule="evenodd" d="M97.654 130.247C122.236 130.247 142.163 110.32 142.163 85.7382C142.163 61.1565 122.236 41.2291 97.654 41.2291C73.0723 41.2291 53.1449 61.1565 53.1449 85.7382C53.1449 110.32 73.0723 130.247 97.654 130.247ZM97.654 136.89C125.905 136.89 148.806 113.989 148.806 85.7382C148.806 57.4876 125.905 34.5859 97.654 34.5859C69.4034 34.5859 46.5017 57.4876 46.5017 85.7382C46.5017 113.989 69.4034 136.89 97.654 136.89Z" fill="#E76464"/>
<path fill-rule="evenodd" clip-rule="evenodd" d="M118.121 67.8787C119.292 69.0503 119.292 70.9497 118.121 72.1213L86.1208 104.121C84.9493 105.293 83.0498 105.293 81.8782 104.121C80.7066 102.95 80.7066 101.05 81.8782 99.8787L113.878 67.8787C115.05 66.7071 116.949 66.7071 118.121 67.8787Z" fill="white"/>
<path fill-rule="evenodd" clip-rule="evenodd" d="M81.8782 67.8787C83.0498 66.7071 84.9493 66.7071 86.1208 67.8787L118.121 99.8787C119.292 101.05 119.292 102.95 118.121 104.121C116.949 105.293 115.05 105.293 113.878 104.121L81.8782 72.1213C80.7066 70.9497 80.7066 69.0503 81.8782 67.8787Z" fill="white"/>
</svg>
