<svg width="361" height="168" viewBox="0 0 361 168" fill="none" xmlns="http://www.w3.org/2000/svg">
<g filter="url(#filter0_d_13540_35483)">
<path d="M224.547 63.8114C218.176 82.4856 197.652 92.4096 178.695 85.9587C159.739 79.5077 149.551 59.1324 155.923 40.4582C162.294 21.7839 182.818 11.86 201.775 18.3109C220.731 24.7618 230.918 45.1371 224.547 63.8114Z" fill="url(#paint0_linear_13540_35483)" stroke="url(#paint1_linear_13540_35483)"/>
<path d="M224.724 61.6098C218.743 79.1414 198.659 88.2288 179.821 81.818C160.982 75.4071 150.633 55.9632 156.614 38.4316C162.595 20.9 182.679 11.8125 201.517 18.2234C220.356 24.6342 230.706 44.0781 224.724 61.6098Z" fill="url(#paint2_linear_13540_35483)" stroke="url(#paint3_linear_13540_35483)"/>
<g filter="url(#filter1_dd_13540_35483)">
<path fill-rule="evenodd" clip-rule="evenodd" d="M169.453 38.449L183.399 35.4229C189.217 33.9491 201.644 34.6373 204.419 47.3631C207.723 62.5128 195.595 65.1442 190.138 66.3284L176.192 69.3545L176.06 68.7485L179.091 68.0906L172.617 38.3972L169.585 39.055L169.453 38.449ZM181.109 36.5577L187.581 66.2451L187.581 66.245C193.643 64.9296 197.886 64.0088 194.715 49.4681C191.413 34.3214 185.958 35.5053 181.109 36.5577Z" fill="black"/>
<ellipse rx="4.34391" ry="4.34097" transform="matrix(0.97724 -0.212136 0.212957 0.977062 211.783 57.8136)" fill="black"/>
</g>
</g>
<g filter="url(#filter2_d_13540_35483)">
<path d="M113.1 112.203C112.696 130.05 99.5894 142.951 83.9402 141.156C68.291 139.362 55.8338 123.53 56.2374 105.683C56.641 87.8357 69.7479 74.9356 85.3971 76.7301C101.046 78.5245 113.503 94.3561 113.1 112.203Z" fill="url(#paint4_linear_13540_35483)" stroke="url(#paint5_linear_13540_35483)"/>
<path d="M113.758 108.25C115.666 125.886 105.136 140.225 90.4344 140.463C75.7328 140.701 62.1432 126.753 60.2355 109.117C58.3278 91.4809 68.8575 77.1423 83.559 76.9042C98.2606 76.6661 111.85 90.6141 113.758 108.25Z" fill="url(#paint6_linear_13540_35483)" stroke="url(#paint7_linear_13540_35483)"/>
<g filter="url(#filter3_dd_13540_35483)">
<path fill-rule="evenodd" clip-rule="evenodd" d="M82.5882 105.657L87.3781 98.8214L93.4053 104.604L96.1904 100.624L86.6594 91.478L79.0824 102.296L82.5882 105.657ZM74.3262 109.084L77.1125 105.106L80.6172 108.469L77.831 112.447L74.3262 109.084ZM89.1194 116.623L83.0947 110.843L80.3025 114.818L80.3074 114.823L89.8379 123.964L97.4146 113.143L97.4166 113.14L93.911 109.782L89.1194 116.623ZM95.875 106.976L98.6613 102.998L102.166 106.36L99.3798 110.339L95.875 106.976ZM87.8845 103.994L91.4398 107.407L91.442 107.407L91.4401 107.41L88.6141 111.448L85.0593 108.04L85.0541 108.032L85.058 108.027L85.5528 107.321L85.7945 106.978L87.8845 103.994Z" fill="white"/>
</g>
</g>
<g filter="url(#filter4_d_13540_35483)">
<path d="M337.781 112.264C332.713 131.523 315.141 142.129 298.614 136.117C282.087 130.105 272.68 109.685 277.749 90.4261C282.817 71.1677 300.388 60.5613 316.915 66.5735C333.443 72.5858 342.849 93.0058 337.781 112.264Z" fill="url(#paint8_linear_13540_35483)" stroke="url(#paint9_linear_13540_35483)"/>
<path d="M339.521 108.145C337.015 127.771 321.87 140.611 305.838 137.05C289.807 133.49 278.684 114.817 281.189 95.1907C283.695 75.5647 298.84 62.7248 314.872 66.2849C330.903 69.8451 342.026 88.5186 339.521 108.145Z" fill="url(#paint10_linear_13540_35483)" stroke="url(#paint11_linear_13540_35483)"/>
<g filter="url(#filter5_dd_13540_35483)">
<path fill-rule="evenodd" clip-rule="evenodd" d="M323.038 97.1711C323.427 93.0105 320.522 90.8968 316.612 89.5645L317.64 83.9087L314.555 83.1786L313.554 88.6854C312.744 88.4934 311.912 88.315 311.085 88.1383L312.094 82.5952L309.011 81.865L307.982 87.5189C307.311 87.376 306.653 87.2345 306.013 87.0836L306.016 87.0659L301.763 86.0568L301.095 89.7338C301.095 89.7338 303.381 90.2248 303.335 90.2627C304.584 90.559 304.844 91.4648 304.835 92.1914L303.663 98.6346C303.75 98.6555 303.861 98.6862 303.985 98.7358L303.66 98.6591L302.017 107.685C301.883 108.111 301.524 108.756 300.651 108.551C300.684 108.599 298.409 108.019 298.409 108.019L297.049 111.987L301.064 112.937C301.517 113.045 301.965 113.157 302.408 113.267C302.695 113.339 302.98 113.41 303.262 113.479L302.224 119.201L305.304 119.931L306.334 114.271C307.176 114.491 307.993 114.692 308.792 114.881L307.767 120.514L310.851 121.244L311.89 115.534C317.136 116.43 321.031 115.832 322.468 110.505C323.628 106.214 322.139 103.825 319.339 102.338C321.312 101.743 322.756 100.217 323.037 97.1712L323.038 97.1711ZM316.498 108.38C315.785 112.304 310.278 110.91 307.76 110.272L307.76 110.272C307.535 110.215 307.334 110.164 307.162 110.123L308.54 102.545C308.751 102.594 309.007 102.648 309.298 102.709L309.298 102.709C311.898 103.254 317.226 104.37 316.499 108.38L316.498 108.38ZM309.678 99.2024C311.779 99.7402 316.359 100.912 317.008 97.3478C317.671 93.7012 313.227 92.7853 311.057 92.338C310.813 92.2877 310.597 92.2434 310.421 92.2017L309.171 99.0754C309.317 99.1098 309.487 99.1535 309.678 99.2024Z" fill="white"/>
</g>
</g>
<defs>
<filter id="filter0_d_13540_35483" x="103.748" y="-9" width="152.975" height="152.27" filterUnits="userSpaceOnUse" color-interpolation-filters="sRGB">
<feFlood flood-opacity="0" result="BackgroundImageFix"/>
<feColorMatrix in="SourceAlpha" type="matrix" values="0 0 0 0 0 0 0 0 0 0 0 0 0 0 0 0 0 0 127 0" result="hardAlpha"/>
<feOffset dx="-10" dy="15"/>
<feGaussianBlur stdDeviation="15"/>
<feColorMatrix type="matrix" values="0 0 0 0 0.360784 0 0 0 0 0.364706 0 0 0 0 0.415686 0 0 0 0.5 0"/>
<feBlend mode="normal" in2="BackgroundImageFix" result="effect1_dropShadow_13540_35483"/>
<feBlend mode="normal" in="SourceGraphic" in2="effect1_dropShadow_13540_35483" result="shape"/>
</filter>
<filter id="filter1_dd_13540_35483" x="168.953" y="34.369" width="48.1758" height="35.9855" filterUnits="userSpaceOnUse" color-interpolation-filters="sRGB">
<feFlood flood-opacity="0" result="BackgroundImageFix"/>
<feColorMatrix in="SourceAlpha" type="matrix" values="0 0 0 0 0 0 0 0 0 0 0 0 0 0 0 0 0 0 127 0" result="hardAlpha"/>
<feOffset dx="-0.5" dy="-0.5"/>
<feColorMatrix type="matrix" values="0 0 0 0 0 0 0 0 0 0 0 0 0 0 0 0 0 0 0.1 0"/>
<feBlend mode="normal" in2="BackgroundImageFix" result="effect1_dropShadow_13540_35483"/>
<feColorMatrix in="SourceAlpha" type="matrix" values="0 0 0 0 0 0 0 0 0 0 0 0 0 0 0 0 0 0 127 0" result="hardAlpha"/>
<feOffset dx="1" dy="1"/>
<feColorMatrix type="matrix" values="0 0 0 0 1 0 0 0 0 1 0 0 0 0 1 0 0 0 0.25 0"/>
<feBlend mode="normal" in2="effect1_dropShadow_13540_35483" result="effect2_dropShadow_13540_35483"/>
<feBlend mode="normal" in="SourceGraphic" in2="effect2_dropShadow_13540_35483" result="shape"/>
</filter>
<filter id="filter2_d_13540_35483" x="0" y="47.9131" width="142.75" height="152.06" filterUnits="userSpaceOnUse" color-interpolation-filters="sRGB">
<feFlood flood-opacity="0" result="BackgroundImageFix"/>
<feColorMatrix in="SourceAlpha" type="matrix" values="0 0 0 0 0 0 0 0 0 0 0 0 0 0 0 0 0 0 127 0" result="hardAlpha"/>
<feOffset dx="-15" dy="15"/>
<feGaussianBlur stdDeviation="20"/>
<feColorMatrix type="matrix" values="0 0 0 0 1 0 0 0 0 0.803922 0 0 0 0 0.34902 0 0 0 0.4 0"/>
<feBlend mode="normal" in2="BackgroundImageFix" result="effect1_dropShadow_13540_35483"/>
<feBlend mode="normal" in="SourceGraphic" in2="effect1_dropShadow_13540_35483" result="shape"/>
</filter>
<filter id="filter3_dd_13540_35483" x="72.3262" y="91.478" width="30.3398" height="32.9861" filterUnits="userSpaceOnUse" color-interpolation-filters="sRGB">
<feFlood flood-opacity="0" result="BackgroundImageFix"/>
<feColorMatrix in="SourceAlpha" type="matrix" values="0 0 0 0 0 0 0 0 0 0 0 0 0 0 0 0 0 0 127 0" result="hardAlpha"/>
<feOffset dx="-2"/>
<feColorMatrix type="matrix" values="0 0 0 0 1 0 0 0 0 0.768092 0 0 0 0 0.216667 0 0 0 1 0"/>
<feBlend mode="normal" in2="BackgroundImageFix" result="effect1_dropShadow_13540_35483"/>
<feColorMatrix in="SourceAlpha" type="matrix" values="0 0 0 0 0 0 0 0 0 0 0 0 0 0 0 0 0 0 127 0" result="hardAlpha"/>
<feOffset dx="0.5" dy="0.5"/>
<feColorMatrix type="matrix" values="0 0 0 0 1 0 0 0 0 1 0 0 0 0 1 0 0 0 0.25 0"/>
<feBlend mode="normal" in2="effect1_dropShadow_13540_35483" result="effect2_dropShadow_13540_35483"/>
<feBlend mode="normal" in="SourceGraphic" in2="effect2_dropShadow_13540_35483" result="shape"/>
</filter>
<filter id="filter4_d_13540_35483" x="208" y="35" width="159.527" height="172.69" filterUnits="userSpaceOnUse" color-interpolation-filters="sRGB">
<feFlood flood-opacity="0" result="BackgroundImageFix"/>
<feColorMatrix in="SourceAlpha" type="matrix" values="0 0 0 0 0 0 0 0 0 0 0 0 0 0 0 0 0 0 127 0" result="hardAlpha"/>
<feOffset dx="-20" dy="20"/>
<feGaussianBlur stdDeviation="20"/>
<feColorMatrix type="matrix" values="0 0 0 0 0.976471 0 0 0 0 0.67451 0 0 0 0 0.321569 0 0 0 0.4 0"/>
<feBlend mode="normal" in2="BackgroundImageFix" result="effect1_dropShadow_13540_35483"/>
<feBlend mode="normal" in="SourceGraphic" in2="effect1_dropShadow_13540_35483" result="shape"/>
</filter>
<filter id="filter5_dd_13540_35483" x="295.049" y="80.8651" width="28.5234" height="40.8792" filterUnits="userSpaceOnUse" color-interpolation-filters="sRGB">
<feFlood flood-opacity="0" result="BackgroundImageFix"/>
<feColorMatrix in="SourceAlpha" type="matrix" values="0 0 0 0 0 0 0 0 0 0 0 0 0 0 0 0 0 0 127 0" result="hardAlpha"/>
<feOffset dx="-2" dy="-1"/>
<feColorMatrix type="matrix" values="0 0 0 0 0.9625 0 0 0 0 0.615098 0 0 0 0 0.204531 0 0 0 1 0"/>
<feBlend mode="normal" in2="BackgroundImageFix" result="effect1_dropShadow_13540_35483"/>
<feColorMatrix in="SourceAlpha" type="matrix" values="0 0 0 0 0 0 0 0 0 0 0 0 0 0 0 0 0 0 127 0" result="hardAlpha"/>
<feOffset dx="0.5" dy="0.5"/>
<feColorMatrix type="matrix" values="0 0 0 0 1 0 0 0 0 1 0 0 0 0 1 0 0 0 0.25 0"/>
<feBlend mode="normal" in2="effect1_dropShadow_13540_35483" result="effect2_dropShadow_13540_35483"/>
<feBlend mode="normal" in="SourceGraphic" in2="effect2_dropShadow_13540_35483" result="shape"/>
</filter>
<linearGradient id="paint0_linear_13540_35483" x1="153.526" y1="81.7468" x2="226.851" y2="60.6166" gradientUnits="userSpaceOnUse">
<stop stop-color="#F4CE7C"/>
<stop offset="1" stop-color="#F59A0F"/>
</linearGradient>
<linearGradient id="paint1_linear_13540_35483" x1="201.936" y1="17.8377" x2="178.587" y2="86.4501" gradientUnits="userSpaceOnUse">
<stop offset="0.3125" stop-color="white" stop-opacity="0"/>
<stop offset="1" stop-color="white" stop-opacity="0.1"/>
</linearGradient>
<linearGradient id="paint2_linear_13540_35483" x1="201.679" y1="17.7502" x2="179.71" y2="82.3083" gradientUnits="userSpaceOnUse">
<stop stop-color="#F4980D"/>
<stop offset="1" stop-color="#FFBF37"/>
</linearGradient>
<linearGradient id="paint3_linear_13540_35483" x1="207.534" y1="15.6852" x2="174.06" y2="80.4928" gradientUnits="userSpaceOnUse">
<stop offset="0.541667" stop-color="white" stop-opacity="0"/>
<stop offset="1" stop-color="white" stop-opacity="0.35"/>
</linearGradient>
<linearGradient id="paint4_linear_13540_35483" x1="77.2453" y1="145.567" x2="72.1482" y2="83.0713" gradientUnits="userSpaceOnUse">
<stop stop-color="#FFCB55"/>
<stop offset="1" stop-color="#ECAC3A"/>
</linearGradient>
<linearGradient id="paint5_linear_13540_35483" x1="85.4084" y1="76.2302" x2="77.9843" y2="140.974" gradientUnits="userSpaceOnUse">
<stop offset="0.3125" stop-color="white" stop-opacity="0"/>
<stop offset="1" stop-color="white" stop-opacity="0.1"/>
</linearGradient>
<linearGradient id="paint6_linear_13540_35483" x1="83.5053" y1="76.4071" x2="84.5523" y2="141.056" gradientUnits="userSpaceOnUse">
<stop stop-color="#FFD673"/>
<stop offset="1" stop-color="#FEC84D"/>
</linearGradient>
<linearGradient id="paint7_linear_13540_35483" x1="86.7553" y1="72.712" x2="75.4271" y2="139.311" gradientUnits="userSpaceOnUse">
<stop offset="0.541667" stop-color="white" stop-opacity="0"/>
<stop offset="1" stop-color="white" stop-opacity="0.35"/>
</linearGradient>
<linearGradient id="paint8_linear_13540_35483" x1="290.231" y1="139.106" x2="300.902" y2="70.0669" gradientUnits="userSpaceOnUse">
<stop stop-color="#E58D26"/>
<stop offset="1" stop-color="#F5A242"/>
</linearGradient>
<linearGradient id="paint9_linear_13540_35483" x1="317.043" y1="66.09" x2="292.222" y2="134.321" gradientUnits="userSpaceOnUse">
<stop offset="0.3125" stop-color="white" stop-opacity="0"/>
<stop offset="1" stop-color="white" stop-opacity="0.1"/>
</linearGradient>
<linearGradient id="paint10_linear_13540_35483" x1="314.935" y1="65.789" x2="299.318" y2="136.112" gradientUnits="userSpaceOnUse">
<stop stop-color="#FEB967"/>
<stop offset="1" stop-color="#F49F3C"/>
</linearGradient>
<linearGradient id="paint11_linear_13540_35483" x1="319.414" y1="62.6272" x2="289.882" y2="131.857" gradientUnits="userSpaceOnUse">
<stop offset="0.541667" stop-color="white" stop-opacity="0"/>
<stop offset="1" stop-color="white" stop-opacity="0.35"/>
</linearGradient>
</defs>
</svg>
