<svg width="153" height="137" viewBox="0 0 153 137" fill="none" xmlns="http://www.w3.org/2000/svg">
<path d="M123.492 81.0377C123.728 83.2053 124.536 83.2664 126.48 87.2862C128.414 91.2755 138.666 112.403 121.968 126.569C118.837 129.225 115.266 131.199 111.982 132.675H29.5889C22.2837 130.008 16.0324 126.64 11.5613 122.671C-14.6924 99.3457 25.3429 59.697 65.1123 41.4907C89.8824 30.1537 130.542 19.8039 145.664 28.3728C155.026 33.6749 154.688 46.2839 148.846 54.7714C140.845 66.4035 122.357 70.5251 123.492 81.0377Z" fill="#ECF3FE" fill-opacity="0.1"/>
<path d="M35.3801 68.4084C35.3187 68.4898 35.2573 68.561 35.1857 68.6323C34.7662 69.0292 34.1319 69.2429 33.3236 69.2734C30.5407 69.3752 25.7422 67.3805 20.9743 63.9408C14.59 59.3205 10.6816 53.825 12.2572 51.6777C13.8329 49.5304 20.2786 51.5352 26.663 56.1555C28.3409 57.3767 29.8552 58.6488 31.1341 59.9006C32.2493 60.9997 33.2008 62.0886 33.9375 63.1063C35.5643 65.3655 36.1782 67.3195 35.3801 68.4084Z" fill="#B7CAE5"/>
<path d="M49.9904 66.3526C47.32 71.4105 44.0051 75.237 41.4779 76.4785C40.8845 76.7737 40.3218 76.9161 39.8409 76.906C39.5544 76.8958 39.2884 76.8347 39.0531 76.7126C37.723 76.0206 37.4774 73.6087 38.1732 70.3826C38.3778 69.4158 38.6745 68.388 39.0531 67.2991C39.6465 65.5792 40.4445 63.7474 41.4267 61.885C45.0998 54.9342 50.0006 50.2936 52.3641 51.5352C54.7275 52.7564 53.6635 59.4019 49.9904 66.3526Z" fill="#B7CAE5"/>
<path d="M39.5238 86.7468C39.3192 87.0725 39.002 87.3167 38.603 87.4897C38.0914 87.7034 37.4366 87.795 36.659 87.7747C33.7942 87.7034 29.3436 86.0752 24.8418 83.2562C18.1504 79.0735 13.884 73.863 15.3061 71.614C16.7283 69.3649 23.3071 70.922 29.9881 75.1046C31.9833 76.3563 33.7738 77.6895 35.2471 79.0227C36.1781 79.8572 36.9966 80.6916 37.6617 81.4956C39.4829 83.6633 40.2502 85.5867 39.5238 86.7468Z" fill="#B7CAE5"/>
<path d="M39.2989 131.403C41.6624 117.623 40.6187 101.524 38.6032 87.4797C38.0916 87.6935 37.4368 87.785 36.6592 87.7647C36.2602 84.9864 35.8305 82.3506 35.4007 79.898C35.3496 79.6029 35.2984 79.3078 35.2473 79.0228C36.1783 79.8573 36.9968 80.6918 37.6619 81.4958C36.8741 76.8145 36.0146 72.469 35.1757 68.6323C34.7562 69.0292 34.1218 69.2429 33.3135 69.2734C32.536 65.6505 31.7686 62.4753 31.124 59.9006C32.2392 60.9997 33.1908 62.0886 33.9274 63.1063C32.3825 56.583 31.1649 52.5123 31.124 52.3901C33.7228 56.298 36.0862 62.7705 38.1734 70.3827C38.3781 69.4159 38.6748 68.3881 39.0533 67.2991C39.9026 70.1995 40.7108 73.2831 41.4782 76.4888C40.8848 76.7839 40.322 76.9264 39.8412 76.9162C45.5605 100.933 48.8243 131.413 48.8243 131.413H39.2989V131.403Z" fill="#92AFCC"/>
<path d="M39.2989 131.403C41.6624 117.623 40.6187 101.524 38.6032 87.4796C38.3167 85.4341 37.9995 83.4394 37.6721 81.4855C36.8843 76.8042 36.0249 72.4587 35.1859 68.622C34.7562 66.6376 34.3264 64.7854 33.9274 63.096C32.3825 56.5727 31.1649 52.502 31.124 52.3799C33.7228 56.2878 36.0862 62.7602 38.1734 70.3724C38.7464 72.4689 39.3091 74.6569 39.8412 76.8958C45.5605 100.913 48.8243 131.392 48.8243 131.392H39.2989V131.403Z" fill="#B7CAE5"/>
<path d="M104.022 102.124C104.022 102.124 103.061 98.1145 101.137 93.7893C99.582 90.3089 97.4129 86.635 94.5993 84.7116C92.8702 83.5209 91.356 82.9714 90.0566 82.8289C86.6086 82.432 84.7056 84.8846 84.5624 85.9125C84.368 87.3372 84.6954 96.934 104.022 102.124Z" fill="#B7CAE5"/>
<path d="M111.931 84.7321C111.931 84.7321 122.009 75.7663 122.828 68.1948C123.646 60.6233 118.336 59.4835 116.985 59.9923C115.635 60.5011 107.307 65.3555 111.931 84.7321Z" fill="#B7CAE5"/>
<path d="M107.726 90.9909C107.726 90.9909 107.737 89.3524 107.522 87.0219C107.143 83.053 106.11 77.0894 103.235 73.8837C103.204 73.8532 103.184 73.8226 103.153 73.7921C98.6308 68.8258 94.7326 71.6245 94.262 72.8151C93.7914 74.0262 92.0316 82.422 107.726 90.9909Z" fill="#B7CAE5"/>
<path d="M87.6321 118.967C88.3892 119.404 93.822 121.43 101.168 111.945C101.168 111.945 99.3674 111.66 97.0449 111.619C94.4768 111.578 91.2949 111.843 89.2588 113.146C88.1846 113.838 87.5297 114.55 87.1512 115.242C86.1587 117.054 87.0796 118.651 87.6321 118.967Z" fill="#B7CAE5"/>
<path d="M75.6305 101.819C76.1318 103.173 80.9303 111.497 100.452 107.091C100.452 107.091 99.8175 106.368 98.7432 105.299C95.7863 102.358 89.5042 96.7408 83.9281 96.0793C83.171 95.9877 82.4753 95.9673 81.8409 95.9877C76.1114 96.2014 75.1905 100.598 75.6305 101.819Z" fill="#B7CAE5"/>
<path d="M110.325 103.997C129.642 109.238 134.799 101.127 135.351 99.8038C135.75 98.8472 135.361 95.8043 132.241 94.3999C131.033 93.8606 129.427 93.5654 127.309 93.7181C123.565 93.9929 119.411 96.476 116.147 98.9184C112.75 101.473 110.325 103.997 110.325 103.997Z" fill="#B7CAE5"/>
<path d="M112.801 92.5274C130.695 93.0261 133.458 84.905 133.652 83.6329C133.857 82.3608 131.893 77.944 125.375 80.0303C124.669 80.2542 123.973 80.5798 123.278 80.9767C119.461 83.1851 116.024 87.6629 114.192 90.3496C113.312 91.6522 112.801 92.5274 112.801 92.5274Z" fill="#B7CAE5"/>
<path d="M115.901 126.773C116.638 126.773 118.704 125.531 118.091 122.692C117.978 122.162 117.773 121.572 117.446 120.931C115.993 118.061 111.839 115.761 109.476 114.642C108.473 114.164 107.788 113.899 107.788 113.899C109.312 125.785 115.031 126.773 115.901 126.773Z" fill="#B7CAE5"/>
<path d="M110.877 110.072C125.478 123.699 133.857 118.936 134.972 118.02C135.944 117.226 137.315 113.237 133.059 110.194C132.414 109.736 131.647 109.299 130.726 108.902C125.825 106.765 118.07 108.19 113.855 109.238C112.034 109.686 110.877 110.072 110.877 110.072Z" fill="#B7CAE5"/>
<path d="M97.5459 132.349C102.784 124.014 111.675 83.0223 111.675 83.0223C111.675 83.0223 114.336 79.9489 112.903 82.7374C111.645 85.2002 103.736 123.434 101.904 132.349H97.5459Z" fill="#B7CAE5"/>
<path d="M109.343 94.8682L114.52 92.2833L113.998 91.2554L109.834 93.3315L107.327 88.7112L106.304 89.2607L109.343 94.8682Z" fill="#B7CAE5"/>
<path d="M103.644 100.815L102.751 101.546L106.412 105.969L107.305 105.238L103.644 100.815Z" fill="#B7CAE5"/>
<path d="M111.735 103.03L107.001 104.125L107.263 105.245L111.996 104.15L111.735 103.03Z" fill="#B7CAE5"/>
<path d="M113.343 110.917L113.077 109.797C113.149 109.777 113.2 109.787 113.2 109.787C113.149 109.787 113.036 109.767 112.873 109.747C111.205 109.533 106.13 108.892 105.107 111.466L106.181 111.894C106.498 111.1 107.89 110.286 112.729 110.886C113.139 110.937 113.22 110.947 113.343 110.917Z" fill="#B7CAE5"/>
<path d="M104.903 112.108L105.997 111.741C104.319 106.826 98.9274 106.124 98.7023 106.093L98.5591 107.233L98.6307 106.663L98.5591 107.233C98.6102 107.243 103.46 107.884 104.903 112.108Z" fill="#B7CAE5"/>
<path d="M108.167 115.283L109.005 114.489L105.65 110.998L105.486 110.958C102.181 110.164 98.9992 112.372 98.8662 112.464L99.5415 113.4C99.5722 113.38 102.324 111.477 105.056 112.036L108.167 115.283Z" fill="#B7CAE5"/>
<path d="M81.8511 95.9876C83.0788 97.911 85.4627 100.13 88.5322 102.033C92.5224 104.506 96.5126 105.706 98.7635 105.299C95.8067 102.358 89.5246 96.7406 83.9485 96.0791C83.1709 95.9977 82.4854 95.9672 81.8511 95.9876Z" fill="#92AFCC"/>
<path d="M90.0566 82.8291C90.9775 84.8136 92.6963 87.1644 94.9779 89.3626C97.0549 91.3674 99.2342 92.8939 101.137 93.7997C99.5821 90.3192 97.413 86.6454 94.5994 84.722C92.8703 83.5211 91.356 82.9716 90.0566 82.8291Z" fill="#92AFCC"/>
<path d="M113.855 109.238C115.472 110.815 119.615 111.894 124.455 111.823C127.923 111.772 131.013 111.141 133.059 110.194C132.415 109.737 131.647 109.299 130.727 108.902C125.826 106.755 118.07 108.179 113.855 109.238Z" fill="#92AFCC"/>
<path d="M116.146 98.9287C118.223 99.1119 120.843 98.9083 123.615 98.2774C127.37 97.4123 130.522 95.9367 132.251 94.4102C131.043 93.8708 129.437 93.5757 127.319 93.7283C123.564 93.9929 119.41 96.4761 116.146 98.9287Z" fill="#92AFCC"/>
<path d="M109.486 114.642C110.254 116.158 111.666 117.939 113.517 119.588C115.073 120.972 116.679 122.03 118.101 122.691C117.989 122.162 117.784 121.572 117.457 120.931C115.993 118.061 111.84 115.761 109.486 114.642Z" fill="#92AFCC"/>
<path d="M87.1509 115.242C88.3684 115.13 89.7087 114.876 91.1002 114.479C93.5864 113.756 95.7043 112.698 97.0446 111.619C94.4766 111.578 91.2946 111.843 89.2586 113.146C88.1945 113.838 87.5294 114.55 87.1509 115.242Z" fill="#92AFCC"/>
<path d="M104.8 81.679C105.578 83.7245 106.519 85.5564 107.522 87.0218C107.143 83.0529 106.11 77.0893 103.235 73.8836C103.204 73.8531 103.184 73.8225 103.153 73.792C103.143 75.9698 103.695 78.7684 104.8 81.679Z" fill="#92AFCC"/>
<path d="M114.192 90.3599C114.878 89.963 115.574 89.5152 116.259 89.0369C120.086 86.3604 122.756 83.2056 123.278 80.9871C119.462 83.1954 116.024 87.6732 114.192 90.3599Z" fill="#92AFCC"/>
<path d="M72.7449 137.01C105.976 137.01 132.916 135.375 132.916 133.357C132.916 131.339 105.976 129.703 72.7449 129.703C39.5136 129.703 12.5742 131.339 12.5742 133.357C12.5742 135.375 39.5136 137.01 72.7449 137.01Z" fill="#B7CAE5"/>
<g opacity="0.3">
<path opacity="0.3" d="M51.4129 56.4406H59.0557V132.359H80.3677V56.4406H88.0105C90.0466 56.4406 91.3152 54.5783 90.3023 53.0924L74.1163 29.411L71.9984 26.3173C70.9753 24.8213 68.4379 24.8213 67.4148 26.3173L65.0615 29.7571L49.1313 53.0823C48.1081 54.5783 49.3768 56.4406 51.4129 56.4406Z" fill="#7D95B7"/>
</g>
<path d="M54.4515 56.4406H62.0944V132.359H83.4063V56.4406H91.0492C93.0852 56.4406 94.3539 54.5783 93.341 53.0924L77.155 29.411L75.0371 26.3173C74.0139 24.8213 71.4765 24.8213 70.4534 26.3173L68.1002 29.7571L52.1597 53.0823C51.1468 54.5783 52.4155 56.4406 54.4515 56.4406Z" fill="#D85656"/>
<path d="M16.8918 28.7189C19.6493 28.7189 21.8847 26.4954 21.8847 23.7527C21.8847 21.0099 19.6493 18.7864 16.8918 18.7864C14.1343 18.7864 11.8989 21.0099 11.8989 23.7527C11.8989 26.4954 14.1343 28.7189 16.8918 28.7189Z" fill="#B7CAE5"/>
<path d="M141.643 27.7507C142.953 26.4471 142.953 24.3336 141.643 23.0301C140.332 21.7265 138.207 21.7265 136.897 23.0301C135.586 24.3336 135.586 26.4471 136.897 27.7507C138.207 29.0542 140.332 29.0542 141.643 27.7507Z" fill="#B7CAE5"/>
<path d="M146.115 86.5969C147.15 85.5676 147.15 83.8987 146.115 82.8694C145.081 81.8401 143.403 81.8401 142.368 82.8694C141.333 83.8987 141.333 85.5676 142.368 86.5969C143.403 87.6262 145.081 87.6262 146.115 86.5969Z" fill="#B7CAE5"/>
<path d="M82.3013 6.59456C84.1321 6.59456 85.6163 5.11832 85.6163 3.29728C85.6163 1.47624 84.1321 0 82.3013 0C80.4705 0 78.9863 1.47624 78.9863 3.29728C78.9863 5.11832 80.4705 6.59456 82.3013 6.59456Z" fill="#B7CAE5"/>
<path d="M118.991 51.3215C121.46 51.3215 123.462 49.3304 123.462 46.8742C123.462 44.4181 121.46 42.427 118.991 42.427C116.521 42.427 114.52 44.4181 114.52 46.8742C114.52 49.3304 116.521 51.3215 118.991 51.3215Z" fill="#52D1BD"/>
<path d="M41.4578 47.4849C42.8591 47.4849 43.9952 46.355 43.9952 44.9611C43.9952 43.5672 42.8591 42.4373 41.4578 42.4373C40.0564 42.4373 38.9204 43.5672 38.9204 44.9611C38.9204 46.355 40.0564 47.4849 41.4578 47.4849Z" fill="#52D1BD"/>
<path d="M4.47111 105.269C6.94044 105.269 8.94222 103.278 8.94222 100.822C8.94222 98.3654 6.94044 96.3743 4.47111 96.3743C2.00178 96.3743 0 98.3654 0 100.822C0 103.278 2.00178 105.269 4.47111 105.269Z" fill="#52D1BD"/>
<path opacity="0.3" d="M92.6657 76.1733H68.448H52.8861H48.4764H44.4759V84.7218V85.536H41.7339V94.0845V94.8986H44.4759V103.437V104.261H40.9768V112.8V113.624H44.4759V122.162V122.987H43.9746H39.9741V131.525V132.349H43.9746H48.3843H63.9462H88.1639H91.4379V131.525V122.987H92.6657H95.9397V122.162V113.624H92.6657H92.4406V112.8V104.261H92.6657H95.9397V103.437V94.8986H93.1977V94.0845V85.536H95.9397V84.7218V76.1733H92.6657Z" fill="#7D95B7"/>
<path d="M99.9507 76.1733H48.4868V85.536H99.9507V76.1733Z" fill="#FFC552"/>
<path d="M56.897 76.1733H52.4873V85.536H56.897V76.1733Z" fill="#FFDA71"/>
<path d="M96.6766 76.1733H72.459V85.536H96.6766V76.1733Z" fill="#FCAC2B"/>
<path d="M99.9507 84.7219H48.4868V85.536H99.9507V84.7219Z" fill="#EF9D26"/>
<path d="M97.2084 85.5359H45.7446V94.8986H97.2084V85.5359Z" fill="#FFC552"/>
<path d="M54.1548 85.5359H49.7451V94.8986H54.1548V85.5359Z" fill="#FFDA71"/>
<path d="M93.9345 85.5359H69.7168V94.8986H93.9345V85.5359Z" fill="#FCAC2B"/>
<path d="M97.2084 94.0845H45.7446V94.8986H97.2084V94.0845Z" fill="#EF9D26"/>
<path d="M99.9507 94.8987H48.4868V104.261H99.9507V94.8987Z" fill="#FFC552"/>
<path d="M56.897 94.8987H52.4873V104.261H56.897V94.8987Z" fill="#FFDA71"/>
<path d="M96.6766 94.8987H72.459V104.261H96.6766V94.8987Z" fill="#FCAC2B"/>
<path d="M99.9507 103.437H48.4868V104.251H99.9507V103.437Z" fill="#EF9D26"/>
<path d="M96.4511 104.261H44.9873V113.624H96.4511V104.261Z" fill="#FFC552"/>
<path d="M53.3975 104.261H48.9878V113.624H53.3975V104.261Z" fill="#FFDA71"/>
<path d="M93.1771 104.261H68.9595V113.624H93.1771V104.261Z" fill="#FCAC2B"/>
<path d="M96.4511 112.8H44.9873V113.614H96.4511V112.8Z" fill="#EF9D26"/>
<path d="M99.9507 113.624H48.4868V122.987H99.9507V113.624Z" fill="#FFC552"/>
<path d="M56.897 113.624H52.4873V122.987H56.897V113.624Z" fill="#FFDA71"/>
<path d="M96.6766 113.624H72.459V122.987H96.6766V113.624Z" fill="#FCAC2B"/>
<path d="M99.9507 122.162H48.4868V122.976H99.9507V122.162Z" fill="#EF9D26"/>
<path d="M95.4487 122.987H43.9849V132.349H95.4487V122.987Z" fill="#FFC552"/>
<path d="M52.3951 122.987H47.9854V132.349H52.3951V122.987Z" fill="#FFDA71"/>
<path d="M92.1747 122.987H67.957V132.349H92.1747V122.987Z" fill="#FCAC2B"/>
<path d="M95.4487 131.525H43.9849V132.339H95.4487V131.525Z" fill="#EF9D26"/>
<path opacity="0.5" d="M97.2495 91.0416C96.9323 91.0212 96.6152 91.0212 96.2878 91.0212C84.8184 91.0212 75.5181 100.272 75.5181 111.69C75.5181 112.189 75.5385 112.677 75.5692 113.166C76.3263 123.892 85.3095 132.359 96.2878 132.359C107.757 132.359 117.068 123.109 117.068 111.7C117.068 100.587 108.279 91.5403 97.2495 91.0416Z" fill="#CE880B"/>
<path d="M118.889 111.365C118.889 122.773 109.589 132.023 98.109 132.023C87.1308 132.023 78.1476 123.556 77.3905 112.83C77.3496 112.342 77.3394 111.853 77.3394 111.354C77.3394 99.9462 86.6397 90.6853 98.109 90.6853C98.4365 90.6853 98.7536 90.6955 99.0708 90.7057C110.11 91.2247 118.889 100.272 118.889 111.365Z" fill="#FFC552"/>
<path d="M114.459 111.364C114.459 120.34 107.143 127.617 98.1193 127.617C94.037 127.617 90.2923 126.121 87.4275 123.658C83.9693 120.676 81.7798 116.28 81.7798 111.375C81.7798 102.399 89.0952 95.1223 98.1193 95.1223C102.539 95.1223 106.54 96.8625 109.476 99.7019C112.546 102.643 114.459 106.775 114.459 111.364Z" fill="#ED9015"/>
<path d="M114.459 111.365C114.459 120.341 107.143 127.617 98.1194 127.617C94.0371 127.617 90.2924 126.121 87.4276 123.658C84.3786 120.707 82.4858 116.575 82.4858 112.006C82.4858 103.03 89.8013 95.7534 98.8253 95.7534C102.897 95.7534 106.622 97.2392 109.486 99.6918C112.546 102.643 114.459 106.775 114.459 111.365Z" fill="#FCAC2B"/>
<path opacity="0.2" d="M99.2856 93.5565C99.2856 104.283 90.5378 112.984 79.754 112.984C78.9559 112.984 78.1681 112.933 77.3905 112.842C77.3496 112.353 77.3394 111.865 77.3394 111.366C77.3394 99.9577 86.6397 90.6968 98.109 90.6968C98.4364 90.6968 98.7536 90.707 99.0708 90.7171C99.214 91.6432 99.2856 92.5897 99.2856 93.5565Z" fill="#FFEF7D"/>
</svg>
