<svg width="174" height="122" viewBox="0 0 174 122" fill="none" xmlns="http://www.w3.org/2000/svg">
<g clip-path="url(#clip0_15078_32734)">
<path d="M154.966 119.246C176.784 97.7779 178.561 64.6994 162.693 44.8082C144.032 21.4167 102.817 18.5775 77.6565 45.376C77.6565 45.376 50.1686 10.3142 25.9051 35.833C1.64153 61.3517 29.9842 119.084 29.9842 119.084L154.966 119.246Z" fill="#ECF3FE" fill-opacity="0.1"/>
<path d="M92.526 122C129.324 122 159.155 120.847 159.155 119.424C159.155 118.001 129.324 116.847 92.526 116.847C55.7275 116.847 25.8965 118.001 25.8965 119.424C25.8965 120.847 55.7275 122 92.526 122Z" fill="#B7CAE5"/>
<path d="M54.2139 78.8615C54.2139 80.7345 53.3846 82.4126 52.0812 83.5482C51.1419 84.3703 49.957 84.9043 48.6453 85.0399C48.4337 85.0568 48.2221 85.0738 48.0105 85.0738C46.4533 85.0738 45.0315 84.4974 43.9398 83.5482C42.6365 82.4126 41.8071 80.7345 41.8071 78.8615C41.8071 77.3444 42.3488 75.9545 43.2543 74.8697C44.3884 73.5136 46.0979 72.6492 48.0105 72.6492C51.4381 72.6492 54.2139 75.429 54.2139 78.8615Z" fill="#B7CAE5"/>
<path d="M57.0238 83.5482H38.9976V86.5993H57.0238V83.5482Z" fill="#B7CAE5"/>
<path d="M52.3354 86.5994H43.6777V103.948H52.3354V86.5994Z" fill="#B7CAE5"/>
<path d="M59.131 103.948H36.8901V107.228H59.131V103.948Z" fill="#B7CAE5"/>
<path d="M57.9547 107.228H48.0106H38.0581L35.4854 115.551H48.0106H60.5359L57.9547 107.228Z" fill="#B7CAE5"/>
<path d="M62.9901 115.551H48.0106H33.031L31.7954 119.068H48.0106H64.2173L62.9901 115.551Z" fill="#92AFCC"/>
<path d="M52.3439 86.5994V91.3963L43.6777 87.8961V86.5994H52.3439Z" fill="#92AFCC"/>
<path d="M38.0579 107.228L37.8887 107.787L59.1309 111.008L57.9545 107.228H38.0579Z" fill="#92AFCC"/>
<path opacity="0.15" d="M57.0236 83.5482V86.5993H52.3435V89.0062C51.5057 88.2435 50.7102 87.4468 49.957 86.5993C49.5084 86.0908 49.0683 85.5738 48.6537 85.0399C48.2728 84.5568 47.9004 84.0567 47.545 83.5482C45.7085 80.9124 44.2529 77.997 43.2627 74.8697C44.3967 73.5136 46.1063 72.6492 48.0189 72.6492C51.4465 72.6492 54.2223 75.429 54.2223 78.8615C54.2223 80.7345 53.393 82.4126 52.0896 83.5482H57.0236Z" fill="#294B56"/>
<path d="M137.634 45.6981H133.656V56.4107H137.634V45.6981Z" fill="#52D1BD"/>
<path d="M130.295 49.0601V53.0435H140.993V49.0601H130.295Z" fill="#52D1BD"/>
<path d="M142.009 56.4108H135.645H129.281C129.281 56.4108 126.336 56.8854 127.707 61.3603C129.078 65.8436 130.296 72.0135 130.296 72.0135L129.357 103.49H135.645H141.933L140.994 72.0135C140.994 72.0135 142.212 65.8352 143.583 61.3603C144.954 56.8854 142.009 56.4108 142.009 56.4108Z" fill="#52D1BD"/>
<path d="M144.616 70.5049H126.666V73.3017H144.616V70.5049Z" fill="#24BA9D"/>
<path d="M143.11 75.5646H128.172V78.3614H143.11V75.5646Z" fill="#24BA9D"/>
<path d="M146.816 103.49H124.465V106.287H146.816V103.49Z" fill="#52D1BD"/>
<path d="M144.997 106.296H135.645H126.293C126.183 106.296 123.873 113.83 123.873 113.83H135.645H147.417C147.409 113.83 145.098 106.296 144.997 106.296Z" fill="#52D1BD"/>
<path d="M149.88 113.83H135.645H121.402L119.312 119.424H135.645H151.979L149.88 113.83Z" fill="#24BA9D"/>
<path d="M126.293 106.296L146.444 110.711L144.997 106.296H126.293Z" fill="#24BA9D"/>
<path d="M67.416 82.3023C67.416 82.5057 67.3906 82.7091 67.3313 82.9125L63.5991 95.6253L57.1926 117.474C56.8541 118.618 55.6439 119.288 54.4929 118.949C53.3419 118.61 52.6818 117.398 53.0204 116.245L59.5369 94.0065L63.1506 81.6836C63.4891 80.531 64.6993 79.87 65.8503 80.209C66.7982 80.4886 67.416 81.3616 67.416 82.3023Z" fill="#326497"/>
<path d="M93.0083 118.949C91.8658 119.288 90.6471 118.618 90.3086 117.474L83.8852 95.5659L80.1784 82.9125C80.1191 82.7091 80.0938 82.5057 80.0938 82.3023C80.0938 81.3615 80.7116 80.4886 81.6594 80.2089C82.8019 79.8699 84.0206 80.5394 84.3591 81.6836L87.9474 93.9132L94.4978 116.245C94.8194 117.398 94.1508 118.61 93.0083 118.949Z" fill="#326497"/>
<path opacity="0.3" d="M67.416 82.3023C67.416 82.5057 67.3906 82.7091 67.3314 82.9125L63.5992 95.6253C62.2028 95.1761 60.8487 94.6337 59.5454 94.0066L63.1591 81.6836C63.4976 80.531 64.7079 79.8699 65.8588 80.209C66.7982 80.4886 67.416 81.3616 67.416 82.3023Z" fill="#294B56"/>
<path opacity="0.3" d="M87.9307 93.9133C86.6274 94.5489 85.2733 95.0998 83.8769 95.5575L80.1701 82.9041C80.1108 82.7007 80.0854 82.4973 80.0854 82.2939C80.0854 81.3531 80.7032 80.4802 81.6511 80.2005C82.7936 79.8615 84.0123 80.531 84.3508 81.6752L87.9307 93.9133Z" fill="#294B56"/>
<path d="M103.181 65.0639C103.181 81.2091 90.1143 94.2947 73.9922 94.2947C57.8701 94.2947 44.8032 81.2091 44.8032 65.0639C44.8032 61.3941 45.4803 57.8854 46.7074 54.6564C47.029 53.8004 47.3929 52.9613 47.7991 52.1477C52.5638 42.4775 62.4994 35.833 73.9922 35.833C90.1143 35.833 103.181 48.9187 103.181 65.0639Z" fill="#D85656"/>
<path d="M73.9921 88.0654C86.6773 88.0654 96.9607 77.7673 96.9607 65.0638C96.9607 52.3604 86.6773 42.0623 73.9921 42.0623C61.3069 42.0623 51.0234 52.3604 51.0234 65.0638C51.0234 77.7673 61.3069 88.0654 73.9921 88.0654Z" fill="white"/>
<path d="M73.9925 82.2431C83.4667 82.2431 91.147 74.5517 91.147 65.0639C91.147 55.5761 83.4667 47.8848 73.9925 47.8848C64.5183 47.8848 56.8379 55.5761 56.8379 65.0639C56.8379 74.5517 64.5183 82.2431 73.9925 82.2431Z" fill="#D85656"/>
<path d="M82.2871 73.3722C86.8679 68.7849 86.8679 61.3474 82.2871 56.7602C77.7064 52.1729 70.2796 52.1729 65.6989 56.7602C61.1182 61.3474 61.1182 68.7849 65.6989 73.3722C70.2796 77.9595 77.7064 77.9595 82.2871 73.3722Z" fill="white"/>
<path d="M73.9923 71.0135C77.2735 71.0135 79.9334 68.3498 79.9334 65.0639C79.9334 61.7781 77.2735 59.1144 73.9923 59.1144C70.7112 59.1144 68.0513 61.7781 68.0513 65.0639C68.0513 68.3498 70.7112 71.0135 73.9923 71.0135Z" fill="#D85656"/>
<path opacity="0.4" d="M73.6452 65.6656L68.0935 64.3943L67.5857 64.2757L65.4276 62.5128L65.2414 62.9196L62.7364 61.7585L57.7686 59.4618L55.1535 58.2498L55.3904 57.7328L52.6823 56.4785L47.8668 54.2495C47.5706 54.3597 47.1728 54.5038 46.7158 54.6564C47.0374 53.8004 47.4013 52.9613 47.8076 52.1477C48.0022 52.6308 48.163 53.0461 48.273 53.3681L53.0631 55.5886L55.7967 56.8599L56.0336 56.3514L58.5725 57.5294L63.498 59.8093L66.1131 61.0212L65.9269 61.428L68.669 61.9365L68.8551 62.0721L73.6452 65.6656Z" fill="#666666"/>
<path d="M73.755 65.674L70.1413 60.6059L67.6871 59.2922L67.9917 58.9617L59.7995 51.4442L59.4187 51.8595L53.3084 46.249C53.2407 44.1048 52.7244 37.4602 48.9414 36.9856C44.4222 36.4178 48.4844 42.486 48.4844 42.486C48.4844 42.486 42.0948 38.9603 43.0512 43.4183C43.8552 47.1473 50.5071 47.088 52.6482 46.9694L58.7586 52.5799L58.3777 52.9952L66.5699 60.5127L66.8746 60.1821L68.3979 62.5213L73.755 65.674Z" fill="#326497"/>
<path opacity="0.3" d="M134.867 107.728H134.384V107.38V103.829H135.637V103.482V99.9222H134.731V99.5832V96.0236H135.84V95.6846V92.125H135.256V91.786V88.2265H134.528V87.8875V84.3279H133.174H123.154H116.722H114.894H113.235V87.8875V88.2265H113.963V91.786V92.125H114.547V95.6846V96.0236H113.447V99.5832V99.9222H114.344V103.482V103.829H113.091V107.38V107.728H114.75H114.928V111.287V111.626H113.819V115.186V115.525H114.547V119.085V119.424H116.206H118.025H124.466H134.486H135.84V119.085V115.525H135.112V115.186V111.626H136.212V111.287V107.728H134.867Z" fill="#184B68"/>
<path d="M134.579 115.525H113.294V119.424H134.579V115.525Z" fill="#FFC552"/>
<path d="M116.781 115.525H114.953V119.424H116.781V115.525Z" fill="#FFDA71"/>
<path d="M133.233 115.525H123.213V119.424H133.233V115.525Z" fill="#FCAC2B"/>
<path d="M134.579 119.085H113.294V119.424H134.579V119.085Z" fill="#EF9D26"/>
<path d="M133.851 111.626H112.567V115.525H133.851V111.626Z" fill="#FFC552"/>
<path d="M116.054 111.626H114.226V115.525H116.054V111.626Z" fill="#FFDA71"/>
<path d="M132.506 111.626H122.485V115.525H132.506V111.626Z" fill="#FCAC2B"/>
<path d="M133.851 115.186H112.567V115.525H133.851V115.186Z" fill="#EF9D26"/>
<path d="M134.96 107.728H113.675V111.626H134.96V107.728Z" fill="#FFC552"/>
<path d="M117.154 107.728H115.326V111.626H117.154V107.728Z" fill="#FFDA71"/>
<path d="M133.614 107.728H123.594V111.626H133.614V107.728Z" fill="#FCAC2B"/>
<path d="M134.96 111.287H113.675V111.626H134.96V111.287Z" fill="#EF9D26"/>
<path d="M133.123 103.829H111.839V107.728H133.123V103.829Z" fill="#FFC552"/>
<path d="M115.326 103.829H113.498V107.728H115.326V103.829Z" fill="#FFDA71"/>
<path d="M131.778 103.829H121.757V107.728H131.778V103.829Z" fill="#FCAC2B"/>
<path d="M133.123 107.38H111.839V107.719H133.123V107.38Z" fill="#EF9D26"/>
<path d="M134.376 99.9222H113.091V103.821H134.376V99.9222Z" fill="#FFC552"/>
<path d="M116.578 99.9222H114.75V103.821H116.578V99.9222Z" fill="#FFDA71"/>
<path d="M133.03 99.9222H123.01V103.821H133.03V99.9222Z" fill="#FCAC2B"/>
<path d="M134.376 103.482H113.091V103.821H134.376V103.482Z" fill="#EF9D26"/>
<path d="M133.479 96.0237H112.194V99.9223H133.479V96.0237Z" fill="#FFC552"/>
<path d="M115.673 96.0237H113.845V99.9223H115.673V96.0237Z" fill="#FFDA71"/>
<path d="M132.125 96.0237H122.104V99.9223H132.125V96.0237Z" fill="#FCAC2B"/>
<path d="M133.479 99.5833H112.194V99.9223H133.479V99.5833Z" fill="#EF9D26"/>
<path d="M134.579 92.125H113.294V96.0236H134.579V92.125Z" fill="#FFC552"/>
<path d="M116.781 92.125H114.953V96.0236H116.781V92.125Z" fill="#FFDA71"/>
<path d="M133.233 92.125H123.213V96.0236H133.233V92.125Z" fill="#FCAC2B"/>
<path d="M134.579 95.6846H113.294V96.0236H134.579V95.6846Z" fill="#EF9D26"/>
<path d="M133.995 88.2264H112.71V92.125H133.995V88.2264Z" fill="#FFC552"/>
<path d="M116.197 88.2264H114.369V92.125H116.197V88.2264Z" fill="#FFDA71"/>
<path d="M132.65 88.2264H122.629V92.125H132.65V88.2264Z" fill="#FCAC2B"/>
<path d="M133.995 91.786H112.71V92.125H133.995V91.786Z" fill="#EF9D26"/>
<path d="M133.276 84.3279H111.991V88.2265H133.276V84.3279Z" fill="#FFC552"/>
<path d="M115.47 84.3279H113.642V88.2265H115.47V84.3279Z" fill="#FFDA71"/>
<path d="M131.922 84.3279H121.901V88.2265H131.922V84.3279Z" fill="#FCAC2B"/>
<path d="M133.276 87.8875H111.991V88.2264H133.276V87.8875Z" fill="#EF9D26"/>
<path opacity="0.3" d="M85.3325 111.626V111.287V107.728H83.9784H73.9667H67.5263H65.6983H64.048V111.287V111.626H64.742V115.186V115.525H63.9126V119.085V119.424H65.5629H67.3909H73.8228H83.843H85.1971V119.085V115.525H86.035V115.186V111.626H85.3325Z" fill="#184B68"/>
<path d="M83.7162 115.525H62.4316V119.423H83.7162V115.525Z" fill="#FFC552"/>
<path d="M65.91 115.525H64.082V119.423H65.91V115.525Z" fill="#FFDA71"/>
<path d="M82.362 115.525H72.3418V119.423H82.362V115.525Z" fill="#FCAC2B"/>
<path d="M83.7162 119.084H62.4316V119.423H83.7162V119.084Z" fill="#EF9D26"/>
<path d="M84.5453 111.626H63.2607V115.525H84.5453V111.626Z" fill="#FFC552"/>
<path d="M66.7475 111.626H64.9194V115.525H66.7475V111.626Z" fill="#FFDA71"/>
<path d="M83.1994 111.626H73.1792V115.525H83.1994V111.626Z" fill="#FCAC2B"/>
<path d="M84.5453 115.186H63.2607V115.525H84.5453V115.186Z" fill="#EF9D26"/>
<path d="M83.8514 107.728H62.5669V111.626H83.8514V107.728Z" fill="#FFC552"/>
<path d="M66.0453 107.728H64.2173V111.626H66.0453V107.728Z" fill="#FFDA71"/>
<path d="M82.5056 107.728H72.4854V111.626H82.5056V107.728Z" fill="#FCAC2B"/>
<path d="M83.8514 111.287H62.5669V111.626H83.8514V111.287Z" fill="#EF9D26"/>
<path opacity="0.3" d="M109.994 115.525V115.186V111.626H110.781V111.287V107.728H109.807V107.38V103.829H110.645V103.482V99.9223H109.943V99.5832V96.0237H108.589H98.577H92.1367H90.3086H88.6584V99.5832V99.9223H89.3523V103.482V103.829H88.5229V107.38V107.728H89.4877V111.287V111.626H88.7007V115.186V115.525H89.6655V119.085V119.424H91.3158H93.1438H99.5841H109.604H110.95V119.085V115.525H109.994Z" fill="#184B68"/>
<path d="M109.291 115.525H88.0068V119.424H109.291V115.525Z" fill="#FFC552"/>
<path d="M91.4935 115.525H89.6655V119.424H91.4935V115.525Z" fill="#FFDA71"/>
<path d="M107.946 115.525H97.9253V119.424H107.946V115.525Z" fill="#FCAC2B"/>
<path d="M109.291 119.085H88.0068V119.424H109.291V119.085Z" fill="#EF9D26"/>
<path d="M108.335 111.626H87.0503V115.525H108.335V111.626Z" fill="#FFC552"/>
<path d="M90.5287 111.626H88.7007V115.525H90.5287V111.626Z" fill="#FFDA71"/>
<path d="M106.989 111.626H96.9692V115.525H106.989V111.626Z" fill="#FCAC2B"/>
<path d="M108.335 115.186H87.0503V115.525H108.335V115.186Z" fill="#EF9D26"/>
<path d="M109.122 107.728H87.8374V111.626H109.122V107.728Z" fill="#FFC552"/>
<path d="M91.3157 107.728H89.4878V111.626H91.3157V107.728Z" fill="#FFDA71"/>
<path d="M107.776 107.728H97.7559V111.626H107.776V107.728Z" fill="#FCAC2B"/>
<path d="M109.122 111.287H87.8374V111.626H109.122V111.287Z" fill="#EF9D26"/>
<path d="M108.149 103.829H86.8643V107.728H108.149V103.829Z" fill="#FFC552"/>
<path d="M90.351 103.829H88.5229V107.728H90.351V103.829Z" fill="#FFDA71"/>
<path d="M106.803 103.829H96.7827V107.728H106.803V103.829Z" fill="#FCAC2B"/>
<path d="M108.149 107.38H86.8643V107.72H108.149V107.38Z" fill="#EF9D26"/>
<path d="M108.987 99.9222H87.7021V103.821H108.987V99.9222Z" fill="#FFC552"/>
<path d="M91.1805 99.9222H89.3525V103.821H91.1805V99.9222Z" fill="#FFDA71"/>
<path d="M107.641 99.9222H97.6211V103.821H107.641V99.9222Z" fill="#FCAC2B"/>
<path d="M108.987 103.482H87.7021V103.821H108.987V103.482Z" fill="#EF9D26"/>
<path d="M108.284 96.0237H86.9995V99.9223H108.284V96.0237Z" fill="#FFC552"/>
<path d="M90.4863 96.0237H88.6582V99.9223H90.4863V96.0237Z" fill="#FFDA71"/>
<path d="M106.939 96.0237H96.9185V99.9223H106.939V96.0237Z" fill="#FCAC2B"/>
<path d="M108.284 99.5833H86.9995V99.9223H108.284V99.5833Z" fill="#EF9D26"/>
<path d="M89.488 22.6287C92.1662 22.6287 94.3373 20.4544 94.3373 17.7724C94.3373 15.0904 92.1662 12.9161 89.488 12.9161C86.8098 12.9161 84.6387 15.0904 84.6387 17.7724C84.6387 20.4544 86.8098 22.6287 89.488 22.6287Z" fill="#F4B545"/>
<path d="M115.472 48.0854C116.787 46.7682 116.787 44.6325 115.472 43.3152C114.156 41.9979 112.024 41.9979 110.708 43.3152C109.393 44.6325 109.393 46.7682 110.708 48.0855C112.024 49.4027 114.156 49.4027 115.472 48.0854Z" fill="#B7CAE5"/>
<path d="M58.3691 5.76311C59.9583 5.76311 61.2466 4.473 61.2466 2.88156C61.2466 1.29012 59.9583 0 58.3691 0C56.78 0 55.4917 1.29012 55.4917 2.88156C55.4917 4.473 56.78 5.76311 58.3691 5.76311Z" fill="#B7CAE5"/>
<path d="M18.2628 55.1395C21.6141 55.1395 24.3308 52.4189 24.3308 49.0628C24.3308 45.7067 21.6141 42.9861 18.2628 42.9861C14.9116 42.9861 12.1948 45.7067 12.1948 49.0628C12.1948 52.4189 14.9116 55.1395 18.2628 55.1395Z" fill="#B7CAE5"/>
<path d="M4.18893 83.389C5.72026 82.7373 6.4341 80.9658 5.78333 79.4323C5.13256 77.8988 3.36362 77.1839 1.83229 77.8356C0.300958 78.4873 -0.412876 80.2588 0.237893 81.7923C0.888662 83.3258 2.6576 84.0407 4.18893 83.389Z" fill="#F4B545"/>
<path d="M164.835 71.7392C165.237 69.2581 163.555 66.9203 161.077 66.5176C158.6 66.115 156.265 67.7999 155.863 70.281C155.461 72.7621 157.144 75.0999 159.621 75.5025C162.099 75.9052 164.433 74.2203 164.835 71.7392Z" fill="#F4B545"/>
<path d="M171.749 35.5703C172.987 35.5703 173.991 34.5648 173.991 33.3244C173.991 32.084 172.987 31.0785 171.749 31.0785C170.51 31.0785 169.506 32.084 169.506 33.3244C169.506 34.5648 170.51 35.5703 171.749 35.5703Z" fill="#F4B545"/>
</g>
<defs>
<clipPath id="clip0_15078_32734">
<rect width="174" height="122" fill="white"/>
</clipPath>
</defs>
</svg>
