<svg width="181" height="126" viewBox="0 0 181 126" fill="none" xmlns="http://www.w3.org/2000/svg">
<g clip-path="url(#clip0_15078_32593)">
<path d="M149.997 123.042C149.997 123.042 196.298 100.051 167.243 46.7329C138.188 -6.58479 98.1093 63.7494 78.2589 60.8817C58.4084 58.0139 -1.21254 27.5381 1.74962 71.5432C4.70184 115.548 31.3613 123.052 31.3613 123.052H149.997V123.042Z" fill="#ECF3FE" fill-opacity="0.1"/>
<path d="M164.877 83.3039L161.358 84.3731L163.486 85.5222C161.766 88.0302 159.47 88.6097 157.74 88.5298C156.875 88.4898 156.15 88.29 155.712 88.0901C155.514 88.0002 155.325 87.8803 155.146 87.7304C154.112 86.8811 153.347 85.0825 153.526 82.4746C153.744 79.407 158.506 76.0097 158.506 76.0097L159.36 77.3187L159.5 77.5285L159.678 77.0489L160.305 75.3302C161.07 75.0605 161.706 74.9405 162.233 74.9206C163.018 74.8906 163.575 75.0605 163.943 75.2603C164.38 75.5001 164.559 75.7699 164.559 75.7699C166.945 78.7975 164.877 83.3039 164.877 83.3039Z" fill="#B7CAE5"/>
<path d="M155.275 111.961C153.843 101.609 156.478 70.1443 156.507 69.8246L155.672 69.7546C155.643 70.0744 153.018 101.4 154.43 111.961H155.275Z" fill="#92AFCC"/>
<path d="M156.07 111.961C155.643 102.189 154.609 95.4143 153.794 91.4075C152.879 86.8611 152.054 84.8227 152.024 84.7428L151.249 85.0625C151.279 85.1425 154.4 93.0562 155.235 111.961H156.07Z" fill="#92AFCC"/>
<path d="M154.748 111.961C154.222 104.347 156.051 97.8523 157.73 93.6656C159.649 88.8794 161.786 85.9917 161.806 85.9618L161.14 85.4622C161.05 85.5821 158.923 88.4498 156.965 93.3359C155.255 97.6025 153.387 104.217 153.913 111.971H154.748V111.961Z" fill="#92AFCC"/>
<path d="M153.933 111.961C154.092 99.651 155.643 92.077 156.945 87.8403C158.416 83.0641 159.897 81.4055 159.907 81.3855L159.291 80.8159C159.231 80.8859 157.7 82.5745 156.18 87.4806C154.838 91.7772 153.247 99.4611 153.098 111.961H153.933Z" fill="#92AFCC"/>
<path d="M152.84 87.9401C146.279 90.9877 142.472 81.3753 142.472 81.3753L146.19 79.3869L142.104 79.1371C141.707 74.9704 143.466 72.3625 144.888 71.673C145.504 71.3733 146.975 71.3633 148.655 72.0128C150.653 72.7822 152.949 74.4908 154.46 77.7582C154.619 78.1079 154.778 78.4677 154.917 78.8573C157.512 85.8918 152.84 87.9401 152.84 87.9401Z" fill="#B7CAE5"/>
<path d="M158.635 54.7965C158.635 54.7965 163.535 54.8265 163.396 59.6926L161.617 61.721L163.665 62.0907C163.665 62.0907 164.43 65.4081 162.343 67.8462L158.754 66.6771L161.806 69.4149C161.806 69.4149 159.281 74.0612 154.182 71.793C149.082 69.5248 150.544 62.97 150.544 62.97L153.784 63.2598L151.657 60.6119C151.657 60.6019 153.317 55.5359 158.635 54.7965Z" fill="#B7CAE5"/>
<path d="M154.46 77.7683C153.824 77.6983 153.118 77.5185 152.372 77.1787C149.877 76.0696 148.953 73.9213 148.655 72.0228C150.653 72.7922 152.949 74.5009 154.46 77.7683Z" fill="#92AFCC"/>
<path d="M155.683 111.961C155.901 105.746 157.8 101.929 157.82 101.889L157.452 101.699L157.084 101.509C156.995 101.689 155.066 105.556 154.848 111.971H155.683V111.961Z" fill="#92AFCC"/>
<path d="M160.642 101.25C160.642 101.3 162.511 103.128 162.511 103.128C162.511 103.128 161.905 103.908 161.289 104.137L160.225 102.968L160.305 104.497C160.305 104.497 158.525 105.226 156.696 104.497C154.867 103.768 154.619 100.081 155.106 98.5418L155.583 100.61L155.752 97.3927C155.752 97.3927 155.871 96.9131 157.71 95.4443L158.744 94.8547L159.012 94.7048C159.012 94.7048 159.032 94.8347 159.052 95.0346C159.151 95.8539 159.41 97.9323 159.41 97.5826L159.579 95.2944L159.648 94.3951C159.648 94.3951 162.462 93.276 163.465 94.5949C163.625 94.7948 163.764 95.0446 163.883 95.3144C164.549 96.8132 164.619 99.2912 163.088 102.119C163.078 102.109 160.642 101.21 160.642 101.25Z" fill="#B7CAE5"/>
<path d="M151.359 101.03C152.472 102.798 153.685 106.116 153.307 111.961H154.142C154.45 107.055 153.734 103.208 152.015 100.51C150.623 98.342 149.082 97.7724 149.013 97.7524L148.734 98.5418C148.744 98.5418 150.116 99.0614 151.359 101.03Z" fill="#92AFCC"/>
<path d="M151.885 101.14C150.752 102.029 147.104 103.498 143.744 100.42L145.553 98.8115L141.886 98.5817C141.886 98.5817 138.844 94.6648 140.494 91.1676C140.494 91.1676 140.971 89.8686 143.237 89.7287C143.615 89.7088 144.043 89.7088 144.54 89.7687L145.812 91.7272L146.438 90.0285C146.438 90.0285 149.897 91.4474 151.746 93.5157C152.203 94.0353 152.571 94.5949 152.75 95.1844C153.645 98.1021 153.019 100.25 151.885 101.14Z" fill="#B7CAE5"/>
<path d="M164.877 83.3039L161.358 84.373L163.486 85.5221C161.766 88.0301 159.47 88.6097 157.74 88.5297C156.875 88.4898 156.15 88.2899 155.712 88.0901C155.514 88.0001 155.325 87.8802 155.146 87.7304C154.927 85.5121 155.136 79.1272 163.933 75.2603C164.37 75.5001 164.549 75.7698 164.549 75.7698C166.945 78.7974 164.877 83.3039 164.877 83.3039Z" fill="#92AFCC"/>
<path d="M164.688 76.9989C164.688 76.9989 169.33 76.0197 170.533 78.168C171.736 80.3163 170.344 84.3731 169.926 84.463C169.509 84.553 166.219 84.6928 166.219 84.6928L168.913 86.7412C168.913 86.7412 164.877 94.575 158.893 90.5682C152.909 86.5614 160.473 79.2771 160.891 78.9074C160.891 78.9074 162.789 81.4754 162.978 80.9158C163.167 80.3563 163.346 77.6484 163.346 77.6484C163.346 77.6484 163.823 77.1288 164.688 76.9989Z" fill="#B7CAE5"/>
<path d="M151.736 93.5058C147.8 95.1345 144.888 92.2068 143.228 89.7187C143.605 89.6988 144.033 89.6988 144.53 89.7587L145.802 91.7172L146.428 90.0185C146.428 90.0085 149.887 91.4274 151.736 93.5058Z" fill="#92AFCC"/>
<path d="M159.003 94.7048C159.003 94.7048 159.023 94.8347 159.043 95.0346C158.943 94.9846 158.844 94.9247 158.734 94.8647L159.003 94.7048Z" fill="#92AFCC"/>
<path d="M163.873 95.3043C162.641 95.8439 161.19 95.9838 159.569 95.2743L159.639 94.3751C159.639 94.3751 162.452 93.256 163.456 94.5749C163.605 94.7847 163.754 95.0245 163.873 95.3043Z" fill="#92AFCC"/>
<path d="M160.225 111.152V117.317C160.225 119.845 158.168 121.903 155.663 121.903H153.267C150.752 121.903 148.705 119.835 148.705 117.317V111.152H160.225Z" fill="#B7CAE5"/>
<path d="M160.891 110.502H148.029V112.361H160.891V110.502Z" fill="#B7CAE5"/>
<path d="M160.225 112.371V114.649C158.277 114.249 148.893 112.371 148.694 112.371H160.225Z" fill="#92AFCC"/>
<path opacity="0.3" d="M154.003 26.0093L121.29 41.537C120.554 41.8867 120.475 42.9059 121.141 43.3655L126.588 47.1625C127.115 47.5322 127.194 48.2816 126.767 48.7613C107.235 69.9844 83.0601 83.5936 65.5555 91.4474C54.5816 96.3735 44.9695 99.6309 38.8364 101.509C32.1566 103.548 28.0414 104.417 27.9917 104.427H28.0016L31.8286 123.032C31.9479 123.612 32.5244 123.982 33.1009 123.852C37.2758 122.892 53.18 118.936 73.1995 110.013C86.6385 104.017 99.2128 96.983 110.555 89.1092C123.089 80.4161 134.152 70.6739 143.526 60.0823C143.884 59.6826 144.48 59.6126 144.918 59.9124L150.892 64.0691C151.558 64.5387 152.482 64.0991 152.542 63.2797L155.514 27.0385C155.573 26.2391 154.738 25.6596 154.003 26.0093Z" fill="#184B68"/>
<path d="M152.601 23.981L119.888 39.5087C119.153 39.8584 119.073 40.8776 119.739 41.3372L125.186 45.1342C125.713 45.5039 125.793 46.2533 125.365 46.7329C105.833 67.9561 81.6584 81.5653 64.1538 89.4191C53.1799 94.3452 43.5678 97.6126 37.4248 99.4811C30.745 101.519 26.6298 102.389 26.5801 102.399H26.59L30.417 121.004C30.5363 121.584 31.1128 121.953 31.6893 121.823C35.8642 120.864 51.7684 116.907 71.7878 107.984C85.2269 101.989 97.8012 94.9547 109.143 87.0809C121.677 78.3878 132.741 68.6455 142.114 58.054C142.472 57.6543 143.069 57.5843 143.506 57.8841L149.48 62.0408C150.146 62.5104 151.07 62.0708 151.13 61.2514L154.102 25.0102C154.172 24.2208 153.337 23.6313 152.601 23.981Z" fill="#D85656"/>
<path d="M88.0698 126C134.777 126 172.64 124.609 172.64 122.892C172.64 121.176 134.777 119.785 88.0698 119.785C41.3626 119.785 3.49902 121.176 3.49902 122.892C3.49902 124.609 41.3626 126 88.0698 126Z" fill="#B7CAE5"/>
<path opacity="0.3" d="M32.6834 94.7846C32.4746 94.7747 32.2659 94.7747 32.0571 94.7747C30.7947 94.7747 29.5721 94.9545 28.4091 95.2743C27.4747 95.5341 26.5901 95.8938 25.7551 96.3434C25.6855 96.3834 25.6259 96.4134 25.5563 96.4533C25.5563 96.4533 25.5463 96.4533 25.5463 96.4633C25.4966 96.4933 25.4569 96.5133 25.4072 96.5433C25.3177 96.5932 25.2283 96.6432 25.1388 96.7031C25.0791 96.7331 25.0195 96.7731 24.9698 96.813C24.9102 96.853 24.8406 96.893 24.7809 96.9329C24.7213 96.9729 24.6716 97.0029 24.612 97.0429C24.5623 97.0828 24.5026 97.1128 24.4529 97.1528C24.4231 97.1728 24.3833 97.2027 24.3535 97.2227C24.2342 97.3027 24.1249 97.3826 24.0056 97.4725C23.9559 97.5125 23.9162 97.5425 23.8665 97.5824C23.8565 97.5824 23.8565 97.5924 23.8466 97.5924C23.7869 97.6324 23.7372 97.6824 23.6776 97.7223C23.6279 97.7623 23.5682 97.8122 23.5185 97.8522C23.5086 97.8622 23.4987 97.8722 23.4887 97.8822C23.449 97.9122 23.4191 97.9421 23.3794 97.9721C23.2999 98.0321 23.2303 98.102 23.1508 98.172C23.111 98.2119 23.0613 98.2519 23.0215 98.2919C22.9619 98.3518 22.8923 98.4018 22.8327 98.4617C22.783 98.5117 22.7333 98.5517 22.6935 98.6016C22.6836 98.6116 22.6637 98.6316 22.6538 98.6416C22.614 98.6816 22.5742 98.7215 22.5345 98.7615C22.3854 98.9014 22.2462 99.0513 22.107 99.2011C22.0772 99.2411 22.0375 99.2811 22.0076 99.3111C21.9381 99.391 21.8585 99.4809 21.789 99.5609C21.7492 99.6008 21.7194 99.6408 21.6796 99.6908C21.6399 99.7307 21.61 99.7807 21.5703 99.8306C21.5007 99.9206 21.4212 100.011 21.3516 100.1C21.3218 100.14 21.292 100.17 21.2721 100.21C21.2423 100.25 21.2124 100.29 21.1826 100.34C21.1528 100.38 21.123 100.43 21.0932 100.47C21.0733 100.5 21.0534 100.53 21.0335 100.55C20.9739 100.63 20.9142 100.72 20.8546 100.8C20.8546 100.8 20.8546 100.81 20.8447 100.81C20.8148 100.85 20.785 100.9 20.7552 100.94C20.6558 101.09 20.5663 101.24 20.4769 101.399C20.457 101.439 20.4272 101.479 20.4073 101.519C20.2979 101.699 20.1985 101.889 20.0991 102.079C20.0793 102.119 20.0494 102.169 20.0296 102.209C20.0196 102.239 19.9997 102.259 19.9898 102.289C19.96 102.339 19.9401 102.399 19.9103 102.459C19.8805 102.519 19.8506 102.578 19.8208 102.648C19.8109 102.668 19.8009 102.678 19.8009 102.698C19.7811 102.748 19.7612 102.798 19.7314 102.848C19.7214 102.868 19.7115 102.888 19.7015 102.908C19.6817 102.948 19.6717 102.978 19.6518 103.018C19.6419 103.048 19.622 103.078 19.6121 103.108C19.5624 103.228 19.5127 103.338 19.4729 103.458C19.453 103.518 19.4332 103.568 19.4133 103.628C19.3934 103.678 19.3735 103.728 19.3536 103.788C19.3437 103.797 19.3437 103.817 19.3437 103.827C19.3238 103.877 19.3139 103.917 19.294 103.967C19.2542 104.077 19.2145 104.187 19.1846 104.307C19.1648 104.357 19.1548 104.417 19.1349 104.467C19.1349 104.477 19.1349 104.477 19.1349 104.487C19.1151 104.537 19.1051 104.597 19.0852 104.647C19.0654 104.707 19.0455 104.767 19.0355 104.837C19.0256 104.887 19.0057 104.937 18.9958 104.997C18.9858 105.017 18.9858 105.047 18.9759 105.066C18.966 105.106 18.956 105.146 18.9461 105.186C18.9361 105.226 18.9262 105.266 18.9163 105.306C18.8964 105.376 18.8864 105.446 18.8666 105.516C18.8566 105.556 18.8467 105.586 18.8467 105.626C18.8367 105.666 18.8268 105.716 18.8169 105.766C18.8169 105.776 18.8169 105.786 18.8169 105.796C18.8069 105.856 18.797 105.926 18.7771 105.996C18.7771 106.016 18.7672 106.036 18.7672 106.056C18.7572 106.116 18.7473 106.176 18.7373 106.236C18.7274 106.306 18.7175 106.375 18.7075 106.445C18.6976 106.495 18.6976 106.555 18.6876 106.605C18.6678 106.785 18.6479 106.965 18.628 107.155C18.6181 107.235 18.6181 107.315 18.6081 107.395C18.5982 107.555 18.5882 107.714 18.5783 107.874C18.5783 107.944 18.5783 108.004 18.5684 108.074C18.5684 108.164 18.5684 108.264 18.5684 108.354C18.5684 108.674 18.5783 109.003 18.6081 109.323C18.7274 111.012 19.1548 112.621 19.8308 114.089C20.5166 115.558 21.451 116.877 22.5742 118.006C22.7532 118.186 22.9321 118.356 23.1209 118.526C24.612 119.855 26.3912 120.844 28.3594 121.404C29.5323 121.733 30.7649 121.913 32.0472 121.913C39.4923 121.913 45.536 115.848 45.536 108.354C45.5459 101.05 39.8502 95.1144 32.6834 94.7846Z" fill="#184B68"/>
<path d="M44.2845 108.294C44.2845 115.778 38.2508 121.853 30.7957 121.853C29.5134 121.853 28.2809 121.673 27.1079 121.344C25.1398 120.784 23.3605 119.785 21.8695 118.466C21.6806 118.296 21.5017 118.126 21.3228 117.946C20.1896 116.827 19.2552 115.498 18.5793 114.029C17.9034 112.561 17.4759 110.962 17.3567 109.263C17.3368 108.943 17.3169 108.624 17.3169 108.294C17.3169 108.204 17.3169 108.104 17.3169 108.014C17.3169 107.944 17.3169 107.884 17.3268 107.814C17.3368 107.654 17.3368 107.495 17.3567 107.335C17.3666 107.255 17.3666 107.175 17.3765 107.095C17.3964 106.915 17.4163 106.725 17.4362 106.545C17.4461 106.495 17.4461 106.435 17.4561 106.385C17.466 106.316 17.4759 106.246 17.4859 106.176C17.4958 106.116 17.5058 106.056 17.5157 105.996C17.5157 105.976 17.5256 105.956 17.5256 105.936C17.5356 105.866 17.5455 105.806 17.5654 105.736C17.5654 105.726 17.5654 105.716 17.5654 105.706C17.5753 105.656 17.5853 105.616 17.5952 105.566C17.6052 105.526 17.6052 105.496 17.6151 105.456C17.625 105.386 17.6449 105.316 17.6648 105.246C17.6747 105.206 17.6847 105.166 17.6946 105.126C17.7046 105.087 17.7145 105.047 17.7244 105.007C17.7344 104.987 17.7344 104.957 17.7443 104.937C17.7543 104.887 17.7741 104.827 17.7841 104.777C17.804 104.717 17.8139 104.647 17.8338 104.587C17.8537 104.537 17.8636 104.477 17.8835 104.427C17.8835 104.417 17.8835 104.417 17.8835 104.407C17.9034 104.357 17.9133 104.297 17.9332 104.247C17.9729 104.137 18.0028 104.017 18.0425 103.907C18.0624 103.857 18.0723 103.818 18.0922 103.768C18.0922 103.758 18.1022 103.738 18.1022 103.728C18.122 103.678 18.1419 103.618 18.1618 103.568C18.1817 103.508 18.2016 103.458 18.2214 103.398C18.2612 103.278 18.3109 103.168 18.3606 103.048C18.3705 103.018 18.3904 102.988 18.4004 102.958C18.4203 102.918 18.4302 102.888 18.4501 102.848C18.46 102.828 18.47 102.808 18.4799 102.788C18.4998 102.738 18.5197 102.688 18.5495 102.638C18.5594 102.618 18.5594 102.608 18.5694 102.588C18.5992 102.529 18.629 102.469 18.6588 102.399C18.6886 102.339 18.7085 102.289 18.7383 102.229C18.7483 102.199 18.7682 102.179 18.7781 102.149C18.798 102.109 18.8278 102.059 18.8477 102.019C18.9471 101.829 19.0465 101.639 19.1558 101.459C19.1757 101.419 19.1956 101.379 19.2254 101.339C19.3149 101.19 19.4143 101.03 19.5037 100.88C19.5335 100.84 19.5634 100.79 19.5932 100.75C19.5932 100.75 19.5932 100.74 19.6031 100.74C19.6628 100.65 19.7224 100.57 19.782 100.49C19.8019 100.46 19.8218 100.43 19.8417 100.41C19.8715 100.37 19.9013 100.32 19.9312 100.28C19.961 100.24 19.9908 100.2 20.0206 100.15C20.0504 100.11 20.0803 100.08 20.1001 100.041C20.1697 99.9506 20.2393 99.8607 20.3188 99.7707C20.3586 99.7208 20.3884 99.6808 20.4282 99.6308C20.4679 99.5909 20.4977 99.5509 20.5375 99.5009C20.6071 99.421 20.6767 99.3311 20.7562 99.2511C20.786 99.2112 20.8258 99.1712 20.8556 99.1412C20.9947 98.9914 21.1339 98.8415 21.283 98.7016C21.3228 98.6616 21.3625 98.6216 21.4023 98.5817C21.4122 98.5717 21.4321 98.5517 21.4421 98.5417C21.4918 98.4917 21.5415 98.4518 21.5812 98.4018C21.6409 98.3419 21.7005 98.2819 21.7701 98.2319C21.8098 98.192 21.8595 98.152 21.8993 98.112C21.9788 98.0421 22.0484 97.9822 22.1279 97.9122C22.1677 97.8822 22.1975 97.8523 22.2373 97.8223C22.2472 97.8123 22.2571 97.8023 22.2671 97.7923C22.3168 97.7523 22.3764 97.7024 22.4261 97.6624C22.4858 97.6224 22.5355 97.5725 22.5951 97.5325C22.605 97.5225 22.605 97.5225 22.615 97.5225C22.6647 97.4825 22.7044 97.4526 22.7541 97.4126C22.8635 97.3227 22.9828 97.2427 23.1021 97.1628C23.1319 97.1428 23.1716 97.1128 23.2015 97.0929C23.2512 97.0529 23.3108 97.0229 23.3605 96.9829C23.4201 96.943 23.4698 96.913 23.5295 96.873C23.5891 96.8331 23.6587 96.7931 23.7183 96.7531C23.778 96.7132 23.8376 96.6832 23.8873 96.6432C23.9768 96.5933 24.0662 96.5433 24.1557 96.4933C24.2054 96.4634 24.2452 96.4434 24.2949 96.4134C24.2949 96.4134 24.3048 96.4134 24.3048 96.4034C24.3744 96.3634 24.434 96.3335 24.5036 96.2935C25.3386 95.8438 26.2332 95.4841 27.1576 95.2243C28.3206 94.8946 29.5433 94.7247 30.8057 94.7247C31.0144 94.7247 31.2231 94.7247 31.4319 94.7347C38.5789 95.0844 44.2845 101.02 44.2845 108.294Z" fill="#FFC552"/>
<path d="M41.4012 108.294C41.4012 114.179 36.6498 118.956 30.7951 118.956C28.1411 118.956 25.7157 117.976 23.8569 116.358C21.6104 114.399 20.189 111.521 20.189 108.294C20.189 102.409 24.9403 97.6324 30.7951 97.6324C33.6578 97.6324 36.2622 98.7715 38.1707 100.63C40.1587 102.579 41.4012 105.286 41.4012 108.294Z" fill="#ED9015"/>
<path d="M41.401 108.294C41.401 114.179 36.6496 118.956 30.7949 118.956C28.1409 118.956 25.7155 117.976 23.8567 116.358C21.8786 114.419 20.646 111.711 20.646 108.714C20.646 102.828 25.3974 98.0521 31.2521 98.0521C33.8962 98.0521 36.3117 99.0214 38.1705 100.64C40.1585 102.579 41.401 105.286 41.401 108.294Z" fill="#FCAC2B"/>
<path opacity="0.2" d="M31.5504 96.6141C31.5504 96.9638 31.5404 97.3136 31.5106 97.6633C31.5007 97.7932 31.4907 97.9331 31.4709 98.063C30.9341 102.829 27.7831 106.796 23.4989 108.495C22.5943 108.854 21.6401 109.104 20.656 109.244C20.5168 109.264 20.3777 109.284 20.2385 109.294C19.8111 109.344 19.3737 109.364 18.9264 109.364C18.9165 109.364 18.8966 109.364 18.8767 109.364C18.3598 109.364 17.8429 109.334 17.3459 109.274C17.326 108.954 17.3062 108.635 17.3062 108.305C17.3062 108.215 17.3062 108.115 17.3062 108.025C17.3062 107.955 17.3062 107.895 17.3161 107.825C17.326 107.665 17.326 107.505 17.3459 107.346C17.3559 107.266 17.3559 107.186 17.3658 107.106C17.3857 106.926 17.4056 106.736 17.4254 106.556C17.4354 106.506 17.4354 106.446 17.4453 106.396C17.4553 106.326 17.4652 106.256 17.4751 106.187C17.4851 106.127 17.495 106.067 17.505 106.007C17.505 105.987 17.5149 105.967 17.5149 105.947C17.5248 105.877 17.5348 105.817 17.5547 105.747C17.5547 105.737 17.5547 105.727 17.5547 105.717C17.5646 105.667 17.5745 105.627 17.5845 105.577C17.5944 105.537 17.5944 105.507 17.6044 105.467C17.6143 105.397 17.6342 105.327 17.6541 105.257C17.664 105.217 17.6739 105.177 17.6839 105.137C17.6938 105.097 17.7038 105.057 17.7137 105.017C17.7236 104.997 17.7236 104.967 17.7336 104.947C17.7435 104.898 17.7634 104.838 17.7733 104.788C17.7932 104.728 17.8032 104.658 17.823 104.598C17.8429 104.548 17.8529 104.488 17.8727 104.438C17.8727 104.428 17.8727 104.428 17.8727 104.418C17.8926 104.368 17.9026 104.308 17.9224 104.258C17.9523 104.148 17.992 104.028 18.0318 103.918C18.0517 103.868 18.0616 103.828 18.0815 103.778C18.0815 103.768 18.0914 103.748 18.0914 103.738C18.1113 103.688 18.1312 103.629 18.1511 103.579C18.1709 103.519 18.1908 103.469 18.2107 103.409C18.2505 103.289 18.3002 103.179 18.3499 103.059C18.3598 103.029 18.3797 102.999 18.3896 102.969C18.4095 102.929 18.4194 102.899 18.4393 102.859C18.4493 102.839 18.4592 102.819 18.4691 102.799C18.489 102.749 18.5089 102.699 18.5387 102.649C18.5487 102.629 18.5487 102.619 18.5586 102.599C18.5884 102.539 18.6183 102.479 18.6481 102.41C18.6779 102.35 18.6978 102.3 18.7276 102.24C18.7375 102.21 18.7574 102.19 18.7674 102.16C18.7872 102.12 18.8171 102.07 18.8369 102.03C18.9363 101.84 19.0357 101.65 19.1451 101.47C19.165 101.43 19.1848 101.39 19.2147 101.35C19.3041 101.2 19.4035 101.041 19.493 100.891C19.5228 100.851 19.5526 100.801 19.5824 100.761C19.5824 100.761 19.5824 100.751 19.5924 100.751C19.652 100.661 19.7117 100.581 19.7713 100.501C19.7912 100.471 19.8111 100.441 19.8309 100.421C19.8608 100.381 19.8906 100.331 19.9204 100.291C19.9502 100.251 19.98 100.211 20.0099 100.161C20.0397 100.121 20.0695 100.091 20.0894 100.051C20.159 99.9614 20.2286 99.8715 20.3081 99.7816C20.3478 99.7316 20.3777 99.6917 20.4174 99.6417C20.4572 99.6017 20.487 99.5618 20.5268 99.5118C20.5963 99.4319 20.6659 99.3419 20.7454 99.262C20.7753 99.222 20.815 99.1821 20.8448 99.1521C20.984 99.0022 21.1232 98.8523 21.2723 98.7124C21.312 98.6725 21.3518 98.6325 21.3915 98.5925C21.4015 98.5825 21.4214 98.5626 21.4313 98.5526C21.481 98.5026 21.5307 98.4626 21.5705 98.4127C21.6301 98.3527 21.6898 98.2928 21.7593 98.2428C21.7991 98.2028 21.8488 98.1629 21.8886 98.1229C21.9681 98.053 22.0377 97.993 22.1172 97.9231C22.1569 97.8931 22.1868 97.8631 22.2265 97.8331C22.2365 97.8231 22.2464 97.8132 22.2563 97.8032C22.306 97.7632 22.3657 97.7132 22.4154 97.6733C22.475 97.6333 22.5247 97.5833 22.5844 97.5434C22.5943 97.5334 22.5943 97.5334 22.6042 97.5334C22.6539 97.4934 22.6937 97.4634 22.7434 97.4235C22.8528 97.3335 22.972 97.2536 23.0913 97.1737C23.1211 97.1537 23.1609 97.1237 23.1907 97.1037C23.2404 97.0637 23.3001 97.0338 23.3498 96.9938C23.4094 96.9538 23.4591 96.9239 23.5187 96.8839C23.5784 96.8439 23.648 96.804 23.7076 96.764C23.7672 96.724 23.8269 96.694 23.8766 96.6541C23.966 96.6041 24.0555 96.5542 24.145 96.5042C24.1947 96.4742 24.2344 96.4542 24.2841 96.4243C24.2841 96.4243 24.2941 96.4243 24.2941 96.4143C24.3637 96.3743 24.4233 96.3443 24.4929 96.3044C25.3278 95.8547 26.2225 95.495 27.1469 95.2352C28.3099 94.9055 29.5325 94.7356 30.7949 94.7356C31.0037 94.7356 31.2124 94.7356 31.4212 94.7456C31.5106 95.3651 31.5504 95.9846 31.5504 96.6141Z" fill="#FFEF7D"/>
<path d="M63.4592 74.3801C66.1321 73.2671 67.4014 70.1867 66.2942 67.4998C65.187 64.8129 62.1226 63.537 59.4497 64.6499C56.7767 65.7629 55.5074 68.8433 56.6146 71.5303C57.7218 74.2172 60.7862 75.4931 63.4592 74.3801Z" fill="#F4B545"/>
<path d="M171.163 69.895C171.377 68.5713 170.482 67.3241 169.166 67.1093C167.849 66.8944 166.608 67.7933 166.394 69.117C166.181 70.4407 167.075 71.6879 168.392 71.9028C169.708 72.1176 170.949 71.2187 171.163 69.895Z" fill="#F4B545"/>
<path d="M33.5798 24.5294C33.9368 23.0095 33.0005 21.4865 31.4886 21.1276C29.9766 20.7687 28.4615 21.7098 28.1044 23.2297C27.7474 24.7496 28.6837 26.2726 30.1957 26.6315C31.7077 26.9904 33.2228 26.0492 33.5798 24.5294Z" fill="#F4B545"/>
<path d="M8.11932 59.9283C9.9399 58.0982 9.9399 55.131 8.11932 53.301C6.29875 51.4709 3.34701 51.4709 1.52643 53.301C-0.294149 55.131 -0.294152 58.0982 1.52643 59.9283C3.347 61.7584 6.29875 61.7584 8.11932 59.9283Z" fill="#B7CAE5"/>
<path d="M177.541 48.0219C179.452 48.0219 181 46.4651 181 44.5446C181 42.6242 179.452 41.0674 177.541 41.0674C175.631 41.0674 174.082 42.6242 174.082 44.5446C174.082 46.4651 175.631 48.0219 177.541 48.0219Z" fill="#B7CAE5"/>
<path d="M84.6108 44.5546C85.9448 44.5546 87.0262 43.4675 87.0262 42.1266C87.0262 40.7856 85.9448 39.6985 84.6108 39.6985C83.2767 39.6985 82.1953 40.7856 82.1953 42.1266C82.1953 43.4675 83.2767 44.5546 84.6108 44.5546Z" fill="#B7CAE5"/>
<path d="M127.921 8.15497C129.777 6.28976 129.777 3.26566 127.921 1.40045C126.066 -0.464755 123.058 -0.464751 121.202 1.40046C119.346 3.26567 119.346 6.28976 121.202 8.15497C123.058 10.0202 126.066 10.0202 127.921 8.15497Z" fill="#B7CAE5"/>
<path opacity="0.3" d="M153.376 104.577H152.661V104.077V98.8316H154.5V98.332V93.0861H153.178V92.5865V87.3407H154.798V86.8411V81.5953H153.943V81.0956V75.8498H152.879V75.3502V70.1044H150.891H136.19H126.737H124.053H121.628V75.3502V75.8498H122.701V81.0956V81.5953H123.556V86.8411V87.3407H121.926V92.5865V93.0861H123.258V98.332V98.8316H121.419V104.077V104.577H123.844H124.103V109.823V110.322H122.483V115.568V116.068H123.546V121.314V121.813H125.981H128.655H138.108H152.82H154.798V121.314V116.068H153.734V115.568V110.322H155.355V109.823V104.577H153.376Z" fill="#184B68"/>
<path d="M152.969 116.068H121.717V121.813H152.969V116.068Z" fill="#FFC552"/>
<path d="M126.826 116.068H124.143V121.813H126.826V116.068Z" fill="#FFDA71"/>
<path d="M150.981 116.068H136.27V121.813H150.981V116.068Z" fill="#FCAC2B"/>
<path d="M152.969 121.314H121.717V121.813H152.969V121.314Z" fill="#EF9D26"/>
<path d="M151.895 110.323H120.644V116.068H151.895V110.323Z" fill="#FFC552"/>
<path d="M125.753 110.323H123.069V116.068H125.753V110.323Z" fill="#FFDA71"/>
<path d="M149.907 110.323H135.196V116.068H149.907V110.323Z" fill="#FCAC2B"/>
<path d="M151.895 115.568H120.644V116.068H151.895V115.568Z" fill="#EF9D26"/>
<path d="M153.516 104.577H122.264V110.322H153.516V104.577Z" fill="#FFC552"/>
<path d="M127.384 104.577H124.7V110.322H127.384V104.577Z" fill="#FFDA71"/>
<path d="M151.538 104.577H136.826V110.322H151.538V104.577Z" fill="#FCAC2B"/>
<path d="M153.516 109.823H122.264V110.322H153.516V109.823Z" fill="#EF9D26"/>
<path d="M150.832 98.8315H119.58V104.577H150.832V98.8315Z" fill="#FFC552"/>
<path d="M124.689 98.8315H122.005V104.577H124.689V98.8315Z" fill="#FFDA71"/>
<path d="M148.844 98.8315H134.132V104.577H148.844V98.8315Z" fill="#FCAC2B"/>
<path d="M150.832 104.077H119.58V104.577H150.832V104.077Z" fill="#EF9D26"/>
<path d="M152.671 93.0862H121.419V98.8316H152.671V93.0862Z" fill="#FFC552"/>
<path d="M126.528 93.0862H123.844V98.8316H126.528V93.0862Z" fill="#FFDA71"/>
<path d="M150.683 93.0862H135.971V98.8316H150.683V93.0862Z" fill="#FCAC2B"/>
<path d="M152.671 98.332H121.419V98.8317H152.671V98.332Z" fill="#EF9D26"/>
<path d="M151.339 87.3407H120.087V93.0861H151.339V87.3407Z" fill="#FFC552"/>
<path d="M125.206 87.3407H122.522V93.0861H125.206V87.3407Z" fill="#FFDA71"/>
<path d="M149.36 87.3407H134.649V93.0861H149.36V87.3407Z" fill="#FCAC2B"/>
<path d="M151.339 92.5865H120.087V93.0862H151.339V92.5865Z" fill="#EF9D26"/>
<path d="M152.969 81.5952H121.717V87.3407H152.969V81.5952Z" fill="#FFC552"/>
<path d="M126.826 81.5952H124.143V87.3407H126.826V81.5952Z" fill="#FFDA71"/>
<path d="M150.981 81.5952H136.27V87.3407H150.981V81.5952Z" fill="#FCAC2B"/>
<path d="M152.969 86.8411H121.717V87.3407H152.969V86.8411Z" fill="#EF9D26"/>
<path d="M152.114 75.8499H120.862V81.5953H152.114V75.8499Z" fill="#FFC552"/>
<path d="M125.971 75.8499H123.288V81.5953H125.971V75.8499Z" fill="#FFDA71"/>
<path d="M150.126 75.8499H135.415V81.5953H150.126V75.8499Z" fill="#FCAC2B"/>
<path d="M152.114 81.0957H120.862V81.5953H152.114V81.0957Z" fill="#EF9D26"/>
<path d="M151.04 70.1044H119.789V75.8498H151.04V70.1044Z" fill="#FFC552"/>
<path d="M124.898 70.1044H122.214V75.8498H124.898V70.1044Z" fill="#FFDA71"/>
<path d="M149.062 70.1044H134.351V75.8498H149.062V70.1044Z" fill="#FCAC2B"/>
<path d="M151.04 75.3502H119.789V75.8498H151.04V75.3502Z" fill="#EF9D26"/>
<path opacity="0.3" d="M80.6645 110.322V109.823V104.577H78.6764H63.975H54.5219H51.848H49.4127V109.823V110.322H50.4464V115.568V116.068H49.2139V121.314V121.813H51.6393H54.3231H63.7662H78.4776H80.4657V121.314V116.068H81.6883V115.568V110.322H80.6645Z" fill="#184B68"/>
<path d="M78.2889 116.068H47.0371V121.813H78.2889V116.068Z" fill="#FFC552"/>
<path d="M52.1565 116.068H49.4727V121.813H52.1565V116.068Z" fill="#FFDA71"/>
<path d="M76.311 116.068H61.5996V121.813H76.311V116.068Z" fill="#FCAC2B"/>
<path d="M78.2889 121.314H47.0371V121.813H78.2889V121.314Z" fill="#EF9D26"/>
<path d="M79.5213 110.322H48.2695V116.068H79.5213V110.322Z" fill="#FFC552"/>
<path d="M53.3787 110.322H50.6948V116.068H53.3787V110.322Z" fill="#FFDA71"/>
<path d="M77.5332 110.322H62.8218V116.068H77.5332V110.322Z" fill="#FCAC2B"/>
<path d="M79.5213 115.568H48.2695V116.068H79.5213V115.568Z" fill="#EF9D26"/>
<path d="M78.4974 104.577H47.2456V110.322H78.4974V104.577Z" fill="#FFC552"/>
<path d="M52.3547 104.577H49.6709V110.322H52.3547V104.577Z" fill="#FFDA71"/>
<path d="M76.5093 104.577H61.7979V110.322H76.5093V104.577Z" fill="#FCAC2B"/>
<path d="M78.4974 109.823H47.2456V110.322H78.4974V109.823Z" fill="#EF9D26"/>
<path opacity="0.3" d="M116.867 116.068V115.568V110.322H118.02V109.823V104.577H116.588V104.077V98.8316H117.821V98.332V93.0861H116.797V92.5865V87.3407H114.809H100.098H90.6544H87.9706H85.5452V92.5865V93.0861H86.569V98.332V98.8316H85.3364V104.077V104.577H86.7678V109.823V110.322H85.6147V115.568V116.068H87.0263V121.314V121.813H89.4516H92.1355H101.579H116.29H118.278V121.314V116.068H116.867Z" fill="#184B68"/>
<path d="M115.843 116.068H84.5908V121.813H115.843V116.068Z" fill="#FFC552"/>
<path d="M89.7102 116.068H87.0264V121.813H89.7102V116.068Z" fill="#FFDA71"/>
<path d="M113.865 116.068H99.1533V121.813H113.865V116.068Z" fill="#FCAC2B"/>
<path d="M115.843 121.314H84.5908V121.813H115.843V121.314Z" fill="#EF9D26"/>
<path d="M114.431 110.323H83.1797V116.068H114.431V110.323Z" fill="#FFC552"/>
<path d="M88.2991 110.323H85.6152V116.068H88.2991V110.323Z" fill="#FFDA71"/>
<path d="M112.454 110.323H97.7422V116.068H112.454V110.323Z" fill="#FCAC2B"/>
<path d="M114.431 115.568H83.1797V116.068H114.431V115.568Z" fill="#EF9D26"/>
<path d="M115.594 104.577H84.3423V110.322H115.594V104.577Z" fill="#FFC552"/>
<path d="M89.4514 104.577H86.7676V110.322H89.4514V104.577Z" fill="#FFDA71"/>
<path d="M113.606 104.577H98.8945V110.322H113.606V104.577Z" fill="#FCAC2B"/>
<path d="M115.594 109.823H84.3423V110.322H115.594V109.823Z" fill="#EF9D26"/>
<path d="M114.163 98.8315H82.9111V104.577H114.163V98.8315Z" fill="#FFC552"/>
<path d="M88.0203 98.8315H85.3364V104.577H88.0203V98.8315Z" fill="#FFDA71"/>
<path d="M112.185 98.8315H97.4736V104.577H112.185V98.8315Z" fill="#FCAC2B"/>
<path d="M114.163 104.077H82.9111V104.577H114.163V104.077Z" fill="#EF9D26"/>
<path d="M115.395 93.0861H84.1436V98.8315H115.395V93.0861Z" fill="#FFC552"/>
<path d="M89.2527 93.0861H86.5688V98.8315H89.2527V93.0861Z" fill="#FFDA71"/>
<path d="M113.407 93.0861H98.6958V98.8315H113.407V93.0861Z" fill="#FCAC2B"/>
<path d="M115.395 98.3319H84.1436V98.8315H115.395V98.3319Z" fill="#EF9D26"/>
<path d="M114.362 87.3407H83.1099V93.0861H114.362V87.3407Z" fill="#FFC552"/>
<path d="M88.2293 87.3407H85.5454V93.0861H88.2293V87.3407Z" fill="#FFDA71"/>
<path d="M112.383 87.3407H97.6719V93.0861H112.383V87.3407Z" fill="#FCAC2B"/>
<path d="M114.362 92.5865H83.1099V93.0862H114.362V92.5865Z" fill="#EF9D26"/>
</g>
<defs>
<clipPath id="clip0_15078_32593">
<rect width="181" height="126" fill="white"/>
</clipPath>
</defs>
</svg>
